<svg xmlns="http://www.w3.org/2000/svg" width="38" height="50" viewBox="0 0 38 50" fill="none">
    <path d="M14.0747 14.357C14.6492 14.2293 15.0898 14.1015 15.536 14.0349C18.0293 13.6407 20.2102 14.7623 21.2811 17.0332C21.5377 17.5774 21.7552 17.7162 22.3297 17.4441C23.3225 16.9666 24.3823 16.9666 25.4477 17.2331C25.7656 17.3109 26.0891 17.3719 26.5186 17.4663C26.5353 17.1221 26.5576 16.8778 26.5576 16.6335C26.5576 15.0288 26.5242 13.4297 26.5688 11.825C26.6301 9.6207 27.3943 7.77728 29.5473 6.79449C31.678 5.82281 33.7027 6.09488 35.5489 7.47189C36.592 8.24924 37.0884 9.40415 37.2836 10.6646C37.3952 11.3753 37.4286 12.1027 37.4286 12.8245C37.4398 19.5152 37.4398 26.2115 37.4286 32.9022C37.4286 36.7334 36.6589 40.3425 34.2214 43.4408C31.176 47.3164 27.1823 49.3708 22.2405 49.5152C20.0094 49.5818 17.7783 49.5485 15.5472 49.5263C8.64753 49.4597 2.8188 45.2065 0.810817 38.6379C-0.170864 35.4286 -0.215486 32.1138 0.431531 28.8267C0.70484 27.433 1.50803 26.2615 2.60685 25.3342C3.04191 24.9677 3.20367 24.568 3.20367 24.0016C3.18693 17.9272 3.1702 11.8583 3.20367 5.78394C3.21482 3.87944 3.73355 2.15818 5.43476 1.00326C8.51367 -1.07891 12.9033 0.325864 13.7623 3.7795C13.9631 4.5735 14.0468 5.41193 14.0579 6.22814C14.097 8.63236 14.0691 11.0366 14.0691 13.4352C14.0691 13.7073 14.0691 13.9794 14.0691 14.357H14.0747ZM34.333 23.1798C34.333 21.3697 34.333 19.5596 34.333 17.7495C34.333 15.8117 34.3497 13.8739 34.333 11.9361C34.3163 10.0871 33.0167 8.99327 31.3768 9.3986C30.278 9.67067 29.6254 10.6535 29.6198 12.0971C29.6142 17.5274 29.6198 22.9522 29.6198 28.3825C29.6198 29.5707 29.3577 30.6868 28.6995 31.6918C27.1991 33.9738 23.5903 34.9899 20.9687 32.8967C20.5114 32.5302 20.199 32.5024 19.6914 32.8633C19.0946 33.2909 18.3918 33.7795 17.7002 33.835C15.4579 34.0127 13.199 34.0071 10.9511 34.0571C10.7782 34.0571 10.5997 33.9738 10.4268 33.9128C9.69615 33.6573 9.46188 33.0854 9.5065 32.3858C9.55113 31.6973 9.91368 31.2198 10.6332 31.1032C11.0906 31.031 11.5591 30.9811 12.0221 30.9755C13.3998 30.9588 14.7719 30.9977 16.1496 30.9533C16.6516 30.9366 17.2038 30.8478 17.6277 30.609C18.5703 30.0704 18.9384 29.0488 18.6707 28.0882C18.3416 26.9111 17.4882 26.2615 16.1105 26.2503C13.4388 26.2226 10.7615 26.1948 8.08976 26.2559C5.07778 26.3225 3.18135 28.3103 3.15347 31.3031C3.14789 31.925 3.15347 32.5413 3.15347 33.1632C3.11442 36.7001 4.03475 39.9039 6.48337 42.558C8.27383 44.5013 10.4603 45.8561 13.0986 46.1449C15.6643 46.428 18.2691 46.5002 20.8572 46.4725C22.497 46.4502 24.1759 46.2337 25.76 45.8228C28.8724 45.0177 31.1091 43.0077 32.7099 40.2537C33.9258 38.1549 34.3497 35.8783 34.3497 33.4908C34.3497 30.0538 34.3497 26.6168 34.3497 23.1798H34.333ZM10.9679 14.0516C10.9679 11.3642 10.9679 8.67678 10.9679 5.98938C10.9679 5.60626 10.9344 5.21204 10.8507 4.84002C10.583 3.674 9.45073 2.94663 8.26825 3.15207C6.93517 3.38527 6.25468 4.30699 6.2491 5.93386C6.24353 10.87 6.2491 15.8006 6.2491 20.7367C6.2491 21.4086 6.26584 22.0804 6.2491 22.7523C6.23795 23.2742 6.46664 23.4075 6.96863 23.3686C8.0284 23.2909 9.08817 23.2298 10.1479 23.2409C10.7838 23.252 11.0013 23.0799 10.9958 22.4191C10.9623 19.6318 10.979 16.8389 10.979 14.0516H10.9679ZM21.85 25.4675C21.85 26.4502 21.8389 27.433 21.85 28.4158C21.8723 29.9483 22.8094 30.9644 24.1871 30.9588C25.5648 30.9588 26.5353 29.9316 26.5465 28.4325C26.5632 26.4669 26.5632 24.5013 26.5465 22.5413C26.5353 21.1476 25.47 20.0705 24.1648 20.0927C22.8652 20.1149 21.8668 21.1532 21.85 22.5246C21.8389 23.5074 21.85 24.4902 21.85 25.473V25.4675ZM18.7321 23.4963C18.7321 22.0138 18.8269 20.4647 18.6986 18.9377C18.6094 17.8217 17.3432 16.9278 16.3113 17.0166C15.0508 17.1276 14.1304 18.0327 14.0858 19.2875C14.0468 20.4203 14.0468 21.5585 14.0914 22.6912C14.097 22.88 14.4205 23.1965 14.6213 23.2131C15.9544 23.3409 17.2874 23.4075 18.7265 23.4963H18.7321Z" fill="url(#paint0_linear_5367_10651)"/>
    <defs>
      <linearGradient id="paint0_linear_5367_10651" x1="1.48296" y1="0.0284429" x2="46.3644" y2="36.8736" gradientUnits="userSpaceOnUse">
        <stop stop-color="#ED6A7D"/>
        <stop offset="1" stop-color="#EA35FA"/>
      </linearGradient>
    </defs>
  </svg>