<svg xmlns="http://www.w3.org/2000/svg" width="64" height="49" viewBox="0 0 64 49" fill="none">
    <path d="M32.6386 0C30.1367 0 28.0328 1.58102 27.3505 3.70722C26.5544 3.27107 25.6446 3.053 24.678 3.053C21.6074 3.053 19.1055 5.45179 19.1055 8.39576V27.5315L15.8644 24.424C13.7037 22.3523 10.1782 22.3523 7.96064 24.424C5.74303 26.4957 5.79989 29.8758 7.96064 32.002L18.3095 41.9243C22.9153 46.3402 29.2269 48.8481 35.766 48.8481H36.6189C40.3149 48.8481 43.7835 47.7577 46.6266 45.8496C45.6599 45.3044 44.9207 44.5411 44.409 43.6143C42.1914 44.9773 39.5189 45.795 36.6189 45.795H35.766C30.0798 45.795 24.6211 43.6143 20.5839 39.7436L10.2351 29.8213C9.32532 28.949 9.32532 27.477 10.2351 26.6047C11.1449 25.7325 12.6802 25.7325 13.5899 26.6047L19.5036 32.2746C19.9584 32.7107 20.6408 32.8198 21.2094 32.6017C21.778 32.3836 22.1761 31.7839 22.1761 31.1842V8.39576C22.1761 7.14185 23.2564 6.10601 24.5642 6.10601C25.8721 6.10601 27.0662 7.14185 27.0662 8.39576V22.8975C27.0662 23.7153 27.8054 24.424 28.6583 24.424C29.5112 24.424 30.2504 23.7153 30.2504 22.8975V7.63251V5.34276C30.2504 4.08884 31.3308 3.053 32.6386 3.053C33.9464 3.053 35.0268 4.08884 35.0268 5.34276V8.39576V22.8975C35.0268 23.7153 35.766 24.424 36.6189 24.424C37.4718 24.424 38.211 23.7153 38.211 22.8975V8.39576C38.211 7.14185 39.2914 6.10601 40.5992 6.10601C41.9071 6.10601 42.9874 7.14185 42.9874 8.39576V14.5018V22.8975C42.9874 23.7153 43.7266 24.424 44.5796 24.424C45.4325 24.424 46.1717 23.7153 46.1717 22.8975V14.5018C46.1717 13.2479 47.2521 12.212 48.5599 12.212C49.8677 12.212 50.9481 13.2479 50.9481 14.5018V32.0565V32.3836C51.6304 31.2388 52.7676 30.3665 54.1323 29.9849V14.5018C54.1323 11.5578 51.6304 9.15901 48.5599 9.15901C47.707 9.15901 46.9109 9.32256 46.1717 9.64967V8.39576C46.1717 5.45179 43.6698 3.053 40.5992 3.053C39.6326 3.053 38.7228 3.27107 37.9267 3.70722C37.2444 1.58102 35.1405 0 32.6386 0ZM9.55276 7.63251C9.55276 6.81474 8.81356 6.10601 7.96064 6.10601C7.10771 6.10601 6.36851 6.81474 6.36851 7.63251V12.212H1.59213C0.739201 12.212 0 12.9207 0 13.7385C0 14.5563 0.739201 15.265 1.59213 15.265H6.36851V18.318C6.36851 19.1358 7.10771 19.8445 7.96064 19.8445C8.81356 19.8445 9.55276 19.1358 9.55276 18.318V15.265H14.3291C15.1821 15.265 15.9213 14.5563 15.9213 13.7385C15.9213 12.9207 15.1821 12.212 14.3291 12.212H9.55276V7.63251ZM33.4347 29.0035C33.4347 28.1858 32.6955 27.477 31.8425 27.477C30.9896 27.477 30.2504 28.1858 30.2504 29.0035V32.0565H27.0662C26.2132 32.0565 25.474 32.7653 25.474 33.583C25.474 34.4008 26.2132 35.1095 27.0662 35.1095H30.2504V38.1625C30.2504 38.9803 30.9896 39.689 31.8425 39.689C32.6955 39.689 33.4347 38.9803 33.4347 38.1625V35.1095H36.6189C37.4718 35.1095 38.211 34.4008 38.211 33.583C38.211 32.7653 37.4718 32.0565 36.6189 32.0565H33.4347V29.0035ZM57.3166 35.1641C57.3166 34.3463 56.5774 33.6376 55.7244 33.6376C54.8715 33.6376 54.1323 34.3463 54.1323 35.1641V39.7436H49.3559C48.503 39.7436 47.7638 40.4523 47.7638 41.2701C47.7638 42.0878 48.503 42.7966 49.3559 42.7966H54.1323V47.3761C54.1323 48.1938 54.8715 48.9026 55.7244 48.9026C56.5774 48.9026 57.3166 48.1938 57.3166 47.3761V42.7966H62.093C62.9459 42.7966 63.6851 42.0878 63.6851 41.2701C63.6851 40.4523 62.9459 39.7436 62.093 39.7436H57.3166V35.1641Z" fill="url(#paint0_linear_5367_10646)"/>
    <defs>
      <linearGradient id="paint0_linear_5367_10646" x1="2.52271" y1="4.78592e-07" x2="45.1193" y2="60.2458" gradientUnits="userSpaceOnUse">
        <stop stop-color="#ED6A7D"/>
        <stop offset="1" stop-color="#EA35FA"/>
      </linearGradient>
    </defs>
  </svg>