<svg xmlns="http://www.w3.org/2000/svg" width="23" height="23" viewBox="0 0 23 23" fill="none">
  <path d="M11.5 22.5C14.4174 22.5 17.2153 21.3411 19.2782 19.2782C21.3411 17.2153 22.5 14.4174 22.5 11.5C22.5 8.58262 21.3411 5.78473 19.2782 3.72183C17.2153 1.65893 14.4174 0.5 11.5 0.5C8.58262 0.5 5.78473 1.65893 3.72183 3.72183C1.65893 5.78473 0.5 8.58262 0.5 11.5C0.5 14.4174 1.65893 17.2153 3.72183 19.2782C5.78473 21.3411 8.58262 22.5 11.5 22.5ZM10.4688 15.2812V12.5312H7.71875C7.14727 12.5312 6.6875 12.0715 6.6875 11.5C6.6875 10.9285 7.14727 10.4688 7.71875 10.4688H10.4688V7.71875C10.4688 7.14727 10.9285 6.6875 11.5 6.6875C12.0715 6.6875 12.5312 7.14727 12.5312 7.71875V10.4688H15.2812C15.8527 10.4688 16.3125 10.9285 16.3125 11.5C16.3125 12.0715 15.8527 12.5312 15.2812 12.5312H12.5312V15.2812C12.5312 15.8527 12.0715 16.3125 11.5 16.3125C10.9285 16.3125 10.4688 15.8527 10.4688 15.2812Z" fill="#8C8C8C"/>
</svg>