<svg width="23" height="22" viewBox="0 0 23 22" fill="none" xmlns="http://www.w3.org/2000/svg">
    <path
        d="M11.5 22C14.4174 22 17.2153 20.8411 19.2782 18.7782C21.3411 16.7153 22.5 13.9174 22.5 11C22.5 8.08262 21.3411 5.28473 19.2782 3.22183C17.2153 1.15893 14.4174 0 11.5 0C8.58262 0 5.78473 1.15893 3.72183 3.22183C1.65893 5.28473 0.5 8.08262 0.5 11C0.5 13.9174 1.65893 16.7153 3.72183 18.7782C5.78473 20.8411 8.58262 22 11.5 22ZM10.4688 14.7812V12.0312H7.71875C7.14727 12.0312 6.6875 11.5715 6.6875 11C6.6875 10.4285 7.14727 9.96875 7.71875 9.96875H10.4688V7.21875C10.4688 6.64727 10.9285 6.1875 11.5 6.1875C12.0715 6.1875 12.5312 6.64727 12.5312 7.21875V9.96875H15.2812C15.8527 9.96875 16.3125 10.4285 16.3125 11C16.3125 11.5715 15.8527 12.0312 15.2812 12.0312H12.5312V14.7812C12.5312 15.3527 12.0715 15.8125 11.5 15.8125C10.9285 15.8125 10.4688 15.3527 10.4688 14.7812Z"
        fill="black" />
</svg>