<svg width="22" height="23" viewBox="0 0 22 23" fill="none" xmlns="http://www.w3.org/2000/svg">
<path d="M11 22.5C13.9174 22.5 16.7153 21.3411 18.7782 19.2782C20.8411 17.2153 22 14.4174 22 11.5C22 8.58262 20.8411 5.78473 18.7782 3.72183C16.7153 1.65893 13.9174 0.5 11 0.5C8.08262 0.5 5.28473 1.65893 3.22183 3.72183C1.15893 5.78473 0 8.58262 0 11.5C0 14.4174 1.15893 17.2153 3.22183 19.2782C5.28473 21.3411 8.08262 22.5 11 22.5ZM9.96875 15.2812V12.5312H7.21875C6.64727 12.5312 6.1875 12.0715 6.1875 11.5C6.1875 10.9285 6.64727 10.4688 7.21875 10.4688H9.96875V7.71875C9.96875 7.14727 10.4285 6.6875 11 6.6875C11.5715 6.6875 12.0312 7.14727 12.0312 7.71875V10.4688H14.7812C15.3527 10.4688 15.8125 10.9285 15.8125 11.5C15.8125 12.0715 15.3527 12.5312 14.7812 12.5312H12.0312V15.2812C12.0312 15.8527 11.5715 16.3125 11 16.3125C10.4285 16.3125 9.96875 15.8527 9.96875 15.2812Z" fill="url(#paint0_linear_6655_47735)"/>
<defs>
<linearGradient id="paint0_linear_6655_47735" x1="0.871469" y1="0.5" x2="21.1285" y2="22.5" gradientUnits="userSpaceOnUse">
<stop stop-color="#ED6A7D"/>
<stop offset="1" stop-color="#EA35FA"/>
</linearGradient>
</defs>
</svg>
