<svg width="15" height="14" viewBox="0 0 15 14" fill="none" xmlns="http://www.w3.org/2000/svg">
<path fill-rule="evenodd" clip-rule="evenodd" d="M3.78125 0.875H5.75C6.33016 0.875 6.88656 1.10547 7.2968 1.5157C7.70703 1.92594 7.9375 2.48234 7.9375 3.0625V4.15625C7.9375 4.76058 8.4275 5.25 9.03125 5.25H10.125C10.7052 5.25 11.2616 5.48047 11.6718 5.8907C12.082 6.30094 12.3125 6.85734 12.3125 7.4375V12.0312C12.3125 12.635 11.8225 13.125 11.2188 13.125H3.78125C3.49117 13.125 3.21297 13.0098 3.00785 12.8046C2.80273 12.5995 2.6875 12.3213 2.6875 12.0312V1.96875C2.6875 1.36442 3.1775 0.875 3.78125 0.875ZM7.9375 7C7.9375 6.88397 7.89141 6.77269 7.80936 6.69064C7.72731 6.60859 7.61603 6.5625 7.5 6.5625C7.38397 6.5625 7.27269 6.60859 7.19064 6.69064C7.10859 6.77269 7.0625 6.88397 7.0625 7V8.3125H5.75C5.63397 8.3125 5.52269 8.35859 5.44064 8.44064C5.35859 8.52269 5.3125 8.63397 5.3125 8.75C5.3125 8.86603 5.35859 8.97731 5.44064 9.05936C5.52269 9.14141 5.63397 9.1875 5.75 9.1875H7.0625V10.5C7.0625 10.616 7.10859 10.7273 7.19064 10.8094C7.27269 10.8914 7.38397 10.9375 7.5 10.9375C7.61603 10.9375 7.72731 10.8914 7.80936 10.8094C7.89141 10.7273 7.9375 10.616 7.9375 10.5V9.1875H9.25C9.36603 9.1875 9.47731 9.14141 9.55936 9.05936C9.64141 8.97731 9.6875 8.86603 9.6875 8.75C9.6875 8.63397 9.64141 8.52269 9.55936 8.44064C9.47731 8.35859 9.36603 8.3125 9.25 8.3125H7.9375V7Z" fill="#E5E5E5"/>
<path d="M8.81249 3.06274C8.81351 2.32689 8.54854 1.61547 8.06641 1.05957C9.04244 1.31633 9.93279 1.82766 10.6464 2.5413C11.3601 3.25494 11.8714 4.14529 12.1282 5.12132C11.5723 4.63919 10.8608 4.37422 10.125 4.37524H9.03124C8.97322 4.37524 8.91758 4.35219 8.87656 4.31117C8.83554 4.27014 8.81249 4.2145 8.81249 4.15649V3.06274Z" fill="#E5E5E5"/>
</svg>
