<svg width="14" height="16" viewBox="0 0 14 16" fill="none" xmlns="http://www.w3.org/2000/svg">
    <g clip-path="url(#clip0_3192_10603)">
        <path
            d="M7.36105 2.60938C7.36105 2.21973 7.05056 1.90625 6.66462 1.90625C6.27868 1.90625 5.96819 2.21973 5.96819 2.60938V7.29688H1.32533C0.939397 7.29688 0.628906 7.61035 0.628906 8C0.628906 8.38965 0.939397 8.70312 1.32533 8.70312H5.96819V13.3906C5.96819 13.7803 6.27868 14.0938 6.66462 14.0938C7.05056 14.0938 7.36105 13.7803 7.36105 13.3906V8.70312H12.0039C12.3898 8.70312 12.7003 8.38965 12.7003 8C12.7003 7.61035 12.3898 7.29688 12.0039 7.29688H7.36105V2.60938Z"
            fill="black" />
    </g>
    <defs>
        <clipPath id="clip0_3192_10603">
            <rect width="13" height="15" fill="black" transform="translate(0.164062 0.5)" />
        </clipPath>
    </defs>
</svg>