<svg width="30" height="30" viewBox="0 0 30 30" fill="none" xmlns="http://www.w3.org/2000/svg">
<path d="M19.0906 8.92323C19.1667 9.19275 19.4128 9.37438 19.6882 9.37438C19.9636 9.37438 20.2096 9.19275 20.2858 8.92323L21.0943 6.09334L23.9242 5.2848C24.1937 5.20864 24.3754 4.96256 24.3754 4.68719C24.3754 4.41182 24.1937 4.16574 23.9242 4.08957L21.0943 3.28103L20.2858 0.451142C20.2096 0.181628 19.9636 0 19.6882 0C19.4128 0 19.1667 0.181628 19.0906 0.451142L18.282 3.28103L15.4521 4.08957C15.1826 4.16574 15.001 4.41182 15.001 4.68719C15.001 4.96256 15.1826 5.20864 15.4521 5.2848L18.282 6.09334L19.0906 8.92323ZM12.5051 9.22204C11.9895 8.17328 10.4954 8.17328 9.97985 9.22204L7.26714 14.7295L1.20309 15.6142C0.0547318 15.7782 -0.408128 17.1961 0.423848 18.0105L4.81223 22.2993L3.78105 28.3516C3.58184 29.5 4.78879 30.3788 5.81997 29.834L11.2454 26.9748L16.6708 29.834C17.702 30.3788 18.9089 29.5 18.7097 28.3516L17.6727 22.2993L22.0611 18.0105C22.893 17.1961 22.4361 15.7782 21.2818 15.6142L15.2178 14.7295L12.5051 9.22204ZM25.1253 14.2491L25.7698 16.5106C25.8284 16.7215 26.0276 16.8739 26.2502 16.8739C26.4729 16.8739 26.6662 16.7274 26.7307 16.5106L27.3752 14.2491L29.6367 13.6046C29.8477 13.546 30 13.3468 30 13.1241C30 12.9015 29.8535 12.7081 29.6367 12.6437L27.3752 11.9992L26.7307 9.73763C26.6721 9.52671 26.4729 9.37438 26.2502 9.37438C26.0276 9.37438 25.8343 9.52085 25.7698 9.73763L25.1253 11.9992L22.8638 12.6437C22.6528 12.7023 22.5005 12.9015 22.5005 13.1241C22.5005 13.3468 22.647 13.5401 22.8638 13.6046L25.1253 14.2491Z" fill="url(#paint0_linear_5190_113568)"/>
<defs>
<linearGradient id="paint0_linear_5190_113568" x1="30" y1="2.16317" x2="5.13935" y2="32.1038" gradientUnits="userSpaceOnUse">
<stop stop-color="#00EFD2"/>
<stop offset="1" stop-color="#008F97"/>
</linearGradient>
</defs>
</svg>
