<svg width="12" height="13" viewBox="0 0 12 13" fill="none" xmlns="http://www.w3.org/2000/svg">
<g clip-path="url(#clip0_3305_8231)">
<path d="M7.63576 4.06953C7.66623 4.17734 7.76467 4.25 7.87482 4.25C7.98498 4.25 8.08342 4.17734 8.11389 4.06953L8.43732 2.9375L9.56936 2.61406C9.67717 2.58359 9.74982 2.48516 9.74982 2.375C9.74982 2.26484 9.67717 2.16641 9.56936 2.13594L8.43732 1.8125L8.11389 0.680469C8.08342 0.572656 7.98498 0.5 7.87482 0.5C7.76467 0.5 7.66623 0.572656 7.63576 0.680469L7.31232 1.8125L6.18029 2.13594C6.07248 2.16641 5.99982 2.26484 5.99982 2.375C5.99982 2.48516 6.07248 2.58359 6.18029 2.61406L7.31232 2.9375L7.63576 4.06953ZM5.00139 4.18906C4.79514 3.76953 4.19748 3.76953 3.99123 4.18906L2.90607 6.39219L0.480293 6.74609C0.0209176 6.81172 -0.164239 7.37891 0.168574 7.70469L1.92404 9.42031L1.51154 11.8414C1.43186 12.3008 1.91467 12.6523 2.32717 12.4344L4.49748 11.2906L6.66779 12.4344C7.08029 12.6523 7.5631 12.3008 7.48342 11.8414L7.06857 9.42031L8.82404 7.70469C9.15685 7.37891 8.97404 6.81172 8.51232 6.74609L6.08654 6.39219L5.00139 4.18906ZM10.0498 6.2L10.3076 7.10469C10.3311 7.18906 10.4108 7.25 10.4998 7.25C10.5889 7.25 10.6662 7.19141 10.692 7.10469L10.9498 6.2L11.8545 5.94219C11.9389 5.91875 11.9998 5.83906 11.9998 5.75C11.9998 5.66094 11.9412 5.58359 11.8545 5.55781L10.9498 5.3L10.692 4.39531C10.6686 4.31094 10.5889 4.25 10.4998 4.25C10.4108 4.25 10.3334 4.30859 10.3076 4.39531L10.0498 5.3L9.14514 5.55781C9.06076 5.58125 8.99982 5.66094 8.99982 5.75C8.99982 5.83906 9.05842 5.91641 9.14514 5.94219L10.0498 6.2Z" fill="white"/>
</g>
<defs>
<clipPath id="clip0_3305_8231">
<rect width="12" height="12" fill="white" transform="translate(0 0.5)"/>
</clipPath>
</defs>
</svg>
