<svg width="15" height="14" viewBox="0 0 15 14" fill="none" xmlns="http://www.w3.org/2000/svg">
<path d="M9.11912 5.13492C8.91666 5.13492 8.75234 4.9706 8.75234 4.76814C8.75234 3.75729 7.92929 2.93424 6.91845 2.93424C6.71598 2.93424 6.55167 2.76992 6.55167 2.56746C6.55167 2.365 6.71598 2.20068 6.91845 2.20068C7.92929 2.20068 8.75234 1.37762 8.75234 0.36678C8.75234 0.164317 8.91666 0 9.11912 0C9.32159 0 9.4859 0.164317 9.4859 0.36678C9.4859 1.37762 10.309 2.20068 11.3198 2.20068C11.5223 2.20068 11.6866 2.365 11.6866 2.56746C11.6866 2.76992 11.5223 2.93424 11.3198 2.93424C10.309 2.93424 9.4859 3.75729 9.4859 4.76814C9.4859 4.9706 9.32159 5.13492 9.11912 5.13492ZM8.23959 2.56746C8.59903 2.78459 8.90199 3.08682 9.11912 3.447C9.33626 3.08755 9.63848 2.78459 9.99866 2.56746C9.63922 2.35032 9.33626 2.0481 9.11912 1.68792C8.90199 2.04736 8.59976 2.35032 8.23959 2.56746Z" fill="black"/>
<path d="M1.78344 7.33544C1.58098 7.33544 1.41666 7.17113 1.41666 6.96866C1.41666 6.7662 1.25235 6.60188 1.04989 6.60188C0.847423 6.60188 0.683105 6.43757 0.683105 6.2351C0.683105 6.03264 0.847423 5.86833 1.04989 5.86833C1.25235 5.86833 1.41666 5.70401 1.41666 5.50155C1.41666 5.29908 1.58098 5.13477 1.78344 5.13477C1.98591 5.13477 2.15022 5.29908 2.15022 5.50155C2.15022 5.70401 2.31454 5.86833 2.517 5.86833C2.71947 5.86833 2.88378 6.03264 2.88378 6.2351C2.88378 6.43757 2.71947 6.60188 2.517 6.60188C2.31454 6.60188 2.15022 6.7662 2.15022 6.96866C2.15022 7.17113 1.98591 7.33544 1.78344 7.33544Z" fill="black"/>
<path d="M13.9954 11.6922L6.22996 3.92677C6.02236 3.71917 5.74654 3.60547 5.45165 3.60547C5.15676 3.60547 4.88094 3.7199 4.67335 3.92677L4.24348 4.35663C4.03588 4.56423 3.92218 4.84005 3.92218 5.13494C3.92218 5.42983 4.03662 5.70565 4.24348 5.91325L12.0089 13.6787C12.2165 13.8863 12.4924 14 12.7872 14C13.0821 14 13.358 13.8856 13.5656 13.6787L13.9954 13.2488C14.203 13.0412 14.3167 12.7654 14.3167 12.4705C14.3167 12.1756 14.2023 11.8998 13.9954 11.6922ZM4.76284 4.87526L5.1927 4.44539C5.26166 4.37644 5.35335 4.33903 5.45238 4.33903C5.55142 4.33903 5.64311 4.37717 5.71207 4.44539L6.76766 5.50099L5.81916 6.44948L4.76357 5.39389C4.62053 5.25084 4.6198 5.0183 4.76284 4.87526ZM13.4761 12.7302L13.0462 13.1601C12.9772 13.229 12.8855 13.2664 12.7872 13.2664C12.6889 13.2664 12.5965 13.2283 12.5283 13.1601L6.33779 6.96957L7.28628 6.02108L13.4768 12.2116C13.6198 12.3546 13.6198 12.5872 13.4768 12.7302H13.4761Z" fill="black"/>
<path d="M3.25022 3.6678C3.04776 3.6678 2.88344 3.50348 2.88344 3.30102C2.88344 2.69436 2.38975 2.20068 1.7831 2.20068C1.58064 2.20068 1.41632 2.03636 1.41632 1.8339C1.41632 1.63144 1.58064 1.46712 1.7831 1.46712C2.38975 1.46712 2.88344 0.973433 2.88344 0.36678C2.88344 0.164317 3.04776 0 3.25022 0C3.45268 0 3.617 0.164317 3.617 0.36678C3.617 0.973433 4.11068 1.46712 4.71734 1.46712C4.9198 1.46712 5.08412 1.63144 5.08412 1.8339C5.08412 2.03636 4.9198 2.20068 4.71734 2.20068C4.11068 2.20068 3.617 2.69436 3.617 3.30102C3.617 3.50348 3.45268 3.6678 3.25022 3.6678ZM2.88197 1.8339C3.02135 1.9388 3.14532 2.06277 3.25022 2.20215C3.35512 2.06277 3.47909 1.9388 3.61847 1.8339C3.47909 1.729 3.35512 1.60503 3.25022 1.46565C3.14532 1.60503 3.02135 1.729 2.88197 1.8339Z" fill="black"/>
<path d="M3.25022 11.0037C3.04776 11.0037 2.88344 10.8394 2.88344 10.637C2.88344 10.0303 2.38975 9.53662 1.7831 9.53662C1.58064 9.53662 1.41632 9.3723 1.41632 9.16984C1.41632 8.96737 1.58064 8.80306 1.7831 8.80306C2.38975 8.80306 2.88344 8.30937 2.88344 7.70272C2.88344 7.50025 3.04776 7.33594 3.25022 7.33594C3.45268 7.33594 3.617 7.50025 3.617 7.70272C3.617 8.30937 4.11068 8.80306 4.71734 8.80306C4.9198 8.80306 5.08412 8.96737 5.08412 9.16984C5.08412 9.3723 4.9198 9.53662 4.71734 9.53662C4.11068 9.53662 3.617 10.0303 3.617 10.637C3.617 10.8394 3.45268 11.0037 3.25022 11.0037ZM2.88197 9.16984C3.02135 9.27474 3.14532 9.39871 3.25022 9.53808C3.35512 9.39871 3.47909 9.27474 3.61847 9.16984C3.47909 9.06494 3.35512 8.94097 3.25022 8.80159C3.14532 8.94097 3.02135 9.06494 2.88197 9.16984Z" fill="black"/>
</svg>
