<svg width="30" height="31" viewBox="0 0 30 31" fill="none" xmlns="http://www.w3.org/2000/svg">
<path d="M18.5629 11.2989C18.1174 11.2989 17.7559 10.9374 17.7559 10.4919C17.7559 8.2676 15.9448 6.45654 13.7205 6.45654C13.275 6.45654 12.9135 6.09498 12.9135 5.64947C12.9135 5.20397 13.275 4.84241 13.7205 4.84241C15.9448 4.84241 17.7559 3.03135 17.7559 0.807068C17.7559 0.361566 18.1174 0 18.5629 0C19.0084 0 19.37 0.361566 19.37 0.807068C19.37 3.03135 21.1811 4.84241 23.4053 4.84241C23.8508 4.84241 24.2124 5.20397 24.2124 5.64947C24.2124 6.09498 23.8508 6.45654 23.4053 6.45654C21.1811 6.45654 19.37 8.2676 19.37 10.4919C19.37 10.9374 19.0084 11.2989 18.5629 11.2989ZM16.6276 5.64947C17.4185 6.12726 18.0852 6.79228 18.5629 7.58482C19.0407 6.7939 19.7057 6.12726 20.4983 5.64947C19.7074 5.17169 19.0407 4.50667 18.5629 3.71413C18.0852 4.50505 17.4201 5.17169 16.6276 5.64947Z" fill="url(#paint0_linear_5190_113850)"/>
<path d="M2.4214 16.1412C1.9759 16.1412 1.61433 15.7797 1.61433 15.3342C1.61433 14.8887 1.25277 14.5271 0.807266 14.5271C0.361765 14.5271 0.000198364 14.1655 0.000198364 13.72C0.000198364 13.2745 0.361765 12.913 0.807266 12.913C1.25277 12.913 1.61433 12.5514 1.61433 12.1059C1.61433 11.6604 1.9759 11.2988 2.4214 11.2988C2.8669 11.2988 3.22847 11.6604 3.22847 12.1059C3.22847 12.5514 3.59004 12.913 4.03554 12.913C4.48104 12.913 4.8426 13.2745 4.8426 13.72C4.8426 14.1655 4.48104 14.5271 4.03554 14.5271C3.59004 14.5271 3.22847 14.8887 3.22847 15.3342C3.22847 15.7797 2.8669 16.1412 2.4214 16.1412Z" fill="url(#paint1_linear_5190_113850)"/>
<path d="M29.2928 25.7278L12.2056 8.64059C11.7488 8.18379 11.1419 7.93359 10.493 7.93359C9.84409 7.93359 9.23718 8.1854 8.78038 8.64059L7.83449 9.58647C7.37769 10.0433 7.1275 10.6502 7.1275 11.2991C7.1275 11.9479 7.37931 12.5549 7.83449 13.0117L24.9217 30.0989C25.3785 30.5557 25.9854 30.8059 26.6343 30.8059C27.2832 30.8059 27.8901 30.5541 28.3469 30.0989L29.2928 29.153C29.7496 28.6962 29.9998 28.0893 29.9998 27.4404C29.9998 26.7915 29.748 26.1846 29.2928 25.7278ZM8.9773 10.7277L9.92318 9.78178C10.0749 9.63005 10.2767 9.54773 10.4946 9.54773C10.7125 9.54773 10.9143 9.63166 11.066 9.78178L13.3887 12.1045L11.3017 14.1916L8.97892 11.8689C8.66416 11.5541 8.66254 11.0424 8.9773 10.7277ZM28.15 28.0118L27.2041 28.9577C27.0524 29.1094 26.8506 29.1918 26.6343 29.1918C26.418 29.1918 26.2147 29.1078 26.0645 28.9577L12.4429 15.336L14.5299 13.2489L28.1516 26.8706C28.4664 27.1854 28.4664 27.6971 28.1516 28.0118H28.15Z" fill="url(#paint2_linear_5190_113850)"/>
<path d="M5.64891 8.07068C5.20341 8.07068 4.84184 7.70911 4.84184 7.26361C4.84184 5.92872 3.75553 4.84241 2.42064 4.84241C1.97514 4.84241 1.61357 4.48084 1.61357 4.03534C1.61357 3.58984 1.97514 3.22827 2.42064 3.22827C3.75553 3.22827 4.84184 2.14196 4.84184 0.807068C4.84184 0.361566 5.20341 0 5.64891 0C6.09441 0 6.45598 0.361566 6.45598 0.807068C6.45598 2.14196 7.54229 3.22827 8.87718 3.22827C9.32268 3.22827 9.68425 3.58984 9.68425 4.03534C9.68425 4.48084 9.32268 4.84241 8.87718 4.84241C7.54229 4.84241 6.45598 5.92872 6.45598 7.26361C6.45598 7.70911 6.09441 8.07068 5.64891 8.07068ZM4.83861 4.03534C5.1453 4.26616 5.41809 4.53895 5.64891 4.84563C5.87973 4.53895 6.15252 4.26616 6.45921 4.03534C6.15252 3.80452 5.87973 3.53173 5.64891 3.22504C5.41809 3.53173 5.1453 3.80452 4.83861 4.03534Z" fill="url(#paint3_linear_5190_113850)"/>
<path d="M5.64891 24.2133C5.20341 24.2133 4.84184 23.8517 4.84184 23.4062C4.84184 22.0713 3.75553 20.985 2.42064 20.985C1.97514 20.985 1.61357 20.6234 1.61357 20.1779C1.61357 19.7324 1.97514 19.3708 2.42064 19.3708C3.75553 19.3708 4.84184 18.2845 4.84184 16.9496C4.84184 16.5041 5.20341 16.1426 5.64891 16.1426C6.09441 16.1426 6.45598 16.5041 6.45598 16.9496C6.45598 18.2845 7.54229 19.3708 8.87718 19.3708C9.32268 19.3708 9.68425 19.7324 9.68425 20.1779C9.68425 20.6234 9.32268 20.985 8.87718 20.985C7.54229 20.985 6.45598 22.0713 6.45598 23.4062C6.45598 23.8517 6.09441 24.2133 5.64891 24.2133ZM4.83861 20.1779C5.1453 20.4087 5.41809 20.6815 5.64891 20.9882C5.87973 20.6815 6.15252 20.4087 6.45921 20.1779C6.15252 19.9471 5.87973 19.6743 5.64891 19.3676C5.41809 19.6743 5.1453 19.9471 4.83861 20.1779Z" fill="url(#paint4_linear_5190_113850)"/>
<defs>
<linearGradient id="paint0_linear_5190_113850" x1="13.361" y1="1.10579e-07" x2="23.7648" y2="11.2989" gradientUnits="userSpaceOnUse">
<stop stop-color="#ED6A7D"/>
<stop offset="1" stop-color="#EA35FA"/>
</linearGradient>
<linearGradient id="paint1_linear_5190_113850" x1="0.192017" y1="11.2988" x2="4.65079" y2="16.1412" gradientUnits="userSpaceOnUse">
<stop stop-color="#ED6A7D"/>
<stop offset="1" stop-color="#EA35FA"/>
</linearGradient>
<linearGradient id="paint2_linear_5190_113850" x1="8.03352" y1="7.93359" x2="29.0938" y2="30.8059" gradientUnits="userSpaceOnUse">
<stop stop-color="#ED6A7D"/>
<stop offset="1" stop-color="#EA35FA"/>
</linearGradient>
<linearGradient id="paint3_linear_5190_113850" x1="1.93327" y1="7.89848e-08" x2="9.36455" y2="8.07068" gradientUnits="userSpaceOnUse">
<stop stop-color="#ED6A7D"/>
<stop offset="1" stop-color="#EA35FA"/>
</linearGradient>
<linearGradient id="paint4_linear_5190_113850" x1="1.93327" y1="16.1426" x2="9.36455" y2="24.2133" gradientUnits="userSpaceOnUse">
<stop stop-color="#ED6A7D"/>
<stop offset="1" stop-color="#EA35FA"/>
</linearGradient>
</defs>
</svg>
