<svg width="20" height="16" viewBox="0 0 20 16" fill="none" xmlns="http://www.w3.org/2000/svg">
<path d="M10.5191 1.92083L12.8159 2.7909L10.4371 3.70492L8.0583 2.7909L10.3551 1.92083C10.4078 1.90032 10.4664 1.90032 10.522 1.92083H10.5191ZM5.98418 3.2069V6.49385C5.9461 6.50557 5.90801 6.51728 5.86993 6.53193L3.05757 7.59829C2.42185 7.83851 2 8.45078 2 9.13044V12.6225C2 13.2728 2.38377 13.8617 2.9814 14.1253L5.79376 15.3616C6.21561 15.5461 6.69313 15.5461 7.11498 15.3616L10.4371 13.8997L13.7621 15.3616C14.184 15.5461 14.6615 15.5461 15.0833 15.3616L17.8957 14.1253C18.4904 13.8646 18.8771 13.2728 18.8771 12.6225V9.13044C18.8771 8.44785 18.4552 7.83851 17.8195 7.59536L15.0072 6.529C14.9691 6.51435 14.931 6.50264 14.8929 6.49092V3.2069C14.8929 2.52432 14.4711 1.91497 13.8354 1.67182L11.023 0.605464C10.648 0.464845 10.2349 0.464845 9.85997 0.605464L7.04761 1.67182C6.40603 1.91497 5.98418 2.52724 5.98418 3.2069ZM13.4838 6.66669L11.0699 7.58071V4.96756L13.4838 4.04182V6.66669ZM6.53493 7.8473L8.8317 8.71737L6.45291 9.62846L4.07412 8.71737L6.37088 7.8473C6.42361 7.82679 6.4822 7.82679 6.53786 7.8473H6.53493ZM7.08569 13.8353V10.8911L9.49963 9.96536V12.7748L7.08569 13.8353ZM14.3392 7.8473C14.392 7.82679 14.4506 7.82679 14.5062 7.8473L16.803 8.71737L14.4213 9.62846L12.0425 8.71737L14.3392 7.8473ZM17.3274 12.8363L15.054 13.8353V10.8911L17.468 9.96536V12.6225C17.468 12.7162 17.4123 12.7982 17.3274 12.8363Z" fill="black"/>
</svg>
