<svg width="70" height="26" viewBox="0 0 70 26" fill="none" xmlns="http://www.w3.org/2000/svg">
<path fill-rule="evenodd" clip-rule="evenodd" d="M22.3604 20.6625L31.2087 12.9997L22.3604 5.33678V0.573242L36.7091 12.9997L22.3604 25.4261V20.6625Z" fill="black" fill-opacity="0.5"/>
<path fill-rule="evenodd" clip-rule="evenodd" d="M55.1486 20.6623L63.997 12.9995L55.1486 5.33659L55.1486 0.573047L69.4974 12.9995L55.1486 25.4259L55.1486 20.6623Z" fill="black"/>
<path fill-rule="evenodd" clip-rule="evenodd" d="M11.4365 20.6625L20.2848 12.9997L11.4365 5.33679V0.573242L25.7853 12.9997L11.4365 25.4261V20.6625Z" fill="black" fill-opacity="0.4"/>
<path fill-rule="evenodd" clip-rule="evenodd" d="M44.2178 20.6625L53.0661 12.9997L44.2178 5.33679V0.573242L58.5666 12.9997L44.2178 25.4261V20.6625Z" fill="black" fill-opacity="0.8"/>
<path fill-rule="evenodd" clip-rule="evenodd" d="M0.503906 20.6625L9.35222 12.9997L0.503906 5.33678V0.573242L14.8527 12.9997L0.503906 25.4261V20.6625Z" fill="black" fill-opacity="0.35"/>
<path fill-rule="evenodd" clip-rule="evenodd" d="M33.29 20.6625L42.1384 12.9997L33.29 5.33679L33.29 0.573242L47.6388 12.9997L33.29 25.4261L33.29 20.6625Z" fill="black" fill-opacity="0.6"/>
</svg>
