<svg width="86" height="114" viewBox="0 0 86 114" fill="none" xmlns="http://www.w3.org/2000/svg">
<path d="M31.1796 17.9215C32.8206 17.9215 34.11 16.6894 34.11 15.1213V2.80024C34.11 1.23211 32.8206 0 31.1796 0C29.5385 0 28.2492 1.23211 28.2492 2.80024V15.1213C28.2492 16.6894 29.5385 17.9215 31.1796 17.9215ZM40.2052 21.1698L49.3481 12.4331C50.5203 11.313 50.5203 9.52081 49.3481 8.40072C48.1759 7.28062 46.3005 7.28062 45.1283 8.40072L35.9854 17.1375C34.8133 18.2576 34.8133 20.0497 35.9854 21.1698C37.1576 22.2899 39.0331 22.2899 40.2052 21.1698ZM22.2711 21.1698C23.4433 22.2899 25.3187 22.2899 26.4909 21.1698C27.6631 20.0497 27.6631 18.2576 26.4909 17.1375L17.348 8.40072C16.1759 7.28062 14.3004 7.28062 13.1282 8.40072C11.9561 9.52081 11.9561 11.313 13.1282 12.4331L22.2711 21.1698ZM84.8647 74.5984C83.4581 71.3501 80.7621 69.3339 77.3628 68.1018C78.1833 61.4932 75.2529 57.0129 68.9232 54.6607C69.7438 49.0602 67.5166 44.9158 62.4763 42.0036C63.0624 41.4435 63.4141 40.9955 63.8829 40.5475C67.165 37.4112 70.5643 34.1629 73.8463 31.0266C76.1907 28.8985 77.48 26.2102 77.5973 23.186C77.7145 18.4816 74.9013 14.2252 70.4471 12.3211C65.8756 10.4169 60.7181 11.313 56.8499 15.0093C50.403 21.0578 44.0734 27.2183 37.7437 33.2668C33.2895 37.4112 28.9524 41.6676 24.4982 45.9239C24.381 45.9239 24.1466 45.8119 23.9121 45.9239V36.9632C23.7949 30.2426 18.5202 24.9781 11.6044 24.9781C5.0403 24.9781 0 30.0186 0 36.7391C0 48.8362 0 61.0452 0 73.1423C0 80.0868 2.57876 86.1354 7.61907 91.1758C13.011 96.5523 18.403 101.817 24.0294 106.857C34.3444 116.154 51.1063 116.49 61.4214 107.193C68.806 100.585 75.7218 93.752 82.7548 86.8074C86.2713 83.3351 86.8573 79.0788 84.8647 74.5984ZM76.5423 82.215C69.9782 88.5996 63.4141 94.9841 56.6155 101.257C49.2309 108.089 37.392 108.313 29.8902 101.593C24.0294 96.4402 18.403 90.9518 12.8938 85.3513C9.61174 82.103 8.08793 77.9587 8.08793 73.3663V55.3327C8.08793 49.1722 8.08793 43.1237 8.20515 37.0752C8.20515 34.1629 9.61175 32.5948 11.9561 32.5948C14.4176 32.5948 16.1759 34.3869 16.1759 37.0752C16.1759 42.8997 16.1759 48.7242 16.1759 54.5487C16.0586 56.5648 16.5275 58.245 18.6374 59.029C20.6301 59.8131 22.1539 58.917 23.5605 57.5729C36.3371 45.3639 49.1137 33.1548 62.1247 20.8338C63.1796 19.8257 64.3518 18.9296 65.9928 19.0416C67.6339 19.1536 68.806 20.0497 69.3921 21.5058C69.9782 23.186 69.5093 24.5301 68.2199 25.7622L57.3188 36.1791L37.9781 54.6607C37.2748 55.2207 36.6887 56.0048 36.4543 56.7888C35.8682 58.469 36.6887 60.2611 38.2125 61.1572C39.7364 62.0533 41.729 61.8293 43.1356 60.4852C46.7693 57.1249 50.1686 53.6526 53.8023 50.4043C54.7401 49.6202 56.1466 48.9482 57.436 48.8362C58.9598 48.6122 60.2492 49.7322 60.8353 51.1884C61.4214 52.8685 60.9525 54.2126 59.6631 55.4447C56.0294 58.917 52.3957 62.5013 48.762 65.9736C47.2382 67.3177 47.121 69.2219 48.1759 70.79C49.1137 72.2462 51.1063 72.9182 52.7474 72.2462C53.4507 71.9101 54.154 71.4621 54.7401 70.9021C57.3188 68.5499 59.7804 66.0856 62.3591 63.6214C64.2346 61.8293 66.6961 61.7173 68.3372 63.3974C69.9782 64.9655 69.861 67.2057 67.9855 68.9979L60.2492 76.3905C58.3738 78.1827 58.1393 80.4229 59.7804 81.991C61.4214 83.5591 63.7657 83.5591 65.7584 81.767C67.5166 80.1988 69.1577 78.5187 70.9159 76.8386C72.7914 75.1584 75.0185 75.0464 76.6595 76.6145C78.3005 78.1827 78.3006 80.5349 76.5423 82.215Z" fill="url(#paint0_linear_6276_20940)"/>
<defs>
<linearGradient id="paint0_linear_6276_20940" x1="3.40665" y1="1.11568e-06" x2="106.675" y2="84.607" gradientUnits="userSpaceOnUse">
<stop stop-color="#ED6A7D"/>
<stop offset="1" stop-color="#EA35FA"/>
</linearGradient>
</defs>
</svg>
