<svg width="18" height="15" viewBox="0 0 18 15" fill="none" xmlns="http://www.w3.org/2000/svg">
<path d="M1.99609 3.39258C1.70898 3.13477 1.52734 2.75977 1.52734 2.34375C1.52734 1.56738 2.15723 0.9375 2.93359 0.9375C3.34961 0.9375 3.72461 1.11914 3.98242 1.40625H14.0723C14.3301 1.11914 14.7051 0.9375 15.1211 0.9375C15.8975 0.9375 16.5273 1.56738 16.5273 2.34375C16.5273 2.75977 16.3457 3.13477 16.0586 3.39258V11.6074C16.3457 11.8652 16.5273 12.2402 16.5273 12.6562C16.5273 13.4326 15.8975 14.0625 15.1211 14.0625C14.7051 14.0625 14.3301 13.8809 14.0723 13.5938H3.98242C3.72461 13.8809 3.34961 14.0625 2.93359 14.0625C2.15723 14.0625 1.52734 13.4326 1.52734 12.6562C1.52734 12.2402 1.70898 11.8652 1.99609 11.6074V3.39258ZM4.26074 2.8125C4.12012 3.21094 3.80371 3.52734 3.40234 3.6709V11.3291C3.80078 11.4697 4.11719 11.7861 4.26074 12.1875H13.7939C13.9346 11.7891 14.251 11.4727 14.6523 11.3291V3.6709C14.2539 3.53027 13.9375 3.21387 13.7939 2.8125H4.26074ZM4.33984 4.6875C4.33984 4.16895 4.75879 3.75 5.27734 3.75H9.02734C9.5459 3.75 9.96484 4.16895 9.96484 4.6875V7.5C9.96484 8.01855 9.5459 8.4375 9.02734 8.4375H5.27734C4.75879 8.4375 4.33984 8.01855 4.33984 7.5V4.6875ZM8.08984 9.375H9.02734C10.0615 9.375 10.9023 8.53418 10.9023 7.5V6.5625H12.7773C13.2959 6.5625 13.7148 6.98145 13.7148 7.5V10.3125C13.7148 10.8311 13.2959 11.25 12.7773 11.25H9.02734C8.50879 11.25 8.08984 10.8311 8.08984 10.3125V9.375Z" fill="#AEAEAE"/>
</svg>
