<svg width="20" height="16" viewBox="0 0 20 16" fill="none" xmlns="http://www.w3.org/2000/svg">
<path fill-rule="evenodd" clip-rule="evenodd" d="M10.0673 2.00059C10.2343 2.00887 10.3849 2.10341 10.465 2.25015L12.4231 5.84002H14.6544L13.0938 4.7996C12.8732 4.65255 12.8136 4.35453 12.9606 4.13395C13.1077 3.91338 13.4057 3.85377 13.6263 4.00082L16.5063 5.92083C16.6398 6.00986 16.72 6.15973 16.72 6.32022C16.72 6.48071 16.6398 6.63058 16.5063 6.7196L13.6263 8.63961C13.4057 8.78666 13.1077 8.72706 12.9606 8.50648C12.8136 8.28591 12.8732 7.98789 13.0938 7.84084L14.655 6.80002H12.1381C11.9625 6.80002 11.8009 6.70408 11.7167 6.54987L9.99802 3.39889L7.82197 6.59043C7.73256 6.72156 7.5841 6.80002 7.42538 6.80002H4.23991V13.0401H5.6798V9.20016H7.59981V13.0401H8.55991V8.2402H10.4799V13.0401H11.44V9.20016H13.36V13.0401H14.32C14.5851 13.0401 14.8 13.255 14.8 13.5201C14.8 13.7852 14.5851 14.0001 14.32 14.0001H3.27991V2.96001C3.27991 2.69491 3.49481 2.48 3.75991 2.48C4.02501 2.48 4.23991 2.69491 4.23991 2.96001V5.84002H7.1717L9.64698 2.2096C9.74115 2.07149 9.90039 1.99231 10.0673 2.00059Z" fill="#D32DCA"/>
</svg>
