<svg width="20" height="15" viewBox="0 0 20 15" fill="none" xmlns="http://www.w3.org/2000/svg">
<path d="M10.5191 1.42083L12.8159 2.2909L10.4371 3.20492L8.0583 2.2909L10.3551 1.42083C10.4078 1.40032 10.4664 1.40032 10.522 1.42083H10.5191ZM5.98418 2.7069V5.99385C5.9461 6.00557 5.90801 6.01728 5.86993 6.03193L3.05757 7.09829C2.42185 7.33851 2 7.95078 2 8.63044V12.1225C2 12.7728 2.38377 13.3617 2.9814 13.6253L5.79376 14.8616C6.21561 15.0461 6.69313 15.0461 7.11498 14.8616L10.4371 13.3997L13.7621 14.8616C14.184 15.0461 14.6615 15.0461 15.0833 14.8616L17.8957 13.6253C18.4904 13.3646 18.8771 12.7728 18.8771 12.1225V8.63044C18.8771 7.94785 18.4552 7.33851 17.8195 7.09536L15.0072 6.029C14.9691 6.01435 14.931 6.00264 14.8929 5.99092V2.7069C14.8929 2.02432 14.4711 1.41497 13.8354 1.17182L11.023 0.105464C10.648 -0.0351545 10.2349 -0.0351545 9.85997 0.105464L7.04761 1.17182C6.40603 1.41497 5.98418 2.02724 5.98418 2.7069ZM13.4838 6.16669L11.0699 7.08071V4.46756L13.4838 3.54182V6.16669ZM6.53493 7.3473L8.8317 8.21737L6.45291 9.12846L4.07412 8.21737L6.37088 7.3473C6.42361 7.32679 6.4822 7.32679 6.53786 7.3473H6.53493ZM7.08569 13.3353V10.3911L9.49963 9.46536V12.2748L7.08569 13.3353ZM14.3392 7.3473C14.392 7.32679 14.4506 7.32679 14.5062 7.3473L16.803 8.21737L14.4213 9.12846L12.0425 8.21737L14.3392 7.3473ZM17.3274 12.3363L15.054 13.3353V10.3911L17.468 9.46536V12.1225C17.468 12.2162 17.4123 12.2982 17.3274 12.3363Z" fill="#AEAEAE"/>
</svg>
