<svg width="14" height="15" viewBox="0 0 14 15" fill="none" xmlns="http://www.w3.org/2000/svg">
<path fill-rule="evenodd" clip-rule="evenodd" d="M6.22661 0H12.4171C12.8275 0 13.2212 0.158035 13.5114 0.43934C13.8017 0.720644 13.9647 1.10218 13.9647 1.5V14.25C13.9647 14.4489 13.8832 14.6397 13.7381 14.7803C13.5929 14.921 13.3961 15 13.1909 15H0.809942C0.604715 15 0.407894 14.921 0.262776 14.7803C0.117659 14.6397 0.0361328 14.4489 0.0361328 14.25V7.5C0.0361328 6.67275 0.73024 6 1.58375 6H4.67899V1.5C4.67899 1.10218 4.84204 0.720644 5.13228 0.43934C5.42251 0.158035 5.81615 0 6.22661 0ZM1.58375 7.5V13.5H6.22661V7.5H1.58375ZM7.00042 4.5H8.54804V3H7.00042V4.5ZM10.0957 10.5H11.6433V9H10.0957V10.5ZM10.0957 7.5H11.6433V6H10.0957V7.5ZM10.0957 4.5H11.6433V3H10.0957V4.5ZM4.72381 9.55431H3.20595V11.0722H4.72381V9.55431Z" fill="#999999"/>
</svg>
