<svg width="80" height="92" viewBox="0 0 80 92" fill="none" xmlns="http://www.w3.org/2000/svg">
<g clip-path="url(#clip0_3305_5057)">
<path d="M22.8571 0.285706C25.2321 0.285706 27.1429 2.19642 27.1429 4.57142V11.7143H52.8571V4.57142C52.8571 2.19642 54.7679 0.285706 57.1429 0.285706C59.5179 0.285706 61.4286 2.19642 61.4286 4.57142V11.7143H68.5714C74.875 11.7143 80 16.8393 80 23.1428V26V34.5714V80.2857C80 86.5893 74.875 91.7143 68.5714 91.7143H11.4286C5.125 91.7143 0 86.5893 0 80.2857V34.5714V26V23.1428C0 16.8393 5.125 11.7143 11.4286 11.7143H18.5714V4.57142C18.5714 2.19642 20.4821 0.285706 22.8571 0.285706ZM71.4286 34.5714H8.57143V80.2857C8.57143 81.8571 9.85714 83.1429 11.4286 83.1429H68.5714C70.1429 83.1429 71.4286 81.8571 71.4286 80.2857V34.5714ZM58.75 53.3214L38.75 73.3214C37.0714 75 34.3571 75 32.6964 73.3214L21.2679 61.8928C19.5893 60.2143 19.5893 57.5 21.2679 55.8393C22.9464 54.1786 25.6607 54.1607 27.3214 55.8393L35.7143 64.2321L52.6786 47.2678C54.3571 45.5893 57.0714 45.5893 58.7321 47.2678C60.3929 48.9464 60.4107 51.6607 58.7321 53.3214H58.75Z" fill="black" fill-opacity="0.5"/>
<path d="M22.8571 0.285706C25.2321 0.285706 27.1429 2.19642 27.1429 4.57142V11.7143H52.8571V4.57142C52.8571 2.19642 54.7679 0.285706 57.1429 0.285706C59.5179 0.285706 61.4286 2.19642 61.4286 4.57142V11.7143H68.5714C74.875 11.7143 80 16.8393 80 23.1428V26V34.5714V80.2857C80 86.5893 74.875 91.7143 68.5714 91.7143H11.4286C5.125 91.7143 0 86.5893 0 80.2857V34.5714V26V23.1428C0 16.8393 5.125 11.7143 11.4286 11.7143H18.5714V4.57142C18.5714 2.19642 20.4821 0.285706 22.8571 0.285706ZM71.4286 34.5714H8.57143V80.2857C8.57143 81.8571 9.85714 83.1429 11.4286 83.1429H68.5714C70.1429 83.1429 71.4286 81.8571 71.4286 80.2857V34.5714ZM58.75 53.3214L38.75 73.3214C37.0714 75 34.3571 75 32.6964 73.3214L21.2679 61.8928C19.5893 60.2143 19.5893 57.5 21.2679 55.8393C22.9464 54.1786 25.6607 54.1607 27.3214 55.8393L35.7143 64.2321L52.6786 47.2678C54.3571 45.5893 57.0714 45.5893 58.7321 47.2678C60.3929 48.9464 60.4107 51.6607 58.7321 53.3214H58.75Z" fill="black"/>
</g>
<defs>
<clipPath id="clip0_3305_5057">
<rect width="80" height="91.4286" fill="white" transform="translate(0 0.285706)"/>
</clipPath>
</defs>
</svg>
