<svg width="14" height="15" viewBox="0 0 14 15" fill="none" xmlns="http://www.w3.org/2000/svg">
<path d="M4.45312 0.703125C4.45312 0.313477 4.13965 0 3.75 0C3.36035 0 3.04688 0.313477 3.04688 0.703125V1.875H1.875C0.84082 1.875 0 2.71582 0 3.75V4.21875V5.625V13.125C0 14.1592 0.84082 15 1.875 15H11.25C12.2842 15 13.125 14.1592 13.125 13.125V5.625V4.21875V3.75C13.125 2.71582 12.2842 1.875 11.25 1.875H10.0781V0.703125C10.0781 0.313477 9.76465 0 9.375 0C8.98535 0 8.67188 0.313477 8.67188 0.703125V1.875H4.45312V0.703125ZM1.40625 5.625H11.7188V13.125C11.7188 13.3828 11.5078 13.5938 11.25 13.5938H1.875C1.61719 13.5938 1.40625 13.3828 1.40625 13.125V5.625Z" fill="black"/>
</svg>
