<svg width="19" height="15" viewBox="0 0 19 15" fill="none" xmlns="http://www.w3.org/2000/svg">
<path d="M3.56525 0.206503C3.84059 -0.0688342 4.28582 -0.0688342 4.55822 0.206503L7.13585 2.78412C7.41118 3.05946 7.41118 3.50469 7.13585 3.77709C6.86051 4.0495 6.41528 4.05243 6.14288 3.77709L4.76619 2.40041V10.5463C4.76619 11.7121 5.70937 12.6552 6.87515 12.6552C8.04094 12.6552 8.98412 11.7121 8.98412 10.5463V4.45372C8.98412 2.51172 10.5571 0.938781 12.4991 0.938781C14.4411 0.938781 16.014 2.51172 16.014 4.45372V12.5996L17.3907 11.2229C17.666 10.9476 18.1112 10.9476 18.3836 11.2229C18.6561 11.4982 18.659 11.9435 18.3836 12.2159L15.806 14.7935C15.5307 15.0688 15.0855 15.0688 14.8131 14.7935L12.2354 12.2159C11.9601 11.9405 11.9601 11.4953 12.2354 11.2229C12.5108 10.9505 12.956 10.9476 13.2284 11.2229L14.6051 12.5996V4.45372C14.6051 3.28793 13.6619 2.34476 12.4961 2.34476C11.3303 2.34476 10.3872 3.28793 10.3872 4.45372V10.5463C10.3872 12.4883 8.81423 14.0612 6.87223 14.0612C4.93022 14.0612 3.35729 12.4883 3.35729 10.5463V2.40041L1.98353 3.78002C1.7082 4.05536 1.26297 4.05536 0.990562 3.78002C0.718154 3.50469 0.715225 3.05946 0.990562 2.78705L3.56525 0.206503Z" fill="#AEAEAE"/>
</svg>
