<svg xmlns="http://www.w3.org/2000/svg" width="12" height="12" viewBox="0 0 12 12" fill="none">
    <g clip-path="url(#clip0_5448_3683)">
      <path d="M6 11.8508C7.5913 11.8508 9.11742 11.2187 10.2426 10.0935C11.3679 8.96825 12 7.44213 12 5.85083C12 4.25953 11.3679 2.73341 10.2426 1.60819C9.11742 0.482971 7.5913 -0.14917 6 -0.14917C4.4087 -0.14917 2.88258 0.482971 1.75736 1.60819C0.632141 2.73341 0 4.25953 0 5.85083C0 7.44213 0.632141 8.96825 1.75736 10.0935C2.88258 11.2187 4.4087 11.8508 6 11.8508ZM8.64844 4.74927L5.64844 7.74927C5.42813 7.96958 5.07188 7.96958 4.85391 7.74927L3.35391 6.24927C3.13359 6.02896 3.13359 5.67271 3.35391 5.45474C3.57422 5.23677 3.93047 5.23442 4.14844 5.45474L5.25 6.5563L7.85156 3.95239C8.07188 3.73208 8.42813 3.73208 8.64609 3.95239C8.86406 4.17271 8.86641 4.52896 8.64609 4.74692L8.64844 4.74927Z" fill="#05C89E"/>
    </g>
    <defs>
      <clipPath id="clip0_5448_3683">
        <rect width="12" height="12" fill="white"/>
      </clipPath>
    </defs>
  </svg>