<svg width="17" height="17" viewBox="0 0 17 17" fill="none" xmlns="http://www.w3.org/2000/svg">
<g clip-path="url(#clip0_10561_51481)">
<path d="M15.1673 7.88723V8.50056C15.1665 9.93818 14.701 11.337 13.8402 12.4884C12.9794 13.6399 11.7695 14.4822 10.3909 14.8898C9.01227 15.2974 7.53882 15.2485 6.1903 14.7503C4.84177 14.2521 3.69042 13.3313 2.90796 12.1253C2.1255 10.9193 1.75385 9.4926 1.84844 8.0581C1.94303 6.6236 2.49879 5.25811 3.43284 4.16528C4.36689 3.07244 5.62917 2.31082 7.03144 1.99399C8.43371 1.67717 9.90083 1.82212 11.214 2.40723" stroke="#85F996" stroke-width="2" stroke-linecap="round" stroke-linejoin="round"/>
<path d="M15.1667 3.16602L8.5 9.83935L6.5 7.83935" stroke="#85F996" stroke-width="2" stroke-linecap="round" stroke-linejoin="round"/>
</g>
<defs>
<clipPath id="clip0_10561_51481">
<rect width="16" height="16" fill="white" transform="translate(0.5 0.5)"/>
</clipPath>
</defs>
</svg>