<svg width="10" height="10" viewBox="0 0 10 10" fill="none" xmlns="http://www.w3.org/2000/svg">
<g clip-path="url(#clip0_4409_12018)">
<path d="M5 9.87549C6.32608 9.87549 7.59785 9.3487 8.53553 8.41102C9.47322 7.47334 10 6.20157 10 4.87549C10 3.54941 9.47322 2.27764 8.53553 1.33995C7.59785 0.402273 6.32608 -0.124512 5 -0.124512C3.67392 -0.124512 2.40215 0.402273 1.46447 1.33995C0.526784 2.27764 0 3.54941 0 4.87549C0 6.20157 0.526784 7.47334 1.46447 8.41102C2.40215 9.3487 3.67392 9.87549 5 9.87549ZM7.20703 3.95752L4.70703 6.45752C4.52344 6.64111 4.22656 6.64111 4.04492 6.45752L2.79492 5.20752C2.61133 5.02393 2.61133 4.72705 2.79492 4.54541C2.97852 4.36377 3.27539 4.36182 3.45703 4.54541L4.375 5.46338L6.54297 3.29346C6.72656 3.10986 7.02344 3.10986 7.20508 3.29346C7.38672 3.47705 7.38867 3.77393 7.20508 3.95557L7.20703 3.95752Z" fill="#00DF9C"/>
</g>
<defs>
<clipPath id="clip0_4409_12018">
<rect width="10" height="10" fill="white"/>
</clipPath>
</defs>
</svg>
