<svg width="16" height="15" viewBox="0 0 16 15" fill="none" xmlns="http://www.w3.org/2000/svg">
<g clip-path="url(#clip0_6696_6210)">
<path d="M0.5 7.5C0.5 5.51088 1.29018 3.60322 2.6967 2.1967C4.10322 0.790176 6.01088 0 8 0C9.98912 0 11.8968 0.790176 13.3033 2.1967C14.7098 3.60322 15.5 5.51088 15.5 7.5C15.5 9.48912 14.7098 11.3968 13.3033 12.8033C11.8968 14.2098 9.98912 15 8 15C6.01088 15 4.10322 14.2098 2.6967 12.8033C1.29018 11.3968 0.5 9.48912 0.5 7.5ZM6.0166 4.30957C5.79395 4.43262 5.65625 4.66992 5.65625 4.92188V10.0781C5.65625 10.333 5.79395 10.5674 6.0166 10.6904C6.23926 10.8135 6.50879 10.8105 6.72852 10.6758L10.9473 8.09766C11.1553 7.96875 11.2842 7.74316 11.2842 7.49707C11.2842 7.25098 11.1553 7.02539 10.9473 6.89648L6.72852 4.31836C6.51172 4.18652 6.23926 4.18066 6.0166 4.30371V4.30957Z" fill="#2F9BFF"/>
</g>
<defs>
<clipPath id="clip0_6696_6210">
<rect width="15" height="15" fill="white" transform="translate(0.5)"/>
</clipPath>
</defs>
</svg>
