<svg width="20" height="15" viewBox="0 0 20 15" fill="none" xmlns="http://www.w3.org/2000/svg">
<path d="M14.2499 4.66762H12.8333V4.66691H12.1249V2.54121C12.1273 2.2635 12.0736 1.98818 11.9673 1.73164C11.8609 1.47511 11.704 1.24262 11.5058 1.04804C11.2883 0.824112 11.0232 0.651908 10.7302 0.544142C10.4372 0.436377 10.1237 0.395802 9.81292 0.425414C8.72634 0.518914 7.87492 1.48508 7.87492 2.62479V4.66691H5.74992C4.96863 4.66691 4.33325 5.30229 4.33325 6.08358V13.8752C4.33325 14.0631 4.40788 14.2433 4.54072 14.3761C4.67356 14.509 4.85372 14.5836 5.04159 14.5836H14.9583C15.1461 14.5836 15.3263 14.509 15.4591 14.3761C15.592 14.2433 15.6666 14.0631 15.6666 13.8752V6.08429C15.6666 5.303 15.0312 4.66762 14.2499 4.66762ZM5.74992 7.50025V6.08358H9.29159V2.62479C9.29159 2.22104 9.57988 1.86687 10.0013 1.83358C10.1898 1.83358 10.364 1.90654 10.5057 2.05104C10.5707 2.11491 10.6221 2.19124 10.6569 2.27546C10.6918 2.35969 10.7092 2.45007 10.7083 2.54121V6.08358H11.413L11.4166 6.08429H14.2499V7.50025H5.74992Z" fill="#AEAEAE"/>
<path d="M3.33325 4.6875C3.20474 4.6875 3.08989 4.60273 3.05435 4.47695L2.677 3.15625L1.3563 2.77891C1.23052 2.74336 1.14575 2.62852 1.14575 2.5C1.14575 2.37148 1.23052 2.25664 1.3563 2.22109L2.677 1.84375L3.05435 0.523047C3.08989 0.397266 3.20474 0.3125 3.33325 0.3125C3.46177 0.3125 3.57661 0.397266 3.61216 0.523047L3.9895 1.84375L5.3102 2.22109C5.43599 2.25664 5.52075 2.37148 5.52075 2.5C5.52075 2.62852 5.43599 2.74336 5.3102 2.77891L3.9895 3.15625L3.61216 4.47695C3.57661 4.60273 3.46177 4.6875 3.33325 4.6875Z" fill="#AEAEAE"/>
<path d="M18.5 14C18.4119 14 18.3331 13.9419 18.3087 13.8556L18.05 12.95L17.1444 12.6912C17.0581 12.6669 17 12.5881 17 12.5C17 12.4119 17.0581 12.3331 17.1444 12.3088L18.05 12.05L18.3087 11.1444C18.3331 11.0581 18.4119 11 18.5 11C18.5881 11 18.6669 11.0581 18.6913 11.1444L18.95 12.05L19.8556 12.3088C19.9419 12.3331 20 12.4119 20 12.5C20 12.5881 19.9419 12.6669 19.8556 12.6912L18.95 12.95L18.6913 13.8556C18.6669 13.9419 18.5881 14 18.5 14Z" fill="#AEAEAE"/>
</svg>
