<svg width="12" height="13" viewBox="0 0 12 13" fill="none" xmlns="http://www.w3.org/2000/svg">
<path d="M11.7357 2.03889C12.0881 1.6865 12.0881 1.11668 11.7357 0.768041C11.3833 0.4194 10.8135 0.415651 10.4649 0.768041L6.00375 5.22915L1.53889 0.764292C1.1865 0.411903 0.616682 0.411903 0.268041 0.764292C-0.0805999 1.11668 -0.0843487 1.6865 0.268041 2.03515L4.72915 6.49625L0.264292 10.9611C-0.0880975 11.3135 -0.0880975 11.8833 0.264292 12.232C0.616682 12.5806 1.1865 12.5843 1.53515 12.232L5.99625 7.77085L10.4611 12.2357C10.8135 12.5881 11.3833 12.5881 11.732 12.2357C12.0806 11.8833 12.0843 11.3135 11.732 10.9649L7.27085 6.50375L11.7357 2.03889Z" fill="#00EFD9"/>
</svg>
