<svg width="20" height="16" viewBox="0 0 20 16" fill="none" xmlns="http://www.w3.org/2000/svg">
<path d="M11.5926 2.02744C11.2207 1.92024 10.8335 2.13682 10.7263 2.50872L7.92609 12.3095C7.81889 12.6814 8.03547 13.0686 8.40738 13.1758C8.77928 13.283 9.1665 13.0664 9.27369 12.6945L12.0739 2.89375C12.1811 2.52185 11.9645 2.13463 11.5926 2.02744ZM13.3559 4.65483C13.0824 4.92829 13.0824 5.37239 13.3559 5.64584L15.3095 7.60162L13.3537 9.5574C13.0802 9.83086 13.0802 10.275 13.3537 10.5484C13.6272 10.8219 14.0713 10.8219 14.3447 10.5484L16.7949 8.09822C17.0684 7.82477 17.0684 7.38067 16.7949 7.10721L14.3447 4.65702C14.0713 4.38356 13.6272 4.38356 13.3537 4.65702L13.3559 4.65483ZM6.6463 4.65483C6.37284 4.38137 5.92874 4.38137 5.65529 4.65483L3.20509 7.10502C2.93164 7.37848 2.93164 7.82258 3.20509 8.09604L5.65529 10.5462C5.92874 10.8197 6.37284 10.8197 6.6463 10.5462C6.91976 10.2728 6.91976 9.82867 6.6463 9.55521L4.69052 7.60162L6.6463 5.64584C6.91976 5.37239 6.91976 4.92829 6.6463 4.65483Z" fill="black"/>
</svg>
