<svg width="20" height="15" viewBox="0 0 20 15" fill="none" xmlns="http://www.w3.org/2000/svg">
<path d="M12.625 3.625C12.625 3.42609 12.704 3.23532 12.8447 3.09467C12.9853 2.95402 13.1761 2.875 13.375 2.875C13.5739 2.875 13.7647 2.95402 13.9053 3.09467C14.046 3.23532 14.125 3.42609 14.125 3.625C14.125 3.82391 14.046 4.01468 13.9053 4.15533C13.7647 4.29598 13.5739 4.375 13.375 4.375C13.1761 4.375 12.9853 4.29598 12.8447 4.15533C12.704 4.01468 12.625 3.82391 12.625 3.625ZM11.9242 4.81094C12.0836 5.00547 12.2805 5.16719 12.5031 5.28438L11.6406 10.0141C11.3711 10.0469 11.1203 10.1383 10.8977 10.2742L7.59297 7.37969C7.69375 7.14766 7.75 6.89453 7.75 6.625C7.75 6.57812 7.74766 6.52891 7.74531 6.48203L11.9242 4.81094ZM13.6094 5.48594C14.5352 5.37109 15.25 4.58125 15.25 3.625C15.25 2.58906 14.4109 1.75 13.375 1.75C12.3391 1.75 11.5 2.58906 11.5 3.625C11.5 3.67188 11.5023 3.72109 11.5047 3.76797L7.32578 5.43906C6.98359 5.01719 6.46094 4.75 5.875 4.75C4.83906 4.75 4 5.58906 4 6.625C4 7.66094 4.83906 8.5 5.875 8.5C6.23359 8.5 6.56641 8.39922 6.85 8.22578L10.157 11.1203C10.0563 11.3523 10 11.6055 10 11.875C10 12.9109 10.8391 13.75 11.875 13.75C12.9109 13.75 13.75 12.9109 13.75 11.875C13.75 11.1555 13.3445 10.5297 12.7492 10.2156L13.6094 5.48594ZM11.125 11.875C11.125 11.6761 11.204 11.4853 11.3447 11.3447C11.4853 11.204 11.6761 11.125 11.875 11.125C12.0739 11.125 12.2647 11.204 12.4053 11.3447C12.546 11.4853 12.625 11.6761 12.625 11.875C12.625 12.0739 12.546 12.2647 12.4053 12.4053C12.2647 12.546 12.0739 12.625 11.875 12.625C11.6761 12.625 11.4853 12.546 11.3447 12.4053C11.204 12.2647 11.125 12.0739 11.125 11.875ZM5.875 5.875C6.07391 5.875 6.26468 5.95402 6.40533 6.09467C6.54598 6.23532 6.625 6.42609 6.625 6.625C6.625 6.82391 6.54598 7.01468 6.40533 7.15533C6.26468 7.29598 6.07391 7.375 5.875 7.375C5.67609 7.375 5.48532 7.29598 5.34467 7.15533C5.20402 7.01468 5.125 6.82391 5.125 6.625C5.125 6.42609 5.20402 6.23532 5.34467 6.09467C5.48532 5.95402 5.67609 5.875 5.875 5.875Z" fill="black"/>
</svg>
