<svg width="20" height="16" viewBox="0 0 20 16" fill="none" xmlns="http://www.w3.org/2000/svg">
<g clip-path="url(#clip0_3298_15246)">
<path d="M14.25 10.5938H8.625C8.36719 10.5938 8.15625 10.3828 8.15625 10.125V2.625C8.15625 2.36719 8.36719 2.15625 8.625 2.15625H12.7295L14.7188 4.14551V10.125C14.7188 10.3828 14.5078 10.5938 14.25 10.5938ZM8.625 12H14.25C15.2842 12 16.125 11.1592 16.125 10.125V4.14551C16.125 3.77344 15.9756 3.41602 15.7119 3.15234L13.7256 1.16309C13.4619 0.899414 13.1045 0.75 12.7324 0.75H8.625C7.59082 0.75 6.75 1.59082 6.75 2.625V10.125C6.75 11.1592 7.59082 12 8.625 12ZM4.875 4.5C3.84082 4.5 3 5.34082 3 6.375V13.875C3 14.9092 3.84082 15.75 4.875 15.75H10.5C11.5342 15.75 12.375 14.9092 12.375 13.875V12.9375H10.9688V13.875C10.9688 14.1328 10.7578 14.3438 10.5 14.3438H4.875C4.61719 14.3438 4.40625 14.1328 4.40625 13.875V6.375C4.40625 6.11719 4.61719 5.90625 4.875 5.90625H5.8125V4.5H4.875Z" fill="black"/>
</g>
<defs>
<clipPath id="clip0_3298_15246">
<rect width="20" height="15" fill="white" transform="translate(0 0.5)"/>
</clipPath>
</defs>
</svg>
