<svg width="15" height="15" viewBox="0 0 15 15" fill="none" xmlns="http://www.w3.org/2000/svg">
<g clip-path="url(#clip0_5185_112894)">
<path fill-rule="evenodd" clip-rule="evenodd" d="M6.875 6.125C6.46079 6.125 6.125 6.46079 6.125 6.875V12.5C6.125 12.9142 6.46079 13.25 6.875 13.25H12.5C12.9142 13.25 13.25 12.9142 13.25 12.5V6.875C13.25 6.46079 12.9142 6.125 12.5 6.125H6.875ZM5.125 6.875C5.125 5.9085 5.9085 5.125 6.875 5.125H12.5C13.4665 5.125 14.25 5.9085 14.25 6.875V12.5C14.25 13.4665 13.4665 14.25 12.5 14.25H6.875C5.9085 14.25 5.125 13.4665 5.125 12.5V6.875Z" fill="currentColor"/>
<path fill-rule="evenodd" clip-rule="evenodd" d="M2.5 1.75C2.30109 1.75 2.11032 1.82902 1.96967 1.96967C1.82902 2.11032 1.75 2.30109 1.75 2.5V8.125C1.75 8.32391 1.82902 8.51468 1.96967 8.65533C2.11032 8.79598 2.30109 8.875 2.5 8.875H3.125C3.40114 8.875 3.625 9.09886 3.625 9.375C3.625 9.65114 3.40114 9.875 3.125 9.875H2.5C2.03587 9.875 1.59075 9.69063 1.26256 9.36244C0.934374 9.03425 0.75 8.58913 0.75 8.125V2.5C0.75 2.03587 0.934374 1.59075 1.26256 1.26256C1.59075 0.934374 2.03587 0.75 2.5 0.75H8.125C8.58913 0.75 9.03425 0.934374 9.36244 1.26256C9.69063 1.59075 9.875 2.03587 9.875 2.5V3.125C9.875 3.40114 9.65114 3.625 9.375 3.625C9.09886 3.625 8.875 3.40114 8.875 3.125V2.5C8.875 2.30109 8.79598 2.11032 8.65533 1.96967C8.51468 1.82902 8.32391 1.75 8.125 1.75H2.5Z" fill="currentColor"/>
</g>
<defs>
<clipPath id="clip0_5185_112894">
<rect width="15" height="15" fill="white"/>
</clipPath>
</defs>
</svg>
