<svg width="12" height="12" viewBox="0 0 12 12" fill="none" xmlns="http://www.w3.org/2000/svg">
<path d="M3.08329 0.251221H1.91663V2.00122H0.166626V3.16789H1.91663V4.91789H3.08329V3.16789H4.83329V2.00122H3.08329V0.251221ZM7.16663 2.00122H11.8333V3.16789H7.16663V2.00122ZM7.16663 7.83455H11.8333V9.00122H7.16663V7.83455ZM7.16663 10.1679H11.8333V11.3346H7.16663V10.1679ZM3.83579 7.42039L2.49996 8.76205L1.16413 7.42039L0.335793 8.24872L1.67746 9.58455L0.335793 10.9204L1.16413 11.7487L2.49996 10.4071L3.83579 11.7487L4.66413 10.9204L3.32246 9.58455L4.66413 8.24872L3.83579 7.42039Z" fill="#D32DCA"/>
</svg>
