<svg width="11" height="13" viewBox="0 0 11 13" fill="none" xmlns="http://www.w3.org/2000/svg">
<path d="M7.87831 6.30293C7.87831 6.25069 7.85756 6.20059 7.82062 6.16365C7.78368 6.12671 7.73358 6.10596 7.68134 6.10596C7.62911 6.10596 7.579 6.12671 7.54207 6.16365C7.50513 6.20059 7.48438 6.25069 7.48438 6.30293V8.86353C7.48438 8.91577 7.50513 8.96587 7.54207 9.00281C7.579 9.03975 7.62911 9.0605 7.68134 9.0605C7.73358 9.0605 7.78368 9.03975 7.82062 9.00281C7.85756 8.96587 7.87831 8.91577 7.87831 8.86353V6.30293Z" fill="black"/>
<path d="M2.36364 11.0303H6.69697C6.90593 11.0303 7.10633 10.9473 7.25408 10.7995C7.40184 10.6518 7.48485 10.4514 7.48485 10.2424C7.48485 10.0335 7.40184 9.83307 7.25408 9.68531C7.10633 9.53755 6.90593 9.45455 6.69697 9.45455H0.590909C0.53869 9.45448 0.48863 9.4337 0.451705 9.39678C0.414781 9.35986 0.394007 9.30979 0.393939 9.25758V0.590909C0.394007 0.53869 0.414781 0.48863 0.451705 0.451705C0.48863 0.414781 0.53869 0.394007 0.590909 0.393939H7.28788C7.3401 0.394007 7.39016 0.414781 7.42708 0.451705C7.46401 0.48863 7.48478 0.53869 7.48485 0.590909V2.95455C7.48485 3.00679 7.5056 3.05689 7.54254 3.09382C7.57948 3.13076 7.62958 3.15152 7.68182 3.15152C7.73406 3.15152 7.78416 3.13076 7.8211 3.09382C7.85804 3.05689 7.87879 3.00679 7.87879 2.95455V0.590909C7.87862 0.434243 7.81631 0.284042 7.70553 0.173262C7.59475 0.0624823 7.44455 0.000171008 7.28788 0H0.590909C0.434243 0.000171008 0.284042 0.0624823 0.173262 0.173262C0.0624823 0.284042 0.000171008 0.434243 0 0.590909V9.25758C0.000171008 9.41424 0.0624823 9.56444 0.173262 9.67522C0.284042 9.786 0.434243 9.84831 0.590909 9.84848H6.69697C6.80145 9.84848 6.90165 9.88999 6.97553 9.96387C7.04941 10.0377 7.09091 10.1379 7.09091 10.2424C7.09091 10.3469 7.04941 10.4471 6.97553 10.521C6.90165 10.5949 6.80145 10.6364 6.69697 10.6364H2.36364C2.0502 10.6364 1.7496 10.7609 1.52796 10.9825C1.30633 11.2041 1.18182 11.5047 1.18182 11.8182C1.18182 12.1316 1.30633 12.4322 1.52796 12.6539C1.7496 12.8755 2.0502 13 2.36364 13H7.28788C7.34012 13 7.39022 12.9792 7.42716 12.9423C7.4641 12.9054 7.48485 12.8553 7.48485 12.803C7.48485 12.7508 7.4641 12.7007 7.42716 12.6638C7.39022 12.6268 7.34012 12.6061 7.28788 12.6061H2.36364C2.15468 12.6061 1.95428 12.5231 1.80652 12.3753C1.65877 12.2275 1.57576 12.0271 1.57576 11.8182C1.57576 11.6092 1.65877 11.4088 1.80652 11.2611C1.95428 11.1133 2.15468 11.0303 2.36364 11.0303Z" fill="black"/>
<path d="M3.95363 7.41644C3.9528 7.41866 3.95069 7.42017 3.94994 7.42242L3.556 8.60424C3.54443 8.63894 3.54276 8.67619 3.55117 8.71179C3.55958 8.74739 3.57774 8.77995 3.60361 8.80582C3.62947 8.83169 3.66203 8.84984 3.69764 8.85825C3.73324 8.86666 3.77048 8.86499 3.80519 8.85343L4.98701 8.45949C5.01599 8.44978 5.04233 8.43349 5.06395 8.41188L9.65196 3.82387C9.71441 3.76143 9.76394 3.6873 9.79774 3.60572C9.83154 3.52413 9.84893 3.43669 9.84893 3.34838C9.84893 3.26007 9.83154 3.17262 9.79774 3.09104C9.76394 3.00945 9.71441 2.93532 9.65196 2.87288L9.53655 2.75747C9.40846 2.63515 9.23816 2.56689 9.06105 2.56689C8.88394 2.56689 8.71364 2.63515 8.58556 2.75747L3.9976 7.34542C3.97801 7.36565 3.96301 7.38988 3.95363 7.41644ZM4.27877 7.68171H4.72772V8.07565C4.72879 8.09323 4.73229 8.11057 4.73813 8.12719L4.05429 8.35515L4.27877 7.68171ZM8.86408 3.036C8.9175 2.98604 8.98791 2.95824 9.06105 2.95824C9.13419 2.95824 9.2046 2.98604 9.25802 3.036L9.37343 3.15141C9.42566 3.20366 9.45499 3.27451 9.45499 3.34838C9.45499 3.42225 9.42566 3.4931 9.37343 3.54535L5.12166 7.79712V7.48474C5.12166 7.4325 5.10091 7.3824 5.06397 7.34546C5.02703 7.30852 4.97693 7.28777 4.92469 7.28777H4.61231L8.86408 3.036Z" fill="black"/>
<path d="M5.90823 0.984863H1.96884C1.81212 0.984863 1.66182 1.04712 1.551 1.15794C1.44019 1.26875 1.37793 1.41905 1.37793 1.57577C1.37793 1.73249 1.44019 1.88279 1.551 1.99361C1.66182 2.10443 1.81212 2.16668 1.96884 2.16668H5.90823C6.06495 2.16668 6.21525 2.10443 6.32607 1.99361C6.43689 1.88279 6.49914 1.73249 6.49914 1.57577C6.49914 1.41905 6.43689 1.26875 6.32607 1.15794C6.21525 1.04712 6.06495 0.984863 5.90823 0.984863ZM5.90823 1.77274H1.96884C1.9166 1.77274 1.8665 1.75199 1.82956 1.71505C1.79262 1.67811 1.77187 1.62801 1.77187 1.57577C1.77187 1.52353 1.79262 1.47343 1.82956 1.43649C1.8665 1.39955 1.9166 1.3788 1.96884 1.3788H5.90823C5.96047 1.3788 6.01057 1.39955 6.04751 1.43649C6.08445 1.47343 6.1052 1.52353 6.1052 1.57577C6.1052 1.62801 6.08445 1.67811 6.04751 1.71505C6.01057 1.75199 5.96047 1.77274 5.90823 1.77274Z" fill="black"/>
<path d="M9.25672 12.606H8.0749C8.02266 12.606 7.97256 12.6267 7.93562 12.6636C7.89868 12.7006 7.87793 12.7507 7.87793 12.8029C7.87793 12.8552 7.89868 12.9053 7.93562 12.9422C7.97256 12.9791 8.02266 12.9999 8.0749 12.9999H9.25672C9.30896 12.9999 9.35906 12.9791 9.396 12.9422C9.43294 12.9053 9.45369 12.8552 9.45369 12.8029C9.45369 12.7507 9.43294 12.7006 9.396 12.6636C9.35906 12.6267 9.30896 12.606 9.25672 12.606Z" fill="black"/>
<path d="M10.0463 12.606H9.84931C9.79707 12.606 9.74697 12.6267 9.71003 12.6636C9.6731 12.7006 9.65234 12.7507 9.65234 12.8029C9.65234 12.8552 9.6731 12.9053 9.71003 12.9422C9.74697 12.9791 9.79707 12.9999 9.84931 12.9999H10.0463C10.0985 12.9999 10.1486 12.9791 10.1856 12.9422C10.2225 12.9053 10.2433 12.8552 10.2433 12.8029C10.2433 12.7507 10.2225 12.7006 10.1856 12.6636C10.1486 12.6267 10.0985 12.606 10.0463 12.606Z" fill="black"/>
<path d="M1.96973 2.95454C1.96973 3.00678 1.99048 3.05688 2.02742 3.09382C2.06436 3.13076 2.11446 3.15151 2.1667 3.15151H6.50003C6.55227 3.15151 6.60237 3.13076 6.63931 3.09382C6.67625 3.05688 6.697 3.00678 6.697 2.95454C6.697 2.9023 6.67625 2.8522 6.63931 2.81526C6.60237 2.77832 6.55227 2.75757 6.50003 2.75757H2.1667C2.11446 2.75757 2.06436 2.77832 2.02742 2.81526C1.99048 2.8522 1.96973 2.9023 1.96973 2.95454Z" fill="black"/>
<path d="M1.18164 3.74238C1.18164 3.79462 1.20239 3.84472 1.23933 3.88166C1.27627 3.9186 1.32637 3.93935 1.37861 3.93935H6.49982C6.55206 3.93935 6.60216 3.9186 6.6391 3.88166C6.67604 3.84472 6.69679 3.79462 6.69679 3.74238C6.69679 3.69014 6.67604 3.64004 6.6391 3.6031C6.60216 3.56616 6.55206 3.54541 6.49982 3.54541H1.37861C1.32637 3.54541 1.27627 3.56616 1.23933 3.6031C1.20239 3.64004 1.18164 3.69014 1.18164 3.74238Z" fill="black"/>
<path d="M1.37861 4.72744H6.10588C6.15812 4.72744 6.20822 4.70668 6.24516 4.66974C6.2821 4.63281 6.30285 4.58271 6.30285 4.53047C6.30285 4.47823 6.2821 4.42813 6.24516 4.39119C6.20822 4.35425 6.15812 4.3335 6.10588 4.3335H1.37861C1.32637 4.3335 1.27627 4.35425 1.23933 4.39119C1.20239 4.42813 1.18164 4.47823 1.18164 4.53047C1.18164 4.58271 1.20239 4.63281 1.23933 4.66974C1.27627 4.70668 1.32637 4.72744 1.37861 4.72744Z" fill="black"/>
<path d="M5.51497 5.31806C5.51497 5.26582 5.49422 5.21572 5.45728 5.17878C5.42034 5.14185 5.37024 5.12109 5.318 5.12109H1.37861C1.32637 5.12109 1.27627 5.14185 1.23933 5.17878C1.20239 5.21572 1.18164 5.26582 1.18164 5.31806C1.18164 5.3703 1.20239 5.4204 1.23933 5.45734C1.27627 5.49428 1.32637 5.51503 1.37861 5.51503H5.318C5.37024 5.51503 5.42034 5.49428 5.45728 5.45734C5.49422 5.4204 5.51497 5.3703 5.51497 5.31806Z" fill="black"/>
<path d="M1.37861 5.90894C1.32637 5.90894 1.27627 5.92969 1.23933 5.96663C1.20239 6.00357 1.18164 6.05367 1.18164 6.10591C1.18164 6.15814 1.20239 6.20825 1.23933 6.24518C1.27627 6.28212 1.32637 6.30287 1.37861 6.30287H2.56043C2.61267 6.30287 2.66277 6.28212 2.69971 6.24518C2.73665 6.20825 2.7574 6.15814 2.7574 6.10591C2.7574 6.05367 2.73665 6.00357 2.69971 5.96663C2.66277 5.92969 2.61267 5.90894 2.56043 5.90894H1.37861Z" fill="black"/>
</svg>
