<svg width="14" height="15" viewBox="0 0 14 15" fill="none" xmlns="http://www.w3.org/2000/svg">
    <g clip-path="url(#clip0_11200_2643)">
        <path
            d="M7 5.16602C9.8995 5.16602 12.25 4.38251 12.25 3.41602C12.25 2.44952 9.8995 1.66602 7 1.66602C4.1005 1.66602 1.75 2.44952 1.75 3.41602C1.75 4.38251 4.1005 5.16602 7 5.16602Z"
            stroke="#454C54" stroke-width="1.5" stroke-linecap="round" stroke-linejoin="round" />
        <path d="M12.25 7.5C12.25 8.46833 9.91667 9.25 7 9.25C4.08333 9.25 1.75 8.46833 1.75 7.5" stroke="#454C54"
            stroke-width="1.5" stroke-linecap="round" stroke-linejoin="round" />
        <path
            d="M1.75 3.41602V11.5827C1.75 12.551 4.08333 13.3327 7 13.3327C9.91667 13.3327 12.25 12.551 12.25 11.5827V3.41602"
            stroke="#454C54" stroke-width="1.5" stroke-linecap="round" stroke-linejoin="round" />
    </g>
    <defs>
        <clipPath id="clip0_11200_2643">
            <rect width="14" height="14" fill="white" transform="translate(0 0.5)" />
        </clipPath>
    </defs>
</svg>