<svg width="16" height="13" viewBox="0 0 16 13" fill="none" xmlns="http://www.w3.org/2000/svg">
    <path d="M1.41207 1.20603C1.41207 0.814773 1.09729 0.5 0.706034 0.5C0.314773 0.5 0 0.814773 0 1.20603V6.14827C0 7.57799 1.15907 8.73706 2.58879 8.73706H12.6527L10.0933 11.2964C9.81681 11.573 9.81681 12.0201 10.0933 12.2937C10.3699 12.5673 10.817 12.5702 11.0906 12.2937L14.8561 8.53113C15.1327 8.2546 15.1327 7.80745 14.8561 7.53386L11.0906 3.76541C10.8141 3.48888 10.3669 3.48888 10.0933 3.76541C9.81975 4.04194 9.81681 4.48909 10.0933 4.76268L12.6527 7.32205H2.58879C1.93865 7.32205 1.41207 6.79547 1.41207 6.14533V1.20603Z" fill="#D32DCA"/>
</svg>
