<svg width="20" height="16" viewBox="0 0 20 16" fill="none" xmlns="http://www.w3.org/2000/svg">
<path d="M5.64286 12.3214C5.28661 12.3214 5 12.608 5 12.9643C5 13.3205 5.28661 13.6071 5.64286 13.6071H14.6429C14.9991 13.6071 15.2857 13.3205 15.2857 12.9643C15.2857 12.608 14.9991 12.3214 14.6429 12.3214H5.64286Z" fill="#8C8C8C"/>
<path d="M10.1398 10.3214C9.96306 10.3214 9.79431 10.2491 9.6711 10.1179L9.67378 10.1205L6.2452 6.47768C6.00146 6.22053 6.01485 5.81339 6.27199 5.56964C6.52913 5.32589 6.93628 5.33661 7.18003 5.59643L9.49699 8.05803V5.82143V2.39285C9.49699 2.0366 9.7836 1.75 10.1398 1.75C10.4961 1.75 10.7827 2.0366 10.7827 2.39285V5.82143V8.05803L13.1023 5.59375C13.3461 5.3366 13.7532 5.32321 14.0104 5.56696C14.2675 5.81071 14.2809 6.21518 14.0372 6.475L10.6086 10.1179C10.4854 10.2491 10.3166 10.3214 10.1398 10.3214Z" fill="#8C8C8C"/>
</svg>
