<svg width="8" height="14" viewBox="0 0 8 14" fill="none" xmlns="http://www.w3.org/2000/svg">
<path d="M7.2261 10.0391C7.59228 9.67294 7.59228 9.07828 7.2261 8.7121C6.85993 8.34593 6.26526 8.34593 5.89908 8.7121L4.68924 9.92194L4.68924 0.937469C4.68924 0.418965 4.27033 6.08485e-05 3.75183 6.08712e-05C3.23333 6.08938e-05 2.81442 0.418965 2.81442 0.937469L2.81442 9.92194L1.60165 8.70917C1.23547 8.343 0.640806 8.343 0.274631 8.70917C-0.091544 9.07535 -0.0915439 9.67002 0.274631 10.0362L3.08686 12.8484C3.45303 13.2146 4.0477 13.2146 4.41388 12.8484L7.2261 10.0362L7.2261 10.0391Z" fill="white"/>
</svg>
