<svg width="20" height="15" viewBox="0 0 20 15" fill="none" xmlns="http://www.w3.org/2000/svg">
<path fill-rule="evenodd" clip-rule="evenodd" d="M16.4941 3.05789L14.4421 1.00586L12.8777 2.57088L14.9298 4.62291L16.4941 3.05789ZM8.9782 10.5738H6.92616V8.52178L11.9106 3.53739L13.9626 5.58942L8.9782 10.5738ZM7.03424 12.6259H14.4503V8.06488L15.8183 6.69686V12.6259C15.8183 12.9887 15.6742 13.3367 15.4176 13.5932C15.1611 13.8498 14.8131 13.9939 14.4503 13.9939H4.87413C4.11966 13.9939 3.5061 13.381 3.5061 12.6259V3.04971C3.5061 2.29456 4.11966 1.68169 4.87413 1.68169H10.9256L9.55755 3.04971H4.87413V12.6259H6.9118C6.92284 12.6262 6.93374 12.6278 6.94455 12.6293C6.9565 12.631 6.96835 12.6327 6.9802 12.6327C6.98909 12.6327 6.99815 12.631 7.00722 12.6293C7.01628 12.6276 7.02534 12.6259 7.03424 12.6259Z" fill="currentColor"/>
</svg>
