<svg width="20" height="15" viewBox="0 0 20 15" fill="none" xmlns="http://www.w3.org/2000/svg">
<path fill-rule="evenodd" clip-rule="evenodd" d="M16.4939 3.05789L14.4418 1.00586L12.8775 2.57088L14.9295 4.62291L16.4939 3.05789ZM8.97795 10.5738H6.92592V8.52178L11.9103 3.53739L13.9623 5.58942L8.97795 10.5738ZM7.03399 12.6259H14.45V8.06488L15.8181 6.69686V12.6259C15.8181 12.9887 15.6739 13.3367 15.4174 13.5932C15.1608 13.8498 14.8129 13.9939 14.45 13.9939H4.87388C4.11942 13.9939 3.50586 13.381 3.50586 12.6259V3.04971C3.50586 2.29456 4.11942 1.68169 4.87388 1.68169H10.9253L9.55731 3.04971H4.87388V12.6259H6.91155C6.9226 12.6262 6.93349 12.6278 6.94431 12.6293C6.95625 12.631 6.9681 12.6327 6.97995 12.6327C6.98885 12.6327 6.99791 12.631 7.00697 12.6293C7.01604 12.6276 7.0251 12.6259 7.03399 12.6259Z" fill="#6C757D"/>
</svg>
