<svg width="86" height="114" viewBox="0 0 86 114" fill="none" xmlns="http://www.w3.org/2000/svg">
<path d="M32.4091 33.0646C33.525 32.7705 34.3458 32.4892 35.2051 32.3229C41.092 31.1849 46.3504 33.7935 48.9026 39.2155C49.4413 40.3663 49.9159 40.7883 51.1727 40.1489C55.6232 37.8728 62.69 40.2768 65.2551 43.7678C66.0631 44.8548 66.6402 44.778 67.7304 44.1898C74.5663 40.5198 83.3005 44.2154 85.3654 51.6705C85.7886 53.205 85.9681 54.8419 85.9681 56.4275C85.9297 64.6371 86.2118 72.8723 85.5962 81.0436C84.5061 95.7365 76.7082 105.89 63.1132 111.593C59.163 113.255 55.0076 113.959 50.7367 113.972C45.6706 113.972 40.6046 114.036 35.5257 113.972C19.8017 113.78 6.38633 103.895 1.84613 88.8824C-0.372674 81.5423 -0.488104 73.9721 0.948344 66.453C1.53831 63.3584 3.20562 60.6858 5.62963 58.627C6.925 57.5145 7.37389 56.3252 7.36107 54.6245C7.29694 40.8778 7.28411 27.1312 7.34824 13.3846C7.37389 8.93449 8.52818 4.89361 12.5169 2.22101C19.6094 -2.54875 29.6773 0.71208 31.6396 8.67873C32.0885 10.5074 32.2809 12.4383 32.3065 14.3308C32.3963 19.8679 32.3322 25.4049 32.345 30.9291C32.345 31.5557 32.3963 32.1823 32.4348 33.0391L32.4091 33.0646ZM78.7346 79.3173C78.3114 79.3045 78.1318 79.2405 77.9779 79.2917C72.8349 81.0564 68.4101 79.7393 64.4214 76.2482C64.0623 75.9286 63.0491 75.9414 62.5746 76.2227C57.5213 79.151 52.6348 79.1382 47.9279 75.5322C47.0301 74.8544 46.453 74.8672 45.4398 75.4682C43.6314 76.5296 41.6563 77.7828 39.6555 77.9746C34.8716 78.4221 30.0236 78.307 25.2012 78.3838C24.8036 78.3838 24.3932 78.192 23.9957 78.0641C22.277 77.5398 21.7256 76.1971 21.7897 74.5986C21.8538 72.9363 22.7388 71.7982 24.4702 71.5424C25.5219 71.389 26.5992 71.2739 27.6637 71.2739C30.8188 71.2355 33.9867 71.325 37.1417 71.2227C38.2832 71.1844 39.5529 70.9542 40.5148 70.3788C42.6695 69.1 43.4647 66.7599 42.8106 64.5476C42.0282 61.8878 40.0403 60.43 36.8596 60.4045C30.7803 60.3533 24.6882 60.3022 18.609 60.4172C11.6191 60.5451 7.23281 65.1358 7.18151 72.1434C7.18151 73.5756 7.18151 74.9951 7.18151 76.4273C7.10456 84.509 9.22075 91.8235 14.787 97.9104C18.9424 102.45 24.047 105.238 30.1262 106.337C37.0519 107.591 44.0418 106.99 51.006 106.964C53.3018 106.964 55.6232 106.44 57.8805 105.915C64.7164 104.33 69.8338 100.199 73.8096 94.5984C77.0032 90.0844 78.6961 85.0461 78.7346 79.3301V79.3173ZM25.1884 32.3229C25.1884 26.1338 25.1884 19.9446 25.1756 13.7682C25.1756 12.8219 25.0858 11.8628 24.8678 10.9421C24.265 8.46135 21.6999 6.81175 19.1605 7.18259C15.9926 7.64294 14.3509 9.80405 14.3381 13.6147C14.3253 24.5609 14.3381 35.5071 14.3381 46.4532C14.3381 48.4225 14.3637 50.379 14.3381 52.3483C14.3124 53.5375 14.8126 53.87 15.9798 53.7805C18.4038 53.6015 20.8534 53.4608 23.2903 53.4864C24.7395 53.4992 25.2654 53.1411 25.2397 51.5938C25.1628 45.1745 25.2012 38.7423 25.2012 32.3229H25.1884ZM61.0098 58.7037C61.0098 56.3892 61.0483 54.0618 61.0098 51.7473C60.9585 48.6527 58.5474 46.223 55.6103 46.223C52.6348 46.223 50.2493 48.6271 50.2237 51.7473C50.1852 56.3252 50.1852 60.916 50.2237 65.4939C50.2493 68.9082 52.4168 71.1972 55.5206 71.2483C58.6756 71.2867 60.9585 68.9338 61.0098 65.4939C61.0483 63.2305 61.0098 60.9671 61.0098 58.7037ZM79.0039 61.3891C79.0039 61.3891 78.9142 61.3891 78.8757 61.3891C78.8757 59.5988 78.8885 57.8214 78.8757 56.0311C78.8372 52.3867 76.7082 49.778 73.5403 49.9314C70.8213 50.0593 68.051 51.6066 68.0382 56.1334C68.0382 59.65 68.0126 63.1538 68.051 66.6704C68.051 67.5527 68.2178 68.4478 68.4486 69.2918C69.0771 71.6831 71.1035 73.1281 73.6301 73.0769C76.1695 73.0258 78.2344 71.5041 78.5679 69.0361C78.9013 66.5169 78.8885 63.9466 79.0168 61.4019L79.0039 61.3891ZM43.0286 54.0618C43.0286 50.6475 43.2466 47.0926 42.9516 43.5632C42.7464 40.9929 39.8479 38.9341 37.4752 39.1387C34.5895 39.3817 32.4604 41.4916 32.3578 44.356C32.2681 46.9647 32.2681 49.5862 32.3707 52.1948C32.3835 52.6296 33.1274 53.3585 33.5762 53.3969C36.6287 53.691 39.7068 53.8444 43.0158 54.049L43.0286 54.0618Z" fill="url(#paint0_linear_6276_20762)"/>
<defs>
<linearGradient id="paint0_linear_6276_20762" x1="3.40665" y1="1.11568e-06" x2="106.675" y2="84.607" gradientUnits="userSpaceOnUse">
<stop stop-color="#ED6A7D"/>
<stop offset="1" stop-color="#EA35FA"/>
</linearGradient>
</defs>
</svg>
