<svg width="20" height="21" viewBox="0 0 20 21" fill="none" xmlns="http://www.w3.org/2000/svg">
<path d="M10 20.582C12.6522 20.582 15.1957 19.5285 17.0711 17.6531C18.9464 15.7777 20 13.2342 20 10.582C20 7.92987 18.9464 5.38633 17.0711 3.51096C15.1957 1.6356 12.6522 0.582031 10 0.582031C7.34784 0.582031 4.8043 1.6356 2.92893 3.51096C1.05357 5.38633 0 7.92987 0 10.582C0 13.2342 1.05357 15.7777 2.92893 17.6531C4.8043 19.5285 7.34784 20.582 10 20.582ZM10 5.58203C10.5195 5.58203 10.9375 6 10.9375 6.51953V10.8945C10.9375 11.4141 10.5195 11.832 10 11.832C9.48047 11.832 9.0625 11.4141 9.0625 10.8945V6.51953C9.0625 6 9.48047 5.58203 10 5.58203ZM8.75 14.332C8.75 14.0005 8.8817 13.6826 9.11612 13.4481C9.35054 13.2137 9.66848 13.082 10 13.082C10.3315 13.082 10.6495 13.2137 10.8839 13.4481C11.1183 13.6826 11.25 14.0005 11.25 14.332C11.25 14.6636 11.1183 14.9815 10.8839 15.2159C10.6495 15.4503 10.3315 15.582 10 15.582C9.66848 15.582 9.35054 15.4503 9.11612 15.2159C8.8817 14.9815 8.75 14.6636 8.75 14.332Z" fill="#FF002E"/>
</svg>
