<svg width="14" height="13" viewBox="0 0 14 13" fill="none" xmlns="http://www.w3.org/2000/svg">
<path d="M12.625 0.664062C12.0039 0.664062 11.5 1.16797 11.5 1.78906V11.5391C11.5 12.1602 12.0039 12.6641 12.625 12.6641C13.2461 12.6641 13.75 12.1602 13.75 11.5391V1.78906C13.75 1.16797 13.2461 0.664062 12.625 0.664062ZM7.75 4.78906V11.5391C7.75 12.1602 8.25391 12.6641 8.875 12.6641C9.49609 12.6641 10 12.1602 10 11.5391V4.78906C10 4.16797 9.49609 3.66406 8.875 3.66406C8.25391 3.66406 7.75 4.16797 7.75 4.78906ZM5.125 6.66406C4.50391 6.66406 4 7.16797 4 7.78906V11.5391C4 12.1602 4.50391 12.6641 5.125 12.6641C5.74609 12.6641 6.25 12.1602 6.25 11.5391V7.78906C6.25 7.16797 5.74609 6.66406 5.125 6.66406ZM1.375 9.66406C0.753906 9.66406 0.25 10.168 0.25 10.7891V11.5391C0.25 12.1602 0.753906 12.6641 1.375 12.6641C1.99609 12.6641 2.5 12.1602 2.5 11.5391V10.7891C2.5 10.168 1.99609 9.66406 1.375 9.66406Z" fill="#F6C519"/>
</svg>
