<svg width="12" height="12" viewBox="0 0 12 12" fill="none" xmlns="http://www.w3.org/2000/svg">
    <path
        d="M7.03223 1.26562C7.03223 1.55137 7.26211 1.78125 7.54785 1.78125H9.74141L4.94824 6.57227C4.74629 6.77422 4.74629 7.10078 4.94824 7.30059C5.1502 7.50039 5.47676 7.50254 5.67656 7.30059L10.4676 2.50957V4.70312C10.4676 4.98887 10.6975 5.21875 10.9832 5.21875C11.2689 5.21875 11.4988 4.98887 11.4988 4.70312V1.26562C11.4988 0.979883 11.2689 0.75 10.9832 0.75H7.54785C7.26211 0.75 7.03223 0.979883 7.03223 1.26562ZM2.04785 1.4375C1.19277 1.4375 0.500977 2.1293 0.500977 2.98438V10.2031C0.500977 11.0582 1.19277 11.75 2.04785 11.75H9.2666C10.1217 11.75 10.8135 11.0582 10.8135 10.2031V7.45312C10.8135 7.16738 10.5836 6.9375 10.2979 6.9375C10.0121 6.9375 9.78223 7.16738 9.78223 7.45312V10.2031C9.78223 10.4889 9.55234 10.7188 9.2666 10.7188H2.04785C1.76211 10.7188 1.53223 10.4889 1.53223 10.2031V2.98438C1.53223 2.69863 1.76211 2.46875 2.04785 2.46875H4.79785C5.08359 2.46875 5.31348 2.23887 5.31348 1.95312C5.31348 1.66738 5.08359 1.4375 4.79785 1.4375H2.04785Z"
        fill="black" />
</svg>