<svg width="20" height="16" viewBox="0 0 20 16" fill="none" xmlns="http://www.w3.org/2000/svg">
<path d="M3.90363 1.86405C3.65988 1.67186 3.30598 1.71639 3.1138 1.96014C2.92162 2.20388 2.96615 2.55778 3.20989 2.74996L17.0846 13.6247C17.3283 13.8169 17.6822 13.7724 17.8744 13.5286C18.0666 13.2849 18.0221 12.931 17.7783 12.7388L15.3128 10.8076C16.2409 9.85606 16.869 8.78967 17.1854 8.03266C17.2627 7.84751 17.2627 7.64126 17.1854 7.45611C16.8362 6.61941 16.1026 5.40069 15.0057 4.38352C13.9042 3.35698 12.3878 2.4945 10.4941 2.4945C8.89571 2.4945 7.56448 3.11089 6.52623 3.91947L3.90363 1.86405ZM7.44261 4.63664C8.29103 4.03431 9.31054 3.61948 10.4941 3.61948C12.0222 3.61948 13.2784 4.31321 14.2417 5.20616C15.144 6.0452 15.7674 7.04128 16.0862 7.74438C15.7909 8.40062 15.2284 9.30998 14.4245 10.1092L13.1636 9.12014C13.3769 8.70764 13.4964 8.24125 13.4964 7.74438C13.4964 6.08739 12.1534 4.74445 10.4965 4.74445C9.74178 4.74445 9.05039 5.02335 8.52306 5.48272L7.44261 4.63664ZM12.2495 8.40531L10.3394 6.90768C10.4379 6.70847 10.4941 6.48113 10.4941 6.24442C10.4941 6.11551 10.4777 5.98895 10.4472 5.86943C10.4636 5.86943 10.4777 5.86943 10.4941 5.86943C11.53 5.86943 12.3691 6.70847 12.3691 7.74438C12.3691 7.97641 12.3269 8.19906 12.2495 8.40531ZM13.4519 12.2326L12.4698 11.4591C11.8722 11.7146 11.2136 11.8693 10.4941 11.8693C8.96602 11.8693 7.70979 11.1756 6.74653 10.2826C5.84421 9.44357 5.22079 8.44749 4.90204 7.74438C5.09657 7.31314 5.40594 6.77175 5.82546 6.22567L4.94189 5.52959C4.40752 6.22567 4.0255 6.9194 3.80285 7.45611C3.72551 7.64126 3.72551 7.84751 3.80285 8.03266C4.15206 8.86936 4.88564 10.0881 5.98249 11.1052C7.08403 12.1318 8.6004 12.9943 10.4941 12.9943C11.6144 12.9943 12.6011 12.6919 13.4519 12.2326ZM11.3894 10.6084L10.0722 9.57247C9.52147 9.44591 9.06211 9.07561 8.81368 8.58109L7.49886 7.54517C7.49417 7.61079 7.49183 7.67642 7.49183 7.74438C7.49183 9.40138 8.83477 10.7443 10.4918 10.7443C10.8035 10.7443 11.1035 10.6974 11.3871 10.6084H11.3894Z" fill="black"/>
</svg>
