<svg width="21" height="15" viewBox="0 0 21 15" fill="none" xmlns="http://www.w3.org/2000/svg">
<path d="M10.5708 3.42857C8.96992 3.42857 7.65385 4.15536 6.6447 5.09085C5.69939 5.96987 5.04626 7.01339 4.71233 7.75C5.04626 8.48661 5.69939 9.53013 6.64224 10.4092C7.65385 11.3446 8.96992 12.0714 10.5708 12.0714C12.1717 12.0714 13.4878 11.3446 14.4969 10.4092C15.4422 9.53013 16.0954 8.48661 16.4293 7.75C16.0954 7.01339 15.4422 5.96987 14.4994 5.09085C13.4878 4.15536 12.1717 3.42857 10.5708 3.42857ZM5.8418 4.22902C6.99827 3.15357 8.58689 2.25 10.5708 2.25C12.5547 2.25 14.1434 3.15357 15.2998 4.22902C16.4489 5.2971 17.2175 6.57143 17.5833 7.44799C17.6643 7.64196 17.6643 7.85804 17.5833 8.05201C17.2175 8.92857 16.4489 10.2054 15.2998 11.271C14.1434 12.3464 12.5547 13.25 10.5708 13.25C8.58689 13.25 6.99827 12.3464 5.8418 11.271C4.69269 10.2054 3.92416 8.92857 3.56077 8.05201C3.47974 7.85804 3.47974 7.64196 3.56077 7.44799C3.92416 6.57143 4.69269 5.29464 5.8418 4.22902ZM10.5708 9.71429C11.6561 9.71429 12.5351 8.83527 12.5351 7.75C12.5351 6.66473 11.6561 5.78571 10.5708 5.78571C10.5536 5.78571 10.5389 5.78571 10.5217 5.78571C10.5536 5.91094 10.5708 6.04353 10.5708 6.17857C10.5708 7.04531 9.86613 7.75 8.99939 7.75C8.86434 7.75 8.73175 7.73281 8.60653 7.70089C8.60653 7.71808 8.60653 7.73281 8.60653 7.75C8.60653 8.83527 9.48555 9.71429 10.5708 9.71429ZM10.5708 4.60714C11.4044 4.60714 12.2038 4.93826 12.7932 5.52766C13.3826 6.11706 13.7137 6.91646 13.7137 7.75C13.7137 8.58354 13.3826 9.38294 12.7932 9.97234C12.2038 10.5617 11.4044 10.8929 10.5708 10.8929C9.73728 10.8929 8.93788 10.5617 8.34848 9.97234C7.75908 9.38294 7.42796 8.58354 7.42796 7.75C7.42796 6.91646 7.75908 6.11706 8.34848 5.52766C8.93788 4.93826 9.73728 4.60714 10.5708 4.60714Z" fill="black"/>
</svg>
