<svg width="28" height="20" viewBox="0 0 28 20" fill="none" xmlns="http://www.w3.org/2000/svg">
<path d="M14.2246 1.66663C14.5113 1.66663 14.7731 1.82911 14.8978 2.08847L17.0358 6.50376L21.8105 7.20996C22.091 7.25058 22.3247 7.44744 22.412 7.71929C22.4993 7.99115 22.4276 8.28488 22.2281 8.48486L18.7655 11.9284L19.5821 16.7905C19.6288 17.0717 19.5135 17.3561 19.2798 17.5248C19.046 17.6935 18.7406 17.7123 18.4913 17.5779L14.2215 15.2906L9.95788 17.5748C9.70543 17.7092 9.4 17.6904 9.16937 17.5217C8.93874 17.3529 8.82031 17.0686 8.86706 16.7874L9.68362 11.9252L6.22103 8.48486C6.01845 8.28488 5.94988 7.98802 6.03715 7.71929C6.12441 7.45056 6.35816 7.2537 6.63866 7.20996L11.4134 6.50376L13.5514 2.08847C13.6792 1.82911 13.9378 1.66663 14.2246 1.66663ZM14.2246 4.13519L12.5883 7.51618C12.4792 7.73804 12.2704 7.89428 12.0242 7.93178L8.33723 8.47549L11.0144 11.1347C11.1858 11.3065 11.2669 11.5503 11.2264 11.7909L10.5937 15.5312L13.8724 13.7751C14.0937 13.6563 14.3586 13.6563 14.5767 13.7751L17.8555 15.5312L17.2259 11.794C17.1854 11.5534 17.2633 11.3096 17.4378 11.1378L20.115 8.47861L16.428 7.93178C16.1849 7.89428 15.973 7.74117 15.8639 7.51618L14.2246 4.13519Z" fill="black"/>
</svg>
