<svg width="16" height="17" viewBox="0 0 16 17" fill="none" xmlns="http://www.w3.org/2000/svg">
<path d="M3.75 1.5C3.05933 1.5 2.5 2.06 2.5 2.75V14.25C2.5 14.94 3.06 15.5 3.75 15.5H12.25C12.94 15.5 13.5 14.94 13.5 14.25V9C13.5 8.33696 13.2366 7.70107 12.7678 7.23223C12.2989 6.76339 11.663 6.5 11 6.5H9.75C9.41848 6.5 9.10054 6.3683 8.86612 6.13388C8.6317 5.89946 8.5 5.58152 8.5 5.25V4C8.5 3.33696 8.23661 2.70107 7.76777 2.23223C7.29893 1.76339 6.66304 1.5 6 1.5H3.75Z" fill="url(#paint0_linear_6655_47806)"/>
<path d="M8.64722 1.71094C9.19823 2.34625 9.50105 3.1593 9.49988 4.00027V5.25027C9.49988 5.38827 9.61188 5.50027 9.74988 5.50027H10.9999C11.8409 5.4991 12.6539 5.80193 13.2892 6.35294C12.9958 5.23747 12.4114 4.21993 11.5958 3.40434C10.7802 2.58876 9.76268 2.00437 8.64722 1.71094Z" fill="url(#paint1_linear_6655_47806)"/>
<defs>
<linearGradient id="paint0_linear_6655_47806" x1="2.93573" y1="1.5" x2="15.7095" y2="12.4001" gradientUnits="userSpaceOnUse">
<stop stop-color="#ED6A7D"/>
<stop offset="1" stop-color="#EA35FA"/>
</linearGradient>
<linearGradient id="paint1_linear_6655_47806" x1="8.8311" y1="1.71094" x2="13.1053" y2="6.35294" gradientUnits="userSpaceOnUse">
<stop stop-color="#ED6A7D"/>
<stop offset="1" stop-color="#EA35FA"/>
</linearGradient>
</defs>
</svg>
