<svg width="20" height="15" viewBox="0 0 20 15" fill="none" xmlns="http://www.w3.org/2000/svg">
<path d="M10.1684 1.25C10.3835 1.25 10.5798 1.37187 10.6733 1.56638L12.2768 4.87785L15.8579 5.4075C16.0682 5.43797 16.2435 5.58561 16.309 5.7895C16.3744 5.99339 16.3207 6.21369 16.1711 6.36368L13.5741 8.94629L14.1866 12.5929C14.2216 12.8038 14.1351 13.0171 13.9598 13.1436C13.7845 13.2702 13.5554 13.2842 13.3684 13.1835L10.1661 11.468L6.96841 13.1811C6.77908 13.2819 6.55 13.2678 6.37703 13.1413C6.20406 13.0147 6.11523 12.8015 6.15029 12.5906L6.76271 8.94395L4.16577 6.36368C4.01383 6.21369 3.96241 5.99105 4.02786 5.7895C4.09331 5.58795 4.26862 5.44031 4.47899 5.4075L8.06002 4.87785L9.66353 1.56638C9.75937 1.37187 9.95338 1.25 10.1684 1.25ZM10.1684 3.10142L8.94125 5.63717C8.85944 5.80356 8.70283 5.92074 8.51816 5.94886L5.75292 6.35665L7.76082 8.35103C7.88938 8.47992 7.95016 8.66272 7.91977 8.84318L7.44526 11.6484L9.90429 10.3313C10.0703 10.2423 10.2689 10.2423 10.4326 10.3313L12.8916 11.6484L12.4194 8.84552C12.389 8.66507 12.4475 8.48227 12.5784 8.35337L14.5863 6.35899L11.821 5.94886C11.6387 5.92074 11.4798 5.80591 11.3979 5.63717L10.1684 3.10142Z" fill="black"/>
</svg>
