<svg xmlns="http://www.w3.org/2000/svg" width="20" height="14" viewBox="0 0 20 14" fill="none">
    <path d="M4 2.625C4 2.14102 4.4104 1.75 4.91837 1.75H15.9388C16.4467 1.75 16.8571 2.14102 16.8571 2.625C16.8571 3.10898 16.4467 3.5 15.9388 3.5H4.91837C4.4104 3.5 4 3.10898 4 2.625ZM5.83673 7C5.83673 6.51602 6.24713 6.125 6.7551 6.125H14.102C14.61 6.125 15.0204 6.51602 15.0204 7C15.0204 7.48398 14.61 7.875 14.102 7.875H6.7551C6.24713 7.875 5.83673 7.48398 5.83673 7ZM12.2653 11.375C12.2653 11.859 11.8549 12.25 11.3469 12.25H9.5102C9.00223 12.25 8.59184 11.859 8.59184 11.375C8.59184 10.891 9.00223 10.5 9.5102 10.5H11.3469C11.8549 10.5 12.2653 10.891 12.2653 11.375Z" fill="#D32DCA"/>
  </svg>