<svg width="14" height="13" viewBox="0 0 14 13" fill="none" xmlns="http://www.w3.org/2000/svg">
<path d="M2.04524 6.59543C2.04524 3.85963 4.26198 1.64289 6.99778 1.64289C8.50021 1.64289 9.84549 2.31196 10.755 3.36914C10.9598 3.60962 11.3217 3.63581 11.5598 3.43105C11.7979 3.22628 11.8265 2.86436 11.6217 2.62626C10.505 1.32384 8.84784 0.5 6.99778 0.5C3.631 0.5 0.902344 3.22866 0.902344 6.59543V7.54784C0.902344 7.86452 1.15711 8.11929 1.47379 8.11929C1.79047 8.11929 2.04524 7.86452 2.04524 7.54784V6.59543ZM12.9623 5.33587C12.898 5.02634 12.5932 4.82871 12.286 4.89538C11.9789 4.96205 11.7789 5.26444 11.8456 5.57159C11.9146 5.90255 11.9527 6.24542 11.9527 6.59781V7.55023C11.9527 7.8669 12.2075 8.12167 12.5241 8.12167C12.8408 8.12167 13.0956 7.8669 13.0956 7.55023V6.59543C13.0956 6.16447 13.0504 5.74303 12.9646 5.33587H12.9623ZM6.99778 2.40482C6.54538 2.40482 6.10727 2.47625 5.70012 2.60959C5.3382 2.72864 5.25486 3.1739 5.50249 3.46438C5.67154 3.66201 5.95012 3.72153 6.20251 3.65248C6.4549 3.58343 6.72158 3.54772 6.99778 3.54772C8.68116 3.54772 10.0455 4.91205 10.0455 6.59543V7.18831C10.0455 7.78833 10.0098 8.38597 9.94073 8.98122C9.90025 9.32885 10.1645 9.64315 10.5169 9.64315C10.7979 9.64315 11.0384 9.43838 11.0717 9.1598C11.1503 8.5074 11.1908 7.85024 11.1908 7.19069V6.59543C11.1908 4.28107 9.31452 2.40482 7.00016 2.40482H6.99778ZM4.49055 4.04059C4.27388 3.7882 3.88815 3.76915 3.68339 4.03107C3.13337 4.73823 2.80717 5.62874 2.80717 6.59543V7.18831C2.80717 7.76452 2.74526 8.34073 2.62145 8.90027C2.54049 9.27171 2.80955 9.64315 3.19051 9.64315C3.44052 9.64315 3.66434 9.47648 3.7191 9.23123C3.87149 8.56216 3.95006 7.87881 3.95006 7.18831V6.59543C3.95006 5.94779 4.15245 5.34777 4.49532 4.8549C4.66675 4.60727 4.6858 4.26917 4.49055 4.04059ZM6.99778 4.30965C5.73583 4.30965 4.71199 5.33349 4.71199 6.59543V7.18831C4.71199 8.0431 4.60246 8.89075 4.38341 9.71458C4.29293 10.0551 4.54294 10.4051 4.89533 10.4051C5.12153 10.4051 5.32153 10.2575 5.38106 10.0384C5.63107 9.1098 5.75964 8.15263 5.75964 7.18831V6.59543C5.75964 5.91208 6.31442 5.3573 6.99778 5.3573C7.68113 5.3573 8.23591 5.91208 8.23591 6.59543V7.18831C8.23591 8.05262 8.15258 8.91217 7.98829 9.75744C7.924 10.0884 8.17162 10.4051 8.50735 10.4051C8.75021 10.4051 8.95974 10.2384 9.00737 10.0003C9.1907 9.07646 9.28356 8.13596 9.28356 7.18831V6.59543C9.28356 5.33349 8.25972 4.30965 6.99778 4.30965ZM7.56922 6.59543C7.56922 6.27876 7.31445 6.02399 6.99778 6.02399C6.6811 6.02399 6.42633 6.27876 6.42633 6.59543V7.18831C6.42633 8.61455 6.16442 10.0289 5.6525 11.3599L5.51202 11.7242C5.39773 12.0194 5.54535 12.3504 5.8406 12.4623C6.13584 12.5742 6.46681 12.429 6.57872 12.1337L6.7192 11.7694C7.28112 10.3075 7.56922 8.75503 7.56922 7.18831V6.59543Z" fill="black"/>
</svg>
