<svg width="21" height="16" viewBox="0 0 21 16" fill="none" xmlns="http://www.w3.org/2000/svg">
<path d="M10.1667 12.625C10.3402 12.625 10.7996 12.4563 11.2824 11.4906C11.4886 11.0758 11.6667 10.5719 11.798 10H8.5355C8.66675 10.5719 8.84487 11.0758 9.05112 11.4906C9.53394 12.4563 9.99331 12.625 10.1667 12.625ZM8.35034 8.875H11.9832C12.0207 8.51641 12.0417 8.13906 12.0417 7.75C12.0417 7.36094 12.0207 6.98359 11.9832 6.625H8.35034C8.31284 6.98359 8.29175 7.36094 8.29175 7.75C8.29175 8.13906 8.31284 8.51641 8.35034 8.875ZM8.5355 5.5H11.798C11.6667 4.92812 11.4886 4.42422 11.2824 4.00938C10.7996 3.04375 10.3402 2.875 10.1667 2.875C9.99331 2.875 9.53394 3.04375 9.05112 4.00938C8.84487 4.42422 8.66675 4.92812 8.5355 5.5ZM13.1128 6.625C13.148 6.98828 13.1644 7.36562 13.1644 7.75C13.1644 8.13438 13.1457 8.51172 13.1128 8.875H14.9105C14.9949 8.51406 15.0417 8.13672 15.0417 7.75C15.0417 7.36328 14.9972 6.98594 14.9105 6.625H13.1152H13.1128ZM14.491 5.5C13.9894 4.53672 13.1761 3.76328 12.1847 3.31094C12.5152 3.91094 12.7777 4.65859 12.9488 5.5H14.4933H14.491ZM7.38237 5.5C7.55347 4.65859 7.81597 3.91328 8.14644 3.31094C7.15503 3.76328 6.34175 4.53672 5.84019 5.5H7.38472H7.38237ZM5.423 6.625C5.33862 6.98594 5.29175 7.36328 5.29175 7.75C5.29175 8.13672 5.33628 8.51406 5.423 8.875H7.22065C7.1855 8.51172 7.16909 8.13438 7.16909 7.75C7.16909 7.36562 7.18784 6.98828 7.22065 6.625H5.423ZM12.1847 12.1891C13.1761 11.7367 13.9894 10.9633 14.491 10H12.9488C12.7777 10.8414 12.5152 11.5867 12.1847 12.1891ZM8.14878 12.1891C7.81831 11.5891 7.55581 10.8414 7.38472 10H5.84019C6.34175 10.9633 7.15503 11.7367 8.14644 12.1891H8.14878ZM10.1667 13.75C8.57545 13.75 7.04933 13.1179 5.92411 11.9926C4.79889 10.8674 4.16675 9.3413 4.16675 7.75C4.16675 6.1587 4.79889 4.63258 5.92411 3.50736C7.04933 2.38214 8.57545 1.75 10.1667 1.75C11.758 1.75 13.2842 2.38214 14.4094 3.50736C15.5346 4.63258 16.1667 6.1587 16.1667 7.75C16.1667 9.3413 15.5346 10.8674 14.4094 11.9926C13.2842 13.1179 11.758 13.75 10.1667 13.75Z" fill="black"/>
</svg>
