<svg width="49" height="60" viewBox="0 0 49 60" fill="none" xmlns="http://www.w3.org/2000/svg">
<path d="M26.914 0.74841C23.4856 0.421782 20.4382 2.96948 20.1208 6.49707L18.5336 23.4817L12.5022 8.39151C11.2324 5.12523 7.5501 3.55741 4.37569 4.86393C1.20128 6.17044 -0.322442 9.95933 0.947323 13.2256L8.12149 31.1902C6.72475 32.8233 5.83592 34.9791 5.83592 37.3308V40.989C5.83592 51.1145 13.7719 59.2802 23.6126 59.2802H30.7233C40.564 59.2802 48.5 51.1145 48.5 40.989V36.4162V29.0344V28.1199C48.5 27.7279 48.373 27.4013 48.2461 27.14C47.4842 24.527 45.0716 22.6325 42.2782 22.6325C40.9449 22.6325 39.6751 23.0898 38.6593 23.8084C37.58 21.9793 35.6119 20.8034 33.3898 20.8034C32.6279 20.8034 31.8661 20.934 31.2312 21.1953L32.501 7.67293C32.8184 4.21067 30.3424 1.07504 26.914 0.74841ZM11.1054 28.9691L4.24871 11.7884C3.67732 10.3513 4.37569 8.78347 5.70894 8.19554C7.04219 7.60761 8.6294 8.32619 9.20079 9.69802L16.5019 28.1199H14.7243C13.4545 28.1199 12.1847 28.4465 11.1054 28.9691ZM24.5015 28.1199H21.6445L23.6761 6.8237C23.8031 5.32121 25.1363 4.21067 26.5966 4.34132C28.0568 4.47197 29.1361 5.84381 29.0091 7.3463L26.9775 28.6425C26.2156 28.3158 25.3903 28.1199 24.5015 28.1199ZM33.3898 24.4616C34.85 24.4616 36.0563 25.7028 36.0563 27.2053V29.0344V34.5218C36.0563 36.0243 34.85 37.2655 33.3898 37.2655C31.9296 37.2655 30.7233 36.0243 30.7233 34.5218V27.2053C30.7233 25.7028 31.9296 24.4616 33.3898 24.4616ZM37.0086 39.7478C38.0879 41.577 40.0561 42.7528 42.2782 42.7528C43.2305 42.7528 44.1193 42.5568 44.8812 42.1649C44.3098 49.6773 38.1514 55.5566 30.7233 55.5566H23.6126C15.7401 55.5566 9.39126 49.0241 9.39126 40.9237V37.2655C9.39126 34.2605 11.8038 31.7781 14.7243 31.7781H24.5015C25.9617 31.7781 27.168 33.0193 27.168 34.5218C27.168 36.0243 25.9617 37.2655 24.5015 37.2655H18.2796C17.3273 37.2655 16.5019 38.1147 16.5019 39.0946C16.5019 40.0745 17.3273 40.9237 18.2796 40.9237H24.5015C26.2156 40.9237 27.8028 40.2051 28.9456 39.0293C30.0884 40.2051 31.6756 40.9237 33.3898 40.9237C34.7865 40.9237 35.9928 40.5317 37.0086 39.7478ZM44.9447 36.3509C44.9447 37.8534 43.7384 39.0946 42.2782 39.0946C40.8179 39.0946 39.6116 37.8534 39.6116 36.3509V34.5218V29.0344C39.6116 27.5319 40.8179 26.2907 42.2782 26.2907C43.7384 26.2907 44.9447 27.5319 44.9447 29.0344V36.3509Z" fill="#454C54"/>
</svg>
