<svg width="22" height="16" viewBox="0 0 22 16" fill="none" xmlns="http://www.w3.org/2000/svg">
<path d="M15 2.10714V13.8929H19.2857C19.5804 13.8929 19.8214 13.6518 19.8214 13.3571V2.64286C19.8214 2.34821 19.5804 2.10714 19.2857 2.10714H15ZM13.3929 2.10714H8.03571V13.8929H13.3929V2.10714ZM6.42857 13.8929V2.10714H2.14286C1.84821 2.10714 1.60714 2.34821 1.60714 2.64286V13.3571C1.60714 13.6518 1.84821 13.8929 2.14286 13.8929H6.42857ZM0 2.64286C0 1.46094 0.960938 0.5 2.14286 0.5H19.2857C20.4676 0.5 21.4286 1.46094 21.4286 2.64286V13.3571C21.4286 14.5391 20.4676 15.5 19.2857 15.5H2.14286C0.960938 15.5 0 14.5391 0 13.3571V2.64286Z" fill="white"/>
</svg>
