<svg width="100%" height="100%" viewBox="0 0 1348 1117" fill="none" xmlns="http://www.w3.org/2000/svg">
<g style="mix-blend-mode:luminosity" opacity="0.12">
<path d="M1344.79 436.959H1343.82L1344.79 436.878L1333.22 364.189L1311.37 281.761L1310.41 282.002L1311.37 281.6L1277.31 201.747L1276.35 202.149L1277.23 201.666L1241.48 138.154L1191.2 68.6855L1190.39 69.249L1191.12 68.5245L1135.85 11.1303L1135.13 11.8548L1135.77 11.1303L1082.59 -35.0749L1022.19 -75.5648L1021.62 -74.7598L1022.11 -75.6453L953.424 -112.835L952.942 -111.949L953.264 -112.915L874.22 -142.055L801.683 -161.213L801.442 -160.247L801.603 -161.213L716.855 -172H641.909L558.045 -163.467V-162.501L557.885 -163.467L481.974 -144.551L413.373 -120.965L413.694 -119.999L413.212 -120.885L350.074 -89.1688L282.115 -47.7129L216.085 6.62248L216.727 7.42744L216.005 6.70297L165.397 59.5894L112.3 128.173L70.5288 202.23L71.4124 202.713L70.5288 202.31L41.0481 270.089L18.074 345.836L6.34598 416.351L0 487.833L3.21315 567.202L14.7805 639.811L36.63 722.4L70.7698 802.334L106.516 865.846L156.882 935.475L212.149 992.95L265.326 1039.16L325.814 1079.65L394.656 1116.92L473.7 1146.06L546.398 1165.21L631.144 1176H706.252L790.115 1167.47L866.026 1148.55L934.708 1124.88L997.846 1093.17L1065.8 1051.71L1131.92 997.297L1182.44 944.491L1181.72 943.767L1182.52 944.411L1235.54 875.827L1277.39 801.69L1306.87 733.992L1305.99 733.589L1306.95 733.911L1329.93 658.164L1341.65 587.488L1348 516.087L1344.79 436.878V436.959ZM1342.3 434.544L1335.31 428.909L1330.89 372.078L1342.3 434.544ZM884.341 1112.25L910.77 1081.58L953.103 1083.35L884.341 1112.25ZM953.023 1085.68L925.791 1111.52L886.591 1113.61L953.023 1085.68ZM18.556 531.22L23.4561 465.052L38.7185 508.198L18.6363 531.22H18.556ZM38.4776 511.096V583.463L18.4757 534.279L38.4776 511.096ZM23.8577 460.303L44.2612 425.045L39.1202 503.529L23.8577 460.383V460.303ZM41.0481 508.52L67.4763 473.102V556.738L41.0481 508.44V508.52ZM66.9943 560.521L40.4858 586.28V512.304L66.9943 560.521ZM41.0481 505.139L46.3498 424.804L67.4763 470.043L41.0481 505.22V505.139ZM46.7514 420.94L78.883 381.738L68.0386 466.501L46.6711 420.94H46.7514ZM771.158 115.213L769.551 193.053L696.532 147.814L771.158 115.213ZM771.078 111.993L697.416 72.6299L771.078 41.7191V111.993ZM277.537 500.792L340.354 553.276L273.681 592.317L277.537 500.792ZM271.672 591.995L210.783 539.833L275.528 500.471L271.672 591.915V591.995ZM343.005 555.369L406.545 603.023L340.836 641.903L342.924 555.45L343.005 555.369ZM338.908 641.662L274.404 594.169L340.996 555.128L338.908 641.662ZM568.247 537.338L643.274 594.571L558.607 628.541L568.247 537.338ZM566.64 533.555L495.228 476.805L578.609 439.776L566.64 533.555ZM569.372 535.728L656.287 499.102L644.479 593.042L569.372 535.728ZM568.649 533.877L580.618 440.017L655.565 497.251L568.649 533.877ZM579.091 436.315L509.125 382.704L592.667 345.756L579.091 436.315ZM577.886 437.924L494.585 474.953L507.92 384.314L577.886 437.924ZM492.577 474.712L428.716 421.825L505.912 384.233L492.577 474.712ZM491.452 476.322L416.425 511.579L427.671 423.516L491.533 476.322H491.452ZM414.417 511.338L352.724 458.854L425.663 423.355L414.417 511.338ZM416.024 515.362L481.17 570.986L409.517 601.575L416.024 515.362ZM416.988 513.511L492.095 478.253L482.295 569.215L416.988 513.511ZM494.103 478.495L565.435 535.165L484.223 569.617L494.103 478.495ZM566.239 537.097L556.68 628.219L485.106 571.469L566.319 537.016L566.239 537.097ZM558.286 632.002L632.028 686.177L551.378 715.478L558.367 632.002H558.286ZM559.491 630.392L644.077 596.503L633.313 684.728L559.491 630.473V630.392ZM646.086 596.745L720.149 651L635.322 684.969L646.086 596.745ZM961.537 534.682L903.942 482.6L969.731 451.206L961.457 534.682H961.537ZM971.739 451.77L1021.62 502.322L963.546 534.923L971.82 451.77H971.739ZM960.573 536.533L891.732 572.274L902.978 484.371L960.654 536.533H960.573ZM889.723 572.193L824.737 518.985L900.969 484.049L889.723 572.113V572.193ZM901.371 480.346L835.341 424.482L908.44 394.295L901.451 480.346H901.371ZM900.327 482.117L824.014 517.053L834.136 426.091L900.327 482.037V482.117ZM888.599 573.884L810.519 611.234L823.532 520.675L888.599 573.884ZM808.511 611.154L737.58 557.221L821.524 520.353L808.511 611.073V611.154ZM807.306 612.764L723.443 649.631L736.375 558.911L807.306 612.844V612.764ZM721.434 649.39L647.371 595.135L734.367 558.589L721.434 649.39ZM720.952 652.851L707.939 735.521L636.286 686.74L720.952 652.851ZM722.96 653.012L791.722 701.31L710.028 735.602L723.041 653.012H722.96ZM724.246 651.402L807.948 614.615L793.007 699.7L724.246 651.322V651.402ZM809.957 614.776L873.095 662.591L795.016 699.781L809.957 614.776ZM811.242 613.166L889.161 575.816L874.38 660.981L811.242 613.166ZM891.169 575.977L946.998 623.228L876.389 660.901L891.169 575.977ZM892.294 574.286L961.055 538.626L948.123 621.538L892.294 574.367V574.286ZM962.983 538.868L1011.02 585.314L950.05 621.538L962.983 538.948V538.868ZM964.028 537.016L1022.03 504.495L1011.98 583.382L964.028 537.016ZM1023.95 504.898L1064.68 550.137L1013.99 583.463L1024.03 504.978L1023.95 504.898ZM1022.75 500.712L972.864 450.16L1042.75 432.29L1022.67 500.712H1022.75ZM1044.76 432.934L1088.38 484.774L1024.76 501.195L1044.76 432.934ZM972.302 448.148L988.528 373.608L1042.43 430.197L972.302 448.148ZM970.374 447.665L911.493 393.249L986.6 372.964L970.374 447.665ZM969.169 449.275L903.299 480.749L910.288 394.859L969.169 449.275ZM908.761 390.834L842.57 335.211L920.409 311.625L908.761 390.914V390.834ZM907.556 392.444L834.457 422.63L841.285 336.74L907.556 392.444ZM832.529 422.228L760.715 365.477L839.357 336.177L832.529 422.228ZM822.006 516.811L750.031 459.9L832.208 425.769L822.006 516.811ZM820.881 518.502L736.857 555.369L748.826 461.591L820.881 518.502ZM734.849 555.128L659.581 497.734L746.818 461.188L734.849 555.047V555.128ZM733.644 556.738L646.568 593.283L658.376 499.344L733.644 556.738ZM656.769 495.641L581.823 438.407L668.899 401.862L656.769 495.721V495.641ZM581.1 436.556L594.675 345.917L668.096 400.01L581.1 436.556ZM593.229 342.375L525.673 294.399L607.367 260.107L593.229 342.375ZM591.864 343.904L508.482 380.772L524.307 295.928L591.864 343.904ZM522.941 292.547L463.9 252.138L539.971 217.444L522.941 292.547ZM506.474 380.691L444.781 333.279L522.299 296.009L506.474 380.691ZM505.269 382.301L428.234 419.813L443.576 334.808L505.269 382.221V382.301ZM426.225 419.571L367.987 364.914L441.568 334.647L426.225 419.571ZM425.101 421.342L352.162 456.841L366.782 366.685L425.02 421.342H425.101ZM413.373 513.109L343.246 551.586L351.68 460.544L413.373 513.028V513.109ZM407.348 604.875L405.501 684.728L341.8 643.674L407.348 604.875ZM343.969 553.518L414.015 515.04L407.509 601.172L343.888 553.518H343.969ZM409.356 605.197L474.824 660.579L407.428 685.05L409.276 605.197H409.356ZM410.32 603.346L481.974 572.757L476.029 658.888L410.32 603.346ZM483.982 573.24L555.475 629.829L477.957 659.452L483.982 573.24ZM556.358 631.68L549.37 715.075L478.921 661.303L556.358 631.68ZM551.137 718.778L622.228 767.64L546.638 791.306L551.057 718.778H551.137ZM544.711 790.823L476.511 741.961L549.129 718.295L544.711 790.742V790.823ZM552.422 717.248L632.992 688.028L623.754 766.271L552.422 717.248ZM634.92 688.27L706.413 736.97L625.602 766.513L634.84 688.27H634.92ZM707.296 738.741L690.267 817.709L626.566 768.203L707.296 738.661V738.741ZM709.305 738.902L777.343 785.349L692.275 817.95L709.305 738.902ZM710.75 737.453L792.445 703.162L778.789 783.9L710.75 737.453ZM794.453 703.162L863.857 745.905L780.797 783.9L794.453 703.162ZM795.819 701.632L873.899 664.523L865.223 744.376L795.819 701.632ZM875.907 664.443L943.544 703.323L867.231 744.215L875.907 664.443ZM944.427 705.094L936.635 785.832L868.115 745.986L944.427 705.013V705.094ZM877.112 662.833L947.721 625.16L944.668 701.632L877.112 662.833ZM949.729 625.08L1013.03 660.418L946.677 701.471L949.729 625.08ZM950.773 623.389L1011.74 587.166L1013.99 658.566L950.854 623.309L950.773 623.389ZM1013.75 587.166L1071.19 619.445L1016 658.405L1013.83 587.166H1013.75ZM1014.63 585.395L1065.4 552.069L1071.91 617.513L1014.63 585.314V585.395ZM1025.16 503.207L1088.62 486.786L1065.88 548.447L1025.16 503.207ZM1046.12 431.404L1109.9 414.741L1089.74 483.244L1046.12 431.404ZM1045.64 429.392L1062.51 354.61L1109.58 412.648L1045.64 429.392ZM1043.71 428.748L989.813 372.078L1060.58 353.805L1043.71 428.748ZM989.171 370.227L1001.78 290.454L1060.02 351.873L989.09 370.227H989.171ZM987.243 369.583L923.622 310.659L999.854 289.73L987.162 369.663L987.243 369.583ZM985.877 371.112L910.689 391.397L922.337 312.188L985.877 371.112ZM920.811 308.164L849.88 250.367L928.924 225.815L920.811 308.164ZM919.525 309.693L841.606 333.359L848.675 251.977L919.525 309.693ZM846.908 248.033L772.684 195.066L851.085 166.328L846.908 247.952V248.033ZM839.678 332.796L769.23 279.024L846.667 251.413L839.598 332.796H839.678ZM838.393 334.406L759.751 363.706L767.864 280.634L838.313 334.406H838.393ZM831.405 423.918L749.228 458.049L759.43 367.087L831.324 423.918H831.405ZM747.22 457.807L672.112 400.574L757.422 366.765L747.14 457.807H747.22ZM746.015 459.417L658.778 495.963L670.907 402.103L746.015 459.417ZM669.381 398.401L595.96 344.387L681.029 310.498L669.301 398.401H669.381ZM595.237 342.536L609.456 260.187L680.225 308.727L595.318 342.536H595.237ZM608.01 256.807L543.666 215.834L621.907 185.808L608.09 256.887L608.01 256.807ZM606.484 258.256L525.03 292.467L542.06 217.202L606.564 258.256H606.484ZM540.774 214.063L484.705 180.979L557.804 150.309L540.774 214.063ZM539.248 215.512L463.498 250.125L483.098 182.428L539.328 215.592L539.248 215.512ZM521.576 293.996L444.299 331.186L462.534 253.506L521.656 293.996H521.576ZM442.291 331.025L388.551 277.253L460.526 253.426L442.291 331.025ZM441.086 332.635L367.585 362.901L387.186 278.782L441.006 332.635H441.086ZM365.577 362.66L310.873 308.486L385.258 278.541L365.657 362.66H365.577ZM350.234 456.519L290.871 401.54L364.934 366.282L350.315 456.519H350.234ZM341.237 551.425L278.34 498.861L349.672 460.303L341.237 551.345V551.425ZM338.105 643.513L277.215 680.461L273.681 596.101L338.024 643.513H338.105ZM338.908 645.365L342.201 723.205L278.099 682.313L338.827 645.365H338.908ZM340.996 645.526L404.617 686.499L344.37 723.286L341.077 645.445L340.996 645.526ZM405.501 688.35L407.428 759.026L345.334 725.057L405.42 688.35H405.501ZM407.589 762.407L412.248 822.699L353.126 795.491L407.589 762.407ZM407.509 688.672L472.173 741.156L409.437 759.268L407.509 688.592V688.672ZM409.678 762.89L472.415 810.786L414.337 823.182L409.678 762.89ZM410.642 761.119L473.459 743.007V809.256L410.642 761.119ZM473.378 739.627L408.473 686.901L475.788 662.43L473.378 739.627ZM477.797 662.913L548.084 716.524L475.387 740.19L477.797 662.913ZM475.547 743.651L543.265 792.272L475.547 809.981V743.651ZM544.148 794.123L526.476 863.27L476.672 811.832L544.148 794.123ZM546.156 794.526L603.27 845.641L528.404 863.833L546.156 794.526ZM547.522 793.157L623.112 769.491L604.797 844.353L547.602 793.157H547.522ZM625.12 769.732L688.74 819.158L606.724 844.675L625.12 769.732ZM689.544 821.009L671.55 897.159L607.528 846.607L689.544 821.089V821.009ZM691.552 821.17L760.153 868.905L673.478 897.32L691.552 821.17ZM692.998 819.802L778.146 787.2L761.679 867.617L692.998 819.802ZM780.235 787.2L850.523 831.232L763.768 867.697L780.235 787.281V787.2ZM781.601 785.751L864.741 747.676L851.888 829.703L781.601 785.671V785.751ZM866.83 747.596L935.431 787.442L854.057 829.542L866.91 747.596H866.83ZM936.154 789.293L922.899 869.629L854.861 831.393L936.234 789.293H936.154ZM938.242 789.052L1001.62 823.343L924.988 869.307L938.242 789.132V789.052ZM946.436 704.932L1010.46 740.915L938.644 785.59L946.436 704.932ZM947.56 703.242L1013.91 662.189L1011.42 739.144L947.56 703.242ZM1016 662.028L1073.68 694.709L1013.51 738.822L1016 662.028ZM1016.88 660.257L1072.07 621.296L1074.4 692.858L1016.88 660.257ZM1067.33 551.506L1119.06 558.267L1073.84 616.788L1067.33 551.506ZM1067.57 549.493L1090.22 488.074L1119.3 556.255L1067.57 549.493ZM1091.75 486.464L1146.29 489.845L1120.99 554.886L1091.83 486.464H1091.75ZM1146.05 487.752L1091.51 484.371L1111.59 416.029L1146.05 487.752ZM1112.96 414.258H1168.71L1147.42 486.142L1112.96 414.258ZM1110.79 411.039L1063.72 353.081L1126.21 337.786L1110.79 411.039ZM1063.15 351.068L1074.72 273.067L1125.81 335.774L1063.23 351.068H1063.15ZM1061.23 350.263L1002.99 288.844L1072.79 272.021L1061.23 350.183V350.263ZM1002.26 286.993L1009.49 206.335L1072.15 270.169L1002.26 286.993ZM1000.26 286.188L932.057 224.849L1007.49 205.369L1000.26 286.188ZM999.051 287.798L922.739 308.727L930.852 226.379L999.051 287.717V287.798ZM929.165 222.354L854.379 165.282L932.458 142.099L929.085 222.354H929.165ZM853.174 163.591L853.816 87.1193L931.173 140.408L853.093 163.591H853.174ZM927.88 223.964L848.836 248.515L853.013 166.811L927.799 223.883L927.88 223.964ZM851.165 163.108L774.451 113.925L851.808 86.6363L851.165 163.108ZM773.086 112.234V41.9606L850.443 85.0264L773.086 112.234ZM773.166 115.454L849.88 164.718L771.56 193.375L773.166 115.454ZM845.623 249.642L768.186 277.253L771.479 196.675L845.623 249.562V249.642ZM766.177 276.85L695.408 228.069L769.471 196.434L766.177 276.931V276.85ZM757.823 363.304L684.403 309.21L765.936 280.151L757.823 363.304ZM756.618 364.914L671.389 398.642L683.117 310.74L756.699 364.914H756.618ZM681.511 307.198L610.902 258.739L692.194 229.357L681.511 307.198ZM624.397 107.968L625.441 43.2485L692.757 72.5494L624.397 107.968ZM694.042 74.1593L693.399 145.962L625.521 109.658L694.042 74.1593ZM692.275 147.653L624.317 182.589V111.349L692.275 147.653ZM693.399 149.263L692.435 226.057L625.2 184.279L693.399 149.263ZM691.07 227.586L610.018 256.887L623.835 185.808L691.07 227.586ZM561.258 148.538L622.228 111.429V182.508L561.258 148.538ZM622.389 108.129L562.062 80.5991L623.433 43.5705L622.389 108.129ZM621.184 109.819L560.214 146.848L560.776 82.37L621.103 109.9L621.184 109.819ZM620.782 184.037L542.863 213.982L559.893 150.068L620.782 184.037ZM558.286 147.009L505.108 120.606L558.848 82.692L558.286 147.009ZM503.582 119.157L484.946 72.2274L557.162 81.4041L503.582 119.157ZM503.743 122.135L556.84 148.538L484.062 179.047L503.663 122.135H503.743ZM481.974 178.966L437.552 133.566L501.654 121.974L482.054 178.966H481.974ZM461.409 249.964L412.409 199.573L481.01 182.186L461.409 249.884V249.964ZM460.044 251.494L388.23 275.321L410.963 201.022L460.124 251.494H460.044ZM386.141 274.918L336.578 224.205L408.874 200.539L386.141 274.838V274.918ZM384.856 276.448L310.632 306.312L335.213 225.654L384.856 276.448ZM364.452 364.35L290.469 399.608L309.668 310.096L364.452 364.35ZM349.19 458.371L277.858 496.929L289.746 403.472L349.11 458.451L349.19 458.371ZM275.85 496.607L218.334 441.949L287.738 403.23L275.85 496.607ZM274.966 498.539L210.221 537.902L217.45 443.962L274.966 498.539ZM208.293 537.419L155.597 483.566L215.523 443.72L208.293 537.419ZM270.95 594.008L212.149 631.197L210.221 542.007L270.95 594.008ZM271.672 595.859L275.207 680.139L212.952 632.968L271.672 595.779V595.859ZM275.448 683.923L284.605 757.738L222.993 716.927L275.528 683.923H275.448ZM277.537 684.245L341.478 725.057L286.694 758.141L277.537 684.245ZM342.523 726.747L349.833 793.801L287.899 759.751L342.523 726.747ZM344.531 726.908L406.464 760.797L351.841 793.962L344.531 726.908ZM411.847 824.792L381.964 865.765L352.885 797.665L411.766 824.792H411.847ZM413.453 826L455.786 876.149L383.571 866.973L413.453 825.919V826ZM415.301 824.953L473.459 812.557L457.795 875.264L415.301 824.953ZM475.306 813.281L524.95 864.558L459.562 876.23L475.226 813.281H475.306ZM525.673 866.49L510.41 929.599L460.285 878.162L525.673 866.49ZM527.6 867.134L584.875 918.813L512.338 930.404L527.6 867.134ZM529.127 865.765L603.993 847.573L586.562 917.605L529.127 865.765ZM605.921 847.895L669.863 898.366L588.49 918.008L605.921 847.895ZM670.666 900.298L652.673 968.64L589.293 919.94L670.586 900.298H670.666ZM672.675 900.54L740.553 946.665L654.681 968.962L672.675 900.54ZM674.362 899.252L760.956 870.837L742.4 945.457L674.362 899.252ZM762.964 870.837L832.69 913.258L744.408 945.457L762.964 870.837ZM764.571 869.468L851.326 833.083L834.377 911.97L764.571 869.468ZM853.334 832.923L921.373 871.159L836.385 911.729L853.334 832.923ZM922.096 873.09L903.54 947.55L837.269 913.58L922.096 873.09ZM924.265 872.688L985.797 902.794L905.789 947.067L924.265 872.769V872.688ZM925.711 871.159L1002.18 825.356L987.243 901.264L925.711 871.159ZM939.447 787.442L1011.18 742.766L1002.75 821.653L939.447 787.361V787.442ZM1013.27 742.444L1069.98 773.435L1004.83 821.089L1013.27 742.444ZM1014.31 740.754L1074.4 696.641L1070.95 771.664L1014.31 740.673V740.754ZM1076.41 695.917L1130.31 710.487L1072.95 770.779L1076.41 695.997V695.917ZM1076.41 691.972L1074.08 620.652L1127.66 631.439L1076.33 691.972H1076.41ZM1074.88 618.72L1120.27 560.038L1128.46 629.507L1074.88 618.72ZM1122.11 558.67L1174.17 565.512L1130.23 628.058L1122.03 558.67H1122.11ZM1122.36 556.657L1147.66 491.696L1174.41 563.5L1122.36 556.657ZM1170.23 416.11L1202.52 491.857L1148.94 487.913L1170.23 416.11ZM1171.6 414.258L1224.61 415.627L1203.89 490.086L1171.6 414.258ZM1171.28 412.166L1185.82 336.338L1224.29 413.534L1171.28 412.166ZM1169.59 410.234L1129.18 337.303L1184.05 334.325L1169.51 410.234H1169.59ZM1168.38 412.246H1112.64L1128.06 339.235L1168.46 412.246H1168.38ZM1126.85 333.923L1075.93 271.377L1135.53 259.463L1126.85 333.923ZM1075.12 269.445L1079.62 192.812L1134.81 257.531L1075.12 269.445ZM1073.19 268.398L1010.7 204.725L1077.69 191.524L1073.19 268.398ZM1009.65 202.793L1010.3 126.643L1076.65 189.672L1009.65 202.874V202.793ZM1011.58 125.033L1074.48 117.225L1077.69 187.821L1011.66 125.033H1011.58ZM1010.3 123.182L1004.43 56.289L1073.11 115.293L1010.38 123.101L1010.3 123.182ZM1007.65 201.908L935.672 141.294L1008.29 125.516L1007.65 201.827V201.908ZM934.467 139.523L932.539 66.9146L1007 123.745L934.467 139.523ZM934.467 142.904L1006.52 203.598L931.093 223.078L934.467 142.904ZM855.262 85.5898L930.531 66.1096L932.458 138.798L855.262 85.5898ZM853.816 83.8994L851.005 17.4895L928.924 64.4997L853.816 83.8994ZM851.808 83.4165L774.451 40.4312L848.916 17.0066L851.728 83.4165H851.808ZM772.845 38.8212L770.836 -20.1025L847.149 15.4771L772.925 38.8212H772.845ZM770.836 38.6602L697.978 6.70297L768.828 -20.2635L770.836 38.6602ZM769.391 40.1897L696.211 71.02V8.15192L769.391 40.1897ZM769.953 113.522L695.488 146.043L696.131 74.1593L769.953 113.522ZM768.346 194.663L694.363 226.298L695.327 149.424L768.346 194.663ZM764.892 278.46L683.439 307.439L694.122 229.599L764.892 278.46ZM694.203 71.02L626.807 41.7191L694.203 8.23242V70.9394V71.02ZM625.12 40.3506L612.508 -11.8918L692.435 7.02496L625.12 40.3506ZM623.112 40.5116L545.915 27.0687L610.5 -11.7308L623.112 40.5116ZM621.585 42.2826L560.375 79.1501L544.47 28.8396L621.585 42.2826ZM558.447 79.5526L486.07 70.376L542.542 29.2421L558.447 79.5526ZM483.821 69.4905L465.426 22.6413L540.292 28.4371L483.902 69.4905H483.821ZM501.735 119.962L437.873 131.473L483.098 73.0324L501.735 119.881V119.962ZM435.704 130.99L412.891 83.5774L481.01 72.3884L435.704 130.99ZM435.865 134.773L480.447 180.335L412.007 197.641L435.865 134.773ZM409.999 197.239L365.336 151.919L433.857 134.451L409.999 197.319V197.239ZM408.553 198.607L336.418 222.193L363.81 153.127L408.553 198.607ZM334.409 221.951L291.835 177.195L361.802 152.966L334.49 221.951H334.409ZM333.044 223.481L261.149 253.587L290.389 178.644L333.044 223.4V223.481ZM333.124 225.574L308.624 306.151L260.989 255.841L333.124 225.654V225.574ZM288.461 399.286L235.605 345.273L307.66 309.854L288.461 399.286ZM287.417 401.137L218.013 439.856L234.561 347.205L287.337 401.137H287.417ZM216.005 439.534L167.968 386.326L232.552 347.044L216.005 439.534ZM215.121 441.547L155.276 481.393L167.165 388.419L215.121 441.627V441.547ZM207.57 539.592L153.589 577.184L155.035 485.82L207.65 539.592H207.57ZM208.132 541.604L210.06 630.634L154.071 579.277L208.132 541.604ZM210.382 634.739L219.86 714.592L162.505 667.984L210.382 634.82V634.739ZM212.39 635.222L274.484 682.232L221.869 715.236L212.39 635.222ZM284.284 759.992L247.172 798.872L222.832 719.341L284.284 760.073V759.992ZM285.489 761.683L313.203 836.223L248.377 800.563L285.489 761.683ZM287.738 762.005L349.431 795.894L315.452 836.384L287.738 762.005ZM350.716 797.504L379.876 865.846L316.737 838.074L350.716 797.584V797.504ZM380.277 868.18L350.636 909.314L317.219 840.409L380.277 868.18ZM381.884 869.468L426.145 923.562L352.242 910.602L381.884 869.468ZM384.133 869.066L456.59 878.242L428.555 923.24L384.213 869.066H384.133ZM458.437 879.047L508.402 930.324L430.402 924.125L458.518 879.047H458.437ZM509.366 932.497L483.982 980.312L431.286 926.299L509.446 932.497H509.366ZM511.294 933.141L568.086 982.647L485.91 980.956L511.294 933.141ZM513.222 932.256L585.759 920.664L570.175 981.922L513.222 932.256ZM587.687 921.147L650.825 969.687L572.103 982.405L587.687 921.067V921.147ZM651.95 971.619L635.161 1028.61L573.388 984.337L651.95 971.619ZM653.878 971.941L719.828 1013.64L637.009 1029.01L653.797 972.021L653.878 971.941ZM655.805 970.733L741.516 948.516L722.077 1012.59L655.886 970.814L655.805 970.733ZM743.605 948.516L811.403 986.591L724.165 1012.59L743.605 948.516ZM745.372 947.228L833.493 915.11L813.331 985.384L745.372 947.228ZM835.662 914.949L901.853 948.918L815.499 985.223L835.662 915.029V914.949ZM902.496 950.77L879.923 1014.6L816.463 986.913L902.496 950.77ZM904.825 950.367L963.546 974.194L882.253 1014.04L904.745 950.367H904.825ZM906.592 948.838L986.279 904.726L965.393 972.665L906.592 948.758V948.838ZM988.608 904.082L1040.58 925.172L967.803 971.86L988.608 904.162V904.082ZM1004.35 824.792L1059.06 851.839L989.412 900.459L1004.35 824.792ZM1005.56 823.102L1070.54 775.528L1060.18 850.068L1005.48 823.102H1005.56ZM1072.71 774.723L1125.01 791.869L1062.43 849.022L1072.71 774.643V774.723ZM1073.68 772.872L1131.03 712.58L1125.97 790.018L1073.6 772.872H1073.68ZM1077.29 694.065L1128.7 633.451L1131.27 708.635L1077.37 694.065H1077.29ZM1130.63 632.002L1183.41 642.145L1133.12 707.106L1130.55 632.002H1130.63ZM1131.27 630.07L1175.21 567.444L1183.97 640.133L1131.19 629.99L1131.27 630.07ZM1149.19 490.006L1202.77 493.95L1176.02 561.89L1149.19 490.006ZM1204.05 496.124L1226.54 570.422L1177.38 563.902L1204.05 496.124ZM1226.06 417.961L1254.02 496.607L1205.42 492.26L1226.06 418.042V417.961ZM1225.42 411.28L1186.94 334.084H1236.99L1225.34 411.28H1225.42ZM1186.46 332.152L1192 256.726L1236.5 332.152H1186.46ZM1184.53 330.22L1138.42 259.061L1190.15 254.553L1184.61 330.22H1184.53ZM1137.7 257.129L1138.34 186.05L1189.35 252.621L1137.7 257.129ZM1183.57 332.313L1128.7 335.291L1137.38 261.073L1183.57 332.313ZM1135.69 255.519L1080.75 191.041L1136.33 184.198L1135.69 255.438V255.519ZM1079.78 189.189L1076.57 118.835L1135.29 182.347L1079.78 189.189ZM1076.25 115.052L1066.13 54.8401L1127.1 114.166L1076.25 115.052ZM1074 113.522L1005.8 54.9206L1063.8 53.0692L1074 113.522ZM1004.03 52.9082L992.785 -1.5882L1061.79 51.0567L1004.03 52.9082ZM1008.13 122.135L933.904 65.5462L1002.18 55.1621L1008.05 122.216L1008.13 122.135ZM932.378 63.7752L925.63 2.91963L1000.5 53.3911L932.378 63.7752ZM930.289 62.9703L852.692 16.1211L923.542 2.03416L930.289 62.9703ZM850.764 14.4306L844.98 -39.0997L921.293 0.343704L850.683 14.4306H850.764ZM848.756 14.0282L772.764 -21.3904L842.972 -39.5022L848.756 14.0282ZM770.676 -23.0004L763.848 -72.0229L840.642 -41.1121L770.676 -23.0004ZM768.587 -23.1613L688.74 -48.1959L761.759 -72.2644L768.587 -23.1613ZM766.74 -21.6319L696.131 5.25401L686.732 -46.6664L766.74 -21.6319ZM694.122 5.33453L614.195 -13.5822L684.804 -46.6664L694.203 5.33453H694.122ZM611.785 -14.7092L598.933 -63.5708L682.234 -47.7934L611.785 -14.7897V-14.7092ZM609.777 -14.4677L529.609 -24.6103L597.005 -63.3293L609.857 -14.4677H609.777ZM608.09 -12.6968L543.666 26.0222L527.922 -22.8394L608.09 -12.6968ZM541.658 26.5052L466.711 20.7094L525.914 -22.3564L541.658 26.5052ZM464.382 19.9044L447.513 -23.8858L523.423 -23.0004L464.382 19.9044ZM481.974 70.2955L414.015 81.4041L463.578 23.3658L481.974 70.215V70.2955ZM411.686 81.0015L390.238 34.5549L461.329 22.8828L411.686 81.0015ZM434.098 132.278L365.818 149.746L411.284 84.8654L434.098 132.278ZM363.569 149.424L337.382 102.897L409.115 84.4629L363.569 149.424ZM361.962 150.792L292.317 174.941L335.775 104.265L361.962 150.792ZM289.987 174.941L261.953 130.829L333.445 104.265L289.987 174.941ZM288.542 176.39L221.547 207.301L260.587 132.359L288.622 176.39H288.542ZM288.14 178.805L258.98 253.506L220.905 209.797L288.14 178.805ZM259.784 257.37L307.419 307.761L235.524 343.18L259.784 257.451V257.37ZM233.436 343.019L190.54 293.433L257.695 257.451L233.516 343.019H233.436ZM232.392 344.79L167.968 383.911L189.496 295.204L232.392 344.79ZM165.96 383.75L129.812 335.211L187.407 295.445L165.96 383.75ZM153.348 480.91L112.139 428.828L165.156 388.339L153.348 480.91ZM152.625 483.244L105.472 521.561L111.577 431.324L152.625 483.244ZM152.946 485.579L151.5 576.54L105.713 523.895L152.946 485.579ZM103.464 520.756L69.9665 470.284L109.488 431.243L103.464 520.756ZM107.721 611.637L69.5648 560.843L103.383 526.149L107.721 611.637ZM105.472 526.632L151.099 579.035L109.81 612.844L105.472 526.632ZM151.661 581.128L159.453 665.167L110.292 614.937L151.581 581.128H151.661ZM153.75 581.611L209.578 632.807L161.622 666.052L153.75 581.611ZM219.619 717.007L181.383 753.07L162.425 670.56L219.619 717.007ZM220.583 718.778L244.923 798.309L182.347 754.841L220.583 718.778ZM245.244 800.965L211.586 838.638L182.748 757.578L245.244 800.965ZM246.449 802.656L278.741 878.323L212.791 840.328L246.449 802.656ZM248.859 803.058L313.604 838.718L281.151 878.725L248.859 803.058ZM314.889 840.248L348.387 909.234L282.437 880.255L314.889 840.248ZM348.949 911.729L321.557 950.367L283.24 882.911L348.949 911.809V911.729ZM350.555 912.936L396.905 969.526L323.163 951.494L350.555 912.856V912.936ZM352.965 912.775L427.029 925.816L399.476 969.606L352.965 912.775ZM428.796 926.621L481.492 980.554L401.243 970.411L428.796 926.621ZM482.616 982.808L457.875 1027.32L402.368 972.665L482.616 982.808ZM484.464 983.532L544.389 1033.52L459.723 1028.05L484.464 983.532ZM487.034 983.049L569.211 984.74L547.04 1033.12L487.034 983.049ZM571.139 985.223L632.671 1029.33L548.968 1033.6L571.139 985.223ZM634.117 1031.27L615.079 1077.63L550.494 1035.53L634.117 1031.27ZM636.205 1031.67L699.424 1067.17L617.248 1077.95L636.205 1031.67ZM638.615 1030.7L721.033 1015.41L701.995 1066.28L638.615 1030.7ZM723.121 1015.49L787.866 1047.29L704.083 1066.36L723.121 1015.49ZM725.37 1014.36L812.286 988.523L790.356 1046.32L725.37 1014.44V1014.36ZM814.455 988.281L877.754 1015.89L792.606 1045.92L814.455 988.201V988.281ZM878.558 1017.74L853.897 1068.3L793.971 1047.53L878.558 1017.66V1017.74ZM881.048 1017.18L936.475 1034L856.467 1067.57L881.048 1017.18ZM883.297 1015.81L964.028 976.287L938.965 1032.72L883.377 1015.81H883.297ZM966.598 975.321L1015.52 989.408L941.616 1031.51L966.598 975.321ZM968.446 973.711L1040.74 927.345L1017.53 987.798L968.446 973.631V973.711ZM990.054 902.472L1059.38 854.013L1042.03 923.562L989.974 902.472H990.054ZM1061.71 852.966L1110.47 870.837L1044.44 922.355L1061.71 853.047V852.966ZM1062.91 851.276L1125.41 794.203L1111.75 869.227L1062.91 851.356V851.276ZM1127.74 792.674L1176.02 806.036L1114.08 867.536L1127.74 792.674ZM1133.2 711.131L1184.77 723.688L1128.14 788.488L1133.2 711.131ZM1134 709.279L1184.29 644.318L1185.57 721.837L1134 709.279ZM1177.14 565.914L1226.3 572.435L1185.9 638.442L1177.14 565.914ZM1186.86 640.696L1227.27 574.689L1234.9 649.229L1186.86 640.696ZM1234.33 651.161L1187.58 719.985L1186.3 642.628L1234.33 651.161ZM1205.5 494.192L1254.1 498.539L1227.99 568.49L1205.5 494.192ZM1255.22 501.276L1271.61 576.54L1229.19 570.825L1255.14 501.276H1255.22ZM1256.75 498.861L1296.11 503.449L1273.13 573.884L1256.75 498.861ZM1256.75 496.848L1274.5 421.906L1296.19 501.437L1256.75 496.848ZM1255.3 494.111L1227.43 415.707L1273.13 418.766L1255.3 494.192V494.111ZM1227.1 413.695L1238.67 336.74L1272.81 416.754L1227.1 413.695ZM1237.23 329.415L1192.97 254.392H1237.87L1237.23 329.415ZM1192.16 252.379L1187.98 182.106L1237.07 252.379H1192.24H1192.16ZM1189.99 250.206L1139.22 183.957L1185.74 179.691L1189.99 250.206ZM1138.26 182.025L1130.95 118.191L1184.69 177.759L1138.26 181.945V182.025ZM1136.01 180.174L1077.69 117.064L1128.62 116.179L1135.93 180.093L1136.01 180.174ZM1067.41 53.3106L1113.68 58.2209L1127.66 111.993L1067.41 53.3106ZM1065.4 51.0567L1050.14 3.00012L1111.43 55.8865L1065.4 51.0567ZM1062.75 49.2858L994.553 -2.71515L1047.41 0.907211L1062.75 49.2858ZM991.982 -4.96909L977.362 -46.4249L1044.44 -1.34671L991.982 -4.96909ZM1001.7 51.7812L927.317 1.63168L990.456 -2.87614L1001.7 51.7812ZM925.148 -0.219772L914.866 -47.6324L987.966 -4.72757L925.148 -0.219772ZM922.899 -1.02472L847.149 -40.2267L912.617 -48.5984L922.899 -1.02472ZM844.739 -41.9976L839.197 -85.7879L910.047 -50.2888L844.739 -41.9976ZM842.651 -42.4001L766.177 -73.2304L837.028 -86.3514L842.57 -42.4001H842.651ZM763.366 -74.7598L754.53 -115.813L833.975 -87.8808L763.286 -74.8403L763.366 -74.7598ZM761.277 -75.0013L678.539 -97.0574L752.441 -116.135L761.277 -75.0013ZM759.028 -73.4719L686.17 -49.4033L675.888 -95.6085L759.028 -73.4719ZM684.162 -49.4033L601.021 -65.1807L673.799 -95.6085L684.081 -49.4033H684.162ZM598.21 -66.2271L586.08 -107.2L670.666 -96.494L598.129 -66.2271H598.21ZM596.201 -65.9052L514.909 -70.9765L584.152 -106.959L596.282 -65.9857L596.201 -65.9052ZM594.113 -64.0538L526.958 -25.4958L512.579 -69.125L594.113 -64.0538ZM525.03 -25.0128L449.199 -25.8982L510.651 -68.6421L525.03 -25.0933V-25.0128ZM446.549 -26.4617L432.652 -63.6513L507.679 -68.964L446.549 -26.5422V-26.4617ZM462.534 20.7094L391.684 32.301L445.665 -23.0809L462.534 20.7094ZM389.113 31.979L370.879 -9.95987L443.014 -23.3224L389.033 32.0595L389.113 31.979ZM410.079 82.209L338.426 100.562L388.631 35.6818L410.079 82.1285V82.209ZM336.016 100.401L312.801 55.9671L386.141 35.6013L335.936 100.482L336.016 100.401ZM334.409 101.689L262.997 128.253L311.194 57.255L334.409 101.689ZM260.507 128.414L237.693 87.5218L308.624 57.577L260.507 128.414ZM259.061 129.863L192.709 164.235L236.247 88.9707L259.061 129.783V129.863ZM258.017 132.681L219.057 207.462L191.504 167.133L258.017 132.681ZM219.619 211.406L257.695 255.116L190.781 291.018L219.539 211.406H219.619ZM188.693 291.018L157.123 248.354L217.37 211.728L188.693 290.937V291.018ZM187.568 292.869L130.213 332.474L155.999 250.206L187.568 292.869ZM128.125 332.554L104.026 290.937L153.75 250.93L128.125 332.554ZM128.928 337.464L164.996 385.924L112.139 426.333L128.928 337.545V337.464ZM110.211 425.85L81.6945 378.598L126.839 337.706L110.211 425.85ZM109.408 428.506L70.0468 467.386L80.9716 381.416L109.408 428.506ZM69.4845 473.424L103.062 523.654L69.4845 558.267V473.424ZM107.48 614.696L74.7059 643.674L69.4042 563.983L107.48 614.696ZM108.123 616.788L120.252 698.976L75.2682 645.848L108.123 616.788ZM110.292 617.754L159.292 667.823L122.502 700.425L110.292 617.754ZM160.176 669.755L179.053 752.104L123.305 702.357L160.176 669.755ZM179.294 755.082L146.922 789.454L123.707 705.496L179.375 755.163L179.294 755.082ZM180.338 756.853L209.096 837.752L147.886 791.225L180.338 756.853ZM209.739 840.731L182.829 874.217L148.769 794.445L209.739 840.731ZM211.024 842.421L248.377 916.639L184.114 875.908L211.024 842.421ZM213.595 843.146L279.304 880.979L251.028 917.525L213.595 843.146ZM280.669 882.509L318.986 949.965L252.394 919.054L280.589 882.509H280.669ZM319.95 952.621L297.056 985.625L253.759 921.871L319.95 952.621ZM321.557 953.829L369.995 1010.58L298.663 986.833L321.557 953.829ZM324.208 953.909L397.95 971.941L372.967 1011.06L324.208 953.99V953.909ZM399.717 972.826L455.063 1027.32L374.815 1011.95L399.797 972.826H399.717ZM456.509 1029.66L434.419 1066.93L376.421 1014.36L456.509 1029.74V1029.66ZM458.357 1030.46L520.933 1078.36L436.267 1067.65L458.357 1030.46ZM461.329 1030.14L545.835 1035.61L524.227 1078.28L461.409 1030.14H461.329ZM547.763 1036.18L612.187 1078.52H526.074L547.683 1036.18H547.763ZM613.954 1080.45L594.996 1118.28L528.323 1080.45H613.954ZM616.043 1080.45L681.189 1111.28L597.165 1118.53L616.123 1080.45H616.043ZM619.095 1079.73L700.87 1069.02L684.403 1110.72L619.095 1079.81V1079.73ZM703.039 1069.1L764.169 1094.05L686.571 1110.72L703.039 1069.18V1069.1ZM705.85 1068.05L789.071 1049.14L767.141 1093.09L705.85 1068.13V1068.05ZM791.401 1048.9L851.005 1069.5L769.471 1092.69L791.401 1048.9ZM852.049 1071.27L827.308 1108.38L771.479 1094.22L852.049 1071.27ZM854.861 1070.71L906.592 1080.85L830.28 1107.58L854.941 1070.71H854.861ZM857.833 1069.26L936.957 1036.02L909.886 1079.48L857.833 1069.26ZM939.929 1034.97L985.716 1042.29L913.099 1078.12L940.009 1034.97H939.929ZM942.419 1033.36L1015.52 991.743L988.448 1040.68L942.419 1033.28V1033.36ZM1018.57 990.294L1056.73 1003.09L991.5 1039.24L1018.49 990.294H1018.57ZM1043.31 926.218L1087.09 942.479L1020.1 986.51L1043.23 926.138L1043.31 926.218ZM1044.84 924.609L1110.63 873.332L1088.78 940.949L1044.84 924.609ZM1113.2 871.722L1156.5 883.716L1091.43 939.178L1113.2 871.722ZM1114.48 870.032L1176.18 808.773L1157.94 882.026L1114.56 870.032H1114.48ZM1128.7 790.903L1185.25 726.184L1177.06 804.266L1128.7 790.903ZM1187.5 724.332L1232.49 733.428L1179.39 802.092L1187.5 724.332ZM1188.31 722.481L1234.98 653.817L1233.29 731.577L1188.31 722.4V722.481ZM1229.03 572.837L1271.45 578.552L1236.66 646.975L1229.03 572.837ZM1236.99 651.563L1276.19 657.6L1235.3 728.84L1236.99 651.563ZM1237.55 649.631L1272.17 581.45L1276.75 655.668L1237.55 649.631ZM1274.02 578.874L1306.23 583.302L1278.52 652.368L1274.02 578.874ZM1274.26 576.862L1297.07 507.152L1306.55 581.289L1274.34 576.862H1274.26ZM1275.7 419.008L1310.08 423.677L1297.23 497.895L1275.7 418.927V419.008ZM1275.46 416.915L1282.13 341.087L1309.76 421.584L1275.46 416.915ZM1273.7 413.695L1239.8 334.164L1280.44 337.223L1273.7 413.695ZM1239.23 332.071L1239.88 257.37L1279.8 335.13L1239.15 332.071H1239.23ZM1240.68 254.553L1274.82 259.222L1280.12 331.427L1240.6 254.553H1240.68ZM1239.8 252.379L1229.76 185.003L1273.86 257.048L1239.8 252.379ZM1237.31 249.24L1188.71 179.691L1227.19 181.22L1237.31 249.159V249.24ZM1187.58 177.598L1174.65 116.501L1225.9 179.127L1187.58 177.598ZM1185.01 175.183L1131.75 116.098L1172 113.844L1185.01 175.183ZM1130.31 114.086L1116.41 60.3944L1170.39 111.832L1130.31 114.086ZM1117.05 58.3014L1150.79 59.0259L1170.15 108.934L1117.05 58.3014ZM1115.21 56.289L1096.97 13.8672L1148.62 57.0135L1115.13 56.3695L1115.21 56.289ZM1111.91 53.6326L1051.91 1.79265L1093.76 11.2108L1111.99 53.6326H1111.91ZM1090.14 8.31291L1048.85 -0.944244L1030.94 -36.7653L1090.14 8.39339V8.31291ZM1033.43 -37.4093L1070.7 -25.2543L1090.55 6.1395L1033.43 -37.4093ZM1045.56 -3.03714L979.852 -47.1494L1027.49 -39.3412L1045.56 -3.03714ZM976.238 -49.8058L969.41 -79.8311L1023.87 -41.9976L976.238 -49.8058ZM989.412 -6.25703L917.276 -48.6788L974.711 -47.9544L989.412 -6.33751V-6.25703ZM914.304 -50.6913L908.601 -87.8003L971.659 -49.8863L914.304 -50.6108V-50.6913ZM912.135 -51.4962L841.928 -86.6733L906.432 -88.7663L912.135 -51.4962ZM838.714 -88.5248L830.039 -122.736L902.817 -90.6177L838.634 -88.5248H838.714ZM836.465 -89.0882L757.823 -116.779L827.79 -123.46L836.465 -89.1688V-89.0882ZM753.887 -118.389L743.525 -147.448L823.131 -124.99L753.887 -118.389ZM751.638 -118.631L668.658 -135.374L741.195 -147.851L751.558 -118.631H751.638ZM748.666 -117.182L675.245 -98.1844L664.642 -134.086L748.666 -117.101V-117.182ZM673.157 -98.1844L589.133 -108.81L662.553 -134.166L673.157 -98.1844ZM585.357 -109.695L574.914 -138.996L657.974 -134.73L585.357 -109.695ZM583.268 -109.373L503.421 -108.086L572.826 -138.674L583.268 -109.373ZM580.457 -107.281L511.776 -71.6205L499.967 -105.993L580.537 -107.281H580.457ZM509.848 -71.1375L435.142 -65.9052L498.039 -105.51L509.848 -71.1375ZM431.688 -66.0662L421.888 -93.5961L493.782 -105.188L431.688 -66.0662ZM444.701 -25.6568L372.967 -12.3748L430.804 -62.8463L444.701 -25.6568ZM369.915 -12.3748L356.741 -46.1834L427.511 -62.6853L369.915 -12.4553V-12.3748ZM387.427 33.1059L314.327 53.4716L369.192 -8.83293L387.427 33.1059ZM311.596 53.4716L293.843 14.9137L366.3 -8.59142L311.596 53.5521V53.4716ZM309.989 54.8401L239.38 84.6239L292.237 16.2821L309.989 54.8401ZM288.943 17.1675L236.408 85.0264L221.387 50.9762L288.943 17.1675ZM224.439 47.2734L280.83 -15.4337L291.192 13.7867L224.439 47.2734ZM234.962 86.6363L172.065 124.872L220.021 52.6667L235.042 86.6363H234.962ZM233.356 89.9367L190.058 164.718L169.976 128.414L233.275 89.9367H233.356ZM190.299 168.824L217.772 209.072L157.766 245.537L190.299 168.743V168.824ZM155.437 246.02L130.856 210.199L187.809 169.709L155.437 246.101V246.02ZM154.312 247.871L104.749 287.717L129.812 212.131L154.312 247.871ZM127.241 213.499L102.419 288.361L82.7388 257.048L127.241 213.499ZM84.1044 252.943L113.103 178.483L128.285 209.716L84.1044 252.943ZM103.062 293.272L127.08 334.808L82.1765 375.459L103.062 293.352V293.272ZM80.088 375.298L63.1385 334.808L100.652 294.318L80.0076 375.298H80.088ZM79.2043 378.276L47.3138 417.156L62.3353 338.108L79.2043 378.357V378.276ZM60.0861 339.235L45.3858 416.432L34.4611 377.552L60.0861 339.235ZM35.1841 372.803L47.0728 307.681L60.809 334.486L35.1841 372.803ZM44.5022 420.698L24.42 455.392L33.7381 382.382L44.5022 420.698ZM67.396 562.936L72.6174 641.743L40.4055 588.776L67.396 562.936ZM72.6977 645.687L50.0449 672.734L40.7268 593.122L72.6977 645.687ZM73.3403 648.021L89.4865 730.611L50.6072 675.149L73.3403 648.021ZM75.5895 649.39L120.413 702.357L91.8963 732.945L75.5895 649.39ZM121.297 704.369L144.351 787.844L92.6193 735.038L121.216 704.369H121.297ZM145.074 791.467L121.939 821.17L93.6635 738.902L145.074 791.386V791.467ZM146.199 793.318L180.017 872.527L123.064 823.102L146.199 793.318ZM181.222 876.31L163.71 902.633L124.831 827.449L181.142 876.31H181.222ZM182.507 878.001L224.6 947.792L164.996 904.404L182.507 878.081V878.001ZM185.64 879.289L249.502 919.698L228.215 949.724L185.721 879.289H185.64ZM250.867 921.228L294.004 984.659L229.58 951.172L250.867 921.147V921.228ZM295.611 987.718L279.143 1012.51L231.91 954.634L295.53 987.718H295.611ZM297.217 989.006L347.503 1042.86L280.75 1013.8L297.217 989.006ZM300.511 989.569L371.602 1013.24L351.439 1044.15L300.511 989.65V989.569ZM373.289 1014.2L430.804 1066.36L353.046 1045.11L373.208 1014.2H373.289ZM433.053 1069.1L415.461 1095.5L355.938 1048.01L432.973 1069.1H433.053ZM434.901 1069.91L499.003 1112.89L417.389 1096.31L434.901 1069.91ZM438.757 1069.99L522.861 1080.61L503.421 1113.37L438.676 1069.99H438.757ZM524.869 1081.17L591.221 1118.44L505.51 1113.94L524.869 1081.17ZM593.631 1120.62L576.119 1146.94L508.964 1116.19L593.631 1120.7V1120.62ZM595.88 1120.94L661.268 1145.17L578.449 1147.1L595.88 1120.86V1120.94ZM599.977 1120.3L683.198 1113.13L666.088 1144.77L599.977 1120.3ZM685.447 1113.21L746.979 1131.81L668.337 1144.69L685.367 1113.13L685.447 1113.21ZM688.981 1112.17L765.856 1095.66L750.915 1130.92L688.981 1112.17ZM768.186 1095.5L823.934 1109.67L753.245 1130.6L768.186 1095.5ZM825.701 1111.2L811.322 1139.29L756.217 1131.81L825.701 1111.2ZM828.272 1110.64L876.389 1115.47L814.054 1138.57L828.272 1110.64ZM832.288 1109.03L907.155 1082.78L880.405 1113.78L832.288 1108.95V1109.03ZM914.304 1079.73L985.556 1044.63L957.2 1081.58L914.304 1079.73ZM989.412 1042.94L1021.94 1051.23L960.975 1079.89L989.331 1042.94H989.412ZM991.741 1041.49L1055.84 1005.99L1024.52 1049.86L991.741 1041.49ZM1059.7 1003.98L1091.11 1008.24L1028.69 1047.37L1059.7 1003.9V1003.98ZM1058.74 1001.64L1020.42 988.765L1086.85 945.055L1058.82 1001.64H1058.74ZM1089.9 943.445L1127.34 952.138L1062.03 999.712L1089.98 943.445H1089.9ZM1091.51 941.754L1156.01 886.855L1129.1 950.528L1091.51 941.754ZM1159.23 884.36L1193.29 889.029L1132.56 947.47L1159.23 884.36ZM1160.59 882.589L1218.11 818.272L1194.73 887.258L1160.59 882.589ZM1160.51 879.611L1178.67 806.68L1218.67 814.569L1160.51 879.611ZM1179.79 804.829L1232.57 736.568L1219.88 812.718L1179.79 804.829ZM1235.06 733.911L1269.36 738.58L1222.45 809.337L1235.06 733.831V733.911ZM1235.86 731.979L1276.51 661.223L1270.24 736.648L1235.86 731.899V731.979ZM1278.76 658.003L1306.07 661.062L1272.57 732.382L1278.76 658.003ZM1279.24 655.99L1306.63 587.649V659.049L1279.24 655.99ZM1298.68 503.851L1325.83 508.359L1308.08 577.184L1298.76 503.851H1298.68ZM1298.68 501.758L1311.29 428.506L1325.75 506.186L1298.6 501.678L1298.68 501.758ZM1310.33 416.995L1283.09 337.706L1310.97 343.985L1310.33 417.076V416.995ZM1282.53 335.533L1277.31 264.373L1310.33 341.811L1282.53 335.613V335.533ZM1277.71 260.187L1298.68 268.962L1309.6 334.969L1277.71 260.107V260.187ZM1276.67 257.612L1261.32 196.514L1297.39 266.225L1276.67 257.531V257.612ZM1273.21 252.218L1230.16 181.945L1257.39 189.27L1273.21 252.299V252.218ZM1228.79 179.449L1210.48 123.423L1255.78 186.694L1228.79 179.449ZM1225.42 175.505L1175.13 114.086L1206.7 118.433L1225.34 175.505H1225.42ZM1173.45 111.832L1154.33 62.4873L1204.85 116.179L1173.53 111.912L1173.45 111.832ZM1154.73 59.9919L1179.71 67.1561L1203.09 111.429L1154.73 59.9919ZM1152.16 57.1745L1130.31 20.3069L1176.74 64.1777L1152.16 57.1745ZM1147.66 53.4716L1097.69 11.7743L1125.17 15.5576L1147.66 53.4716ZM1094.96 9.43987L1075.12 -21.9539L1122.03 13.1427L1094.96 9.43987ZM1072.87 -26.2202L1078.82 -31.9355L1115.93 5.9785L1072.87 -26.2202ZM1071.27 -27.4277L1029.74 -59.7874L1077.21 -33.143L1071.27 -27.5082V-27.4277ZM1066.21 -28.7961L1028.93 -41.0317L1020.66 -64.2952L1066.21 -28.8766V-28.7961ZM1026.12 -42.8831L973.506 -79.4287L1017.77 -66.3881L1026.12 -42.8831ZM968.526 -82.9705L957.923 -102.692L1011.34 -70.3325L968.526 -82.9705ZM973.908 -51.0133L911.894 -88.2028L967 -81.1996L973.908 -50.9328V-51.0133ZM908.038 -90.6982L898.479 -117.504L962.421 -83.7755L907.958 -90.6982H908.038ZM905.548 -91.6641L834.216 -123.058L895.909 -118.631L905.548 -91.5837V-91.6641ZM829.155 -125.473L818.15 -147.126L889.563 -121.126L829.155 -125.473ZM826.585 -126.117L749.148 -148.012H815.419L826.585 -126.117ZM742.4 -149.944L731.716 -165.158L806.101 -149.944H742.4ZM739.749 -150.266L661.75 -160.167L728.985 -165.641L739.749 -150.266ZM735.09 -148.817L663.758 -136.581L653.637 -159.121L735.01 -148.817H735.09ZM661.589 -136.581L580.055 -140.767L651.468 -159.201L661.589 -136.581ZM573.95 -141.25L566.078 -156.947L643.114 -159.121L573.95 -141.25ZM571.862 -140.928L497.638 -133.523L563.909 -156.706L571.862 -140.928ZM567.283 -138.433L499.084 -108.327L490.73 -130.705L567.283 -138.352V-138.433ZM497.156 -107.764L426.306 -96.333L488.802 -130.222L497.156 -107.844V-107.764ZM421.165 -95.85L416.024 -112.11L481.733 -128.693L421.084 -95.85H421.165ZM429.84 -65.2612L359.954 -49.0008L420.04 -92.7911L429.84 -65.2612ZM355.938 -48.5984L348.949 -71.5399L415.14 -91.7447L355.938 -48.5984ZM368.148 -11.3283L296.253 12.0158L354.974 -45.137L368.148 -11.3283ZM292.879 12.4987L282.437 -16.8021L351.038 -44.0905L292.879 12.4987ZM281.955 -19.2975L279.304 -37.1678L340.273 -67.3541L281.955 -19.2975ZM280.107 -17.929L221.146 17.892L277.537 -35.7189L280.107 -17.929ZM275.93 -12.9382L220.664 48.4809L214.8 24.1708L275.85 -12.9382H275.93ZM218.977 50.0908L162.586 91.3051L213.193 25.8612L218.977 50.0103V50.0908ZM216.165 54.6791L168.932 125.838L158.569 96.7789L216.085 54.6791H216.165ZM188.773 166.409L132.061 206.738L168.771 130.185L188.773 166.409ZM129.49 207.543L114.228 176.149L165.799 131.876L129.49 207.543ZM113.424 173.009L108.765 148.78L152.786 102.736L113.505 173.009H113.424ZM111.898 175.666L75.1076 220.261L107.239 151.678L111.898 175.666ZM109.729 181.381L81.4536 253.989L71.9747 227.264L109.729 181.381ZM81.8552 259.383L101.455 290.535L63.9418 331.025L81.8552 259.463V259.383ZM61.6926 331.749L47.7957 304.702L79.2043 261.636L61.6926 331.749ZM46.9121 300.355L42.976 278.138L67.155 235.636L46.9924 300.355H46.9121ZM45.5465 304.461L26.9102 341.731L41.6907 282.727L45.5465 304.38V304.461ZM44.3416 311.383L33.0152 373.527L24.8216 350.505L44.3416 311.383ZM32.2922 377.31L16.9494 410.878L24.179 354.691L32.2119 377.31H32.2922ZM31.4889 383.831L22.5724 453.621L16.0658 417.478L31.4086 383.831H31.4889ZM21.7691 459.981L8.27387 480.346L15.3428 423.999L21.7691 459.981ZM21.5282 463.925L16.8691 527.034L7.7919 484.613L21.5282 463.925ZM16.3068 534.038L7.06894 554.564L7.63124 493.548L16.3068 534.038ZM16.5478 538.385L19.8412 606.324L7.06894 559.394L16.5478 538.385ZM18.6363 540.075L37.9956 588.534L22.1708 612.361L18.6363 540.075ZM38.4776 591.432L47.5547 669.031L22.4118 615.5L38.3972 591.432H38.4776ZM48.1973 675.149L37.5939 697.768L23.697 622.987L48.117 675.149H48.1973ZM49.0007 678.047L69.4042 756.209L38.2366 700.908L48.9203 678.047H49.0007ZM51.6515 680.3L90.0488 735.119L72.778 761.119L51.6515 680.3ZM91.0127 737.292L118.887 818.352L73.6616 763.454L91.093 737.292H91.0127ZM120.413 823.424L108.605 846.043L75.9912 769.571L120.333 823.424H120.413ZM121.618 825.436L159.694 899.172L109.81 848.136L121.618 825.436ZM162.505 904.887L155.437 922.113L114.228 855.542L162.505 904.887ZM163.871 906.658L208.373 968.318L156.722 923.964L163.871 906.658ZM168.128 909.153L226.769 951.816L214.157 972.826L168.209 909.153H168.128ZM228.215 953.265L274.725 1010.26L215.523 974.275L228.134 953.265H228.215ZM277.858 1014.52L268.781 1029.5L220.423 979.507L277.938 1014.44L277.858 1014.52ZM279.464 1015.81L330.072 1063.3L270.387 1030.86L279.464 1015.81ZM284.123 1017.42L349.993 1046.16L336.177 1066.36L284.123 1017.42ZM351.76 1047.21L410.24 1093.89L337.944 1067.41L351.76 1047.21ZM414.015 1097.44L402.287 1111.36L343.728 1071.68L414.015 1097.44ZM415.943 1098.24L478.68 1133.5L404.296 1112.17L416.024 1098.32L415.943 1098.24ZM421.807 1099.21L501.976 1115.47L486.392 1135.43L421.807 1099.13V1099.21ZM504.064 1116.11L570.094 1146.38L488.48 1136.07L504.064 1116.11ZM574.191 1148.87L559.732 1161.67L495.71 1138.97L574.111 1148.87H574.191ZM576.762 1149.28L638.776 1165.78L562.544 1161.99L576.842 1149.36L576.762 1149.28ZM583.59 1149.03L664.32 1147.18L647.933 1166.18L583.59 1149.11V1149.03ZM666.891 1147.18L726.575 1158.61L650.664 1166.02L666.891 1147.18ZM672.273 1146.14L749.389 1133.5L733.243 1157.81L672.353 1146.14H672.273ZM751.959 1133.18L806.503 1140.58L735.893 1157.32L751.959 1133.18ZM809.073 1142.11L793.489 1159.42L741.516 1158.13L809.153 1142.11H809.073ZM812.447 1141.39L857.271 1140.26L797.024 1158.37L812.367 1141.31L812.447 1141.39ZM817.99 1139.21L878.317 1116.83L864.179 1138.09L817.99 1139.21ZM881.369 1115.87L920.65 1113.78L867.472 1136.88L881.45 1115.87H881.369ZM925.791 1113.7L930.129 1121.1L876.951 1134.87L925.791 1113.7ZM927.639 1112.97L977.844 1092.61L931.976 1120.46L927.639 1112.97ZM930.771 1109.51L958.083 1083.67L985.234 1087.37L930.771 1109.51ZM961.216 1082.06L1020.18 1054.37L988.769 1085.84L961.216 1082.06ZM1025.32 1051.95H1050.86L994.713 1082.7L1025.32 1051.95ZM1028.45 1049.94L1088.38 1012.43L1054.48 1049.94H1028.45ZM1094.48 1008.65L1116.33 1004.86L1062.11 1044.31L1094.48 1008.65ZM1093.52 1006.63L1061.87 1002.29L1125.97 955.6L1093.44 1006.63H1093.52ZM1130.23 952.621L1158.1 952.943L1098.26 1002.69L1130.23 952.541V952.621ZM1132.16 950.689L1191.52 893.617L1160.35 951.092L1132.24 950.77L1132.16 950.689ZM1196.1 889.27L1218.35 886.694L1165.81 945.055L1196.1 889.27ZM1197.7 887.097L1247.43 822.78L1220.2 884.441L1197.7 887.097ZM1198.35 882.992L1221.4 814.972L1249.76 816.582L1198.35 883.072V882.992ZM1222.45 812.959L1268.72 743.249L1250.96 814.569L1222.53 812.959H1222.45ZM1271.85 738.902H1293.22L1254.5 808.532L1271.85 738.902ZM1272.65 736.89L1305.35 667.099L1294.02 736.89H1272.57H1272.65ZM1308.4 661.223L1322.78 661.464L1297.55 728.277L1308.4 661.223ZM1308.88 659.21L1328.48 594.813L1323.26 659.371L1308.88 659.13V659.21ZM1308.64 653.415V583.543L1328.96 586.441L1308.64 653.415ZM1308.96 581.611L1326.31 514.316L1329.2 584.509L1308.96 581.611ZM1312.57 424.24L1333.3 430.116L1326.79 500.149L1312.66 424.16L1312.57 424.24ZM1312.25 422.147L1312.9 350.827L1332.9 428.023L1312.25 422.147ZM1334.34 439.534L1341.89 510.774L1328.08 506.83L1334.34 439.615V439.534ZM1332.42 418.203L1313.54 345.273L1327.44 353.483L1332.42 418.203ZM1312.9 342.536L1302.53 280.151L1326.55 350.585L1312.9 342.455V342.536ZM1321.17 328.61L1302.37 273.55L1309.44 282.485L1321.17 328.61ZM1306.47 275.401L1300.45 267.754L1287.51 230.967L1306.47 275.401ZM1293.86 254.955L1261.24 191.846L1275.46 202.713L1293.86 254.955ZM1259.08 187.74L1239.15 143.065L1272.65 198.124L1259 187.74H1259.08ZM1239.72 139.201L1246.87 151.919L1235.94 134.049L1239.64 139.201H1239.72ZM1253.29 179.771L1210.56 120.123L1231.04 129.944L1253.29 179.771ZM1208.23 116.742L1185.98 74.7228L1228.23 126.321L1208.23 116.742ZM1216.74 109.095L1183.25 68.1221L1189.67 70.054L1216.66 109.095H1216.74ZM1186.94 67.1561L1180.92 65.3852L1153.6 32.5424L1186.94 67.1561ZM1168.87 53.9546L1127.74 15.0746L1134.73 12.9817L1168.87 53.9546ZM1126.05 13.4647L1091.27 -22.0344L1132.96 11.3718L1126.05 13.4647ZM1081.31 -33.5455L1095.45 -21.2294L1079.46 -34.1089L1066.61 -43.366L1081.23 -33.5455H1081.31ZM1022.03 -73.2304L1064.12 -42.7221L1019.78 -67.6761L1022.03 -73.2304ZM1018.01 -68.6421L971.338 -96.8965L1020.34 -74.1964L1018.09 -68.5616L1018.01 -68.6421ZM992.705 -89.2492L956.155 -106.154L954.79 -109.695L992.705 -89.1688V-89.2492ZM965.393 -84.5804L904.263 -116.779L954.629 -104.624L965.393 -84.5804ZM952.139 -111.144L953.585 -107.361L910.609 -126.278L952.219 -111.225L952.139 -111.144ZM944.508 -109.132L897.274 -120.563L885.627 -135.052L944.588 -109.132H944.508ZM881.61 -136.662L893.579 -121.85L826.987 -146.08L881.61 -136.662ZM863.054 -141.894L816.463 -149.863L806.101 -157.752L862.974 -141.814L863.054 -141.894ZM801.04 -159.201L811.965 -150.829L747.22 -164.111L800.96 -159.282L801.04 -159.201ZM716.615 -169.907L745.854 -166.204L729.467 -167.653L683.519 -169.907H716.534H716.615ZM714.044 -166.446L652.432 -161.455L644.238 -169.907L714.044 -166.446ZM649.781 -161.294L578.85 -159.282L641.507 -169.907L649.781 -161.294ZM611.705 -166.929L564.712 -158.96L560.776 -161.696L611.625 -166.848L611.705 -166.929ZM557.885 -161.374L561.981 -158.477L510.731 -149.219L557.885 -161.374ZM552.101 -154.693L489.846 -132.879L485.428 -142.619L552.101 -154.693ZM483.5 -142.055L487.918 -132.315L426.065 -116.699L483.5 -142.055ZM464.301 -135.776L415.622 -114.284L414.819 -119.355L464.301 -135.776ZM419.317 -95.045L355.054 -75.4038L414.176 -111.225L419.317 -95.045ZM412.891 -118.47L413.694 -113.479L365.898 -94.4816L412.891 -118.55V-118.47ZM403.894 -107.361L348.467 -73.7939L347.423 -84.9024L403.894 -107.361ZM354.17 -47.4714L286.855 -20.6659L347.182 -70.413L354.17 -47.5519V-47.4714ZM346.619 -72.7474L289.666 -44.493L345.575 -83.7755L346.619 -72.7474ZM283.32 -46.1029L320.834 -68.8836L277.697 -38.6167L245.485 -14.9507L283.32 -46.1029ZM217.611 7.99092L266.049 -27.5887L215.201 20.7899L217.611 7.99092ZM212.791 23.1243L169.574 61.2798L215.121 10.8083L212.791 23.2048V23.1243ZM166.924 60.8773L170.94 56.6915L165.558 62.6483L166.924 60.8773ZM206.445 31.4155L158.409 93.4786L158.007 74.0788L206.445 31.335V31.4155ZM167.566 127.69L116.638 171.399L157.284 98.7108L167.566 127.69ZM156.481 95.974L114.629 139.684L156.079 76.8962L156.481 95.974ZM113.987 129.3L148.448 84.7044L85.5503 179.691L113.987 129.3ZM72.4567 203.115L101.054 160.13L71.9747 222.273L72.4567 203.115ZM70.9305 230.243L80.3289 256.726L49.4023 299.067L70.9305 230.162V230.243ZM38.4776 721.917L16.7084 639.569L5.14105 567.122L1.92789 487.994L8.27387 416.673L20.0019 346.319L42.8956 270.813L70.2878 207.865L69.8059 226.701L40.9678 277.414L41.8514 277.897L40.8874 277.655L22.7331 350.102L23.697 350.344L22.7331 350.183L5.62302 484.21L6.58697 484.371H5.62302L4.98039 559.233H5.94434L4.98039 559.475L20.2429 615.581L36.148 701.149L37.112 700.988L36.148 701.31L61.9336 777.058L38.3972 721.917H38.4776ZM41.6104 710.97L71.2518 763.695L66.0304 782.692L41.6104 710.97ZM72.6174 766.593L103.624 839.282L67.3156 785.912L72.6174 766.593ZM706.091 1174.15H631.225L546.719 1163.44L474.262 1144.28L395.459 1115.22L326.858 1078.12L266.531 1037.71L213.514 991.662L158.409 934.429L108.203 865.041L72.537 801.69L67.4763 789.776L107.721 848.941L154.714 924.85L155.597 924.286L154.955 925.011L213.514 975.321L268.218 1031.83L268.941 1031.11L268.459 1031.99L335.936 1068.7L401.966 1113.45L402.528 1112.65L402.287 1113.61L486.472 1137.76L559.732 1163.76L560.053 1162.8V1163.76L648.255 1168.19L709.626 1173.75L706.172 1174.07L706.091 1174.15ZM659.019 1167.23L730.27 1160.3L714.767 1172.3L659.019 1167.23ZM1064.6 1050.26L996.882 1091.64L933.985 1123.19L865.464 1146.78L789.714 1165.7L716.936 1173.1L733.885 1159.98L793.811 1161.43V1160.46L794.132 1161.43L864.902 1140.1L931.816 1122.79L931.575 1121.83L932.057 1122.71L989.492 1087.86L1055.28 1051.79L1054.8 1050.91L1055.36 1051.71L1119.62 1004.94L1064.6 1050.26ZM1097.53 1006.07L1154.09 958.981L1119.87 1002.21L1097.53 1006.07ZM1120.99 1003.82L1120.43 1003.09L1121.15 1003.66L1120.99 1003.82ZM1130.55 995.929L1121.47 1003.41L1161.56 952.863L1177.94 946.504L1130.63 995.929H1130.55ZM1181.08 943.123L1164.45 949.562L1212.32 896.435L1181.08 943.123ZM1233.93 874.861L1198.83 920.262L1262.45 824.309L1233.93 874.781V874.861ZM1226.7 874.781L1252.49 816.421L1267.75 812.557L1226.7 874.7V874.781ZM1253.77 814.086L1290.4 748.24L1269.2 810.142L1253.69 814.006L1253.77 814.086ZM1277.07 793.399L1295.79 738.741L1303.98 735.521L1277.07 793.399ZM1305.1 732.945L1296.75 736.246L1319.08 677L1305.1 733.026V732.945ZM1327.92 657.761L1316.51 695.273L1325.11 660.659L1333.78 622.101L1327.84 657.761H1327.92ZM1326.31 646.331L1331.13 586.844L1339.4 588.132L1326.31 646.331ZM1339.65 586.119L1331.37 584.831L1341.65 526.31L1339.73 586.119H1339.65ZM1330.81 576.299L1328.08 508.842L1341.98 512.787L1330.89 576.218L1330.81 576.299ZM1342.3 494.675L1335.63 431.726L1342.86 437.442L1342.38 494.675H1342.3ZM1344.14 512.143L1344.47 477.77L1345.99 516.167L1342.86 551.747L1344.14 512.223V512.143Z" fill="url(#paint0_radial_1833_32131)" style="mix-blend-mode:screen"/>
</g>
<defs>
<radialGradient id="paint0_radial_1833_32131" cx="0" cy="0" r="1" gradientUnits="userSpaceOnUse" gradientTransform="translate(673.96 502.08) scale(673.317 674.724)">
<stop stop-color="#404040"/>
<stop offset="0.58" stop-color="#1F1F1F"/>
<stop offset="1" stop-color="#0D0D0D"/>
</radialGradient>
</defs>
</svg>
