<svg width="20" height="15" viewBox="0 0 20 15" fill="none" xmlns="http://www.w3.org/2000/svg">
<path d="M14.0625 8.93542V6.06458C14.5627 5.92403 14.9957 5.60841 15.2826 5.17527C15.5696 4.74213 15.6913 4.22031 15.6256 3.70491C15.56 3.18952 15.3113 2.71488 14.925 2.36751C14.5386 2.02014 14.0403 1.82317 13.5208 1.8125C13.0426 1.81525 12.5788 1.97613 12.2016 2.27006C11.8243 2.564 11.555 2.97447 11.4354 3.4375H8.56458C8.42403 2.93732 8.10841 2.50429 7.67527 2.21736C7.24213 1.93043 6.72031 1.8087 6.20491 1.87436C5.68952 1.94001 5.21488 2.18868 4.86751 2.57504C4.52014 2.9614 4.32317 3.45972 4.3125 3.97917C4.31525 4.45737 4.47613 4.92123 4.77006 5.29845C5.064 5.67566 5.47447 5.94504 5.9375 6.06458V8.93542C5.43732 9.07597 5.00429 9.39159 4.71736 9.82473C4.43043 10.2579 4.3087 10.7797 4.37436 11.2951C4.44001 11.8105 4.68868 12.2851 5.07504 12.6325C5.4614 12.9799 5.95972 13.1768 6.47917 13.1875C6.95737 13.1848 7.42123 13.0239 7.79845 12.7299C8.17566 12.436 8.44504 12.0255 8.56458 11.5625H11.4354C11.5283 11.9345 11.7183 12.2753 11.986 12.5499C12.2536 12.8244 12.5894 13.0231 12.9589 13.1255C13.3284 13.2279 13.7185 13.2304 14.0894 13.1327C14.4602 13.0351 14.7984 12.8407 15.0696 12.5696C15.3407 12.2984 15.5351 11.9602 15.6327 11.5894C15.7304 11.2185 15.7279 10.8284 15.6255 10.4589C15.5231 10.0894 15.3244 9.75363 15.0499 9.48597C14.7753 9.21832 14.4345 9.02833 14.0625 8.93542ZM13.5208 2.89583C13.7351 2.89583 13.9445 2.95937 14.1227 3.07841C14.3009 3.19745 14.4397 3.36664 14.5217 3.56459C14.6037 3.76255 14.6252 3.98037 14.5834 4.19051C14.5416 4.40066 14.4384 4.59369 14.2869 4.7452C14.1354 4.89671 13.9423 4.99988 13.7322 5.04168C13.522 5.08348 13.3042 5.06203 13.1063 4.98004C12.9083 4.89804 12.7391 4.75919 12.6201 4.58103C12.501 4.40288 12.4375 4.19343 12.4375 3.97917C12.4375 3.69185 12.5516 3.4163 12.7548 3.21313C12.958 3.00997 13.2335 2.89583 13.5208 2.89583ZM5.39583 3.97917C5.39583 3.7649 5.45937 3.55545 5.57841 3.3773C5.69745 3.19915 5.86664 3.06029 6.06459 2.9783C6.26255 2.8963 6.48037 2.87485 6.69051 2.91665C6.90066 2.95845 7.09369 3.06163 7.2452 3.21313C7.39671 3.36464 7.49988 3.55767 7.54168 3.76782C7.58348 3.97797 7.56203 4.19579 7.48004 4.39374C7.39804 4.59169 7.25919 4.76089 7.08103 4.87993C6.90288 4.99896 6.69343 5.0625 6.47917 5.0625C6.19185 5.0625 5.9163 4.94836 5.71313 4.7452C5.50997 4.54203 5.39583 4.26648 5.39583 3.97917ZM6.47917 12.1042C6.2649 12.1042 6.05545 12.0406 5.8773 11.9216C5.69915 11.8026 5.56029 11.6334 5.4783 11.4354C5.3963 11.2375 5.37485 11.0196 5.41665 10.8095C5.45845 10.5993 5.56163 10.4063 5.71313 10.2548C5.86464 10.1033 6.05767 10.0001 6.26782 9.95832C6.47797 9.91652 6.69579 9.93797 6.89374 10.02C7.09169 10.102 7.26089 10.2408 7.37993 10.419C7.49896 10.5971 7.5625 10.8066 7.5625 11.0208C7.5625 11.3082 7.44836 11.5837 7.2452 11.7869C7.04203 11.99 6.76648 12.1042 6.47917 12.1042ZM11.4354 10.4792H8.56458C8.46955 10.107 8.27606 9.76721 8.00442 9.49558C7.73279 9.22394 7.39304 9.03045 7.02083 8.93542V6.06458C7.39304 5.96955 7.73279 5.77606 8.00442 5.50442C8.27606 5.23279 8.46955 4.89304 8.56458 4.52083H11.4354C11.5305 4.89304 11.7239 5.23279 11.9956 5.50442C12.2672 5.77606 12.607 5.96955 12.9792 6.06458V8.93542C12.607 9.03045 12.2672 9.22394 11.9956 9.49558C11.7239 9.76721 11.5305 10.107 11.4354 10.4792ZM13.5208 12.1042C13.3066 12.1042 13.0971 12.0406 12.919 11.9216C12.7408 11.8026 12.602 11.6334 12.52 11.4354C12.438 11.2375 12.4165 11.0196 12.4583 10.8095C12.5001 10.5993 12.6033 10.4063 12.7548 10.2548C12.9063 10.1033 13.0993 10.0001 13.3095 9.95832C13.5196 9.91652 13.7375 9.93797 13.9354 10.02C14.1334 10.102 14.3026 10.2408 14.4216 10.419C14.5406 10.5971 14.6042 10.8066 14.6042 11.0208C14.6042 11.3082 14.49 11.5837 14.2869 11.7869C14.0837 11.99 13.8082 12.1042 13.5208 12.1042Z" fill="black"/>
</svg>
