<svg width="12" height="12" viewBox="0 0 12 12" fill="none" xmlns="http://www.w3.org/2000/svg">
<path d="M10.875 6C10.875 4.70707 10.3614 3.46709 9.44715 2.55285C8.53291 1.63861 7.29293 1.125 6 1.125C4.70707 1.125 3.46709 1.63861 2.55285 2.55285C1.63861 3.46709 1.125 4.70707 1.125 6C1.125 7.29293 1.63861 8.53291 2.55285 9.44715C3.46709 10.3614 4.70707 10.875 6 10.875C7.29293 10.875 8.53291 10.3614 9.44715 9.44715C10.3614 8.53291 10.875 7.29293 10.875 6ZM0 6C0 4.4087 0.632141 2.88258 1.75736 1.75736C2.88258 0.632141 4.4087 0 6 0C7.5913 0 9.11742 0.632141 10.2426 1.75736C11.3679 2.88258 12 4.4087 12 6C12 7.5913 11.3679 9.11742 10.2426 10.2426C9.11742 11.3679 7.5913 12 6 12C4.4087 12 2.88258 11.3679 1.75736 10.2426C0.632141 9.11742 0 7.5913 0 6ZM3.97969 3.87422C4.16484 3.35156 4.66172 3 5.21719 3H6.58359C7.40156 3 8.0625 3.66328 8.0625 4.47891C8.0625 5.00859 7.77891 5.49844 7.31953 5.76328L6.5625 6.19687C6.55781 6.50156 6.30703 6.75 6 6.75C5.68828 6.75 5.4375 6.49922 5.4375 6.1875V5.87109C5.4375 5.66953 5.54531 5.48438 5.72109 5.38359L6.75937 4.78828C6.86953 4.725 6.9375 4.60781 6.9375 4.48125C6.9375 4.28437 6.77812 4.12734 6.58359 4.12734H5.21719C5.1375 4.12734 5.06719 4.17656 5.04141 4.25156L5.03203 4.27969C4.92891 4.57266 4.60547 4.725 4.31484 4.62187C4.02422 4.51875 3.86953 4.19531 3.97266 3.90469L3.98203 3.87656L3.97969 3.87422ZM5.25 8.25C5.25 8.05109 5.32902 7.86032 5.46967 7.71967C5.61032 7.57902 5.80109 7.5 6 7.5C6.19891 7.5 6.38968 7.57902 6.53033 7.71967C6.67098 7.86032 6.75 8.05109 6.75 8.25C6.75 8.44891 6.67098 8.63968 6.53033 8.78033C6.38968 8.92098 6.19891 9 6 9C5.80109 9 5.61032 8.92098 5.46967 8.78033C5.32902 8.63968 5.25 8.44891 5.25 8.25Z" fill="#AEAEAE"/>
</svg>
