<svg width="16" height="12" viewBox="0 0 16 12" fill="none" xmlns="http://www.w3.org/2000/svg">
    <path
        d="M1.88082 0.706034C1.88082 0.314773 1.56604 0 1.17478 0C0.783523 0 0.46875 0.314773 0.46875 0.706034V5.64827C0.46875 7.07799 1.62782 8.23706 3.05754 8.23706H13.1215L10.5621 10.7964C10.2856 11.073 10.2856 11.5201 10.5621 11.7937C10.8386 12.0673 11.2858 12.0702 11.5594 11.7937L15.3249 8.03113C15.6014 7.7546 15.6014 7.30745 15.3249 7.03386L11.5594 3.26541C11.2828 2.98888 10.8357 2.98888 10.5621 3.26541C10.2885 3.54194 10.2856 3.98909 10.5621 4.26268L13.1215 6.82205H3.05754C2.4074 6.82205 1.88082 6.29547 1.88082 5.64533V0.706034Z"
        fill="black" />
</svg>