<svg width="20" height="15" viewBox="0 0 20 15" fill="none" xmlns="http://www.w3.org/2000/svg">
<path d="M2.5 2.86875C2.19375 2.59375 2 2.19375 2 1.75C2 0.921875 2.67187 0.25 3.5 0.25C3.94375 0.25 4.34375 0.44375 4.61875 0.75H15.3812C15.6562 0.44375 16.0562 0.25 16.5 0.25C17.3281 0.25 18 0.921875 18 1.75C18 2.19375 17.8062 2.59375 17.5 2.86875V11.6313C17.8062 11.9062 18 12.3063 18 12.75C18 13.5781 17.3281 14.25 16.5 14.25C16.0562 14.25 15.6562 14.0563 15.3812 13.75H4.61875C4.34375 14.0563 3.94375 14.25 3.5 14.25C2.67187 14.25 2 13.5781 2 12.75C2 12.3063 2.19375 11.9062 2.5 11.6313V2.86875ZM4.91562 2.25C4.76562 2.675 4.42812 3.0125 4 3.16563V11.3344C4.425 11.4844 4.7625 11.8219 4.91562 12.25H15.0844C15.2344 11.825 15.5719 11.4875 16 11.3344V3.16563C15.575 3.01562 15.2375 2.67813 15.0844 2.25H4.91562ZM9 9.25H10C11.1031 9.25 12 8.35313 12 7.25V6.25H14C14.5531 6.25 15 6.69688 15 7.25V10.25C15 10.8031 14.5531 11.25 14 11.25H10C9.44687 11.25 9 10.8031 9 10.25V9.25Z" fill="#999999"/>
<path d="M2.5 2.86875C2.19375 2.59375 2 2.19375 2 1.75C2 0.921875 2.67187 0.25 3.5 0.25C3.94375 0.25 4.34375 0.44375 4.61875 0.75H15.3812C15.6562 0.44375 16.0562 0.25 16.5 0.25C17.3281 0.25 18 0.921875 18 1.75C18 2.19375 17.8062 2.59375 17.5 2.86875V11.6313C17.8062 11.9062 18 12.3063 18 12.75C18 13.5781 17.3281 14.25 16.5 14.25C16.0562 14.25 15.6562 14.0563 15.3812 13.75H4.61875C4.34375 14.0563 3.94375 14.25 3.5 14.25C2.67187 14.25 2 13.5781 2 12.75C2 12.3063 2.19375 11.9062 2.5 11.6313V2.86875ZM4.91562 2.25C4.76562 2.675 4.42812 3.0125 4 3.16563V11.3344C4.425 11.4844 4.7625 11.8219 4.91562 12.25H15.0844C15.2344 11.825 15.5719 11.4875 16 11.3344V3.16563C15.575 3.01562 15.2375 2.67813 15.0844 2.25H4.91562ZM5 4.25C5 3.69688 5.44687 3.25 6 3.25H10C10.5531 3.25 11 3.69688 11 4.25V7.25C11 7.80312 10.5531 8.25 10 8.25H6C5.44687 8.25 5 7.80312 5 7.25V4.25ZM9 9.25H10C11.1031 9.25 12 8.35313 12 7.25V6.25H14C14.5531 6.25 15 6.69688 15 7.25V10.25C15 10.8031 14.5531 11.25 14 11.25H10C9.44687 11.25 9 10.8031 9 10.25V9.25Z" fill="#999999"/>
</svg>
