<svg width="20" height="15" viewBox="0 0 20 15" fill="none" xmlns="http://www.w3.org/2000/svg">
<g clip-path="url(#clip0_4784_25050)">
<path d="M11.7188 9.5625C13.807 9.5625 15.5 7.86953 15.5 5.78125C15.5 3.69297 13.807 2 11.7188 2C9.63047 2 7.9375 3.69297 7.9375 5.78125C7.9375 6.18301 7.9998 6.57188 8.11582 6.93496L4.65039 10.4004C4.55371 10.4971 4.5 10.6281 4.5 10.7656V12.4844C4.5 12.7701 4.72988 13 5.01562 13H6.73438C7.02012 13 7.25 12.7701 7.25 12.4844V11.625H8.10938C8.39512 11.625 8.625 11.3951 8.625 11.1094V10.25H9.48438C9.62187 10.25 9.75293 10.1963 9.84961 10.0996L10.565 9.38418C10.9281 9.5002 11.317 9.5625 11.7188 9.5625ZM12.5781 4.0625C12.806 4.0625 13.0246 4.15304 13.1858 4.31421C13.347 4.47537 13.4375 4.69395 13.4375 4.92188C13.4375 5.1498 13.347 5.36838 13.1858 5.52954C13.0246 5.69071 12.806 5.78125 12.5781 5.78125C12.3502 5.78125 12.1316 5.69071 11.9705 5.52954C11.8093 5.36838 11.7188 5.1498 11.7188 4.92188C11.7188 4.69395 11.8093 4.47537 11.9705 4.31421C12.1316 4.15304 12.3502 4.0625 12.5781 4.0625Z" fill="black"/>
</g>
<defs>
<clipPath id="clip0_4784_25050">
<rect width="11" height="11" fill="white" transform="translate(4.5 2)"/>
</clipPath>
</defs>
</svg>
