<svg width="16" height="12" viewBox="0 0 16 12" fill="none" xmlns="http://www.w3.org/2000/svg">
<path d="M1.88033 0.706034C1.88033 0.314773 1.56556 0 1.1743 0C0.783035 0 0.468262 0.314773 0.468262 0.706034V5.64827C0.468262 7.07799 1.62733 8.23706 3.05705 8.23706H13.121L10.5616 10.7964C10.2851 11.073 10.2851 11.5201 10.5616 11.7937C10.8381 12.0673 11.2853 12.0702 11.5589 11.7937L15.3244 8.03113C15.6009 7.7546 15.6009 7.30745 15.3244 7.03386L11.5589 3.26541C11.2823 2.98888 10.8352 2.98888 10.5616 3.26541C10.288 3.54194 10.2851 3.98909 10.5616 4.26268L13.121 6.82205H3.05705C2.40691 6.82205 1.88033 6.29547 1.88033 5.64533V0.706034Z" fill="#EA35FA"/>
</svg>
