<svg width="20" height="15" viewBox="0 0 20 15" fill="none" xmlns="http://www.w3.org/2000/svg">
<g clip-path="url(#clip0_3192_6059)">
<path d="M13.75 6.125C13.75 7.20078 13.4008 8.19453 12.8125 9.00078L15.7797 11.9703C16.0727 12.2633 16.0727 12.7391 15.7797 13.032C15.4867 13.325 15.0109 13.325 14.718 13.032L11.7508 10.0625C10.9445 10.6531 9.95078 11 8.875 11C6.18203 11 4 8.81797 4 6.125C4 3.43203 6.18203 1.25 8.875 1.25C11.568 1.25 13.75 3.43203 13.75 6.125ZM8.875 9.5C9.31821 9.5 9.75708 9.4127 10.1666 9.24309C10.576 9.07348 10.9481 8.82488 11.2615 8.51149C11.5749 8.19809 11.8235 7.82603 11.9931 7.41656C12.1627 7.00708 12.25 6.56821 12.25 6.125C12.25 5.68179 12.1627 5.24292 11.9931 4.83344C11.8235 4.42397 11.5749 4.05191 11.2615 3.73851C10.9481 3.42512 10.576 3.17652 10.1666 3.00691C9.75708 2.8373 9.31821 2.75 8.875 2.75C8.43179 2.75 7.99292 2.8373 7.58344 3.00691C7.17397 3.17652 6.80191 3.42512 6.48851 3.73851C6.17512 4.05191 5.92652 4.42397 5.75691 4.83344C5.5873 5.24292 5.5 5.68179 5.5 6.125C5.5 6.56821 5.5873 7.00708 5.75691 7.41656C5.92652 7.82603 6.17512 8.19809 6.48851 8.51149C6.80191 8.82488 7.17397 9.07348 7.58344 9.24309C7.99292 9.4127 8.43179 9.5 8.875 9.5Z" fill="black"/>
</g>
<defs>
<clipPath id="clip0_3192_6059">
<rect width="12" height="12" fill="white" transform="translate(4 1.25)"/>
</clipPath>
</defs>
</svg>
