<svg width="21" height="16" viewBox="0 0 21 16" fill="none" xmlns="http://www.w3.org/2000/svg">
<path d="M7.46214 1.42285C6.9506 1.42285 6.53906 1.83439 6.53906 2.34593C6.53906 2.85747 6.9506 3.26901 7.46214 3.26901H19.1544C19.666 3.26901 20.0775 2.85747 20.0775 2.34593C20.0775 1.83439 19.666 1.42285 19.1544 1.42285H7.46214Z" fill="#AEAEAE"/>
<path d="M7.46214 5.42285C6.9506 5.42285 6.53906 5.83439 6.53906 6.34593C6.53906 6.85747 6.9506 7.26901 7.46214 7.26901H19.1544C19.666 7.26901 20.0775 6.85747 20.0775 6.34593C20.0775 5.83439 19.666 5.42285 19.1544 5.42285H7.46214Z" fill="#AEAEAE"/>
<path d="M7.46214 9.42285C6.9506 9.42285 6.53906 9.83439 6.53906 10.3459C6.53906 10.8575 6.9506 11.269 7.46214 11.269H19.1544C19.666 11.269 20.0775 10.8575 20.0775 10.3459C20.0775 9.83439 19.666 9.42285 19.1544 9.42285H7.46214Z" fill="#AEAEAE"/>
<path d="M7.46214 13.4229C6.9506 13.4229 6.53906 13.8344 6.53906 14.3459C6.53906 14.8575 6.9506 15.269 7.46214 15.269H19.1544C19.666 15.269 20.0775 14.8575 20.0775 14.3459C20.0775 13.8344 19.666 13.4229 19.1544 13.4229H7.46214Z" fill="#AEAEAE"/>
<path d="M2 1.25C2 0.834375 2.33437 0.5 2.75 0.5H4.25C4.66563 0.5 5 0.834375 5 1.25V2.75C5 3.16563 4.66563 3.5 4.25 3.5H2.75C2.33437 3.5 2 3.16563 2 2.75V1.25Z" fill="#AEAEAE"/>
<path d="M2 5.25C2 4.83437 2.33437 4.5 2.75 4.5H4.25C4.66563 4.5 5 4.83437 5 5.25V6.75C5 7.16563 4.66563 7.5 4.25 7.5H2.75C2.33437 7.5 2 7.16563 2 6.75V5.25Z" fill="#AEAEAE"/>
<path d="M2 9.25C2 8.83437 2.33437 8.5 2.75 8.5H4.25C4.66563 8.5 5 8.83437 5 9.25V10.75C5 11.1656 4.66563 11.5 4.25 11.5H2.75C2.33437 11.5 2 11.1656 2 10.75V9.25Z" fill="#AEAEAE"/>
<path d="M2 13.25C2 12.8344 2.33437 12.5 2.75 12.5H4.25C4.66563 12.5 5 12.8344 5 13.25V14.75C5 15.1656 4.66563 15.5 4.25 15.5H2.75C2.33437 15.5 2 15.1656 2 14.75V13.25Z" fill="#AEAEAE"/>
</svg>
