<svg width="46" height="62" viewBox="0 0 46 62" fill="none" xmlns="http://www.w3.org/2000/svg">
    <path
        d="M22.5392 49.8658C16.8172 49.2135 12.4873 44.8031 11.9599 39.3535C11.6453 36.0923 9.27777 33.4114 5.97996 33.4114C2.68216 33.4114 0 36.0766 0 39.3535C0 40.1339 0.124488 40.7839 0.355357 41.3215C1.19056 43.5256 3.40872 45.001 5.97996 45.2956C11.7019 45.9478 16.0318 50.3583 16.5592 55.8079C16.8738 59.0691 19.2414 61.75 22.5392 61.75C25.837 61.75 28.5191 59.0848 28.5191 55.8079C28.5191 55.2501 28.4535 54.7733 28.3335 54.3617C27.6704 51.8675 25.3096 50.1806 22.5392 49.8658ZM22.5528 12.6342C28.2747 13.2865 32.6046 17.6969 33.132 23.1465C33.4466 26.4077 35.8142 29.0886 39.112 29.0886C42.4098 29.0886 45.0919 26.4234 45.0919 23.1465C45.0919 22.5887 45.0263 22.1119 44.9063 21.7003C44.2431 19.2061 41.8824 17.5193 39.112 17.2044C33.39 16.5522 29.0601 12.1417 28.5327 6.69211C28.2181 3.43092 25.8506 0.75 22.5528 0.75C19.2549 0.75 16.5728 3.41518 16.5728 6.69211C16.5728 7.47255 16.6973 8.12254 16.9281 8.66007C17.7633 10.8642 19.9815 12.3396 22.5528 12.6342ZM22.5392 33.6723C16.8172 33.02 12.4873 28.6096 11.9599 23.16C11.6453 19.8988 9.27777 17.2179 5.97996 17.2179C2.68216 17.2179 0 19.8831 0 23.16C0 23.9404 0.124488 24.5904 0.355357 25.128C1.19056 27.3321 3.40872 28.8075 5.97996 29.1021C11.7019 29.7543 16.0318 34.1648 16.5592 39.6144C16.8738 42.8756 19.2414 45.5565 22.5392 45.5565C25.837 45.5565 28.5191 42.8913 28.5191 39.6144C28.5191 39.0566 28.4535 38.5798 28.3335 38.1682C27.6704 35.674 25.3096 33.9872 22.5392 33.6723ZM39.112 33.3979C33.39 32.7456 29.0601 28.3352 28.5327 22.8856C28.2181 19.6244 25.8506 16.9435 22.5528 16.9435C19.2549 16.9435 16.5728 19.6087 16.5728 22.8856C16.5728 23.666 16.6973 24.316 16.9281 24.8536C17.7633 27.0577 19.9815 28.5331 22.5528 28.8277C28.2747 29.48 32.6046 33.8904 33.132 39.34C33.4466 42.6012 35.8142 45.2821 39.112 45.2821C42.4098 45.2821 45.0919 42.6169 45.0919 39.34C45.0919 38.7822 45.0263 38.3054 44.9063 37.8938C44.2431 35.3996 41.8824 33.7128 39.112 33.3979Z"
        fill="url(#paint0_linear_4056_23261)" />
    <defs>
        <linearGradient id="paint0_linear_4056_23261" x1="0" y1="31.25" x2="45.0919" y2="31.25"
            gradientUnits="userSpaceOnUse">
            <stop stop-color="#EC6B7D" />
            <stop offset="1" stop-color="#C914E6" />
        </linearGradient>
    </defs>
</svg>