<svg width="14" height="15" viewBox="0 0 14 15" fill="none" xmlns="http://www.w3.org/2000/svg">
    <g clip-path="url(#clip0_3192_6034)">
        <path
            d="M8.90953 4.66445C8.94507 4.79023 9.05992 4.875 9.18843 4.875C9.31695 4.875 9.43179 4.79023 9.46734 4.66445L9.84468 3.34375L11.1654 2.96641C11.2912 2.93086 11.3759 2.81602 11.3759 2.6875C11.3759 2.55898 11.2912 2.44414 11.1654 2.40859L9.84468 2.03125L9.46734 0.710547C9.43179 0.584766 9.31695 0.5 9.18843 0.5C9.05992 0.5 8.94507 0.584766 8.90953 0.710547L8.53218 2.03125L7.21148 2.40859C7.0857 2.44414 7.00093 2.55898 7.00093 2.6875C7.00093 2.81602 7.0857 2.93086 7.21148 2.96641L8.53218 3.34375L8.90953 4.66445ZM5.83609 4.80391C5.59546 4.31445 4.8982 4.31445 4.65757 4.80391L3.39156 7.37422L0.561481 7.78711C0.0255432 7.86367 -0.190472 8.52539 0.197809 8.90547L2.24586 10.907L1.76461 13.7316C1.67164 14.2676 2.23492 14.6777 2.71617 14.4234L5.2482 13.0891L7.78023 14.4234C8.26148 14.6777 8.82476 14.2676 8.73179 13.7316L8.24781 10.907L10.2959 8.90547C10.6841 8.52539 10.4709 7.86367 9.93218 7.78711L7.10211 7.37422L5.83609 4.80391ZM11.7259 7.15L12.0267 8.20547C12.0541 8.30391 12.147 8.375 12.2509 8.375C12.3548 8.375 12.4451 8.30664 12.4752 8.20547L12.7759 7.15L13.8314 6.84922C13.9298 6.82188 14.0009 6.72891 14.0009 6.625C14.0009 6.52109 13.9326 6.43086 13.8314 6.40078L12.7759 6.1L12.4752 5.04453C12.4478 4.94609 12.3548 4.875 12.2509 4.875C12.147 4.875 12.0568 4.94336 12.0267 5.04453L11.7259 6.1L10.6705 6.40078C10.572 6.42812 10.5009 6.52109 10.5009 6.625C10.5009 6.72891 10.5693 6.81914 10.6705 6.84922L11.7259 7.15Z"
            fill="black" />
    </g>
    <defs>
        <clipPath id="clip0_3192_6034">
            <rect width="14" height="14" fill="white" transform="translate(0 0.5)" />
        </clipPath>
    </defs>
</svg>