<svg width="13" height="13" viewBox="0 0 13 13" fill="none" xmlns="http://www.w3.org/2000/svg">
<path fill-rule="evenodd" clip-rule="evenodd" d="M8.27274 0.59091V7.48486C8.27257 7.64152 8.21026 7.79173 8.09948 7.90251C7.9887 8.01329 7.83849 8.0756 7.68183 8.07577H0.59091C0.434243 8.0756 0.284042 8.01329 0.173262 7.90251C0.0624823 7.79173 0.000171008 7.64152 0 7.48486V0.59091C0.000171008 0.434243 0.0624823 0.284042 0.173262 0.173262C0.284042 0.0624823 0.434243 0.000171008 0.59091 0H7.68183C7.83849 0.000171008 7.9887 0.0624823 8.09948 0.173262C8.21026 0.284042 8.27257 0.434243 8.27274 0.59091ZM0.39394 0.59091V7.48486C0.393975 7.53709 0.414738 7.58717 0.45167 7.6241C0.488601 7.66103 0.538681 7.68179 0.59091 7.68183H7.68183C7.73406 7.68179 7.78414 7.66103 7.82107 7.6241C7.858 7.58717 7.87876 7.53709 7.8788 7.48486V0.59091C7.87876 0.538681 7.858 0.488601 7.82107 0.45167C7.78414 0.414738 7.73406 0.393975 7.68183 0.39394H0.59091C0.538681 0.393975 0.488601 0.414738 0.45167 0.45167C0.414738 0.488601 0.393975 0.538681 0.39394 0.59091ZM8.66629 4.92409H12.4087C12.5654 4.92426 12.7156 4.98657 12.8264 5.09735C12.9371 5.20813 12.9995 5.35833 12.9996 5.515V12.4089C12.9995 12.5656 12.9371 12.7158 12.8264 12.8266C12.7156 12.9374 12.5654 12.9997 12.4087 12.9999H5.3178C5.16113 12.9997 5.01093 12.9374 4.90015 12.8266C4.78937 12.7158 4.72706 12.5656 4.72689 12.4089V8.46955C4.72689 8.41731 4.74764 8.36721 4.78458 8.33027C4.82152 8.29333 4.87162 8.27258 4.92386 8.27258C4.9761 8.27258 5.0262 8.29333 5.06314 8.33027C5.10008 8.36721 5.12083 8.41731 5.12083 8.46955V12.4089C5.12086 12.4612 5.14163 12.5113 5.17856 12.5482C5.21549 12.5851 5.26557 12.6059 5.3178 12.6059H12.4087C12.4609 12.6059 12.511 12.5851 12.548 12.5482C12.5849 12.5113 12.6057 12.4612 12.6057 12.4089V5.515C12.6057 5.46277 12.5849 5.41269 12.548 5.37576C12.511 5.33883 12.4609 5.31806 12.4087 5.31803H8.66629C8.61405 5.31803 8.56395 5.29728 8.52701 5.26034C8.49007 5.2234 8.46932 5.1733 8.46932 5.12106C8.46932 5.06882 8.49007 5.01872 8.52701 4.98178C8.56395 4.94484 8.61405 4.92409 8.66629 4.92409ZM6.6969 1.37892H1.57568C1.52344 1.37892 1.47334 1.39967 1.4364 1.43661C1.39946 1.47355 1.37871 1.52365 1.37871 1.57589C1.37871 1.62813 1.39946 1.67823 1.4364 1.71517C1.47334 1.75211 1.52344 1.77286 1.57568 1.77286H6.6969C6.74914 1.77286 6.79924 1.75211 6.83618 1.71517C6.87312 1.67823 6.89387 1.62813 6.89387 1.57589C6.89387 1.52365 6.87312 1.47355 6.83618 1.43661C6.79924 1.39967 6.74914 1.37892 6.6969 1.37892ZM1.57568 2.36366H6.6969C6.74914 2.36366 6.79924 2.38441 6.83618 2.42135C6.87312 2.45829 6.89387 2.50839 6.89387 2.56063C6.89387 2.61287 6.87312 2.66297 6.83618 2.6999C6.79924 2.73684 6.74914 2.7576 6.6969 2.7576H1.57568C1.52344 2.7576 1.47334 2.73684 1.4364 2.6999C1.39946 2.66297 1.37871 2.61287 1.37871 2.56063C1.37871 2.50839 1.39946 2.45829 1.4364 2.42135C1.47334 2.38441 1.52344 2.36366 1.57568 2.36366ZM6.6969 3.3486H1.57568C1.52344 3.3486 1.47334 3.36935 1.4364 3.40629C1.39946 3.44323 1.37871 3.49333 1.37871 3.54557C1.37871 3.59781 1.39946 3.64791 1.4364 3.68485C1.47334 3.72179 1.52344 3.74254 1.57568 3.74254H6.6969C6.74914 3.74254 6.79924 3.72179 6.83618 3.68485C6.87312 3.64791 6.89387 3.59781 6.89387 3.54557C6.89387 3.49333 6.87312 3.44323 6.83618 3.40629C6.79924 3.36935 6.74914 3.3486 6.6969 3.3486ZM1.57568 4.33333H6.6969C6.74914 4.33333 6.79924 4.35409 6.83618 4.39102C6.87312 4.42796 6.89387 4.47806 6.89387 4.5303C6.89387 4.58254 6.87312 4.63264 6.83618 4.66958C6.79924 4.70652 6.74914 4.72727 6.6969 4.72727H1.57568C1.52344 4.72727 1.47334 4.70652 1.4364 4.66958C1.39946 4.63264 1.37871 4.58254 1.37871 4.5303C1.37871 4.47806 1.39946 4.42796 1.4364 4.39102C1.47334 4.35409 1.52344 4.33333 1.57568 4.33333ZM6.6969 5.31828H1.57568C1.52344 5.31828 1.47334 5.33903 1.4364 5.37597C1.39946 5.41291 1.37871 5.46301 1.37871 5.51525C1.37871 5.56749 1.39946 5.61759 1.4364 5.65453C1.47334 5.69147 1.52344 5.71222 1.57568 5.71222H6.6969C6.74914 5.71222 6.79924 5.69147 6.83618 5.65453C6.87312 5.61759 6.89387 5.56749 6.89387 5.51525C6.89387 5.46301 6.87312 5.41291 6.83618 5.37597C6.79924 5.33903 6.74914 5.31828 6.6969 5.31828ZM1.57568 6.30301H6.6969C6.74914 6.30301 6.79924 6.32376 6.83618 6.3607C6.87312 6.39764 6.89387 6.44774 6.89387 6.49998C6.89387 6.55222 6.87312 6.60232 6.83618 6.63926C6.79924 6.6762 6.74914 6.69695 6.6969 6.69695H1.57568C1.52344 6.69695 1.47334 6.6762 1.4364 6.63926C1.39946 6.60232 1.37871 6.55222 1.37871 6.49998C1.37871 6.44774 1.39946 6.39764 1.4364 6.3607C1.47334 6.32376 1.52344 6.30301 1.57568 6.30301ZM8.66644 6.69695H11.424C11.4763 6.69695 11.5264 6.6762 11.5633 6.63926C11.6002 6.60232 11.621 6.55222 11.621 6.49998C11.621 6.44774 11.6002 6.39764 11.5633 6.3607C11.5264 6.32376 11.4763 6.30301 11.424 6.30301H8.66644C8.6142 6.30301 8.5641 6.32376 8.52716 6.3607C8.49022 6.39764 8.46947 6.44774 8.46947 6.49998C8.46947 6.55222 8.49022 6.60232 8.52716 6.63926C8.5641 6.6762 8.6142 6.69695 8.66644 6.69695ZM11.424 7.6819H8.66644C8.6142 7.6819 8.5641 7.66114 8.52716 7.6242C8.49022 7.58727 8.46947 7.53717 8.46947 7.48493C8.46947 7.43269 8.49022 7.38259 8.52716 7.34565C8.5641 7.30871 8.6142 7.28796 8.66644 7.28796H11.424C11.4763 7.28796 11.5264 7.30871 11.5633 7.34565C11.6002 7.38259 11.621 7.43269 11.621 7.48493C11.621 7.53717 11.6002 7.58727 11.5633 7.6242C11.5264 7.66114 11.4763 7.6819 11.424 7.6819ZM11.4246 8.27269H6.30342C6.25118 8.27269 6.20108 8.29344 6.16414 8.33038C6.1272 8.36732 6.10645 8.41742 6.10645 8.46966C6.10645 8.5219 6.1272 8.572 6.16414 8.60894C6.20108 8.64588 6.25118 8.66663 6.30342 8.66663H11.4246C11.4769 8.66663 11.527 8.64588 11.5639 8.60894C11.6009 8.572 11.6216 8.5219 11.6216 8.46966C11.6216 8.41742 11.6009 8.36732 11.5639 8.33038C11.527 8.29344 11.4769 8.27269 11.4246 8.27269ZM6.30342 9.25763H11.4246C11.4769 9.25763 11.527 9.27839 11.5639 9.31532C11.6009 9.35226 11.6216 9.40236 11.6216 9.4546C11.6216 9.50684 11.6009 9.55694 11.5639 9.59388C11.527 9.63082 11.4769 9.65157 11.4246 9.65157H6.30342C6.25118 9.65157 6.20108 9.63082 6.16414 9.59388C6.1272 9.55694 6.10645 9.50684 6.10645 9.4546C6.10645 9.40236 6.1272 9.35226 6.16414 9.31532C6.20108 9.27839 6.25118 9.25763 6.30342 9.25763ZM11.4246 10.2424H6.30342C6.25118 10.2424 6.20108 10.2631 6.16414 10.3001C6.1272 10.337 6.10645 10.3871 6.10645 10.4393C6.10645 10.4916 6.1272 10.5417 6.16414 10.5786C6.20108 10.6156 6.25118 10.6363 6.30342 10.6363H11.4246C11.4769 10.6363 11.527 10.6156 11.5639 10.5786C11.6009 10.5417 11.6216 10.4916 11.6216 10.4393C11.6216 10.3871 11.6009 10.337 11.5639 10.3001C11.527 10.2631 11.4769 10.2424 11.4246 10.2424ZM6.30342 11.2273H11.4246C11.4769 11.2273 11.527 11.2481 11.5639 11.285C11.6009 11.3219 11.6216 11.372 11.6216 11.4243C11.6216 11.4765 11.6009 11.5266 11.5639 11.5636C11.527 11.6005 11.4769 11.6213 11.4246 11.6213H6.30342C6.25118 11.6213 6.20108 11.6005 6.16414 11.5636C6.1272 11.5266 6.10645 11.4765 6.10645 11.4243C6.10645 11.372 6.1272 11.3219 6.16414 11.285C6.20108 11.2481 6.25118 11.2273 6.30342 11.2273ZM9.25758 2.16676H9.84849C10.0052 2.16694 10.1554 2.22925 10.2661 2.34003C10.3769 2.45081 10.4392 2.60101 10.4394 2.75767V2.95464H10.324C10.2299 2.95465 10.138 2.98254 10.0598 3.03479C9.98162 3.08703 9.92068 3.1613 9.88469 3.24818C9.8487 3.33507 9.83928 3.43067 9.85763 3.52291C9.87597 3.61515 9.92126 3.69987 9.98776 3.76638L10.5548 4.33343C10.6173 4.39588 10.6914 4.44542 10.773 4.47921C10.8546 4.51301 10.942 4.5304 11.0303 4.5304C11.1186 4.5304 11.2061 4.51301 11.2876 4.47921C11.3692 4.44542 11.4434 4.39588 11.5058 4.33343L12.0729 3.76638C12.1394 3.69987 12.1847 3.61515 12.203 3.52291C12.2213 3.43067 12.2119 3.33506 12.1759 3.24818C12.1399 3.16129 12.079 3.08703 12.0008 3.03478C11.9226 2.98253 11.8307 2.95464 11.7366 2.95464H11.6212V2.75767C11.6207 2.28767 11.4338 1.83707 11.1014 1.50473C10.7691 1.17239 10.3185 0.985458 9.84849 0.984945H9.25758C9.10086 0.984945 8.95056 1.0472 8.83974 1.15802C8.72892 1.26884 8.66667 1.41914 8.66667 1.57585C8.66667 1.73257 8.72892 1.88287 8.83974 1.99369C8.95056 2.10451 9.10086 2.16676 9.25758 2.16676ZM9.25758 1.37888H9.84849C10.214 1.37933 10.5645 1.52473 10.8229 1.78321C11.0814 2.04169 11.2268 2.39213 11.2273 2.75767V3.15161C11.2273 3.17748 11.2323 3.2031 11.2422 3.22701C11.2521 3.25091 11.2666 3.27263 11.2849 3.29093C11.3032 3.30922 11.3249 3.32373 11.3489 3.33362C11.3728 3.34351 11.3984 3.3486 11.4242 3.34858H11.7366C11.7528 3.34859 11.7685 3.35338 11.7819 3.36235C11.7953 3.37131 11.8058 3.38405 11.812 3.39895C11.8181 3.41385 11.8198 3.43025 11.8166 3.44607C11.8135 3.46189 11.8057 3.47643 11.7943 3.48784L11.2273 4.05491C11.1742 4.10547 11.1036 4.13368 11.0303 4.13368C10.957 4.13368 10.8864 4.10547 10.8333 4.05491L10.2663 3.48784C10.2549 3.47643 10.2471 3.46189 10.244 3.44607C10.2409 3.43025 10.2425 3.41385 10.2486 3.39895C10.2548 3.38405 10.2653 3.37131 10.2787 3.36235C10.2921 3.35338 10.3079 3.34859 10.324 3.34858H10.6364C10.6622 3.3486 10.6879 3.34351 10.7118 3.33362C10.7357 3.32373 10.7574 3.30922 10.7757 3.29093C10.794 3.27263 10.8085 3.25091 10.8184 3.22701C10.8283 3.2031 10.8334 3.17748 10.8333 3.15161V2.75767C10.833 2.49657 10.7292 2.24625 10.5445 2.06162C10.3599 1.87699 10.1096 1.77313 9.84849 1.77282H9.25758C9.20534 1.77282 9.15524 1.75207 9.1183 1.71513C9.08136 1.67819 9.06061 1.62809 9.06061 1.57585C9.06061 1.52361 9.08136 1.47351 9.1183 1.43658C9.15524 1.39964 9.20534 1.37888 9.25758 1.37888ZM3.32592 9.66063C3.41816 9.67897 3.50289 9.72426 3.56939 9.79076L4.13645 10.3578C4.19889 10.4203 4.24843 10.4944 4.28222 10.576C4.31602 10.6576 4.33342 10.745 4.33342 10.8333C4.33342 10.9216 4.31602 11.0091 4.28222 11.0907C4.24843 11.1722 4.19889 11.2464 4.13645 11.3088L3.56939 11.8759C3.50289 11.9424 3.41816 11.9877 3.32592 12.006C3.23369 12.0243 3.13808 12.0149 3.05119 11.9789C2.96431 11.9429 2.89005 11.882 2.8378 11.8038C2.78555 11.7256 2.75766 11.6337 2.75766 11.5396V11.4242H2.56069C2.09069 11.4237 1.64008 11.2368 1.30774 10.9044C0.975403 10.5721 0.788469 10.1215 0.787956 9.6515V9.06059C0.787956 8.90387 0.850212 8.75357 0.961029 8.64275C1.07185 8.53193 1.22215 8.46968 1.37887 8.46968C1.53558 8.46968 1.68588 8.53193 1.7967 8.64275C1.90752 8.75357 1.96978 8.90387 1.96978 9.06059V9.6515C1.96995 9.80816 2.03226 9.95837 2.14304 10.0691C2.25382 10.1799 2.40402 10.2422 2.56069 10.2424H2.75766V10.127C2.75766 10.0329 2.78554 9.94102 2.83779 9.86282C2.89004 9.78463 2.9643 9.72368 3.05119 9.68769C3.13807 9.6517 3.23368 9.64228 3.32592 9.66063ZM3.29085 11.5973L3.85792 11.0303C3.91014 10.978 3.93948 10.9072 3.93948 10.8333C3.93948 10.7594 3.91014 10.6886 3.85792 10.6363L3.29085 10.0693C3.27897 10.0592 3.26454 10.0526 3.24915 10.0502C3.23376 10.0478 3.218 10.0497 3.20361 10.0556C3.18922 10.0616 3.17675 10.0714 3.16757 10.084C3.1584 10.0966 3.15287 10.1115 3.1516 10.127V10.4394C3.15161 10.4652 3.14653 10.4909 3.13663 10.5148C3.12674 10.5387 3.11223 10.5604 3.09394 10.5787C3.07564 10.597 3.05392 10.6115 3.03002 10.6214C3.00612 10.6313 2.9805 10.6364 2.95463 10.6363H2.56069C2.29958 10.636 2.04926 10.5322 1.86463 10.3476C1.68 10.1629 1.57614 9.9126 1.57584 9.6515V9.06059C1.57584 9.00835 1.55508 8.95825 1.51814 8.92131C1.48121 8.88437 1.43111 8.86362 1.37887 8.86362C1.32663 8.86362 1.27653 8.88437 1.23959 8.92131C1.20265 8.95825 1.1819 9.00835 1.1819 9.06059V9.6515C1.18234 10.017 1.32775 10.3675 1.58622 10.626C1.8447 10.8844 2.19514 11.0298 2.56069 11.0303H2.95463C2.9805 11.0303 3.00612 11.0354 3.03002 11.0453C3.05392 11.0551 3.07564 11.0697 3.09394 11.0879C3.11223 11.1062 3.12674 11.128 3.13663 11.1519C3.14653 11.1758 3.15161 11.2014 3.1516 11.2273V11.5396C3.15285 11.5552 3.15837 11.5701 3.16754 11.5827C3.17671 11.5953 3.18918 11.6051 3.20358 11.6111C3.21798 11.617 3.23375 11.6189 3.24915 11.6165C3.26455 11.6141 3.27898 11.6074 3.29085 11.5973Z" fill="black"/>
</svg>
