<svg width="20" height="16" viewBox="0 0 20 16" fill="none" xmlns="http://www.w3.org/2000/svg">
<path d="M10.364 5.64866C10.2702 5.55424 10.139 5.5 10.0014 5.5C9.86394 5.5 9.73476 5.55424 9.63892 5.64866L6.1387 9.18437C5.94702 9.37723 5.95536 9.68259 6.15537 9.8654C6.35538 10.0482 6.67207 10.0422 6.86166 9.84933L9.50141 7.18549L9.50141 14.0179C9.50141 14.285 9.72434 14.5 10.0014 14.5C10.2785 14.5 10.5015 14.285 10.5015 14.0179L10.5015 7.18549L13.1391 9.85134C13.3308 10.0442 13.6454 10.0502 13.8454 9.86741C14.0454 9.6846 14.0517 9.37924 13.8621 9.18638L10.3619 5.65067L10.364 5.64866Z" fill="#D32DCA"/>
<circle cx="10" cy="3" r="1.5" transform="rotate(-180 10 3)" fill="#D32DCA"/>
</svg>
