<svg width="15" height="15" viewBox="0 0 15 15" fill="none" xmlns="http://www.w3.org/2000/svg">
<path d="M0 2.25C0 1.85218 0.158035 1.47064 0.43934 1.18934C0.720644 0.908035 1.10218 0.75 1.5 0.75H13.5C13.8978 0.75 14.2794 0.908035 14.5607 1.18934C14.842 1.47064 15 1.85218 15 2.25V10.5C15 10.8978 14.842 11.2794 14.5607 11.5607C14.2794 11.842 13.8978 12 13.5 12H10.0605L8.03025 14.0303C7.8896 14.1709 7.69887 14.2498 7.5 14.2498C7.30113 14.2498 7.1104 14.1709 6.96975 14.0303L4.9395 12H1.5C1.10218 12 0.720644 11.842 0.43934 11.5607C0.158035 11.2794 0 10.8978 0 10.5V2.25ZM13.5 2.25H1.5V10.5H5.25C5.4489 10.5 5.63963 10.5791 5.78025 10.7197L7.5 12.4395L9.21975 10.7197C9.36037 10.5791 9.5511 10.5 9.75 10.5H13.5V2.25ZM3 4.875C3 4.67609 3.07902 4.48532 3.21967 4.34467C3.36032 4.20402 3.55109 4.125 3.75 4.125H11.25C11.4489 4.125 11.6397 4.20402 11.7803 4.34467C11.921 4.48532 12 4.67609 12 4.875C12 5.07391 11.921 5.26468 11.7803 5.40533C11.6397 5.54598 11.4489 5.625 11.25 5.625H3.75C3.55109 5.625 3.36032 5.54598 3.21967 5.40533C3.07902 5.26468 3 5.07391 3 4.875ZM3 7.875C3 7.67609 3.07902 7.48532 3.21967 7.34467C3.36032 7.20402 3.55109 7.125 3.75 7.125H8.25C8.44891 7.125 8.63968 7.20402 8.78033 7.34467C8.92098 7.48532 9 7.67609 9 7.875C9 8.07391 8.92098 8.26468 8.78033 8.40533C8.63968 8.54598 8.44891 8.625 8.25 8.625H3.75C3.55109 8.625 3.36032 8.54598 3.21967 8.40533C3.07902 8.26468 3 8.07391 3 7.875Z" fill="#AEAEAE"/>
</svg>
