<svg width="20" height="16" viewBox="0 0 20 16" fill="none" xmlns="http://www.w3.org/2000/svg">
<path fill-rule="evenodd" clip-rule="evenodd" d="M12.4018 8.00606C12.4018 9.33059 11.3246 10.4077 10.0001 10.4077C8.67557 10.4077 7.59842 9.33059 7.59842 8.00606V4.40354C7.59924 3.78634 7.83729 3.19307 8.26331 2.74648C8.68934 2.29989 9.27074 2.03416 9.88722 2.00427C9.92835 1.99455 9.97045 1.98951 10.0127 1.98926C11.33 1.98926 12.4018 3.07241 12.4018 4.40354V8.00606ZM9.39959 14.0103V12.768C7.03454 12.4708 5.19666 10.451 5.19666 8.00607H6.39749C6.39749 9.99286 8.01322 11.6086 10 11.6086C11.9868 11.6086 13.6025 9.99286 13.6025 8.00607H14.8034C14.8034 10.4516 12.9655 12.4708 10.6004 12.768V14.0103H9.39959Z" fill="white"/>
</svg>
