<svg width="20" height="16" viewBox="0 0 20 16" fill="none" xmlns="http://www.w3.org/2000/svg">
<path d="M9.63603 10.3513C9.72979 10.4458 9.86105 10.5 9.99856 10.5C10.1361 10.5 10.2652 10.4458 10.3611 10.3513L13.8613 6.81563C14.053 6.62277 14.0446 6.31741 13.8446 6.1346C13.6446 5.95179 13.3279 5.95781 13.1383 6.15067L10.4986 8.81451V1.98214C10.4986 1.71496 10.2757 1.5 9.99856 1.5C9.72146 1.5 9.49852 1.71496 9.49852 1.98214V8.81451L6.86086 6.14866C6.66918 5.9558 6.35458 5.94978 6.15456 6.13259C5.95455 6.3154 5.9483 6.62076 6.1379 6.81362L9.63812 10.3493L9.63603 10.3513Z" fill="#D32DCA"/>
<circle cx="10" cy="13" r="1.5" fill="#D32DCA"/>
</svg>
