<svg width="13" height="13" viewBox="0 0 13 13" fill="none" xmlns="http://www.w3.org/2000/svg">
<path d="M5.92801 1.78571C5.92801 1.07589 5.35212 0.5 4.6423 0.5H2.07087C1.36105 0.5 0.785156 1.07589 0.785156 1.78571V4.35714C0.785156 5.06696 1.36105 5.64286 2.07087 5.64286H4.6423C5.35212 5.64286 5.92801 5.06696 5.92801 4.35714V1.78571ZM5.92801 8.64286C5.92801 7.93304 5.35212 7.35714 4.6423 7.35714H2.07087C1.36105 7.35714 0.785156 7.93304 0.785156 8.64286V11.2143C0.785156 11.9241 1.36105 12.5 2.07087 12.5H4.6423C5.35212 12.5 5.92801 11.9241 5.92801 11.2143V8.64286ZM7.6423 1.78571V4.35714C7.6423 5.06696 8.21819 5.64286 8.92801 5.64286H11.4994C12.2093 5.64286 12.7852 5.06696 12.7852 4.35714V1.78571C12.7852 1.07589 12.2093 0.5 11.4994 0.5H8.92801C8.21819 0.5 7.6423 1.07589 7.6423 1.78571ZM12.7852 8.64286C12.7852 7.93304 12.2093 7.35714 11.4994 7.35714H8.92801C8.21819 7.35714 7.6423 7.93304 7.6423 8.64286V11.2143C7.6423 11.9241 8.21819 12.5 8.92801 12.5H11.4994C12.2093 12.5 12.7852 11.9241 12.7852 11.2143V8.64286Z" fill="black"/>
</svg>
