<svg width="20" height="15" viewBox="0 0 20 15" fill="none" xmlns="http://www.w3.org/2000/svg">
<path d="M2 7.32407C2 6.774 2.21852 6.24645 2.60748 5.85748C2.99645 5.46852 3.524 5.25 4.07407 5.25C4.62415 5.25 5.1517 5.46852 5.54067 5.85748C5.92963 6.24645 6.14815 6.774 6.14815 7.32407C6.14815 7.87415 5.92963 8.4017 5.54067 8.79067C5.1517 9.17963 4.62415 9.39815 4.07407 9.39815C3.524 9.39815 2.99645 9.17963 2.60748 8.79067C2.21852 8.4017 2 7.87415 2 7.32407ZM7.92593 7.32407C7.92593 6.774 8.14444 6.24645 8.53341 5.85748C8.92237 5.46852 9.44992 5.25 10 5.25C10.5501 5.25 11.0776 5.46852 11.4666 5.85748C11.8556 6.24645 12.0741 6.774 12.0741 7.32407C12.0741 7.87415 11.8556 8.4017 11.4666 8.79067C11.0776 9.17963 10.5501 9.39815 10 9.39815C9.44992 9.39815 8.92237 9.17963 8.53341 8.79067C8.14444 8.4017 7.92593 7.87415 7.92593 7.32407ZM15.9259 5.25C16.476 5.25 17.0036 5.46852 17.3925 5.85748C17.7815 6.24645 18 6.774 18 7.32407C18 7.87415 17.7815 8.4017 17.3925 8.79067C17.0036 9.17963 16.476 9.39815 15.9259 9.39815C15.3758 9.39815 14.8483 9.17963 14.4593 8.79067C14.0704 8.4017 13.8519 7.87415 13.8519 7.32407C13.8519 6.774 14.0704 6.24645 14.4593 5.85748C14.8483 5.46852 15.3758 5.25 15.9259 5.25Z" fill="white"/>
</svg>
