<svg xmlns="http://www.w3.org/2000/svg" width="20" height="16" viewBox="0 0 20 16" fill="none">
    <path d="M10.5191 2.17083L12.8159 3.0409L10.4371 3.95492L8.0583 3.0409L10.3551 2.17083C10.4078 2.15032 10.4664 2.15032 10.522 2.17083H10.5191ZM5.98418 3.4569V6.74385C5.9461 6.75557 5.90801 6.76728 5.86993 6.78193L3.05757 7.84829C2.42185 8.08851 2 8.70078 2 9.38044V12.8725C2 13.5228 2.38377 14.1117 2.9814 14.3753L5.79376 15.6116C6.21561 15.7961 6.69313 15.7961 7.11498 15.6116L10.4371 14.1497L13.7621 15.6116C14.184 15.7961 14.6615 15.7961 15.0833 15.6116L17.8957 14.3753C18.4904 14.1146 18.8771 13.5228 18.8771 12.8725V9.38044C18.8771 8.69785 18.4552 8.08851 17.8195 7.84536L15.0072 6.779C14.9691 6.76435 14.931 6.75264 14.8929 6.74092V3.4569C14.8929 2.77432 14.4711 2.16497 13.8354 1.92182L11.023 0.855464C10.648 0.714845 10.2349 0.714845 9.85997 0.855464L7.04761 1.92182C6.40603 2.16497 5.98418 2.77724 5.98418 3.4569ZM13.4838 6.91669L11.0699 7.83071V5.21756L13.4838 4.29182V6.91669ZM6.53493 8.0973L8.8317 8.96737L6.45291 9.87846L4.07412 8.96737L6.37088 8.0973C6.42361 8.07679 6.4822 8.07679 6.53786 8.0973H6.53493ZM7.08569 14.0853V11.1411L9.49963 10.2154V13.0248L7.08569 14.0853ZM14.3392 8.0973C14.392 8.07679 14.4506 8.07679 14.5062 8.0973L16.803 8.96737L14.4213 9.87846L12.0425 8.96737L14.3392 8.0973ZM17.3274 13.0863L15.054 14.0853V11.1411L17.468 10.2154V12.8725C17.468 12.9662 17.4123 13.0482 17.3274 13.0863Z" fill="#AEAEAE"/>
  </svg>