<svg width="15" height="12" viewBox="0 0 15 12" fill="none" xmlns="http://www.w3.org/2000/svg">
<path d="M13.125 0C12.5039 0 12 0.503906 12 1.125V10.875C12 11.4961 12.5039 12 13.125 12C13.7461 12 14.25 11.4961 14.25 10.875V1.125C14.25 0.503906 13.7461 0 13.125 0ZM8.25 4.125V10.875C8.25 11.4961 8.75391 12 9.375 12C9.99609 12 10.5 11.4961 10.5 10.875V4.125C10.5 3.50391 9.99609 3 9.375 3C8.75391 3 8.25 3.50391 8.25 4.125ZM5.625 6C5.00391 6 4.5 6.50391 4.5 7.125V10.875C4.5 11.4961 5.00391 12 5.625 12C6.24609 12 6.75 11.4961 6.75 10.875V7.125C6.75 6.50391 6.24609 6 5.625 6ZM1.875 9C1.25391 9 0.75 9.50391 0.75 10.125V10.875C0.75 11.4961 1.25391 12 1.875 12C2.49609 12 3 11.4961 3 10.875V10.125C3 9.50391 2.49609 9 1.875 9Z" fill="white"/>
</svg>
