<svg width="16" height="16" viewBox="0 0 16 16" fill="none" xmlns="http://www.w3.org/2000/svg">
<g clip-path="url(#clip0_11130_23397)">
<path d="M8 10C9.10457 10 10 9.10457 10 8C10 6.89543 9.10457 6 8 6C6.89543 6 6 6.89543 6 8C6 9.10457 6.89543 10 8 10Z" stroke="#454C54" stroke-width="2" stroke-linecap="round" stroke-linejoin="round"/>
<path d="M12.9327 9.99935C12.8439 10.2004 12.8175 10.4235 12.8567 10.6397C12.8959 10.856 12.999 11.0556 13.1527 11.2127L13.1927 11.2527C13.3167 11.3765 13.415 11.5236 13.4821 11.6854C13.5492 11.8473 13.5837 12.0208 13.5837 12.196C13.5837 12.3712 13.5492 12.5447 13.4821 12.7066C13.415 12.8685 13.3167 13.0155 13.1927 13.1393C13.0689 13.2633 12.9218 13.3617 12.7599 13.4288C12.5981 13.4959 12.4246 13.5304 12.2493 13.5304C12.0741 13.5304 11.9006 13.4959 11.7388 13.4288C11.5769 13.3617 11.4298 13.2633 11.306 13.1393L11.266 13.0993C11.1089 12.9457 10.9093 12.8426 10.6931 12.8033C10.4768 12.7641 10.2538 12.7906 10.0527 12.8793C9.8555 12.9639 9.68734 13.1042 9.56889 13.283C9.45044 13.4619 9.38687 13.6715 9.38602 13.886V13.9993C9.38602 14.353 9.24554 14.6921 8.99549 14.9422C8.74544 15.1922 8.4063 15.3327 8.05268 15.3327C7.69906 15.3327 7.35992 15.1922 7.10987 14.9422C6.85983 14.6921 6.71935 14.353 6.71935 13.9993V13.9393C6.71419 13.7187 6.64276 13.5047 6.51436 13.3251C6.38595 13.1456 6.20651 13.0089 5.99935 12.9327C5.79827 12.8439 5.57522 12.8175 5.35896 12.8567C5.14269 12.8959 4.94314 12.999 4.78602 13.1527L4.74602 13.1927C4.62218 13.3167 4.47513 13.415 4.31327 13.4821C4.15141 13.5492 3.9779 13.5837 3.80268 13.5837C3.62746 13.5837 3.45396 13.5492 3.2921 13.4821C3.13023 13.415 2.98318 13.3167 2.85935 13.1927C2.73538 13.0689 2.63704 12.9218 2.56994 12.7599C2.50284 12.5981 2.4683 12.4246 2.4683 12.2493C2.4683 12.0741 2.50284 11.9006 2.56994 11.7388C2.63704 11.5769 2.73538 11.4298 2.85935 11.306L2.89935 11.266C3.05304 11.1089 3.15614 10.9093 3.19535 10.6931C3.23456 10.4768 3.20809 10.2538 3.11935 10.0527C3.03484 9.8555 2.89452 9.68734 2.71566 9.56889C2.5368 9.45044 2.32721 9.38687 2.11268 9.38602H1.99935C1.64573 9.38602 1.30659 9.24554 1.05654 8.99549C0.806491 8.74544 0.666016 8.4063 0.666016 8.05268C0.666016 7.69906 0.806491 7.35992 1.05654 7.10987C1.30659 6.85983 1.64573 6.71935 1.99935 6.71935H2.05935C2.28001 6.71419 2.49402 6.64276 2.67355 6.51436C2.85308 6.38595 2.98983 6.20651 3.06602 5.99935C3.15476 5.79827 3.18123 5.57522 3.14202 5.35896C3.10281 5.14269 2.99971 4.94314 2.84602 4.78602L2.80602 4.74602C2.68205 4.62218 2.5837 4.47513 2.5166 4.31327C2.4495 4.15141 2.41497 3.9779 2.41497 3.80268C2.41497 3.62746 2.4495 3.45396 2.5166 3.2921C2.5837 3.13023 2.68205 2.98318 2.80602 2.85935C2.92985 2.73538 3.0769 2.63704 3.23876 2.56994C3.40063 2.50284 3.57413 2.4683 3.74935 2.4683C3.92457 2.4683 4.09807 2.50284 4.25994 2.56994C4.4218 2.63704 4.56885 2.73538 4.69268 2.85935L4.73268 2.89935C4.8898 3.05304 5.08936 3.15614 5.30562 3.19535C5.52189 3.23456 5.74494 3.20809 5.94602 3.11935H5.99935C6.19653 3.03484 6.36469 2.89452 6.48314 2.71566C6.60159 2.5368 6.66516 2.32721 6.66602 2.11268V1.99935C6.66602 1.64573 6.80649 1.30659 7.05654 1.05654C7.30659 0.806491 7.64573 0.666016 7.99935 0.666016C8.35297 0.666016 8.69211 0.806491 8.94216 1.05654C9.19221 1.30659 9.33268 1.64573 9.33268 1.99935V2.05935C9.33354 2.27387 9.3971 2.48347 9.51555 2.66233C9.634 2.84119 9.80217 2.98151 9.99935 3.06602C10.2004 3.15476 10.4235 3.18123 10.6397 3.14202C10.856 3.10281 11.0556 2.99971 11.2127 2.84602L11.2527 2.80602C11.3765 2.68205 11.5236 2.5837 11.6854 2.5166C11.8473 2.4495 12.0208 2.41497 12.196 2.41497C12.3712 2.41497 12.5447 2.4495 12.7066 2.5166C12.8685 2.5837 13.0155 2.68205 13.1393 2.80602C13.2633 2.92985 13.3617 3.0769 13.4288 3.23876C13.4959 3.40063 13.5304 3.57413 13.5304 3.74935C13.5304 3.92457 13.4959 4.09807 13.4288 4.25994C13.3617 4.4218 13.2633 4.56885 13.1393 4.69268L13.0993 4.73268C12.9457 4.8898 12.8426 5.08936 12.8033 5.30562C12.7641 5.52189 12.7906 5.74494 12.8793 5.94602V5.99935C12.9639 6.19653 13.1042 6.36469 13.283 6.48314C13.4619 6.60159 13.6715 6.66516 13.886 6.66602H13.9993C14.353 6.66602 14.6921 6.80649 14.9422 7.05654C15.1922 7.30659 15.3327 7.64573 15.3327 7.99935C15.3327 8.35297 15.1922 8.69211 14.9422 8.94216C14.6921 9.19221 14.353 9.33268 13.9993 9.33268H13.9393C13.7248 9.33354 13.5152 9.3971 13.3364 9.51555C13.1575 9.634 13.0172 9.80217 12.9327 9.99935Z" stroke="#454C54" stroke-width="2" stroke-linecap="round" stroke-linejoin="round"/>
</g>
<defs>
<clipPath id="clip0_11130_23397">
<rect width="16" height="16" fill="white"/>
</clipPath>
</defs>
</svg>
