<svg width="16" height="16" viewBox="0 0 16 16" fill="none" xmlns="http://www.w3.org/2000/svg">
<g clip-path="url(#clip0_10561_50752)">
<path d="M9.99935 4.66602H11.9993C12.4371 4.66602 12.8705 4.75223 13.275 4.91975C13.6794 5.08727 14.0468 5.3328 14.3564 5.64233C14.6659 5.95185 14.9114 6.31932 15.0789 6.72374C15.2465 7.12816 15.3327 7.56161 15.3327 7.99935C15.3327 8.43709 15.2465 8.87054 15.0789 9.27496C14.9114 9.67938 14.6659 10.0468 14.3564 10.3564C14.0468 10.6659 13.6794 10.9114 13.275 11.0789C12.8705 11.2465 12.4371 11.3327 11.9993 11.3327H9.99935M5.99935 11.3327H3.99935C3.56161 11.3327 3.12816 11.2465 2.72374 11.0789C2.31932 10.9114 1.95186 10.6659 1.64233 10.3564C1.01721 9.73125 0.666016 8.8834 0.666016 7.99935C0.666016 7.11529 1.01721 6.26745 1.64233 5.64233C2.26745 5.01721 3.11529 4.66602 3.99935 4.66602H5.99935" stroke="#F8F9FA" stroke-width="2" stroke-linecap="round" stroke-linejoin="round"/>
<path d="M5.33398 8H10.6673" stroke="#F8F9FA" stroke-width="2" stroke-linecap="round" stroke-linejoin="round"/>
</g>
<defs>
<clipPath id="clip0_10561_50752">
<rect width="16" height="16" fill="white"/>
</clipPath>
</defs>
</svg>
