<svg width="42" height="51" viewBox="0 0 42 51" fill="none" xmlns="http://www.w3.org/2000/svg">
<path d="M23.0535 0.524074C20.137 0.24519 17.5446 2.42048 17.2745 5.43242L15.9243 19.9344L10.7934 7.04995C9.71326 4.26111 6.58073 2.92247 3.88028 4.03801C1.17982 5.15354 -0.116395 8.38859 0.963787 11.1774L7.06681 26.516C5.87861 27.9104 5.12249 29.7511 5.12249 31.759V34.8825C5.12249 43.5279 11.8736 50.5 20.245 50.5H26.294C34.6654 50.5 41.4166 43.5279 41.4166 34.8825V30.9781V24.6754V23.8945C41.4166 23.5599 41.3086 23.281 41.2006 23.0579C40.5524 20.8268 38.5001 19.2093 36.1237 19.2093C34.9895 19.2093 33.9093 19.5997 33.0452 20.2132C32.127 18.6515 30.4527 17.6475 28.5624 17.6475C27.9143 17.6475 27.2662 17.7591 26.7261 17.9822L27.8063 6.4364C28.0763 3.48024 25.97 0.802957 23.0535 0.524074ZM9.60524 24.6196L3.77226 9.95034C3.28618 8.72325 3.88028 7.38461 5.01447 6.88262C6.14866 6.38063 7.49889 6.99417 7.98497 8.16548L14.196 23.8945H12.6838C11.6036 23.8945 10.5234 24.1734 9.60524 24.6196ZM21.0012 23.8945H18.5707L20.299 5.71131C20.4071 4.42844 21.5412 3.48024 22.7835 3.59179C24.0257 3.70335 24.9438 4.87466 24.8358 6.15752L23.1075 24.3407C22.4594 24.0618 21.7573 23.8945 21.0012 23.8945ZM28.5624 20.771C29.8046 20.771 30.8308 21.8308 30.8308 23.1136V24.6754V29.3606C30.8308 30.6435 29.8046 31.7032 28.5624 31.7032C27.3202 31.7032 26.294 30.6435 26.294 29.3606V23.1136C26.294 21.8308 27.3202 20.771 28.5624 20.771ZM31.6409 33.8228C32.5591 35.3845 34.2334 36.3885 36.1237 36.3885C36.9338 36.3885 37.69 36.2212 38.3381 35.8865C37.852 42.3008 32.6131 47.3207 26.294 47.3207H20.245C13.5479 47.3207 8.14699 41.7431 8.14699 34.8267V31.7032C8.14699 29.1375 10.1993 27.018 12.6838 27.018H21.0012C22.2434 27.018 23.2695 28.0778 23.2695 29.3606C23.2695 30.6435 22.2434 31.7032 21.0012 31.7032H15.7083C14.8981 31.7032 14.196 32.4283 14.196 33.265C14.196 34.1016 14.8981 34.8267 15.7083 34.8267H21.0012C22.4594 34.8267 23.8096 34.2132 24.7818 33.2092C25.754 34.2132 27.1042 34.8267 28.5624 34.8267C29.7506 34.8267 30.7768 34.4921 31.6409 33.8228ZM38.3921 30.9224C38.3921 32.2052 37.3659 33.265 36.1237 33.265C34.8815 33.265 33.8553 32.2052 33.8553 30.9224V29.3606V24.6754C33.8553 23.3925 34.8815 22.3328 36.1237 22.3328C37.3659 22.3328 38.3921 23.3925 38.3921 24.6754V30.9224Z" fill="url(#paint0_linear_3305_3896)"/>
<defs>
<linearGradient id="paint0_linear_3305_3896" x1="10.8411" y1="50.4819" x2="32.3235" y2="1.0126" gradientUnits="userSpaceOnUse">
<stop stop-color="#C915E6"/>
<stop offset="1" stop-color="#EC6C7E"/>
</linearGradient>
</defs>
</svg>
