<svg xmlns="http://www.w3.org/2000/svg" width="23" height="15" viewBox="0 0 23 15" fill="none">
    <path d="M9.85615 1C10.2365 1 10.5874 1.20089 10.7803 1.53036L16.566 11.3875C16.7615 11.7196 16.7615 12.1295 16.5713 12.4616C16.3812 12.7938 16.0249 13 15.6419 13H4.07044C3.6874 13 3.33115 12.7938 3.14098 12.4616C2.9508 12.1295 2.95348 11.717 3.14633 11.3875L8.93205 1.53036C9.1249 1.20089 9.4758 1 9.85615 1ZM9.85615 4.42857C9.4999 4.42857 9.2133 4.71518 9.2133 5.07143V8.07143C9.2133 8.42768 9.4999 8.71429 9.85615 8.71429C10.2124 8.71429 10.499 8.42768 10.499 8.07143V5.07143C10.499 4.71518 10.2124 4.42857 9.85615 4.42857ZM10.7133 10.4286C10.7133 10.2012 10.623 9.98323 10.4622 9.82248C10.3015 9.66173 10.0835 9.57143 9.85615 9.57143C9.62883 9.57143 9.41081 9.66173 9.25006 9.82248C9.08932 9.98323 8.99901 10.2012 8.99901 10.4286C8.99901 10.6559 9.08932 10.8739 9.25006 11.0347C9.41081 11.1954 9.62883 11.2857 9.85615 11.2857C10.0835 11.2857 10.3015 11.1954 10.4622 11.0347C10.623 10.8739 10.7133 10.6559 10.7133 10.4286Z" fill="#FF3737"/>
  </svg>