<svg width="21" height="14" viewBox="0 0 21 14" fill="none" xmlns="http://www.w3.org/2000/svg">
<path fill-rule="evenodd" clip-rule="evenodd" d="M1.86077 7.07141C1.81356 7.10441 1.76693 7.13816 1.72091 7.17268C0.691384 7.94482 0 9.08596 0 10.3881V11.9192C0 12.6441 0.587602 13.2317 1.31245 13.2317C2.03729 13.2317 2.62489 12.6441 2.62489 11.9192V10.3881C2.62489 10.0658 2.79389 9.64906 3.29585 9.27259C3.80503 8.8907 4.55761 8.63813 5.39561 8.63813H15.7532L14.8171 9.34018C14.2373 9.77508 14.1197 10.5977 14.5546 11.1776C14.9896 11.7575 15.8122 11.875 16.3921 11.4401L20.4752 8.37771C20.8057 8.12985 21.0002 7.74086 21.0002 7.32776C21.0002 7.18067 20.9756 7.03664 20.9289 6.90095C20.8369 6.63181 20.6599 6.40209 20.4299 6.2438L16.3921 3.21542C15.8122 2.78052 14.9896 2.89804 14.5546 3.47791C14.1197 4.05779 14.2373 4.88043 14.8171 5.31534L15.7477 6.01324H5.53926C4.75931 5.9723 3.88095 5.31081 3.37178 4.92735C3.34546 4.90752 3.32013 4.88845 3.29585 4.87024C2.79389 4.49377 2.62489 4.07705 2.62489 3.75477V2.22358C2.62489 1.49873 2.03729 0.911133 1.31245 0.911133C0.587602 0.911133 0 1.49873 0 2.22358V3.75477C0 5.05687 0.691383 6.19801 1.72091 6.97015C1.76693 7.00466 1.81356 7.03842 1.86077 7.07141Z" fill="#F8F9FA"/>
</svg>
