<svg width="12" height="11" viewBox="0 0 12 11" fill="none" xmlns="http://www.w3.org/2000/svg">
<path d="M7.0332 0.515625C7.0332 0.801367 7.26309 1.03125 7.54883 1.03125H9.74238L4.94922 5.82227C4.74727 6.02422 4.74727 6.35078 4.94922 6.55059C5.15117 6.75039 5.47773 6.75254 5.67754 6.55059L10.4686 1.75957V3.95312C10.4686 4.23887 10.6984 4.46875 10.9842 4.46875C11.2699 4.46875 11.4998 4.23887 11.4998 3.95312V0.515625C11.4998 0.229883 11.2699 0 10.9842 0H7.54883C7.26309 0 7.0332 0.229883 7.0332 0.515625ZM2.04883 0.6875C1.19375 0.6875 0.501953 1.3793 0.501953 2.23438V9.45312C0.501953 10.3082 1.19375 11 2.04883 11H9.26758C10.1227 11 10.8145 10.3082 10.8145 9.45312V6.70312C10.8145 6.41738 10.5846 6.1875 10.2988 6.1875C10.0131 6.1875 9.7832 6.41738 9.7832 6.70312V9.45312C9.7832 9.73887 9.55332 9.96875 9.26758 9.96875H2.04883C1.76309 9.96875 1.5332 9.73887 1.5332 9.45312V2.23438C1.5332 1.94863 1.76309 1.71875 2.04883 1.71875H4.79883C5.08457 1.71875 5.31445 1.48887 5.31445 1.20312C5.31445 0.917383 5.08457 0.6875 4.79883 0.6875H2.04883Z" fill="black"/>
</svg>
