<svg width="20" height="15" viewBox="0 0 20 15" fill="none" xmlns="http://www.w3.org/2000/svg">
<path d="M15.4437 10.084V9.99736C15.4441 8.44431 14.1867 7.18593 12.6336 7.18546C11.7679 7.18523 11.0562 6.53426 10.9592 5.69472V5.50474V5.41807C11.7205 5.17937 12.2713 4.46984 12.2717 3.63124C12.272 2.91772 11.8737 2.29744 11.2874 1.98073C11.0201 1.83386 10.7133 1.75 10.3867 1.75C9.35137 1.74953 8.51253 2.5879 8.51206 3.62327C8.51183 4.33304 8.90607 4.95075 9.48864 5.26862C9.59428 5.32718 9.70625 5.37591 9.82314 5.41362V5.49772V5.70057C9.7257 6.54011 9.01359 7.19062 8.14781 7.19015H8.12439C6.57133 7.18968 5.31295 8.44712 5.31249 10.0002V10.0868C4.55095 10.3255 4.00023 11.0351 4 11.8737C3.99953 12.9091 4.8379 13.7479 5.87327 13.7484C6.90864 13.7488 7.74748 12.9105 7.74795 11.8751C7.74818 11.0365 7.19794 10.3265 6.43687 10.0873V10.0006C6.43734 9.06834 7.19185 8.3143 8.12415 8.31477H8.14758C8.77489 8.31477 9.35371 8.11004 9.82268 7.76171L9.82174 10.0822C9.06044 10.3209 8.50972 11.0304 8.50925 11.869C8.50902 12.5825 8.90724 13.2028 9.49356 13.5195C9.76083 13.6664 10.0677 13.75 10.3942 13.75C11.4296 13.7505 12.2684 12.9121 12.2689 11.8767C12.2691 11.167 11.8749 10.5493 11.2923 10.2314C11.1867 10.1728 11.0747 10.1241 10.9578 10.0864L10.9588 7.75539C11.4275 8.10395 12.0061 8.30962 12.6334 8.30962C13.5657 8.30985 14.3197 9.06459 14.3193 9.9969V10.0836C13.558 10.3223 13.007 11.0318 13.0068 11.8704C13.0063 12.9058 13.8447 13.7446 14.8801 13.7451C15.9154 13.7455 16.7543 12.9072 16.7547 11.8718C16.755 11.0332 16.2047 10.3232 15.4437 10.084ZM6.62357 11.8746C6.62357 12.2885 6.28766 12.624 5.87374 12.624C5.45983 12.624 5.12439 12.2881 5.12439 11.8742C5.12439 11.4602 5.4603 11.1248 5.87421 11.1248C6.28812 11.1248 6.62357 11.4607 6.62357 11.8746ZM11.1356 3.62421C11.1356 4.03812 10.7997 4.37357 10.3858 4.37357C10.2581 4.37357 10.1382 4.34147 10.033 4.28525C9.80347 4.15712 9.64816 3.91186 9.64816 3.63007C9.64816 3.21615 9.98407 2.88071 10.398 2.88071C10.5257 2.88071 10.6456 2.9128 10.7508 2.96902C10.9803 3.09715 11.1356 3.34241 11.1356 3.62421ZM9.64535 11.8756C9.64535 11.4616 9.98126 11.1262 10.3952 11.1262C10.5228 11.1262 10.6428 11.1583 10.748 11.2145C10.9775 11.3426 11.1328 11.5879 11.1328 11.8697C11.1328 12.2836 10.7969 12.6191 10.383 12.6191C10.2553 12.6191 10.1354 12.587 10.0302 12.5307C9.80066 12.4026 9.64535 12.1574 9.64535 11.8756ZM14.8805 12.6207C14.4666 12.6207 14.1312 12.2848 14.1312 11.8709C14.1312 11.457 14.4671 11.1215 14.881 11.1215C15.2949 11.1215 15.6304 11.4574 15.6304 11.8713C15.6304 12.2853 15.2944 12.6207 14.8805 12.6207Z" fill="#F2F2F2"/>
</svg>
