<svg width="20" height="15" viewBox="0 0 20 15" fill="none" xmlns="http://www.w3.org/2000/svg">
<path d="M16.3 3.61111H12.1C11.9143 3.61111 11.7363 3.69306 11.605 3.83892C11.4738 3.98478 11.4 4.18261 11.4 4.38889V6.72222H10V1.27778C10 1.0715 9.92625 0.873667 9.79497 0.727806C9.6637 0.581944 9.48565 0.5 9.3 0.5H3.7C3.51435 0.5 3.3363 0.581944 3.20503 0.727806C3.07375 0.873667 3 1.0715 3 1.27778V13.7222C3 13.9285 3.07375 14.1263 3.20503 14.2722C3.3363 14.4181 3.51435 14.5 3.7 14.5H16.3C16.4857 14.5 16.6637 14.4181 16.795 14.2722C16.9263 14.1263 17 13.9285 17 13.7222V4.38889C17 4.18261 16.9263 3.98478 16.795 3.83892C16.6637 3.69306 16.4857 3.61111 16.3 3.61111ZM7.2 2.83333H8.6V4.38889H7.2V2.83333ZM5.8 10.6111H4.4V9.05556H5.8V10.6111ZM5.8 7.5H4.4V5.94444H5.8V7.5ZM5.8 4.38889H4.4V2.83333H5.8V4.38889ZM8.6 10.6111H7.2V9.05556H8.6V10.6111ZM8.6 7.5H7.2V5.94444H8.6V7.5ZM14.9 10.6111H13.5V9.05556H14.9V10.6111ZM14.9 7.5H13.5V5.94444H14.9V7.5Z" fill="black"/>
</svg>
