<svg width="12" height="13" viewBox="0 0 12 13" fill="none" xmlns="http://www.w3.org/2000/svg">
<path d="M6.69231 0.972581C6.69231 0.588927 6.38365 0.280273 6 0.280273C5.61635 0.280273 5.30769 0.588927 5.30769 0.972581V5.58797H0.692308C0.308654 5.58797 0 5.89662 0 6.28027C0 6.66393 0.308654 6.97258 0.692308 6.97258H5.30769V11.588C5.30769 11.9716 5.61635 12.2803 6 12.2803C6.38365 12.2803 6.69231 11.9716 6.69231 11.588V6.97258H11.3077C11.6913 6.97258 12 6.66393 12 6.28027C12 5.89662 11.6913 5.58797 11.3077 5.58797H6.69231V0.972581Z" fill="#F8F9FA"/>
</svg>
