<svg width="14" height="14" viewBox="0 0 14 14" fill="none" xmlns="http://www.w3.org/2000/svg">
<path d="M7.6965 1.60938C7.6965 1.21973 7.38601 0.90625 7.00007 0.90625C6.61413 0.90625 6.30364 1.21973 6.30364 1.60938V6.29688H1.66078C1.27485 6.29688 0.964355 6.61035 0.964355 7C0.964355 7.38965 1.27485 7.70312 1.66078 7.70312H6.30364V12.3906C6.30364 12.7803 6.61413 13.0938 7.00007 13.0938C7.38601 13.0938 7.6965 12.7803 7.6965 12.3906V7.70312H12.3394C12.7253 7.70312 13.0358 7.38965 13.0358 7C13.0358 6.61035 12.7253 6.29688 12.3394 6.29688H7.6965V1.60938Z" fill="white"/>
</svg>
