<svg xmlns="http://www.w3.org/2000/svg" width="10" height="13" viewBox="0 0 10 13" fill="none">
    <path d="M4.99849 9.91212C3.72955 9.78381 2.7693 8.91617 2.65234 7.84413C2.58257 7.20258 2.05752 6.67519 1.32617 6.67519C0.59482 6.67519 0 7.19949 0 7.84413C0 7.99766 0.0276077 8.12553 0.0788074 8.23127C0.26403 8.66487 0.755948 8.95511 1.32617 9.01307C2.59512 9.14138 3.55537 10.009 3.67232 11.0811C3.74209 11.7226 4.26714 12.25 4.99849 12.25C5.72985 12.25 6.32467 11.7257 6.32467 11.0811C6.32467 10.9713 6.31011 10.8775 6.28351 10.7966C6.13643 10.3059 5.61289 9.97406 4.99849 9.91212ZM5.00151 2.58788C6.27045 2.71619 7.2307 3.58382 7.34766 4.65587C7.41743 5.29742 7.94248 5.82481 8.67383 5.82481C9.40518 5.82481 10 5.30051 10 4.65587C10 4.54614 9.98544 4.45234 9.95884 4.37138C9.81177 3.88071 9.28822 3.54887 8.67383 3.48693C7.40488 3.35862 6.44463 2.49099 6.32768 1.41894C6.25791 0.777395 5.73286 0.25 5.00151 0.25C4.27015 0.25 3.67533 0.774298 3.67533 1.41894C3.67533 1.57247 3.70294 1.70034 3.75414 1.80608C3.93936 2.23968 4.43128 2.52992 5.00151 2.58788ZM8.67383 6.67254C7.40488 6.54423 6.44463 5.67659 6.32768 4.60455C6.25791 3.963 5.73286 3.43561 5.00151 3.43561C4.27015 3.43561 3.67533 3.9599 3.67533 4.60455C3.67533 4.75807 3.70294 4.88594 3.75414 4.99169C3.93936 5.42528 4.43128 5.71553 5.00151 5.77349C6.27045 5.9018 7.2307 6.76943 7.34766 7.84148C7.41743 8.48302 7.94248 9.01042 8.67383 9.01042C9.40518 9.01042 10 8.48612 10 7.84148C10 7.73175 9.98544 7.63795 9.95884 7.55698C9.81177 7.06631 9.28822 6.73448 8.67383 6.67254ZM4.99849 6.72651C3.72955 6.5982 2.7693 5.73057 2.65234 4.65852C2.58257 4.01698 2.05752 3.48958 1.32617 3.48958C0.59482 3.48958 0 4.01388 0 4.65852C0 4.81205 0.0276077 4.93992 0.0788074 5.04566C0.26403 5.47926 0.755948 5.7695 1.32617 5.82746C2.59512 5.95577 3.55537 6.82341 3.67232 7.89545C3.74209 8.537 4.26714 9.06439 4.99849 9.06439C5.72985 9.06439 6.32467 8.5401 6.32467 7.89545C6.32467 7.78573 6.31011 7.69193 6.28351 7.61096C6.13643 7.12029 5.61289 6.78846 4.99849 6.72651Z" fill="#A7A7A7"/>
  </svg>