<svg width="20" height="15" viewBox="0 0 20 15" fill="none" xmlns="http://www.w3.org/2000/svg">
<path d="M14.875 7.25C14.875 5.95707 14.3614 4.71709 13.4471 3.80285C12.5329 2.88861 11.2929 2.375 10 2.375C8.70707 2.375 7.46709 2.88861 6.55285 3.80285C5.63861 4.71709 5.125 5.95707 5.125 7.25C5.125 8.54293 5.63861 9.78291 6.55285 10.6971C7.46709 11.6114 8.70707 12.125 10 12.125C11.2929 12.125 12.5329 11.6114 13.4471 10.6971C14.3614 9.78291 14.875 8.54293 14.875 7.25ZM4 7.25C4 5.6587 4.63214 4.13258 5.75736 3.00736C6.88258 1.88214 8.4087 1.25 10 1.25C11.5913 1.25 13.1174 1.88214 14.2426 3.00736C15.3679 4.13258 16 5.6587 16 7.25C16 8.8413 15.3679 10.3674 14.2426 11.4926C13.1174 12.6179 11.5913 13.25 10 13.25C8.4087 13.25 6.88258 12.6179 5.75736 11.4926C4.63214 10.3674 4 8.8413 4 7.25ZM7.97969 5.12422C8.16484 4.60156 8.66172 4.25 9.21719 4.25H10.5836C11.4016 4.25 12.0625 4.91328 12.0625 5.72891C12.0625 6.25859 11.7789 6.74844 11.3195 7.01328L10.5625 7.44687C10.5578 7.75156 10.307 8 10 8C9.68828 8 9.4375 7.74922 9.4375 7.4375V7.12109C9.4375 6.91953 9.54531 6.73438 9.72109 6.63359L10.7594 6.03828C10.8695 5.975 10.9375 5.85781 10.9375 5.73125C10.9375 5.53437 10.7781 5.37734 10.5836 5.37734H9.21719C9.1375 5.37734 9.06719 5.42656 9.04141 5.50156L9.03203 5.52969C8.92891 5.82266 8.60547 5.975 8.31484 5.87187C8.02422 5.76875 7.86953 5.44531 7.97266 5.15469L7.98203 5.12656L7.97969 5.12422ZM9.25 9.5C9.25 9.30109 9.32902 9.11032 9.46967 8.96967C9.61032 8.82902 9.80109 8.75 10 8.75C10.1989 8.75 10.3897 8.82902 10.5303 8.96967C10.671 9.11032 10.75 9.30109 10.75 9.5C10.75 9.69891 10.671 9.88968 10.5303 10.0303C10.3897 10.171 10.1989 10.25 10 10.25C9.80109 10.25 9.61032 10.171 9.46967 10.0303C9.32902 9.88968 9.25 9.69891 9.25 9.5Z" fill="black"/>
</svg>
