<svg width="21" height="15" viewBox="0 0 21 15" fill="none" xmlns="http://www.w3.org/2000/svg">
<path d="M5 7.24993C5 7.66481 5.33519 8 5.75007 8C6.16494 8 6.50013 7.66481 6.50013 7.24993C6.50013 6.00764 7.50803 4.99974 8.75033 4.99974H12.5007V5.7498C12.5007 6.05217 12.6835 6.32642 12.9648 6.44361C13.246 6.56081 13.5672 6.49518 13.7828 6.28188L15.2829 4.78175C15.5759 4.48876 15.5759 4.01294 15.2829 3.71994L13.7828 2.21981C13.5672 2.00417 13.246 1.94088 12.9648 2.05808C12.6835 2.17528 12.5007 2.44717 12.5007 2.74954V3.49961H8.75033C6.67827 3.49961 5 5.17788 5 7.24993ZM17.001 8.75006C17.001 8.33519 16.6659 8 16.251 8C15.8361 8 15.5009 8.33519 15.5009 8.75006C15.5009 9.99236 14.493 11.0003 13.2507 11.0003H9.50039V10.2502C9.50039 9.94783 9.31756 9.67358 9.03629 9.55639C8.75501 9.43919 8.43389 9.50482 8.21825 9.71812L6.71812 11.2182C6.42512 11.5112 6.42512 11.9871 6.71812 12.2801L8.21825 13.7802C8.43389 13.9958 8.75501 14.0591 9.03629 13.9419C9.31756 13.8247 9.50039 13.5528 9.50039 13.2481V12.5004H13.2507C15.3228 12.5004 17.001 10.8221 17.001 8.75006Z" fill="white"/>
</svg>
