<svg width="15" height="20" viewBox="0 0 15 20" fill="none" xmlns="http://www.w3.org/2000/svg">
<g clip-path="url(#clip0_6508_34452)">
<path d="M13.0518 10.3254C13.1777 10.2049 13.25 10.0361 13.25 9.85932C13.25 9.68254 13.1777 9.51647 13.0518 9.39325L8.3375 4.89325C8.08036 4.64682 7.67321 4.65754 7.42946 4.91468C7.18571 5.17182 7.19375 5.57897 7.45089 5.82272L11.0027 9.21647L1.89286 9.21647C1.53661 9.21647 1.25 9.50307 1.25 9.85932C1.25 10.2156 1.53661 10.5022 1.89286 10.5022L11.0027 10.5022L7.44821 13.8933C7.19107 14.1397 7.18304 14.5441 7.42679 14.8013C7.67054 15.0584 8.07768 15.0665 8.33482 14.8227L13.0491 10.3227L13.0518 10.3254Z" fill="white"/>
</g>
<defs>
<clipPath id="clip0_6508_34452">
<rect width="20" height="15" fill="white" transform="translate(0 20) rotate(-90)"/>
</clipPath>
</defs>
</svg>
