<svg width="18" height="18" viewBox="0 0 18 18" fill="none" xmlns="http://www.w3.org/2000/svg">
<path d="M2.94006 8.565L5.97006 4.3275C6.22506 3.9675 6.63756 3.75 7.08006 3.75C8.19756 3.75 8.84256 5.01 8.19756 5.9175L6.00006 9L8.19756 12.0825C8.85006 12.99 8.19756 14.25 7.08006 14.25C6.63756 14.25 6.21756 14.0325 5.96256 13.6725L2.93256 9.435C2.75256 9.1725 2.75256 8.8275 2.94006 8.565Z" fill="black"/>
<path d="M8.19006 8.565L11.2126 4.3275C11.4751 3.9675 11.8876 3.75 12.3301 3.75C13.4476 3.75 14.1001 5.01 13.4476 5.9175L11.2501 9L13.4476 12.0825C14.1001 12.99 13.4476 14.25 12.3301 14.25C11.8876 14.25 11.4676 14.0325 11.2126 13.6725L8.18256 9.435C8.00256 9.1725 8.00256 8.8275 8.19006 8.565Z" fill="black"/>
</svg>
