<svg width="19" height="18" viewBox="0 0 19 18" fill="none" xmlns="http://www.w3.org/2000/svg">
<path d="M15.5602 8.565L12.5302 4.3275C12.2752 3.9675 11.8627 3.75 11.4202 3.75C10.3027 3.75 9.65768 5.01 10.3027 5.9175L12.5002 9L10.3027 12.0825C9.65018 12.99 10.3027 14.25 11.4202 14.25C11.8627 14.25 12.2827 14.0325 12.5377 13.6725L15.5677 9.435C15.7477 9.1725 15.7477 8.8275 15.5602 8.565Z" fill="black"/>
<path d="M10.3102 8.565L7.28768 4.3275C7.02518 3.9675 6.61268 3.75 6.17018 3.75C5.05268 3.75 4.40018 5.01 5.05268 5.9175L7.25018 9L5.05268 12.0825C4.40018 12.99 5.05268 14.25 6.17018 14.25C6.61268 14.25 7.03268 14.0325 7.28768 13.6725L10.3177 9.435C10.4977 9.1725 10.4977 8.8275 10.3102 8.565Z" fill="black"/>
</svg>
