<svg width="15" height="15" viewBox="0 0 15 15" fill="none" xmlns="http://www.w3.org/2000/svg">
<path d="M13.125 12.5V3.75C13.125 3.06062 12.5644 2.5 11.875 2.5H10.625V1.25H9.375V2.5H5.625V1.25H4.375V2.5H3.125C2.43562 2.5 1.875 3.06062 1.875 3.75V12.5C1.875 13.1894 2.43562 13.75 3.125 13.75H11.875C12.5644 13.75 13.125 13.1894 13.125 12.5ZM5.625 11.25H4.375V10H5.625V11.25ZM5.625 8.75H4.375V7.5H5.625V8.75ZM8.125 11.25H6.875V10H8.125V11.25ZM8.125 8.75H6.875V7.5H8.125V8.75ZM10.625 11.25H9.375V10H10.625V11.25ZM10.625 8.75H9.375V7.5H10.625V8.75ZM11.875 5.625H3.125V4.375H11.875V5.625Z" fill="black"/>
</svg>
