<svg width="12" height="13" viewBox="0 0 12 13" fill="none" xmlns="http://www.w3.org/2000/svg">
<g clip-path="url(#clip0_4044_13267)">
<path d="M9.75 5.625C9.75 6.70078 9.40078 7.69453 8.8125 8.50078L11.7797 11.4703C12.0727 11.7633 12.0727 12.2391 11.7797 12.532C11.4867 12.825 11.0109 12.825 10.718 12.532L7.75078 9.5625C6.94453 10.1531 5.95078 10.5 4.875 10.5C2.18203 10.5 0 8.31797 0 5.625C0 2.93203 2.18203 0.75 4.875 0.75C7.56797 0.75 9.75 2.93203 9.75 5.625ZM4.875 9C5.31821 9 5.75708 8.9127 6.16656 8.74309C6.57603 8.57348 6.94809 8.32488 7.26149 8.01149C7.57488 7.69809 7.82348 7.32603 7.99309 6.91656C8.1627 6.50708 8.25 6.06821 8.25 5.625C8.25 5.18179 8.1627 4.74292 7.99309 4.33344C7.82348 3.92397 7.57488 3.55191 7.26149 3.23851C6.94809 2.92512 6.57603 2.67652 6.16656 2.50691C5.75708 2.3373 5.31821 2.25 4.875 2.25C4.43179 2.25 3.99292 2.3373 3.58344 2.50691C3.17397 2.67652 2.80191 2.92512 2.48851 3.23851C2.17512 3.55191 1.92652 3.92397 1.75691 4.33344C1.5873 4.74292 1.5 5.18179 1.5 5.625C1.5 6.06821 1.5873 6.50708 1.75691 6.91656C1.92652 7.32603 2.17512 7.69809 2.48851 8.01149C2.80191 8.32488 3.17397 8.57348 3.58344 8.74309C3.99292 8.9127 4.43179 9 4.875 9Z" fill="black"/>
</g>
<defs>
<clipPath id="clip0_4044_13267">
<rect width="12" height="12" fill="white" transform="translate(0 0.75)"/>
</clipPath>
</defs>
</svg>
