<svg width="20" height="16" viewBox="0 0 20 16" fill="none" xmlns="http://www.w3.org/2000/svg">
<path d="M16.1069 7.39619L4.47612 2.06344C4.359 2.00974 4.22866 1.98952 4.10022 2.00512C3.97177 2.02071 3.85051 2.07149 3.7505 2.15155C3.65049 2.23161 3.57584 2.33767 3.53523 2.45741C3.49461 2.57715 3.48969 2.70566 3.52103 2.82802L4.35024 6.06034L9.65797 7.99946L4.35024 9.93858L3.52103 13.1709C3.4891 13.2933 3.49361 13.4221 3.53404 13.5422C3.57447 13.6622 3.64915 13.7685 3.74933 13.8488C3.84952 13.929 3.97108 13.9797 4.09979 13.9951C4.22849 14.0104 4.35903 13.9898 4.47612 13.9355L16.1069 8.60273C16.2244 8.5489 16.3238 8.46358 16.3934 8.35675C16.463 8.24993 16.5 8.126 16.5 7.99946C16.5 7.87292 16.463 7.74899 16.3934 7.64217C16.3238 7.53534 16.2244 7.45002 16.1069 7.39619Z" fill="white"/>
</svg>
