<svg width="24" height="18" viewBox="0 0 24 18" fill="none" xmlns="http://www.w3.org/2000/svg">
<path d="M5.65724 3.04286C5.37438 3.04286 5.14295 3.27429 5.14295 3.55714V5.61429C5.14295 5.89714 5.37438 6.12857 5.65724 6.12857H18.0001C18.283 6.12857 18.5144 5.89714 18.5144 5.61429V3.55714C18.5144 3.27429 18.283 3.04286 18.0001 3.04286H5.65724ZM3.6001 3.55714C3.6001 2.4225 4.5226 1.5 5.65724 1.5H18.0001C19.1347 1.5 20.0572 2.4225 20.0572 3.55714V5.61429C20.0572 6.74893 19.1347 7.67143 18.0001 7.67143H5.65724C4.5226 7.67143 3.6001 6.74893 3.6001 5.61429V3.55714ZM5.65724 11.2714C5.37438 11.2714 5.14295 11.5029 5.14295 11.7857V13.8429C5.14295 14.1257 5.37438 14.3571 5.65724 14.3571H18.0001C18.283 14.3571 18.5144 14.1257 18.5144 13.8429V11.7857C18.5144 11.5029 18.283 11.2714 18.0001 11.2714H5.65724ZM3.6001 11.7857C3.6001 10.6511 4.5226 9.72857 5.65724 9.72857H18.0001C19.1347 9.72857 20.0572 10.6511 20.0572 11.7857V13.8429C20.0572 14.9775 19.1347 15.9 18.0001 15.9H5.65724C4.5226 15.9 3.6001 14.9775 3.6001 13.8429V11.7857ZM16.2001 12.8143C16.2001 12.6097 16.2814 12.4135 16.426 12.2688C16.5707 12.1241 16.7669 12.0429 16.9715 12.0429C17.1761 12.0429 17.3723 12.1241 17.517 12.2688C17.6617 12.4135 17.743 12.6097 17.743 12.8143C17.743 13.0189 17.6617 13.2151 17.517 13.3598C17.3723 13.5044 17.1761 13.5857 16.9715 13.5857C16.7669 13.5857 16.5707 13.5044 16.426 13.3598C16.2814 13.2151 16.2001 13.0189 16.2001 12.8143ZM16.9715 3.81429C17.1761 3.81429 17.3723 3.89556 17.517 4.04023C17.6617 4.1849 17.743 4.38112 17.743 4.58571C17.743 4.79031 17.6617 4.98653 17.517 5.1312C17.3723 5.27587 17.1761 5.35714 16.9715 5.35714C16.7669 5.35714 16.5707 5.27587 16.426 5.1312C16.2814 4.98653 16.2001 4.79031 16.2001 4.58571C16.2001 4.38112 16.2814 4.1849 16.426 4.04023C16.5707 3.89556 16.7669 3.81429 16.9715 3.81429ZM14.143 12.8143C14.143 12.6097 14.2242 12.4135 14.3689 12.2688C14.5136 12.1241 14.7098 12.0429 14.9144 12.0429C15.119 12.0429 15.3152 12.1241 15.4599 12.2688C15.6045 12.4135 15.6858 12.6097 15.6858 12.8143C15.6858 13.0189 15.6045 13.2151 15.4599 13.3598C15.3152 13.5044 15.119 13.5857 14.9144 13.5857C14.7098 13.5857 14.5136 13.5044 14.3689 13.3598C14.2242 13.2151 14.143 13.0189 14.143 12.8143ZM14.9144 3.81429C15.119 3.81429 15.3152 3.89556 15.4599 4.04023C15.6045 4.1849 15.6858 4.38112 15.6858 4.58571C15.6858 4.79031 15.6045 4.98653 15.4599 5.1312C15.3152 5.27587 15.119 5.35714 14.9144 5.35714C14.7098 5.35714 14.5136 5.27587 14.3689 5.1312C14.2242 4.98653 14.143 4.79031 14.143 4.58571C14.143 4.38112 14.2242 4.1849 14.3689 4.04023C14.5136 3.89556 14.7098 3.81429 14.9144 3.81429Z" fill="#F6C519"/>
</svg>
