<svg width="14" height="15" viewBox="0 0 14 15" fill="none" xmlns="http://www.w3.org/2000/svg">
<path d="M1.1488 3.87275C0.829187 4.17943 0.829187 4.67747 1.1488 4.98414L4.42169 8.12449C4.74131 8.43116 5.26037 8.43116 5.57999 8.12449C5.89961 7.81781 5.89961 7.31977 5.57999 7.0131L3.70319 5.21231L13.1818 5.21231C13.6344 5.21231 14 4.86147 14 4.42722C14 3.99297 13.6344 3.64213 13.1818 3.64213L3.70319 3.64213L5.57999 1.84134C5.89961 1.53467 5.89961 1.03663 5.57999 0.729953C5.26037 0.423279 4.74131 0.423279 4.42169 0.729953L1.1488 3.8703L1.1488 3.87275Z" fill="black"/>
<path d="M13.7571 11.293C14.0794 10.965 14.0794 10.4324 13.7571 10.1044L10.457 6.74598C10.1347 6.41801 9.61129 6.41801 9.28901 6.74598C8.96673 7.07395 8.96673 7.60658 9.28901 7.93455L11.1814 9.86039L1.62387 9.86039C1.16752 9.86039 0.798828 10.2356 0.798828 10.7C0.798828 11.1644 1.16752 11.5396 1.62387 11.5396H11.1814L9.28901 13.4655C8.96673 13.7934 8.96673 14.3261 9.28901 14.654C9.61129 14.982 10.1347 14.982 10.457 14.654L13.7571 11.2956V11.293Z" fill="black"/>
</svg>
