<svg width="21" height="16" viewBox="0 0 21 16" fill="none" xmlns="http://www.w3.org/2000/svg">
<path d="M10.6822 0.5C11.1802 0.5 11.6665 0.549805 12.1412 0.640625C12.3726 0.68457 12.7798 0.819336 13.0025 1.22949C13.0611 1.33789 13.108 1.45215 13.1372 1.5752L13.4097 2.70312C13.4507 2.87305 13.7378 3.04004 13.9048 2.99023L15.0181 2.66211C15.1353 2.62695 15.2554 2.60938 15.3755 2.60645C15.8472 2.5918 16.1665 2.88184 16.3218 3.05762C16.9693 3.79297 17.4673 4.65723 17.7837 5.58594C17.8599 5.80859 17.9478 6.22461 17.7046 6.62305C17.6402 6.72852 17.5611 6.82812 17.4703 6.91602L16.6294 7.71582C16.5064 7.83301 16.5064 8.16992 16.6294 8.28711L17.4703 9.08691C17.5611 9.1748 17.6402 9.27441 17.7046 9.37988C17.9449 9.77832 17.857 10.1943 17.7837 10.417C17.4673 11.3457 16.9693 12.207 16.3218 12.9453C16.1665 13.1211 15.8443 13.4111 15.3755 13.3965C15.2554 13.3936 15.1353 13.373 15.0181 13.3408L13.9048 13.0098C13.7378 12.96 13.4507 13.127 13.4097 13.2969L13.1372 14.4248C13.108 14.5479 13.0611 14.665 13.0025 14.7705C12.7769 15.1807 12.3697 15.3125 12.1412 15.3594C11.6665 15.4502 11.1802 15.5 10.6822 15.5C10.1841 15.5 9.69779 15.4502 9.22319 15.3594C8.99174 15.3154 8.58451 15.1807 8.36186 14.7705C8.30326 14.6621 8.25639 14.5479 8.22709 14.4248L7.95463 13.2969C7.91361 13.127 7.62651 12.96 7.45951 13.0098L6.34623 13.3379C6.22904 13.373 6.10893 13.3906 5.98881 13.3936C5.51713 13.4082 5.19779 13.1182 5.04252 12.9424C4.39799 12.207 3.89701 11.3428 3.58061 10.4141C3.50443 10.1914 3.41654 9.77539 3.65971 9.37695C3.72416 9.27148 3.80326 9.17188 3.89408 9.08398L4.7349 8.28418C4.85795 8.16699 4.85795 7.83008 4.7349 7.71289L3.89115 6.91309C3.80033 6.8252 3.72123 6.72559 3.65678 6.62012C3.41654 6.22168 3.50443 5.80566 3.58061 5.58594C3.89701 4.65723 4.39506 3.7959 5.04252 3.05762C5.19779 2.88184 5.52006 2.5918 5.98881 2.60645C6.10893 2.60938 6.22904 2.62988 6.34623 2.66211L7.45951 2.99023C7.62651 3.04004 7.91361 2.87305 7.95463 2.70312L8.22709 1.5752C8.25639 1.45215 8.30326 1.33496 8.36186 1.22949C8.58744 0.819336 8.99467 0.6875 9.22319 0.640625C9.69779 0.549805 10.1841 0.5 10.6822 0.5ZM9.57182 2.00586L9.32279 3.03418C9.09428 3.98047 7.99565 4.61328 7.06108 4.34082L6.05033 4.04199C5.56694 4.60742 5.18608 5.26367 4.93705 5.9668L5.70463 6.69629C6.40776 7.36426 6.40776 8.63574 5.70463 9.30371L4.93705 10.0332C5.18608 10.7363 5.56694 11.3926 6.05033 11.958L7.06401 11.6592C7.99565 11.3838 9.09721 12.0195 9.32572 12.9658L9.57475 13.9941C10.2955 14.126 11.0777 14.126 11.7984 13.9941L12.0474 12.9658C12.2759 12.0195 13.3746 11.3867 14.3091 11.6592L15.3228 11.958C15.8062 11.3926 16.1871 10.7363 16.4361 10.0332L15.6685 9.30371C14.9654 8.63574 14.9654 7.36426 15.6685 6.69629L16.4361 5.9668C16.1871 5.26367 15.8062 4.60742 15.3228 4.04199L14.3091 4.34082C13.3775 4.61621 12.2759 3.98047 12.0474 3.03418L11.7984 2.00586C11.0777 1.87402 10.2955 1.87402 9.57475 2.00586H9.57182ZM9.27592 8C9.27592 8.37296 9.42408 8.73065 9.6878 8.99437C9.95152 9.25809 10.3092 9.40625 10.6822 9.40625C11.0551 9.40625 11.4128 9.25809 11.6765 8.99437C11.9403 8.73065 12.0884 8.37296 12.0884 8C12.0884 7.62704 11.9403 7.26935 11.6765 7.00563C11.4128 6.74191 11.0551 6.59375 10.6822 6.59375C10.3092 6.59375 9.95152 6.74191 9.6878 7.00563C9.42408 7.26935 9.27592 7.62704 9.27592 8ZM10.6822 10.8125C9.93625 10.8125 9.22088 10.5162 8.69343 9.98874C8.16599 9.46129 7.86967 8.74592 7.86967 8C7.86967 7.25408 8.16599 6.53871 8.69343 6.01126C9.22088 5.48382 9.93625 5.1875 10.6822 5.1875C11.4281 5.1875 12.1435 5.48382 12.6709 6.01126C13.1984 6.53871 13.4947 7.25408 13.4947 8C13.4947 8.74592 13.1984 9.46129 12.6709 9.98874C12.1435 10.5162 11.4281 10.8125 10.6822 10.8125Z" fill="black"/>
</svg>
