<svg width="24" height="18" viewBox="0 0 24 18" fill="none" xmlns="http://www.w3.org/2000/svg">
    <path
        d="M5.65675 3.04286C5.37389 3.04286 5.14247 3.27429 5.14247 3.55714V5.61429C5.14247 5.89714 5.37389 6.12857 5.65675 6.12857H17.9996C18.2825 6.12857 18.5139 5.89714 18.5139 5.61429V3.55714C18.5139 3.27429 18.2825 3.04286 17.9996 3.04286H5.65675ZM3.59961 3.55714C3.59961 2.4225 4.52211 1.5 5.65675 1.5H17.9996C19.1343 1.5 20.0568 2.4225 20.0568 3.55714V5.61429C20.0568 6.74893 19.1343 7.67143 17.9996 7.67143H5.65675C4.52211 7.67143 3.59961 6.74893 3.59961 5.61429V3.55714ZM5.65675 11.2714C5.37389 11.2714 5.14247 11.5029 5.14247 11.7857V13.8429C5.14247 14.1257 5.37389 14.3571 5.65675 14.3571H17.9996C18.2825 14.3571 18.5139 14.1257 18.5139 13.8429V11.7857C18.5139 11.5029 18.2825 11.2714 17.9996 11.2714H5.65675ZM3.59961 11.7857C3.59961 10.6511 4.52211 9.72857 5.65675 9.72857H17.9996C19.1343 9.72857 20.0568 10.6511 20.0568 11.7857V13.8429C20.0568 14.9775 19.1343 15.9 17.9996 15.9H5.65675C4.52211 15.9 3.59961 14.9775 3.59961 13.8429V11.7857ZM16.1996 12.8143C16.1996 12.6097 16.2809 12.4135 16.4256 12.2688C16.5702 12.1241 16.7664 12.0429 16.971 12.0429C17.1756 12.0429 17.3718 12.1241 17.5165 12.2688C17.6612 12.4135 17.7425 12.6097 17.7425 12.8143C17.7425 13.0189 17.6612 13.2151 17.5165 13.3598C17.3718 13.5044 17.1756 13.5857 16.971 13.5857C16.7664 13.5857 16.5702 13.5044 16.4256 13.3598C16.2809 13.2151 16.1996 13.0189 16.1996 12.8143ZM16.971 3.81429C17.1756 3.81429 17.3718 3.89556 17.5165 4.04023C17.6612 4.1849 17.7425 4.38112 17.7425 4.58571C17.7425 4.79031 17.6612 4.98653 17.5165 5.1312C17.3718 5.27587 17.1756 5.35714 16.971 5.35714C16.7664 5.35714 16.5702 5.27587 16.4256 5.1312C16.2809 4.98653 16.1996 4.79031 16.1996 4.58571C16.1996 4.38112 16.2809 4.1849 16.4256 4.04023C16.5702 3.89556 16.7664 3.81429 16.971 3.81429ZM14.1425 12.8143C14.1425 12.6097 14.2237 12.4135 14.3684 12.2688C14.5131 12.1241 14.7093 12.0429 14.9139 12.0429C15.1185 12.0429 15.3147 12.1241 15.4594 12.2688C15.604 12.4135 15.6853 12.6097 15.6853 12.8143C15.6853 13.0189 15.604 13.2151 15.4594 13.3598C15.3147 13.5044 15.1185 13.5857 14.9139 13.5857C14.7093 13.5857 14.5131 13.5044 14.3684 13.3598C14.2237 13.2151 14.1425 13.0189 14.1425 12.8143ZM14.9139 3.81429C15.1185 3.81429 15.3147 3.89556 15.4594 4.04023C15.604 4.1849 15.6853 4.38112 15.6853 4.58571C15.6853 4.79031 15.604 4.98653 15.4594 5.1312C15.3147 5.27587 15.1185 5.35714 14.9139 5.35714C14.7093 5.35714 14.5131 5.27587 14.3684 5.1312C14.2237 4.98653 14.1425 4.79031 14.1425 4.58571C14.1425 4.38112 14.2237 4.1849 14.3684 4.04023C14.5131 3.89556 14.7093 3.81429 14.9139 3.81429Z"
        fill="black" />
</svg>