<svg width="20" height="15" viewBox="0 0 20 15" fill="none" xmlns="http://www.w3.org/2000/svg">
<path d="M16.5268 7.70548C16.7786 7.45369 16.7786 7.04655 16.5268 6.79744L13.0982 3.36619C12.8464 3.11441 12.4393 3.11441 12.1902 3.36619C11.9411 3.61798 11.9384 4.02512 12.1902 4.27423L14.5205 6.60459L7.92857 6.60726C7.57232 6.60726 7.28571 6.89387 7.28571 7.25012C7.28571 7.60637 7.57232 7.89298 7.92857 7.89298H14.5205L12.1902 10.2233C11.9384 10.4751 11.9384 10.8823 12.1902 11.1314C12.442 11.3805 12.8491 11.3832 13.0982 11.1314L16.5268 7.70548ZM7.5 2.53584C7.85625 2.53584 8.14286 2.24923 8.14286 1.89298C8.14286 1.53673 7.85625 1.25012 7.5 1.25012H5.35714C4.05536 1.25012 3 2.30548 3 3.60726V10.893C3 12.1948 4.05536 13.2501 5.35714 13.2501H7.5C7.85625 13.2501 8.14286 12.9635 8.14286 12.6073C8.14286 12.251 7.85625 11.9644 7.5 11.9644H5.35714C4.76518 11.9644 4.28571 11.4849 4.28571 10.893V3.60726C4.28571 3.0153 4.76518 2.53584 5.35714 2.53584H7.5Z" fill="#AEAEAE"/>
</svg>
