<svg width="10" height="13" viewBox="0 0 10 13" fill="none" xmlns="http://www.w3.org/2000/svg">
<path d="M4.99849 10.1621C3.72955 10.0338 2.7693 9.16617 2.65234 8.09413C2.58257 7.45258 2.05752 6.92519 1.32617 6.92519C0.59482 6.92519 0 7.44949 0 8.09413C0 8.24766 0.0276077 8.37553 0.0788074 8.48127C0.26403 8.91487 0.755948 9.20511 1.32617 9.26307C2.59512 9.39138 3.55537 10.259 3.67232 11.3311C3.74209 11.9726 4.26714 12.5 4.99849 12.5C5.72985 12.5 6.32467 11.9757 6.32467 11.3311C6.32467 11.2213 6.31011 11.1275 6.28351 11.0466C6.13643 10.5559 5.61289 10.2241 4.99849 10.1621ZM5.00151 2.83788C6.27045 2.96619 7.2307 3.83382 7.34766 4.90587C7.41743 5.54742 7.94248 6.07481 8.67383 6.07481C9.40518 6.07481 10 5.55051 10 4.90587C10 4.79614 9.98544 4.70234 9.95884 4.62138C9.81177 4.13071 9.28822 3.79887 8.67383 3.73693C7.40488 3.60862 6.44463 2.74099 6.32768 1.66894C6.25791 1.02739 5.73286 0.5 5.00151 0.5C4.27015 0.5 3.67533 1.0243 3.67533 1.66894C3.67533 1.82247 3.70294 1.95034 3.75414 2.05608C3.93936 2.48968 4.43128 2.77992 5.00151 2.83788ZM8.67383 6.92254C7.40488 6.79423 6.44463 5.92659 6.32768 4.85455C6.25791 4.213 5.73286 3.68561 5.00151 3.68561C4.27015 3.68561 3.67533 4.2099 3.67533 4.85455C3.67533 5.00807 3.70294 5.13594 3.75414 5.24169C3.93936 5.67528 4.43128 5.96553 5.00151 6.02349C6.27045 6.1518 7.2307 7.01943 7.34766 8.09148C7.41743 8.73302 7.94248 9.26042 8.67383 9.26042C9.40518 9.26042 10 8.73612 10 8.09148C10 7.98175 9.98544 7.88795 9.95884 7.80698C9.81177 7.31631 9.28822 6.98448 8.67383 6.92254ZM4.99849 6.97651C3.72955 6.8482 2.7693 5.98057 2.65234 4.90852C2.58257 4.26698 2.05752 3.73958 1.32617 3.73958C0.59482 3.73958 0 4.26388 0 4.90852C0 5.06205 0.0276077 5.18992 0.0788074 5.29566C0.26403 5.72926 0.755948 6.0195 1.32617 6.07746C2.59512 6.20577 3.55537 7.07341 3.67232 8.14545C3.74209 8.787 4.26714 9.31439 4.99849 9.31439C5.72985 9.31439 6.32467 8.7901 6.32467 8.14545C6.32467 8.03573 6.31011 7.94193 6.28351 7.86096C6.13643 7.37029 5.61289 7.03846 4.99849 6.97651Z" fill="#A7A7A7"/>
</svg>
