<svg width="15" height="8" viewBox="0 0 15 8" fill="none" xmlns="http://www.w3.org/2000/svg">
<path d="M3.98557 7.50194C4.3525 7.86736 4.94717 7.86613 5.31259 7.4992C5.67801 7.13227 5.67678 6.5376 5.30985 6.17218L4.09751 4.96484L13.082 4.94628C13.6005 4.9452 14.0185 4.52543 14.0174 4.00693C14.0164 3.48843 13.5966 3.07039 13.0781 3.07146L4.09363 3.09003L5.30389 1.87475C5.66931 1.50782 5.66808 0.913154 5.30115 0.547736C4.93422 0.182319 4.33955 0.183547 3.97414 0.550478L1.16773 3.36851C0.802311 3.73544 0.80354 4.33011 1.17047 4.69553L3.9885 7.50193L3.98557 7.50194Z" fill="white"/>
</svg>
