<svg width="15" height="15" viewBox="0 0 15 15" fill="none" xmlns="http://www.w3.org/2000/svg">
<path d="M13.125 1.25H1.875C1.70924 1.25 1.55027 1.31585 1.43306 1.43306C1.31585 1.55027 1.25 1.70924 1.25 1.875V13.125C1.25 13.2908 1.31585 13.4497 1.43306 13.5669C1.55027 13.6842 1.70924 13.75 1.875 13.75H13.125C13.2908 13.75 13.4497 13.6842 13.5669 13.5669C13.6842 13.4497 13.75 13.2908 13.75 13.125V1.875C13.75 1.70924 13.6842 1.55027 13.5669 1.43306C13.4497 1.31585 13.2908 1.25 13.125 1.25ZM12.5 5H10V7.5H12.5V10H10V12.5H7.5V10H5V12.5H2.5V10H5V7.5H2.5V5H5V2.5H7.5V5H10V2.5H12.5V5Z" fill="black"/>
<path d="M5 5H7.5V7.5H5V5ZM7.5 7.5H10V10H7.5V7.5Z" fill="#AEAEAE"/>
</svg>
