<svg width="15" height="15" viewBox="0 0 15 15" fill="none" xmlns="http://www.w3.org/2000/svg">
    <g clip-path="url(#clip0_3486_23597)">
        <path
            d="M7.5 14.8135C9.48912 14.8135 11.3968 14.0233 12.8033 12.6168C14.2098 11.2103 15 9.3026 15 7.31348C15 5.32435 14.2098 3.4167 12.8033 2.01018C11.3968 0.603653 9.48912 -0.186523 7.5 -0.186523C5.51088 -0.186523 3.60322 0.603653 2.1967 2.01018C0.790176 3.4167 0 5.32435 0 7.31348C0 9.3026 0.790176 11.2103 2.1967 12.6168C3.60322 14.0233 5.51088 14.8135 7.5 14.8135ZM10.8105 5.93652L7.06055 9.68652C6.78516 9.96191 6.33984 9.96191 6.06738 9.68652L4.19238 7.81152C3.91699 7.53613 3.91699 7.09082 4.19238 6.81836C4.46777 6.5459 4.91309 6.54297 5.18555 6.81836L6.5625 8.19531L9.81445 4.94043C10.0898 4.66504 10.5352 4.66504 10.8076 4.94043C11.0801 5.21582 11.083 5.66113 10.8076 5.93359L10.8105 5.93652Z"
            fill="#00DF9C" />
    </g>
    <defs>
        <clipPath id="clip0_3486_23597">
            <rect width="15" height="15" fill="white" />
        </clipPath>
    </defs>
</svg>
