<svg width="12" height="13" viewBox="0 0 12 13" fill="none" xmlns="http://www.w3.org/2000/svg">
<path fill-rule="evenodd" clip-rule="evenodd" d="M5.02864 0.823923C5.11747 0.626945 5.31567 0.5 5.53438 0.5C6.1215 0.5 6.68458 0.729868 7.09974 1.13904C7.5149 1.5482 7.74813 2.10315 7.74813 2.68181V4.31816H10.3243C10.5638 4.31598 10.801 4.36489 11.0195 4.46155C11.2391 4.55868 11.4346 4.7017 11.5926 4.8807C11.7505 5.0597 11.8671 5.27041 11.9342 5.49821C12.0013 5.72602 12.0173 5.96548 11.9812 6.2L11.2175 11.109C11.2174 11.1091 11.2175 11.1089 11.2175 11.109C11.1573 11.499 10.9562 11.8549 10.6512 12.1104C10.347 12.3653 9.95975 12.5036 9.56054 12.4999H1.66031C1.21997 12.4999 0.797664 12.3275 0.486295 12.0207C0.174925 11.7138 0 11.2976 0 10.8636V7.04542C0 6.61143 0.174925 6.19522 0.486295 5.88834C0.797664 5.58146 1.21997 5.40906 1.66031 5.40906H2.96096L5.02864 0.823923ZM2.76719 6.49996H1.66031C1.51353 6.49996 1.37276 6.55743 1.26897 6.65972C1.16518 6.76202 1.10688 6.90075 1.10688 7.04542V10.8636C1.10688 11.0082 1.16518 11.147 1.26897 11.2493C1.37276 11.3516 1.51353 11.409 1.66031 11.409H2.76719V6.49996ZM3.87407 11.409H9.56966C9.70313 11.4105 9.83265 11.3644 9.93435 11.2792C10.0361 11.194 10.1031 11.0755 10.1231 10.9454L10.8869 6.0363C10.8868 6.03637 10.8869 6.03622 10.8869 6.0363C10.8989 5.95819 10.8935 5.87823 10.8712 5.80237C10.8488 5.72643 10.81 5.6562 10.7573 5.59653C10.7047 5.53686 10.6395 5.48919 10.5663 5.45681C10.4931 5.42444 10.4136 5.40813 10.3334 5.40903L10.3272 5.4091L7.19469 5.40906C6.88904 5.40906 6.64126 5.16486 6.64126 4.86361V2.68181C6.64126 2.39248 6.52464 2.115 6.31706 1.91042C6.19096 1.78614 6.03757 1.69495 5.87078 1.6425L3.87407 6.07027V11.409Z" fill="#AEAEAE"/>
</svg>
