<svg width="12" height="13" viewBox="0 0 12 13" fill="none" xmlns="http://www.w3.org/2000/svg">
<path fill-rule="evenodd" clip-rule="evenodd" d="M6.97136 12.1761C6.88253 12.3731 6.68433 12.5 6.46562 12.5C5.8785 12.5 5.31542 12.2701 4.90026 11.861C4.4851 11.4518 4.25187 10.8968 4.25187 10.3182V8.68184H1.67568C1.43618 8.68402 1.19902 8.63511 0.980478 8.53845C0.760895 8.44132 0.565364 8.2983 0.407432 8.1193C0.2495 7.9403 0.132943 7.72959 0.0658379 7.50179C-0.00126743 7.27398 -0.0173168 7.03452 0.0188017 6.8L0.782535 1.89101C0.782557 1.89086 0.782513 1.89115 0.782535 1.89101C0.842655 1.50098 1.04379 1.14506 1.34878 0.889552C1.65302 0.634676 2.04025 0.496425 2.43946 0.500071H10.3397C10.78 0.500071 11.2023 0.672472 11.5137 0.979347C11.8251 1.28622 12 1.70244 12 2.13642V5.95458C12 6.38857 11.8251 6.80478 11.5137 7.11166C11.2023 7.41854 10.78 7.59094 10.3397 7.59094H9.03904L6.97136 12.1761ZM9.23281 6.50004H10.3397C10.4865 6.50004 10.6272 6.44257 10.731 6.34028C10.8348 6.23798 10.8931 6.09925 10.8931 5.95458V2.13642C10.8931 1.99176 10.8348 1.85302 10.731 1.75073C10.6272 1.64844 10.4865 1.59097 10.3397 1.59097H9.23281V6.50004ZM8.12593 1.59097H2.43034C2.29687 1.58949 2.16735 1.63556 2.06565 1.72075C1.96394 1.80595 1.89691 1.92451 1.8769 2.05457L1.11314 6.9637C1.11315 6.96363 1.11313 6.96378 1.11314 6.9637C1.10115 7.04181 1.10647 7.12177 1.12882 7.19763C1.15119 7.27357 1.19004 7.3438 1.24269 7.40347C1.29533 7.46314 1.36051 7.51081 1.4337 7.54319C1.5069 7.57556 1.58636 7.59187 1.66658 7.59097L1.67285 7.5909L4.80531 7.59094C5.11096 7.59094 5.35874 7.83514 5.35874 8.13639V10.3182C5.35874 10.6075 5.47536 10.885 5.68294 11.0896C5.80904 11.2139 5.96243 11.3051 6.12922 11.3575L8.12593 6.92973V1.59097Z" fill="#AEAEAE"/>
</svg>
