<svg width="12" height="12" viewBox="0 0 12 12" fill="none" xmlns="http://www.w3.org/2000/svg">
<g clip-path="url(#clip0_3305_8227)">
<path d="M5.4375 0.5625C5.4375 0.250781 5.68828 0 6 0C9.31406 0 12 2.68594 12 6C12 9.31406 9.31406 12 6 12C2.68594 12 0 9.31406 0 6C0 5.11172 0.192187 4.27031 0.539062 3.51328C0.679688 3.20391 0.846094 2.90859 1.03594 2.63203C1.03594 2.62969 1.03828 2.62969 1.03828 2.62734C1.25156 2.31328 1.49063 2.02266 1.75781 1.75781C1.97812 1.5375 2.33438 1.5375 2.55234 1.75781C2.77031 1.97812 2.77266 2.33438 2.55234 2.55234C2.33672 2.76797 2.13984 3.00469 1.96641 3.25781C1.96641 3.26016 1.96406 3.26016 1.96406 3.2625C1.46719 3.99375 1.1625 4.86797 1.12734 5.81016C1.125 5.87344 1.12266 5.93672 1.12266 6C1.12266 8.69297 3.30469 10.875 5.99766 10.875C8.69063 10.875 10.8727 8.69297 10.8727 6C10.8727 3.49687 8.98828 1.43672 6.56016 1.15781V2.4375C6.56016 2.74922 6.30937 3 5.99766 3C5.68594 3 5.43516 2.74922 5.43516 2.4375V0.5625H5.4375ZM3.72656 3.72656C3.94688 3.50625 4.30312 3.50625 4.52109 3.72656L6.39609 5.60156C6.61641 5.82188 6.61641 6.17812 6.39609 6.39609C6.17578 6.61406 5.81953 6.61641 5.60156 6.39609L3.72656 4.52109C3.50625 4.30078 3.50625 3.94453 3.72656 3.72656Z" fill="black"/>
</g>
<defs>
<clipPath id="clip0_3305_8227">
<rect width="12" height="12" fill="white"/>
</clipPath>
</defs>
</svg>
