<svg width="20" height="21" viewBox="0 0 20 21" fill="none" xmlns="http://www.w3.org/2000/svg">
<g clip-path="url(#clip0_3766_1583)">
<path d="M10 20.2512C12.6522 20.2512 15.1957 19.1977 17.0711 17.3223C18.9464 15.4469 20 12.9034 20 10.2512C20 7.59906 18.9464 5.05552 17.0711 3.18015C15.1957 1.30479 12.6522 0.251221 10 0.251221C7.34784 0.251221 4.8043 1.30479 2.92893 3.18015C1.05357 5.05552 0 7.59906 0 10.2512C0 12.9034 1.05357 15.4469 2.92893 17.3223C4.8043 19.1977 7.34784 20.2512 10 20.2512ZM14.4141 8.41528L9.41406 13.4153C9.04688 13.7825 8.45312 13.7825 8.08984 13.4153L5.58984 10.9153C5.22266 10.5481 5.22266 9.95435 5.58984 9.59106C5.95703 9.22778 6.55078 9.22388 6.91406 9.59106L8.75 11.427L13.0859 7.08716C13.4531 6.71997 14.0469 6.71997 14.4102 7.08716C14.7734 7.45435 14.7773 8.0481 14.4102 8.41138L14.4141 8.41528Z" fill="#00DF9C"/>
</g>
<defs>
<clipPath id="clip0_3766_1583">
<rect width="20" height="20" fill="white" transform="translate(0 0.5)"/>
</clipPath>
</defs>
</svg>
