<svg width="20" height="16" viewBox="0 0 20 16" fill="none" xmlns="http://www.w3.org/2000/svg">
<path d="M6.08929 5.90446C6.80714 4.21696 8.48125 3.03571 10.4286 3.03571C11.492 3.03571 12.5125 3.45893 13.2652 4.21161L14.6634 5.60714H13.2143C12.858 5.60714 12.5714 5.89375 12.5714 6.25C12.5714 6.60625 12.858 6.89286 13.2143 6.89286H16.2143C16.5705 6.89286 16.8571 6.60625 16.8571 6.25V3.25C16.8571 2.89375 16.5705 2.60714 16.2143 2.60714C15.858 2.60714 15.5714 2.89375 15.5714 3.25V4.69911L14.1759 3.30089C13.1821 2.30714 11.8348 1.75 10.4286 1.75C7.94821 1.75 5.81875 3.25536 4.90536 5.40089C4.76607 5.72768 4.91875 6.10536 5.24554 6.24464C5.57232 6.38393 5.95 6.23125 6.08929 5.90446ZM15.9464 10.1098C16.0857 9.78304 15.9357 9.40536 15.6089 9.26607C15.2821 9.12679 14.9045 9.27679 14.7652 9.60357C14.0446 11.2884 12.3732 12.4643 10.4286 12.4643C9.36518 12.4643 8.34464 12.0411 7.59196 11.2884L6.19375 9.89286H7.64286C7.99911 9.89286 8.28571 9.60625 8.28571 9.25C8.28571 8.89375 7.99911 8.60714 7.64286 8.60714H4.64286C4.28661 8.60714 4 8.89375 4 9.25V12.25C4 12.6062 4.28661 12.8929 4.64286 12.8929C4.99911 12.8929 5.28571 12.6062 5.28571 12.25V10.8009L6.68125 12.1964C7.675 13.1929 9.02232 13.75 10.4286 13.75C12.9062 13.75 15.0304 12.25 15.9464 10.1098Z" fill="black"/>
</svg>
