<svg width="12" height="13" viewBox="0 0 12 13" fill="none" xmlns="http://www.w3.org/2000/svg">
<path d="M-0.000488281 5.74993C-0.000488281 6.16481 0.334697 6.5 0.749577 6.5C1.16446 6.5 1.49964 6.16481 1.49964 5.74993C1.49964 4.50764 2.50754 3.49974 3.74984 3.49974H7.50016V4.2498C7.50016 4.55217 7.68299 4.82642 7.96426 4.94361C8.24554 5.06081 8.56666 4.99518 8.78231 4.78188L10.2824 3.28175C10.5754 2.98876 10.5754 2.51294 10.2824 2.21994L8.78231 0.719811C8.56666 0.504167 8.24554 0.44088 7.96426 0.558078C7.68299 0.675276 7.50016 0.947174 7.50016 1.24954V1.99961H3.74984C1.67778 1.99961 -0.000488281 3.67788 -0.000488281 5.74993ZM12.0006 7.25006C12.0006 6.83519 11.6654 6.5 11.2505 6.5C10.8356 6.5 10.5004 6.83519 10.5004 7.25006C10.5004 8.49236 9.49252 9.50026 8.25023 9.50026H4.4999V8.7502C4.4999 8.44783 4.31707 8.17358 4.0358 8.05639C3.75452 7.93919 3.4334 8.00482 3.21776 8.21812L1.71763 9.71825C1.42464 10.0112 1.42464 10.4871 1.71763 10.7801L3.21776 12.2802C3.4334 12.4958 3.75452 12.5591 4.0358 12.4419C4.31707 12.3247 4.4999 12.0528 4.4999 11.7481V11.0004H8.25023C10.3223 11.0004 12.0006 9.32212 12.0006 7.25006Z" fill="black"/>
</svg>
