<svg width="13" height="13" viewBox="0 0 13 13" fill="none" xmlns="http://www.w3.org/2000/svg">
<path d="M8.46969 5.90894H0.984848C0.723744 5.90924 0.473422 6.0131 0.288794 6.19773C0.104165 6.38236 0.000306518 6.63268 0 6.89378V12.015C0.000306518 12.2761 0.104165 12.5264 0.288794 12.711C0.473422 12.8957 0.723744 12.9995 0.984848 12.9998H8.46969C8.7308 12.9995 8.98112 12.8957 9.16575 12.711C9.35038 12.5264 9.45424 12.2761 9.45454 12.015V6.89378C9.45424 6.63268 9.35038 6.38236 9.16575 6.19773C8.98112 6.0131 8.7308 5.90924 8.46969 5.90894ZM9.0606 12.015C9.06043 12.1717 8.99812 12.3219 8.88734 12.4326C8.77656 12.5434 8.62636 12.6057 8.46969 12.6059H0.984848C0.828182 12.6057 0.677981 12.5434 0.567201 12.4326C0.456421 12.3219 0.39411 12.1717 0.393939 12.015V7.68166H6.10606C6.1583 7.68166 6.2084 7.66091 6.24534 7.62397C6.28228 7.58703 6.30303 7.53693 6.30303 7.48469C6.30303 7.43245 6.28228 7.38235 6.24534 7.34541C6.2084 7.30847 6.1583 7.28772 6.10606 7.28772H0.393939V6.89378C0.39411 6.73712 0.456421 6.58692 0.567201 6.47614C0.677981 6.36536 0.828182 6.30305 0.984848 6.30287H8.46969C8.62636 6.30305 8.77656 6.36536 8.88734 6.47614C8.99812 6.58692 9.06043 6.73712 9.0606 6.89378V12.015Z" fill="black"/>
<path d="M1.18203 6.69702H0.985056C0.932816 6.69702 0.882716 6.71777 0.845777 6.75471C0.808838 6.79165 0.788086 6.84175 0.788086 6.89399C0.788086 6.94623 0.808838 6.99633 0.845777 7.03327C0.882716 7.07021 0.932816 7.09096 0.985056 7.09096H1.18203C1.23426 7.09096 1.28436 7.07021 1.3213 7.03327C1.35824 6.99633 1.37899 6.94623 1.37899 6.89399C1.37899 6.84175 1.35824 6.79165 1.3213 6.75471C1.28436 6.71777 1.23426 6.69702 1.18203 6.69702Z" fill="black"/>
<path d="M1.97011 6.69702H1.77314C1.7209 6.69702 1.6708 6.71777 1.63386 6.75471C1.59692 6.79165 1.57617 6.84175 1.57617 6.89399C1.57617 6.94623 1.59692 6.99633 1.63386 7.03327C1.6708 7.07021 1.7209 7.09096 1.77314 7.09096H1.97011C2.02235 7.09096 2.07245 7.07021 2.10939 7.03327C2.14633 6.99633 2.16708 6.94623 2.16708 6.89399C2.16708 6.84175 2.14633 6.79165 2.10939 6.75471C2.07245 6.71777 2.02235 6.69702 1.97011 6.69702Z" fill="black"/>
<path d="M2.7582 6.69702H2.56123C2.50899 6.69702 2.45889 6.71777 2.42195 6.75471C2.38501 6.79165 2.36426 6.84175 2.36426 6.89399C2.36426 6.94623 2.38501 6.99633 2.42195 7.03327C2.45889 7.07021 2.50899 7.09096 2.56123 7.09096H2.7582C2.81044 7.09096 2.86054 7.07021 2.89748 7.03327C2.93441 6.99633 2.95517 6.94623 2.95517 6.89399C2.95517 6.84175 2.93441 6.79165 2.89748 6.75471C2.86054 6.71777 2.81044 6.69702 2.7582 6.69702Z" fill="black"/>
<path d="M7.68164 8.27271H1.77255C1.61588 8.27288 1.46568 8.33519 1.3549 8.44597C1.24412 8.55675 1.18181 8.70695 1.18164 8.86361V9.65149C1.18181 9.80816 1.24412 9.95836 1.3549 10.0691C1.46568 10.1799 1.61588 10.2422 1.77255 10.2424H7.68164C7.8383 10.2422 7.98851 10.1799 8.09929 10.0691C8.21006 9.95836 8.27238 9.80816 8.27255 9.65149V8.86361C8.27238 8.70695 8.21006 8.55675 8.09929 8.44597C7.98851 8.33519 7.8383 8.27288 7.68164 8.27271ZM7.87861 9.65149C7.87856 9.70372 7.85779 9.75379 7.82086 9.79071C7.78393 9.82764 7.73386 9.84841 7.68164 9.84846H1.77255C1.72033 9.84839 1.67027 9.82762 1.63335 9.7907C1.59642 9.75377 1.57565 9.70371 1.57558 9.65149V8.86361C1.57565 8.8114 1.59642 8.76133 1.63335 8.72441C1.67027 8.68749 1.72033 8.66671 1.77255 8.66664H7.68164C7.73386 8.6667 7.78393 8.68747 7.82086 8.72439C7.85779 8.76132 7.87856 8.81139 7.87861 8.86361V9.65149Z" fill="black"/>
<path d="M3.34822 10.6362H1.96943C1.91719 10.6362 1.86709 10.657 1.83015 10.6939C1.79321 10.7309 1.77246 10.781 1.77246 10.8332C1.77246 10.8854 1.79321 10.9355 1.83015 10.9725C1.86709 11.0094 1.91719 11.0302 1.96943 11.0302H3.34822C3.40046 11.0302 3.45056 11.0094 3.4875 10.9725C3.52444 10.9355 3.54519 10.8854 3.54519 10.8332C3.54519 10.781 3.52444 10.7309 3.4875 10.6939C3.45056 10.657 3.40046 10.6362 3.34822 10.6362Z" fill="black"/>
<path d="M2.75731 11.2273H1.96943C1.91719 11.2273 1.86709 11.248 1.83015 11.285C1.79321 11.3219 1.77246 11.372 1.77246 11.4243C1.77246 11.4765 1.79321 11.5266 1.83015 11.5635C1.86709 11.6005 1.91719 11.6212 1.96943 11.6212H2.75731C2.80955 11.6212 2.85965 11.6005 2.89659 11.5635C2.93353 11.5266 2.95428 11.4765 2.95428 11.4243C2.95428 11.372 2.93353 11.3219 2.89659 11.285C2.85965 11.248 2.80955 11.2273 2.75731 11.2273Z" fill="black"/>
<path d="M7.48455 10.6362H6.4997C6.44746 10.6362 6.39736 10.657 6.36043 10.6939C6.32349 10.7309 6.30273 10.781 6.30273 10.8332C6.30273 10.8854 6.32349 10.9355 6.36043 10.9725C6.39736 11.0094 6.44746 11.0302 6.4997 11.0302H7.48455C7.53679 11.0302 7.58689 11.0094 7.62383 10.9725C7.66077 10.9355 7.68152 10.8854 7.68152 10.8332C7.68152 10.781 7.66077 10.7309 7.62383 10.6939C7.58689 10.657 7.53679 10.6362 7.48455 10.6362Z" fill="black"/>
<path d="M7.48514 11.2273H6.89424C6.842 11.2273 6.7919 11.248 6.75496 11.285C6.71802 11.3219 6.69727 11.372 6.69727 11.4243C6.69727 11.4765 6.71802 11.5266 6.75496 11.5635C6.7919 11.6005 6.842 11.6212 6.89424 11.6212H7.48514C7.53738 11.6212 7.58748 11.6005 7.62442 11.5635C7.66136 11.5266 7.68211 11.4765 7.68211 11.4243C7.68211 11.372 7.66136 11.3219 7.62442 11.285C7.58748 11.248 7.53738 11.2273 7.48514 11.2273Z" fill="black"/>
<path d="M6.69697 7.68178H7.68182C7.73406 7.68178 7.78416 7.66103 7.8211 7.62409C7.85804 7.58715 7.87879 7.53705 7.87879 7.48481C7.87879 7.43257 7.85804 7.38247 7.8211 7.34553C7.78416 7.30859 7.73406 7.28784 7.68182 7.28784H6.69697C6.64473 7.28784 6.59463 7.30859 6.55769 7.34553C6.52075 7.38247 6.5 7.43257 6.5 7.48481C6.5 7.53705 6.52075 7.58715 6.55769 7.62409C6.59463 7.66103 6.64473 7.68178 6.69697 7.68178Z" fill="black"/>
<path d="M8.66708 7.28784H8.27314C8.2209 7.28784 8.1708 7.30859 8.13386 7.34553C8.09692 7.38247 8.07617 7.43257 8.07617 7.48481C8.07617 7.53705 8.09692 7.58715 8.13386 7.62409C8.1708 7.66103 8.2209 7.68178 8.27314 7.68178H8.66708C8.71932 7.68178 8.76942 7.66103 8.80636 7.62409C8.8433 7.58715 8.86405 7.53705 8.86405 7.48481C8.86405 7.43257 8.8433 7.38247 8.80636 7.34553C8.76942 7.30859 8.71932 7.28784 8.66708 7.28784Z" fill="black"/>
<path d="M11.8188 0H3.34911C3.088 0.000306518 2.83768 0.104165 2.65305 0.288794C2.46842 0.473422 2.36456 0.723744 2.36426 0.984848V5.51515C2.36426 5.56739 2.38501 5.61749 2.42195 5.65443C2.45889 5.69137 2.50899 5.71212 2.56123 5.71212C2.61347 5.71212 2.66357 5.69137 2.70051 5.65443C2.73745 5.61749 2.7582 5.56739 2.7582 5.51515V1.9697H9.8491C9.90134 1.9697 9.95144 1.94894 9.98838 1.91201C10.0253 1.87507 10.0461 1.82497 10.0461 1.77273C10.0461 1.72049 10.0253 1.67039 9.98838 1.63345C9.95144 1.59651 9.90134 1.57576 9.8491 1.57576H2.7582V0.984848C2.75837 0.828182 2.82068 0.677981 2.93146 0.567201C3.04224 0.456421 3.19244 0.39411 3.34911 0.393939H11.8188C11.9755 0.39411 12.1257 0.456421 12.2364 0.567201C12.3472 0.677981 12.4095 0.828182 12.4097 0.984848V8.07575C12.4095 8.23242 12.3472 8.38262 12.2364 8.4934C12.1257 8.60418 11.9755 8.66649 11.8188 8.66666H9.8491C9.79686 8.66666 9.74676 8.68742 9.70982 8.72435C9.67289 8.76129 9.65213 8.81139 9.65213 8.86363C9.65213 8.91587 9.67289 8.96597 9.70982 9.00291C9.74676 9.03985 9.79686 9.0606 9.8491 9.0606H11.8188C12.0799 9.0603 12.3302 8.95644 12.5149 8.77181C12.6995 8.58718 12.8033 8.33686 12.8036 8.07575V0.984848C12.8033 0.723744 12.6995 0.473422 12.5149 0.288794C12.3302 0.104165 12.0799 0.000306518 11.8188 0Z" fill="black"/>
<path d="M11.227 1.96962C11.2793 1.96962 11.3294 1.94887 11.3663 1.91193C11.4033 1.87499 11.424 1.82489 11.424 1.77265C11.424 1.72041 11.4033 1.67031 11.3663 1.63337C11.3294 1.59644 11.2793 1.57568 11.227 1.57568H10.4392C10.3869 1.57568 10.3368 1.59644 10.2999 1.63337C10.2629 1.67031 10.2422 1.72041 10.2422 1.77265C10.2422 1.82489 10.2629 1.87499 10.2999 1.91193C10.3368 1.94887 10.3869 1.96962 10.4392 1.96962H11.227Z" fill="black"/>
<path d="M12.015 1.96962C12.0673 1.96962 12.1174 1.94887 12.1543 1.91193C12.1913 1.87499 12.212 1.82489 12.212 1.77265C12.212 1.72041 12.1913 1.67031 12.1543 1.63337C12.1174 1.59644 12.0673 1.57568 12.015 1.57568H11.8181C11.7658 1.57568 11.7157 1.59644 11.6788 1.63337C11.6418 1.67031 11.6211 1.72041 11.6211 1.77265C11.6211 1.82489 11.6418 1.87499 11.6788 1.91193C11.7157 1.94887 11.7658 1.96962 11.8181 1.96962H12.015Z" fill="black"/>
<path d="M3.34834 0.787842C3.2961 0.787842 3.246 0.808594 3.20906 0.845533C3.17212 0.882472 3.15137 0.932572 3.15137 0.984811C3.15137 1.03705 3.17212 1.08715 3.20906 1.12409C3.246 1.16103 3.2961 1.18178 3.34834 1.18178H3.54531C3.59755 1.18178 3.64765 1.16103 3.68459 1.12409C3.72152 1.08715 3.74228 1.03705 3.74228 0.984811C3.74228 0.932572 3.72152 0.882472 3.68459 0.845533C3.64765 0.808594 3.59755 0.787842 3.54531 0.787842H3.34834Z" fill="black"/>
<path d="M4.13642 0.787842C4.08418 0.787842 4.03408 0.808594 3.99714 0.845533C3.96021 0.882472 3.93945 0.932572 3.93945 0.984811C3.93945 1.03705 3.96021 1.08715 3.99714 1.12409C4.03408 1.16103 4.08418 1.18178 4.13642 1.18178H4.33339C4.38563 1.18178 4.43573 1.16103 4.47267 1.12409C4.50961 1.08715 4.53036 1.03705 4.53036 0.984811C4.53036 0.932572 4.50961 0.882472 4.47267 0.845533C4.43573 0.808594 4.38563 0.787842 4.33339 0.787842H4.13642Z" fill="black"/>
<path d="M4.92451 0.787842C4.87227 0.787842 4.82217 0.808594 4.78523 0.845533C4.74829 0.882472 4.72754 0.932572 4.72754 0.984811C4.72754 1.03705 4.74829 1.08715 4.78523 1.12409C4.82217 1.16103 4.87227 1.18178 4.92451 1.18178H5.12148C5.17372 1.18178 5.22382 1.16103 5.26076 1.12409C5.2977 1.08715 5.31845 1.03705 5.31845 0.984811C5.31845 0.932572 5.2977 0.882472 5.26076 0.845533C5.22382 0.808594 5.17372 0.787842 5.12148 0.787842H4.92451Z" fill="black"/>
<path d="M9.06123 4.13627C9.03536 4.13626 9.00974 4.14135 8.98584 4.15125C8.96194 4.16115 8.94023 4.17566 8.92193 4.19395C8.90364 4.21224 8.88913 4.23395 8.87924 4.25786C8.86934 4.28176 8.86425 4.30737 8.86426 4.33324V5.31809C8.86425 5.34396 8.86934 5.36957 8.87924 5.39347C8.88913 5.41737 8.90364 5.43909 8.92193 5.45738C8.94023 5.47567 8.96194 5.49018 8.98584 5.50008C9.00974 5.50997 9.03536 5.51506 9.06123 5.51506H10.0461C10.0983 5.51506 10.1484 5.49431 10.1854 5.45737C10.2223 5.42043 10.243 5.37033 10.243 5.31809C10.243 5.26585 10.2223 5.21575 10.1854 5.17881C10.1484 5.14187 10.0983 5.12112 10.0461 5.12112H9.53672L11.9581 2.69977C11.9766 2.68154 11.9914 2.65982 12.0015 2.63586C12.0116 2.61189 12.0169 2.58616 12.017 2.56014C12.0171 2.53413 12.0121 2.50835 12.0022 2.4843C11.9923 2.46024 11.9777 2.43838 11.9593 2.41999C11.9409 2.4016 11.9191 2.38703 11.895 2.37713C11.871 2.36723 11.8452 2.36219 11.8192 2.36231C11.7932 2.36242 11.7674 2.36769 11.7435 2.37781C11.7195 2.38793 11.6978 2.4027 11.6795 2.42126L9.2582 4.84259V4.33324C9.2582 4.30737 9.25311 4.28176 9.24322 4.25786C9.23332 4.23395 9.21881 4.21224 9.20052 4.19395C9.18223 4.17566 9.16051 4.16115 9.13661 4.15125C9.11271 4.14135 9.0871 4.13626 9.06123 4.13627Z" fill="black"/>
</svg>
