<svg width="11" height="13" viewBox="0 0 11 13" fill="none" xmlns="http://www.w3.org/2000/svg">
<g clip-path="url(#clip0_3305_8235)">
<path d="M3.99609 1.70937L3.55078 2.375H6.94922L6.50391 1.70937C6.46875 1.65781 6.41016 1.625 6.34687 1.625H4.15078C4.0875 1.625 4.02891 1.65547 3.99375 1.70937H3.99609ZM7.44141 1.08594L8.30156 2.375H8.625H9.75H9.9375C10.2492 2.375 10.5 2.62578 10.5 2.9375C10.5 3.24922 10.2492 3.5 9.9375 3.5H9.75V10.625C9.75 11.6609 8.91094 12.5 7.875 12.5H2.625C1.58906 12.5 0.75 11.6609 0.75 10.625V3.5H0.5625C0.250781 3.5 0 3.24922 0 2.9375C0 2.62578 0.250781 2.375 0.5625 2.375H0.75H1.875H2.19844L3.05859 1.08359C3.30234 0.720312 3.7125 0.5 4.15078 0.5H6.34687C6.78516 0.5 7.19531 0.720312 7.43906 1.08359L7.44141 1.08594ZM1.875 3.5V10.625C1.875 11.0398 2.21016 11.375 2.625 11.375H7.875C8.28984 11.375 8.625 11.0398 8.625 10.625V3.5H1.875ZM3.75 5V9.875C3.75 10.0813 3.58125 10.25 3.375 10.25C3.16875 10.25 3 10.0813 3 9.875V5C3 4.79375 3.16875 4.625 3.375 4.625C3.58125 4.625 3.75 4.79375 3.75 5ZM5.625 5V9.875C5.625 10.0813 5.45625 10.25 5.25 10.25C5.04375 10.25 4.875 10.0813 4.875 9.875V5C4.875 4.79375 5.04375 4.625 5.25 4.625C5.45625 4.625 5.625 4.79375 5.625 5ZM7.5 5V9.875C7.5 10.0813 7.33125 10.25 7.125 10.25C6.91875 10.25 6.75 10.0813 6.75 9.875V5C6.75 4.79375 6.91875 4.625 7.125 4.625C7.33125 4.625 7.5 4.79375 7.5 5Z" fill="black"/>
</g>
<defs>
<clipPath id="clip0_3305_8235">
<rect width="10.5" height="12" fill="white" transform="translate(0 0.5)"/>
</clipPath>
</defs>
</svg>
