<svg width="22" height="25" viewBox="0 0 22 25" fill="none" xmlns="http://www.w3.org/2000/svg">
<path d="M11.7955 0.415811C11.5396 0.152807 11.194 0.00115732 10.8257 0.000113091C10.4574 -0.000931134 10.111 0.148757 9.85356 0.410305L0.450752 10.2051C-0.0641572 10.7394 -0.0442408 11.5876 0.490032 12.097C1.0243 12.6063 1.87256 12.592 2.38189 12.0577L9.47315 4.67822L9.41935 23.6569C9.41724 24.3991 10.0126 24.9979 10.7548 25C11.497 25.0021 12.0958 24.4067 12.0979 23.6645L12.1517 4.68581L19.1954 12.1109C19.7073 12.6481 20.5499 12.6672 21.087 12.161C21.6242 11.6547 21.6433 10.8065 21.137 10.2693L11.7899 0.421375L11.7955 0.415811Z" fill="black"/>
</svg>
