<svg width="22" height="25" viewBox="0 0 22 25" fill="none" xmlns="http://www.w3.org/2000/svg">
    <path
        d="M9.81154 24.5871C10.0682 24.8493 10.4142 25 10.7825 25C11.1508 25 11.4968 24.8493 11.7535 24.5871L21.1285 14.7656C21.6419 14.2299 21.6196 13.3817 21.0839 12.8739C20.5481 12.3661 19.6999 12.3828 19.1921 12.9185L12.1218 20.3181L12.1218 1.33929C12.1218 0.597098 11.5247 -8.72067e-07 10.7825 -9.36952e-07C10.0403 -1.00184e-06 9.44324 0.597098 9.44324 1.33929L9.44324 20.3181L2.37851 12.9129C1.86511 12.3772 1.02248 12.3605 0.486766 12.8683C-0.0489492 13.3761 -0.0656901 14.2243 0.442122 14.76L9.81712 24.5815L9.81154 24.5871Z"
        fill="black" />
</svg>