<svg width="16" height="11" viewBox="0 0 16 11" fill="none" xmlns="http://www.w3.org/2000/svg">
<path fill-rule="evenodd" clip-rule="evenodd" d="M0.625 4.875C0.279822 4.875 0 5.15482 0 5.5C0 5.84518 0.279822 6.125 0.625 6.125H9.375C9.37524 6.125 9.37549 6.125 9.37573 6.125L15 6.125C15.3452 6.125 15.625 5.84518 15.625 5.5C15.625 5.15482 15.3452 4.875 15 4.875H9.375H6.25H0.625Z" fill="white"/>
<path fill-rule="evenodd" clip-rule="evenodd" d="M5.80474 0.683058C6.06509 0.927136 6.06509 1.32286 5.80474 1.56694L1.60948 5.5L5.80474 9.43306C6.06509 9.67714 6.06509 10.0729 5.80474 10.3169C5.54439 10.561 5.12228 10.561 4.86193 10.3169L0.195262 5.94194C-0.0650874 5.69786 -0.0650874 5.30214 0.195262 5.05806L4.86193 0.683058C5.12228 0.438981 5.54439 0.438981 5.80474 0.683058Z" fill="white"/>
<path fill-rule="evenodd" clip-rule="evenodd" d="M10.1953 10.3169C9.93491 10.0729 9.93491 9.67714 10.1953 9.43306L14.3905 5.5L10.1953 1.56694C9.93491 1.32286 9.93491 0.927136 10.1953 0.683059C10.4556 0.438981 10.8777 0.438981 11.1381 0.683059L15.8047 5.05806C16.0651 5.30214 16.0651 5.69786 15.8047 5.94194L11.1381 10.3169C10.8777 10.561 10.4556 10.561 10.1953 10.3169Z" fill="white"/>
</svg>
