<svg width="16" height="16" viewBox="0 0 16 16" fill="none" xmlns="http://www.w3.org/2000/svg">
<path fill-rule="evenodd" clip-rule="evenodd" d="M10.2573 5.74124H10.258V5.74261H12.5157V5.74124H10.258V3.48423H10.2573V5.74124ZM5.74124 3.48423H5.74059V5.4875H5.74124V3.48423ZM5.48706 5.9953V7.74554H3.73693V5.9953H5.48706ZM5.48706 7.99961V8.00098H3.48221V5.74261H3.48286V7.99961H5.48706ZM5.74059 8.25401H5.74124V10.258H5.74059V8.25401ZM7.74543 10.258H5.74124V10.2594H7.74543V10.258ZM10.5119 10.2594V10.258H12.5157V10.2594H10.5119ZM8.25368 10.5124H10.0039V12.2623H8.25368V10.5124ZM7.99961 10.5124H7.99896V12.5177H10.2573V12.5164H7.99961V10.5124ZM10.5119 10.0039V8.25368H12.2623V10.0039H10.5119ZM10.2579 8.25368V10.0039H10.2575V8.25368H10.2579ZM10.0039 7.99994V8.00035H7.9995V7.99994H10.0039ZM10.0039 7.74587V5.9953H8.25357V7.74587H10.0039ZM7.9995 5.9953V7.99994H7.9991V5.9953H7.9995ZM7.74554 5.74157V5.74198H5.9953V5.74157H7.74554ZM7.74554 5.4875H5.9953V3.73693H7.74554V5.4875ZM7.74543 10.0039H5.9953V8.25401H7.74543V10.0039ZM3.48286 10.2594V12.5164H5.74059V12.5177H3.48221V10.2594H3.48286ZM10.5121 5.48717V3.73693H12.2623V5.48717H10.5121ZM3.73693 10.5121H5.48717V12.2623H3.73693V10.5121ZM13.0809 2.09961H2.91827C2.70115 2.09961 2.49292 2.18586 2.33939 2.33939C2.18586 2.49292 2.09961 2.70115 2.09961 2.91827V13.0809C2.09961 13.2981 2.18586 13.5063 2.33939 13.6598C2.49292 13.8134 2.70115 13.8996 2.91827 13.8996H13.0809C13.2981 13.8996 13.5063 13.8134 13.6598 13.6598C13.8134 13.5063 13.8996 13.2981 13.8996 13.0809V2.91827C13.8996 2.70115 13.8134 2.49292 13.6598 2.33939C13.5063 2.18586 13.2981 2.09961 13.0809 2.09961ZM13.0809 2.35368H2.91827C2.76853 2.35368 2.62492 2.41316 2.51904 2.51904C2.4727 2.56538 2.43525 2.61895 2.40778 2.6771C2.43519 2.61948 2.47242 2.56639 2.51839 2.52041C2.62427 2.41453 2.76788 2.35505 2.91762 2.35505H13.0803C13.23 2.35505 13.3736 2.41453 13.4795 2.52041C13.5854 2.62629 13.6449 2.7699 13.6449 2.91964V13.0823C13.6449 13.1665 13.6261 13.2488 13.5908 13.3235C13.6265 13.2484 13.6455 13.1657 13.6455 13.0809V2.91827C13.6455 2.76853 13.5861 2.62492 13.4802 2.51904C13.3743 2.41316 13.2307 2.35368 13.0809 2.35368Z" fill="#454C54"/>
</svg>