<svg width="15" height="14" viewBox="0 0 15 14" fill="none" xmlns="http://www.w3.org/2000/svg">
<g clip-path="url(#clip0_6780_446)">
<path d="M9.09948 2.625H12.5837C12.8269 2.62497 13.0674 2.67563 13.2899 2.77374C13.5125 2.87185 13.7121 3.01526 13.8761 3.19482C14.0401 3.37438 14.1648 3.58614 14.2424 3.81661C14.32 4.04708 14.3487 4.29119 14.3267 4.53338L13.7694 10.6584C13.7298 11.0932 13.5292 11.4975 13.2069 11.792C12.8846 12.0865 12.4638 12.2498 12.0272 12.25H2.97186C2.53527 12.2498 2.11451 12.0865 1.79218 11.792C1.46985 11.4975 1.26924 11.0932 1.22973 10.6584L0.672357 4.53338C0.635815 4.12812 0.741632 3.7228 0.971607 3.38713L0.937482 2.625C0.937482 2.16087 1.12186 1.71575 1.45005 1.38756C1.77823 1.05937 2.22335 0.875 2.68748 0.875H5.90048C6.36457 0.875099 6.80962 1.05954 7.13773 1.38775L7.86223 2.11225C8.19034 2.44046 8.63539 2.6249 9.09948 2.625ZM1.81773 2.73C2.00557 2.66058 2.20507 2.62558 2.41623 2.625H7.13773L6.51911 2.00637C6.35505 1.84227 6.13253 1.75005 5.90048 1.75H2.68748C2.45827 1.74996 2.23819 1.83986 2.07457 2.00038C1.91094 2.16089 1.81684 2.3792 1.81248 2.60837L1.81773 2.73Z" fill="#E5E5E5"/>
</g>
<defs>
<clipPath id="clip0_6780_446">
<rect width="14" height="14" fill="white" transform="translate(0.5)"/>
</clipPath>
</defs>
</svg>
