<svg width="20" height="15" viewBox="0 0 20 15" fill="none" xmlns="http://www.w3.org/2000/svg">
<path d="M10.6116 1.45357C10.4884 1.32232 10.3196 1.25 10.1429 1.25C9.96607 1.25 9.79732 1.32232 9.67411 1.45357L6.24554 5.09643C6.00179 5.35625 6.01518 5.76071 6.27232 6.00446C6.52946 6.24821 6.93661 6.23482 7.18036 5.97768L9.5 3.51339V5.75V9.17857C9.5 9.53482 9.78661 9.82143 10.1429 9.82143C10.4991 9.82143 10.7857 9.53482 10.7857 9.17857V5.75V3.51339L13.1027 5.975C13.3464 6.23482 13.7536 6.24554 14.0107 6.00179C14.2679 5.75804 14.2812 5.35089 14.0375 5.09375L10.6089 1.45089L10.6116 1.45357ZM5.64286 11.9643C5.28661 11.9643 5 12.2509 5 12.6071C5 12.9634 5.28661 13.25 5.64286 13.25H14.6429C14.9991 13.25 15.2857 12.9634 15.2857 12.6071C15.2857 12.2509 14.9991 11.9643 14.6429 11.9643H5.64286Z" fill="black"/>
</svg>
