<svg width="15" height="15" viewBox="0 0 20 15" fill="none" xmlns="http://www.w3.org/2000/svg">
<path d="M10 12.125C10.1734 12.125 10.6328 11.9563 11.1156 10.9906C11.3219 10.5758 11.5 10.0719 11.6313 9.5H8.36875C8.5 10.0719 8.67812 10.5758 8.88437 10.9906C9.36719 11.9563 9.82656 12.125 10 12.125ZM8.18359 8.375H11.8164C11.8539 8.01641 11.875 7.63906 11.875 7.25C11.875 6.86094 11.8539 6.48359 11.8164 6.125H8.18359C8.14609 6.48359 8.125 6.86094 8.125 7.25C8.125 7.63906 8.14609 8.01641 8.18359 8.375ZM8.36875 5H11.6313C11.5 4.42812 11.3219 3.92422 11.1156 3.50938C10.6328 2.54375 10.1734 2.375 10 2.375C9.82656 2.375 9.36719 2.54375 8.88437 3.50938C8.67812 3.92422 8.5 4.42812 8.36875 5ZM12.9461 6.125C12.9813 6.48828 12.9977 6.86562 12.9977 7.25C12.9977 7.63438 12.9789 8.01172 12.9461 8.375H14.7437C14.8281 8.01406 14.875 7.63672 14.875 7.25C14.875 6.86328 14.8305 6.48594 14.7437 6.125H12.9484H12.9461ZM14.3242 5C13.8227 4.03672 13.0094 3.26328 12.018 2.81094C12.3484 3.41094 12.6109 4.15859 12.782 5H14.3266H14.3242ZM7.21562 5C7.38672 4.15859 7.64922 3.41328 7.97969 2.81094C6.98828 3.26328 6.175 4.03672 5.67344 5H7.21797H7.21562ZM5.25625 6.125C5.17188 6.48594 5.125 6.86328 5.125 7.25C5.125 7.63672 5.16953 8.01406 5.25625 8.375H7.05391C7.01875 8.01172 7.00234 7.63438 7.00234 7.25C7.00234 6.86562 7.02109 6.48828 7.05391 6.125H5.25625ZM12.018 11.6891C13.0094 11.2367 13.8227 10.4633 14.3242 9.5H12.782C12.6109 10.3414 12.3484 11.0867 12.018 11.6891ZM7.98203 11.6891C7.65156 11.0891 7.38906 10.3414 7.21797 9.5H5.67344C6.175 10.4633 6.98828 11.2367 7.97969 11.6891H7.98203ZM10 13.25C8.4087 13.25 6.88258 12.6179 5.75736 11.4926C4.63214 10.3674 4 8.8413 4 7.25C4 5.6587 4.63214 4.13258 5.75736 3.00736C6.88258 1.88214 8.4087 1.25 10 1.25C11.5913 1.25 13.1174 1.88214 14.2426 3.00736C15.3679 4.13258 16 5.6587 16 7.25C16 8.8413 15.3679 10.3674 14.2426 11.4926C13.1174 12.6179 11.5913 13.25 10 13.25Z" fill="black"/>
</svg>
