<svg width="12" height="13" viewBox="0 0 12 13" fill="none" xmlns="http://www.w3.org/2000/svg">
<g clip-path="url(#clip0_4561_1966)">
<path d="M7.90484 3.5V3.875C7.90484 4.91094 7.05246 5.75 6.00008 5.75C4.9477 5.75 4.09532 4.91094 4.09532 3.875V3.5C4.09532 3.37109 4.10961 3.24688 4.13341 3.125H4.85722C5.56675 3.125 6.18818 2.74297 6.51437 2.17578C6.79294 2.525 7.22627 2.75 7.71437 2.75H7.74532C7.8477 2.97969 7.90484 3.23281 7.90484 3.5ZM2.95246 3.5V3.875C2.95246 5.53203 4.31675 6.875 6.00008 6.875C7.68341 6.875 9.0477 5.53203 9.0477 3.875V3.5C9.0477 1.84297 7.68341 0.5 6.00008 0.5C4.31675 0.5 2.95246 1.84297 2.95246 3.5ZM4.50722 8C2.3858 8 0.666748 9.69219 0.666748 11.7805C0.666748 12.1789 0.995319 12.5 1.3977 12.5H10.6025C11.0072 12.5 11.3334 12.1766 11.3334 11.7805C11.3334 9.69219 9.61437 8 7.49294 8H4.50722Z" fill="black"/>
</g>
<defs>
<clipPath id="clip0_4561_1966">
<rect width="10.6667" height="12" fill="white" transform="translate(0.666748 0.5)"/>
</clipPath>
</defs>
</svg>
