<svg width="20" height="15" viewBox="0 0 20 15" fill="none" xmlns="http://www.w3.org/2000/svg">
<path d="M4.32003 2.36442L4.94697 2.28491C5.11261 2.26343 5.26149 2.17748 5.36633 2.03996C5.46907 1.9046 5.5152 1.73485 5.49423 1.5651C5.45439 1.24065 5.18181 1 4.86939 1C4.84422 1 4.81697 1 4.7918 1.0043L4.16486 1.0838C3.01372 1.23206 2.14355 2.23979 2.14355 3.43016V11.5694C2.14355 12.7598 3.01163 13.7675 4.16486 13.9157L4.7918 13.9952C5.13987 14.0382 5.45229 13.7847 5.49423 13.4366C5.5152 13.2668 5.46907 13.0971 5.36633 12.9617C5.26358 12.8264 5.11471 12.7383 4.94697 12.7168L4.32003 12.6373C3.79583 12.5707 3.40163 12.113 3.40163 11.5715V3.43016C3.40163 2.88869 3.79583 2.43102 4.32003 2.36442Z" fill="#F6C519"/>
<path d="M7.44916 4H9.79542L9.68877 4.79H9.15553C9.29773 5.08333 9.43993 5.37333 9.58213 5.66C9.72432 5.94 9.86652 6.22333 10.0087 6.51L10.096 6.78L10.2608 6.51L11.5794 4.79H11.0461L11.1528 4H13.499L13.3924 4.79H12.5586C12.2095 5.24333 11.8638 5.69667 11.5212 6.15C11.1851 6.59667 10.8425 7.04333 10.4935 7.49C10.7197 7.95 10.9459 8.40333 11.1722 8.85C11.3984 9.29667 11.6246 9.75 11.8508 10.21H12.6555L12.5489 11H10.2026L10.3093 10.21H10.8425L9.96024 8.42C9.94085 8.37333 9.92146 8.32667 9.90207 8.28C9.88914 8.23333 9.87622 8.18667 9.86329 8.14L9.69847 8.42C9.46578 8.72 9.23633 9.02 9.0101 9.32C8.78388 9.61333 8.55766 9.91 8.33143 10.21H8.95193L8.84528 11H6.49902L6.60567 10.21H7.33282L9.47548 7.43L8.16661 4.79H7.34251L7.44916 4Z" fill="#F6C519"/>
<path d="M17.8568 3.43114C17.8568 2.24077 16.9887 1.23303 15.8354 1.08478L15.2085 1.00527C15.1833 1.00098 15.1561 1.00098 15.1309 1.00098C14.8185 1.00098 14.5459 1.23948 14.5061 1.56608C14.462 1.91847 14.7074 2.24077 15.0512 2.28589L15.6782 2.36539C16.2024 2.432 16.5966 2.88967 16.5966 3.43114V11.5704C16.5966 12.1118 16.2024 12.5695 15.6782 12.6361L15.0512 12.7156C14.8856 12.7371 14.7367 12.823 14.6319 12.9606C14.5291 13.0959 14.483 13.2657 14.504 13.4354C14.5459 13.7835 14.8562 14.0392 15.2064 13.9941L15.8333 13.9146C16.9845 13.7663 17.8547 12.7586 17.8547 11.5682V3.43114H17.8568Z" fill="#F6C519"/>
</svg>
