<svg width="11" height="13" viewBox="0 0 11 13" fill="none" xmlns="http://www.w3.org/2000/svg">
<path d="M4.18638 1.31016L3.71987 2.03125H7.28013L6.81362 1.31016C6.77679 1.2543 6.7154 1.21875 6.64911 1.21875H4.34844C4.28214 1.21875 4.22076 1.25176 4.18393 1.31016H4.18638ZM7.79576 0.634766L8.69688 2.03125H9.03571H10.2143H10.4107C10.7373 2.03125 11 2.30293 11 2.64062C11 2.97832 10.7373 3.25 10.4107 3.25H10.2143V10.9688C10.2143 12.091 9.33527 13 8.25 13H2.75C1.66473 13 0.785714 12.091 0.785714 10.9688V3.25H0.589286C0.262723 3.25 0 2.97832 0 2.64062C0 2.30293 0.262723 2.03125 0.589286 2.03125H0.785714H1.96429H2.30313L3.20424 0.632227C3.4596 0.238672 3.88929 0 4.34844 0H6.64911C7.10826 0 7.53795 0.238672 7.7933 0.632227L7.79576 0.634766ZM1.96429 3.25V10.9688C1.96429 11.4182 2.3154 11.7812 2.75 11.7812H8.25C8.6846 11.7812 9.03571 11.4182 9.03571 10.9688V3.25H1.96429ZM3.92857 4.875V10.1562C3.92857 10.3797 3.75179 10.5625 3.53571 10.5625C3.31964 10.5625 3.14286 10.3797 3.14286 10.1562V4.875C3.14286 4.65156 3.31964 4.46875 3.53571 4.46875C3.75179 4.46875 3.92857 4.65156 3.92857 4.875ZM5.89286 4.875V10.1562C5.89286 10.3797 5.71607 10.5625 5.5 10.5625C5.28393 10.5625 5.10714 10.3797 5.10714 10.1562V4.875C5.10714 4.65156 5.28393 4.46875 5.5 4.46875C5.71607 4.46875 5.89286 4.65156 5.89286 4.875ZM7.85714 4.875V10.1562C7.85714 10.3797 7.68036 10.5625 7.46429 10.5625C7.24821 10.5625 7.07143 10.3797 7.07143 10.1562V4.875C7.07143 4.65156 7.24821 4.46875 7.46429 4.46875C7.68036 4.46875 7.85714 4.65156 7.85714 4.875Z" fill="#AEAEAE"/>
</svg>
