<svg width="34" height="29" viewBox="0 0 34 29" fill="none" xmlns="http://www.w3.org/2000/svg">
<rect y="0.0410156" width="34" height="28" rx="5" fill="#555555"/>
<path fill-rule="evenodd" clip-rule="evenodd" d="M7.57441 14.7485C7.39492 14.4706 7.25003 14.2299 7.14074 14.041C7.25003 13.8521 7.39492 13.6115 7.57441 13.3335C8.03543 12.6197 8.71817 11.6704 9.60454 10.725C11.3955 8.81458 13.8995 7.04102 17 7.04102C20.1005 7.04102 22.6045 8.81458 24.3955 10.725C25.2818 11.6704 25.9646 12.6197 26.4256 13.3335C26.6051 13.6115 26.75 13.8521 26.8593 14.041C26.75 14.2299 26.6051 14.4706 26.4256 14.7485C25.9646 15.4623 25.2818 16.4116 24.3955 17.3571C22.6045 19.2675 20.1005 21.041 17 21.041C13.8995 21.041 11.3955 19.2675 9.60454 17.3571C8.71817 16.4116 8.03543 15.4623 7.57441 14.7485ZM28.8941 13.5931C28.8943 13.5935 28.8944 13.5938 28 14.041C28.8944 14.4882 28.8943 14.4886 28.8941 14.4889L28.8936 14.4898L28.8925 14.4921L28.889 14.499L28.8777 14.5212C28.8681 14.5397 28.8546 14.5657 28.8372 14.5986C28.8025 14.6643 28.752 14.7578 28.686 14.875C28.5542 15.1094 28.3601 15.4395 28.1057 15.8335C27.5979 16.6197 26.8432 17.6704 25.8545 18.725C23.8955 20.8146 20.8995 23.041 17 23.041C13.1005 23.041 10.1045 20.8146 8.14546 18.725C7.15683 17.6704 6.40207 16.6197 5.89434 15.8335C5.63985 15.4395 5.44579 15.1094 5.31397 14.875C5.24802 14.7578 5.19754 14.6643 5.16275 14.5986C5.14536 14.5657 5.13188 14.5397 5.12234 14.5212L5.11099 14.499L5.10754 14.4921L5.10637 14.4898L5.10592 14.4889C5.10574 14.4886 5.10557 14.4882 6 14.041C5.10557 13.5938 5.10574 13.5935 5.10592 13.5931L5.10637 13.5922L5.10754 13.5899L5.11099 13.5831L5.12234 13.5608C5.13188 13.5423 5.14536 13.5163 5.16275 13.4835C5.19754 13.4177 5.24802 13.3242 5.31397 13.207C5.44579 12.9727 5.63985 12.6425 5.89434 12.2485C6.40207 11.4623 7.15683 10.4116 8.14546 9.35707C10.1045 7.26746 13.1005 5.04102 17 5.04102C20.8995 5.04102 23.8955 7.26746 25.8545 9.35707C26.8432 10.4116 27.5979 11.4623 28.1057 12.2485C28.3601 12.6425 28.5542 12.9727 28.686 13.207C28.752 13.3242 28.8025 13.4177 28.8372 13.4835C28.8546 13.5163 28.8681 13.5423 28.8777 13.5608L28.889 13.5831L28.8925 13.5899L28.8936 13.5922L28.8941 13.5931ZM28 14.041L28.8944 13.5938C29.0352 13.8753 29.0352 14.2067 28.8944 14.4882L28 14.041ZM5.10557 13.5938L6 14.041L5.10557 14.4882C4.96481 14.2067 4.96481 13.8753 5.10557 13.5938ZM15 14.041C15 12.9364 15.8954 12.041 17 12.041C18.1046 12.041 19 12.9364 19 14.041C19 15.1456 18.1046 16.041 17 16.041C15.8954 16.041 15 15.1456 15 14.041ZM17 10.041C14.7909 10.041 13 11.8319 13 14.041C13 16.2502 14.7909 18.041 17 18.041C19.2091 18.041 21 16.2502 21 14.041C21 11.8319 19.2091 10.041 17 10.041Z" fill="white"/>
</svg>
