<svg width="18" height="20" viewBox="0 0 18 11" fill="none" xmlns="http://www.w3.org/2000/svg">
    <path
        d="M8.57019 0C9.04564 0 9.48425 0.251116 9.72533 0.662946L16.9575 12.9844C17.2019 13.3996 17.2019 13.9118 16.9642 14.327C16.7264 14.7422 16.2811 15 15.8023 15H1.33805C0.859255 15 0.413943 14.7422 0.17622 14.327C-0.0615037 13.9118 -0.0581555 13.3962 0.182916 12.9844L7.41506 0.662946C7.65613 0.251116 8.09475 0 8.57019 0ZM8.57019 4.28571C8.12488 4.28571 7.76662 4.64397 7.76662 5.08929V8.83928C7.76662 9.2846 8.12488 9.64286 8.57019 9.64286C9.0155 9.64286 9.37376 9.2846 9.37376 8.83928V5.08929C9.37376 4.64397 9.0155 4.28571 8.57019 4.28571ZM9.64162 11.7857C9.64162 11.5016 9.52874 11.229 9.32781 11.0281C9.12687 10.8272 8.85435 10.7143 8.57019 10.7143C8.28603 10.7143 8.01351 10.8272 7.81258 11.0281C7.61165 11.229 7.49876 11.5016 7.49876 11.7857C7.49876 12.0699 7.61165 12.3424 7.81258 12.5433C8.01351 12.7443 8.28603 12.8571 8.57019 12.8571C8.85435 12.8571 9.12687 12.7443 9.32781 12.5433C9.52874 12.3424 9.64162 12.0699 9.64162 11.7857Z"
        fill="#FF9A33" />
</svg>