<svg width="24" height="25" viewBox="0 0 24 25" fill="none" xmlns="http://www.w3.org/2000/svg">
    <path d="M10.2898 4.3602L1.81978 18.5002C1.64514 18.8026 1.55274 19.1455 1.55177 19.4947C1.55079 19.8439 1.64127 20.1873 1.8142 20.4907C1.98714 20.7941 2.2365 21.047 2.53748 21.2241C2.83847 21.4012 3.18058 21.4964 3.52978 21.5002H20.4698C20.819 21.4964 21.1611 21.4012 21.4621 21.2241C21.7631 21.047 22.0124 20.7941 22.1854 20.4907C22.3583 20.1873 22.4488 19.8439 22.4478 19.4947C22.4468 19.1455 22.3544 18.8026 22.1798 18.5002L13.7098 4.3602C13.5315 4.06631 13.2805 3.82332 12.981 3.65469C12.6814 3.48605 12.3435 3.39746 11.9998 3.39746C11.656 3.39746 11.3181 3.48605 11.0186 3.65469C10.7191 3.82332 10.468 4.06631 10.2898 4.3602Z" stroke="#DBBF7E" stroke-width="2" stroke-linecap="round" stroke-linejoin="round"/>
    <path d="M12 9.5V13.5" stroke="#DBBF7E" stroke-width="2" stroke-linecap="round" stroke-linejoin="round"/>
    <path d="M12 17.5H12.01" stroke="#DBBF7E" stroke-width="2" stroke-linecap="round" stroke-linejoin="round"/>
</svg>