<svg width="14" height="13" viewBox="0 0 14 13" fill="none" xmlns="http://www.w3.org/2000/svg">
<path d="M7.27498 0H7.29066L7.44742 0.0325C7.79229 0.0758333 8.12933 0.176042 8.45852 0.333125C8.78772 0.490208 9.07773 0.69875 9.32854 0.95875C9.75702 1.35958 10.0549 1.8525 10.2221 2.4375C10.3161 2.7625 10.3579 3.10375 10.3475 3.46125C10.337 3.81875 10.2743 4.16 10.1594 4.485C9.98171 4.9725 9.70999 5.395 9.34422 5.7525L9.14043 5.9475L10.4415 8.14125C10.7133 8.13042 10.9484 8.16833 11.147 8.255C11.4605 8.39583 11.6956 8.6125 11.8524 8.905C11.9255 9.0675 11.9726 9.23542 11.9935 9.40875C12.0144 9.58208 12.0039 9.75542 11.9621 9.92875C11.8785 10.2537 11.7061 10.5138 11.4448 10.7087C11.288 10.8171 11.1156 10.8956 10.9275 10.9444C10.7394 10.9931 10.5513 11.004 10.3632 10.9769C10.175 10.9498 9.99477 10.8821 9.82234 10.7737C9.6499 10.6654 9.50621 10.53 9.39125 10.3675C9.26584 10.1833 9.19007 9.97208 9.16395 9.73375C9.13782 9.49542 9.16656 9.27333 9.25016 9.0675C9.26061 9.01333 9.29719 8.9375 9.3599 8.84L9.40692 8.7425L7.55715 5.6225C7.49445 5.525 7.45265 5.44917 7.43174 5.395L7.5885 5.34625C7.68256 5.32458 7.75049 5.30292 7.79229 5.28125C8.03266 5.17292 8.24951 5.02396 8.44285 4.83437C8.63619 4.64479 8.78511 4.43083 8.88961 4.1925C9.06728 3.8025 9.1143 3.39625 9.0307 2.97375C8.9889 2.72458 8.90007 2.49167 8.76421 2.275C8.62835 2.05833 8.46636 1.87417 8.27825 1.7225C7.89157 1.43 7.4631 1.28375 6.99282 1.28375C6.71065 1.27292 6.43632 1.32437 6.16982 1.43812C5.90333 1.55187 5.6708 1.71708 5.47224 1.93375C5.29458 2.10708 5.15611 2.31562 5.05683 2.55937C4.95754 2.80312 4.90268 3.04958 4.89223 3.29875C4.89223 3.48292 4.92358 3.71042 4.98628 3.98125L3.88896 4.29L3.76355 4.30625C3.61724 3.84042 3.58067 3.37458 3.65382 2.90875C3.69562 2.55125 3.79752 2.20729 3.9595 1.87687C4.12149 1.54646 4.32789 1.25667 4.57871 1.0075C5.01764 0.5525 5.55585 0.249167 6.19334 0.0975C6.25604 0.0758333 6.3501 0.0541667 6.47551 0.0325L6.69497 0H7.27498ZM6.99282 2.015C7.17048 2.015 7.34814 2.05292 7.5258 2.12875C7.70346 2.20458 7.86283 2.31562 8.00392 2.46187C8.145 2.60812 8.2469 2.77875 8.3096 2.97375C8.39321 3.19042 8.41411 3.42875 8.37231 3.68875C8.34095 3.88375 8.2678 4.06792 8.15284 4.24125C8.03788 4.41458 7.89157 4.55 7.71391 4.6475C7.4631 4.81 7.17048 4.88042 6.83605 4.85875C6.8047 4.90208 6.77858 4.94542 6.75767 4.98875L5.00196 8.0925C4.97061 8.1575 4.93925 8.20625 4.9079 8.23875C4.62573 7.95708 4.32005 7.76479 3.99086 7.66187C3.66166 7.55896 3.32201 7.54 2.97191 7.605C2.62182 7.67 2.31613 7.81083 2.05487 8.0275C1.72044 8.29833 1.49314 8.63146 1.37296 9.02687C1.25278 9.42229 1.25016 9.82042 1.36512 10.2212C1.44873 10.5246 1.59765 10.7954 1.81189 11.0337C2.02613 11.2721 2.27956 11.4508 2.57218 11.57C2.89615 11.7108 3.24363 11.7569 3.61463 11.7081C3.98563 11.6594 4.31744 11.5267 4.61006 11.31C4.65186 11.2775 4.71979 11.2233 4.81385 11.1475L4.89223 11.05C4.93403 11.0825 4.99151 11.1367 5.06466 11.2125L5.80144 11.96C5.56107 12.2092 5.28935 12.4177 4.98628 12.5856C4.68321 12.7535 4.36447 12.87 4.03005 12.935L3.68517 13H3.07381L2.63488 12.9187C1.96603 12.7779 1.39125 12.4529 0.910516 11.9437C0.680601 11.7054 0.489876 11.4319 0.338341 11.1231C0.186806 10.8144 0.0849113 10.4921 0.0326586 10.1562C-0.0195951 9.76625 -0.00914478 9.37896 0.0640106 8.99437C0.137165 8.60979 0.267798 8.26042 0.455911 7.94625C0.644023 7.63208 0.873939 7.35583 1.14566 7.1175C1.41737 6.87917 1.71522 6.68958 2.03919 6.54875C2.39451 6.39708 2.7629 6.31042 3.14435 6.28875C3.5258 6.26708 3.89941 6.305 4.26519 6.4025L4.53168 6.48375L5.80144 4.2575C5.66558 4.05167 5.58197 3.85125 5.55062 3.65625C5.49837 3.30958 5.5663 2.98458 5.75441 2.68125C5.92162 2.41042 6.15154 2.22083 6.44415 2.1125C6.62182 2.0475 6.8047 2.015 6.99282 2.015ZM11.4135 6.305C12.0196 6.44583 12.5421 6.73292 12.9811 7.16625C13.4722 7.64292 13.791 8.21167 13.9373 8.8725L14 9.2625V9.86375L13.9686 10.0425C13.9477 10.1833 13.9268 10.2917 13.9059 10.3675C13.8328 10.7033 13.7048 11.0229 13.5219 11.3262C13.339 11.6296 13.1169 11.895 12.8556 12.1225C12.3331 12.5667 11.7322 12.8321 11.0529 12.9187C10.6558 12.9621 10.2587 12.9377 9.86153 12.8456C9.4644 12.7535 9.09863 12.5992 8.76421 12.3825C8.21032 12.0142 7.80274 11.5212 7.54148 10.9037C7.46832 10.7196 7.39517 10.4758 7.32201 10.1725C7.25931 10.1617 7.16525 10.1617 7.03984 10.1725L5.08034 10.205C4.93403 10.205 4.82952 10.2104 4.76682 10.2212C4.65186 10.4379 4.52123 10.6058 4.37492 10.725C4.22861 10.8442 4.06401 10.9308 3.88112 10.985C3.69824 11.0392 3.51274 11.0608 3.32462 11.05C3.03201 11.0175 2.77074 10.9092 2.54082 10.725C2.25865 10.4975 2.09144 10.205 2.03919 9.8475C2.01829 9.66333 2.02613 9.48458 2.0627 9.31125C2.09928 9.13792 2.16982 8.97542 2.27433 8.82375C2.44154 8.58542 2.65578 8.41208 2.91705 8.30375C3.09471 8.22792 3.28021 8.19271 3.47355 8.19812C3.66688 8.20354 3.85238 8.24417 4.03005 8.32C4.32266 8.45 4.54735 8.65042 4.70411 8.92125L4.75114 9.01875C4.89745 9.01875 5.11692 9.01333 5.40954 9.0025L7.18093 8.98625C7.33769 8.97542 7.56238 8.97 7.855 8.97L8.6388 8.95375L8.59177 9.23C8.50816 9.69583 8.57609 10.1346 8.79556 10.5462C8.94187 10.8387 9.15088 11.0825 9.4226 11.2775C9.69432 11.4725 9.99216 11.5917 10.3161 11.635C10.6819 11.7 11.0477 11.6594 11.4135 11.5131C11.7792 11.3669 12.0771 11.1367 12.307 10.8225C12.5996 10.4433 12.7407 10.0154 12.7302 9.53875C12.7198 9.13792 12.5996 8.76417 12.3697 8.4175C12.2338 8.21167 12.0666 8.03833 11.8681 7.8975C11.6695 7.75667 11.4553 7.65375 11.2253 7.58875L11.0843 7.54L11.4135 6.305Z" fill="black"/>
</svg>
