<svg width="16" height="16" viewBox="0 0 16 16" fill="none" xmlns="http://www.w3.org/2000/svg">
<path d="M3.99307 2.5H7.68006L7.51247 3.74143H6.67452C6.89797 4.20238 7.12142 4.6581 7.34487 5.10857C7.56833 5.54857 7.79178 5.99381 8.01524 6.44429L8.15235 6.86857L8.41136 6.44429L10.4834 3.74143H9.64543L9.81302 2.5H13.5L13.3324 3.74143H12.0222C11.4737 4.45381 10.9303 5.16619 10.392 5.87857C9.8638 6.58048 9.32548 7.28238 8.77701 7.98429C9.1325 8.70714 9.488 9.41952 9.84349 10.1214C10.199 10.8233 10.5545 11.5357 10.91 12.2586H12.1745L12.0069 13.5H8.31994L8.48753 12.2586H9.32548L7.93906 9.44571C7.90859 9.37238 7.87812 9.29905 7.84764 9.22571C7.82733 9.15238 7.80702 9.07905 7.7867 9.00571L7.5277 9.44571C7.16205 9.91714 6.80148 10.3886 6.44598 10.86C6.09049 11.321 5.735 11.7871 5.3795 12.2586H6.35457L6.18698 13.5H2.5L2.66759 12.2586H3.81025L7.17729 7.89L5.1205 3.74143H3.82548L3.99307 2.5Z" fill="#454C54"/>
</svg>
