<svg width="13" height="13" viewBox="0 0 13 13" fill="none" xmlns="http://www.w3.org/2000/svg">
<path d="M11.4437 9.08208V8.99541C11.4441 7.44235 10.1867 6.18398 8.63364 6.18351C7.76786 6.18328 7.05622 5.53231 6.95924 4.69276V4.50279V4.41612C7.72054 4.17742 8.27126 3.46789 8.27173 2.62928C8.27196 1.91577 7.87374 1.29548 7.28742 0.97878C7.02014 0.831907 6.71328 0.748047 6.38674 0.748047C5.35137 0.747579 4.51253 1.58595 4.51206 2.62132C4.51183 3.33109 4.90607 3.9488 5.48864 4.26667C5.59428 4.32523 5.70625 4.37395 5.82314 4.41167V4.49576V4.69862C5.7257 5.53816 5.01359 6.18867 4.14781 6.1882H4.12439C2.57133 6.18773 1.31295 7.44517 1.31249 8.99822V9.08489C0.550949 9.32359 0.000234443 10.0331 1.96255e-07 10.8717C-0.000468298 11.9071 0.837901 12.7459 1.87327 12.7464C2.90864 12.7469 3.74748 11.9085 3.74795 10.8731C3.74818 10.0345 3.19794 9.32453 2.43687 9.08536V8.99869C2.43734 8.06639 3.19185 7.31235 4.12415 7.31282H4.14758C4.77489 7.31282 5.35371 7.10808 5.82268 6.75976L5.82174 9.08021C5.06044 9.31891 4.50972 10.0284 4.50925 10.867C4.50902 11.5806 4.90724 12.2008 5.49356 12.5175C5.76083 12.6644 6.0677 12.748 6.39424 12.748C7.42961 12.7485 8.26845 11.9101 8.26892 10.8748C8.26915 10.165 7.87491 9.5473 7.29234 9.22942C7.18669 9.17086 7.07472 9.12214 6.95784 9.08442L6.95877 6.75343C7.4275 7.10199 8.00609 7.30766 8.6334 7.30766C9.56571 7.3079 10.3197 8.06264 10.3193 8.99494V9.08161C9.55798 9.32031 9.00703 10.0298 9.00679 10.8684C9.00632 11.9038 9.84469 12.7427 10.8801 12.7431C11.9154 12.7436 12.7543 11.9052 12.7547 10.8699C12.755 10.0313 12.2047 9.32125 11.4437 9.08208ZM2.62357 10.8727C2.62357 11.2866 2.28766 11.622 1.87374 11.622C1.45983 11.622 1.12439 11.2861 1.12439 10.8722C1.12439 10.4583 1.4603 10.1228 1.87421 10.1228C2.28812 10.1228 2.62357 10.4588 2.62357 10.8727ZM7.13563 2.62226C7.13563 3.03617 6.79972 3.37161 6.3858 3.37161C6.25814 3.37161 6.13821 3.33952 6.03303 3.2833C5.80347 3.15517 5.64816 2.90991 5.64816 2.62811C5.64816 2.2142 5.98407 1.87876 6.39799 1.87876C6.52565 1.87876 6.64558 1.91085 6.75076 1.96707C6.98032 2.0952 7.13563 2.34046 7.13563 2.62226ZM5.64535 10.8736C5.64535 10.4597 5.98126 10.1242 6.39517 10.1242C6.52284 10.1242 6.64277 10.1563 6.74795 10.2126C6.97751 10.3407 7.13282 10.5859 7.13282 10.8677C7.13282 11.2817 6.79691 11.6171 6.38299 11.6171C6.25533 11.6171 6.13539 11.585 6.03022 11.5288C5.80066 11.4007 5.64535 11.1554 5.64535 10.8736ZM10.8805 11.6187C10.4666 11.6187 10.1312 11.2828 10.1312 10.8689C10.1312 10.455 10.4671 10.1196 10.881 10.1196C11.2949 10.1196 11.6304 10.4555 11.6304 10.8694C11.6304 11.2833 11.2944 11.6187 10.8805 11.6187Z" fill="#F6C519"/>
</svg>
