<svg width="20" height="15" viewBox="0 0 20 15" fill="none" xmlns="http://www.w3.org/2000/svg">
    <g clip-path="url(#clip0_4200_20523)">
        <path
            d="M11.9051 4.5V4.875C11.9051 5.91094 11.0527 6.75 10.0003 6.75C8.94794 6.75 8.09556 5.91094 8.09556 4.875V4.5C8.09556 4.37109 8.10985 4.24688 8.13366 4.125H8.85747C9.56699 4.125 10.1884 3.74297 10.5146 3.17578C10.7932 3.525 11.2265 3.75 11.7146 3.75H11.7456C11.8479 3.97969 11.9051 4.23281 11.9051 4.5ZM6.95271 4.5V4.875C6.95271 6.53203 8.31699 7.875 10.0003 7.875C11.6837 7.875 13.0479 6.53203 13.0479 4.875V4.5C13.0479 2.84297 11.6837 1.5 10.0003 1.5C8.31699 1.5 6.95271 2.84297 6.95271 4.5ZM8.50747 9C6.38604 9 4.66699 10.6922 4.66699 12.7805C4.66699 13.1789 4.99556 13.5 5.39794 13.5H14.6027C15.0075 13.5 15.3337 13.1766 15.3337 12.7805C15.3337 10.6922 13.6146 9 11.4932 9H8.50747Z"
            fill="#AEAEAE" />
    </g>
    <defs>
        <clipPath id="clip0_4200_20523">
            <rect width="10.6667" height="12" fill="white" transform="translate(4.66699 1.5)" />
        </clipPath>
    </defs>
</svg>