<svg width="20" height="20" viewBox="0 0 20 20" fill="none" xmlns="http://www.w3.org/2000/svg">
    <g clip-path="url(#clip0_4200_20051)">
        <path
            d="M12.7269 5.94922C12.7777 6.12891 12.9418 6.25 13.1254 6.25C13.309 6.25 13.473 6.12891 13.5238 5.94922L14.0629 4.0625L15.9496 3.52344C16.1293 3.47266 16.2504 3.30859 16.2504 3.125C16.2504 2.94141 16.1293 2.77734 15.9496 2.72656L14.0629 2.1875L13.5238 0.300781C13.473 0.121094 13.309 0 13.1254 0C12.9418 0 12.7777 0.121094 12.7269 0.300781L12.1879 2.1875L10.3011 2.72656C10.1215 2.77734 10.0004 2.94141 10.0004 3.125C10.0004 3.30859 10.1215 3.47266 10.3011 3.52344L12.1879 4.0625L12.7269 5.94922ZM8.33629 6.14844C7.99254 5.44922 6.99645 5.44922 6.6527 6.14844L4.84411 9.82031L0.801139 10.4102C0.0355137 10.5195 -0.27308 11.4648 0.281607 12.0078L3.20739 14.8672L2.51989 18.9023C2.38708 19.668 3.19176 20.2539 3.87926 19.8906L7.49645 17.9844L11.1136 19.8906C11.8011 20.2539 12.6058 19.668 12.473 18.9023L11.7816 14.8672L14.7074 12.0078C15.2621 11.4648 14.9574 10.5195 14.1879 10.4102L10.1449 9.82031L8.33629 6.14844ZM16.7504 9.5L17.18 11.0078C17.2191 11.1484 17.3519 11.25 17.5004 11.25C17.6488 11.25 17.7777 11.1523 17.8207 11.0078L18.2504 9.5L19.7582 9.07031C19.8988 9.03125 20.0004 8.89844 20.0004 8.75C20.0004 8.60156 19.9027 8.47266 19.7582 8.42969L18.2504 8L17.8207 6.49219C17.7816 6.35156 17.6488 6.25 17.5004 6.25C17.3519 6.25 17.223 6.34766 17.18 6.49219L16.7504 8L15.2425 8.42969C15.1019 8.46875 15.0004 8.60156 15.0004 8.75C15.0004 8.89844 15.098 9.02734 15.2425 9.07031L16.7504 9.5Z"
            fill="white" />
    </g>
    <defs>
        <clipPath id="clip0_4200_20051">
            <rect width="20" height="20" fill="white" />
        </clipPath>
    </defs>
</svg>