<svg width="20" height="15" viewBox="0 0 20 15" fill="none" xmlns="http://www.w3.org/2000/svg">
<path d="M9.14286 2.78571C9.14286 2.07589 8.56696 1.5 7.85714 1.5H5.28571C4.57589 1.5 4 2.07589 4 2.78571V5.35714C4 6.06696 4.57589 6.64286 5.28571 6.64286H7.85714C8.56696 6.64286 9.14286 6.06696 9.14286 5.35714V2.78571ZM9.14286 9.64286C9.14286 8.93304 8.56696 8.35714 7.85714 8.35714H5.28571C4.57589 8.35714 4 8.93304 4 9.64286V12.2143C4 12.9241 4.57589 13.5 5.28571 13.5H7.85714C8.56696 13.5 9.14286 12.9241 9.14286 12.2143V9.64286ZM10.8571 2.78571V5.35714C10.8571 6.06696 11.433 6.64286 12.1429 6.64286H14.7143C15.4241 6.64286 16 6.06696 16 5.35714V2.78571C16 2.07589 15.4241 1.5 14.7143 1.5H12.1429C11.433 1.5 10.8571 2.07589 10.8571 2.78571ZM16 9.64286C16 8.93304 15.4241 8.35714 14.7143 8.35714H12.1429C11.433 8.35714 10.8571 8.93304 10.8571 9.64286V12.2143C10.8571 12.9241 11.433 13.5 12.1429 13.5H14.7143C15.4241 13.5 16 12.9241 16 12.2143V9.64286Z" fill="#AEAEAE"/>
</svg>
