<svg width="20" height="15" viewBox="0 0 20 15" fill="none" xmlns="http://www.w3.org/2000/svg">
    <path
        d="M16.0004 2.78571C16.2361 2.78571 16.429 2.97857 16.429 3.21429V4.07143H3.57185V3.21429C3.57185 2.97857 3.7647 2.78571 4.00042 2.78571H16.0004ZM16.429 6.64286V11.7857C16.429 12.0214 16.2361 12.2143 16.0004 12.2143H4.00042C3.7647 12.2143 3.57185 12.0214 3.57185 11.7857V6.64286H16.429ZM4.00042 1.5C3.05488 1.5 2.28613 2.26875 2.28613 3.21429V11.7857C2.28613 12.7312 3.05488 13.5 4.00042 13.5H16.0004C16.946 13.5 17.7147 12.7312 17.7147 11.7857V3.21429C17.7147 2.26875 16.946 1.5 16.0004 1.5H4.00042ZM5.50042 9.64286C5.14417 9.64286 4.85756 9.92946 4.85756 10.2857C4.85756 10.642 5.14417 10.9286 5.50042 10.9286H6.78613C7.14238 10.9286 7.42899 10.642 7.42899 10.2857C7.42899 9.92946 7.14238 9.64286 6.78613 9.64286H5.50042ZM8.92899 9.64286C8.57274 9.64286 8.28613 9.92946 8.28613 10.2857C8.28613 10.642 8.57274 10.9286 8.92899 10.9286H11.929C12.2852 10.9286 12.5718 10.642 12.5718 10.2857C12.5718 9.92946 12.2852 9.64286 11.929 9.64286H8.92899Z"
        fill="#A7A7A7" />
</svg>