<svg width="16" height="16" viewBox="0 0 16 16" fill="none" xmlns="http://www.w3.org/2000/svg">
<g clip-path="url(#clip0_10521_9942)">
<path d="M11.3327 14V12.6667C11.3327 11.9594 11.0517 11.2811 10.5516 10.781C10.0515 10.281 9.37326 10 8.66602 10H3.33268C2.62544 10 1.94716 10.281 1.44706 10.781C0.946967 11.2811 0.666016 11.9594 0.666016 12.6667V14" stroke="#454C54" stroke-width="2" stroke-linecap="round" stroke-linejoin="round"/>
<path d="M6.00065 7.33333C7.47341 7.33333 8.66732 6.13943 8.66732 4.66667C8.66732 3.19391 7.47341 2 6.00065 2C4.52789 2 3.33398 3.19391 3.33398 4.66667C3.33398 6.13943 4.52789 7.33333 6.00065 7.33333Z" stroke="#454C54" stroke-width="2" stroke-linecap="round" stroke-linejoin="round"/>
<path d="M15.334 13.9993V12.6659C15.3335 12.0751 15.1369 11.5011 14.7749 11.0341C14.4129 10.5672 13.9061 10.2336 13.334 10.0859" stroke="#454C54" stroke-width="2" stroke-linecap="round" stroke-linejoin="round"/>
<path d="M10.666 2.08594C11.2396 2.2328 11.748 2.5664 12.1111 3.03414C12.4742 3.50188 12.6712 4.07716 12.6712 4.66927C12.6712 5.26138 12.4742 5.83666 12.1111 6.3044C11.748 6.77214 11.2396 7.10574 10.666 7.2526" stroke="#454C54" stroke-width="2" stroke-linecap="round" stroke-linejoin="round"/>
</g>
<defs>
<clipPath id="clip0_10521_9942">
<rect width="16" height="16" fill="white"/>
</clipPath>
</defs>
</svg>
