<svg width="20" height="15" viewBox="0 0 20 15" fill="none" xmlns="http://www.w3.org/2000/svg">
    <path
        d="M14.7143 1.5C15.4241 1.5 16 2.07589 16 2.78571V7.07143C16 7.78125 15.4241 8.35714 14.7143 8.35714H12.1429C11.433 8.35714 10.8571 7.78125 10.8571 7.07143V2.78571C10.8571 2.07589 11.433 1.5 12.1429 1.5H14.7143ZM7.85714 6.64286C8.56696 6.64286 9.14286 7.21875 9.14286 7.92857V12.2143C9.14286 12.9241 8.56696 13.5 7.85714 13.5H5.28571C4.57589 13.5 4 12.9241 4 12.2143V7.92857C4 7.21875 4.57589 6.64286 5.28571 6.64286H7.85714ZM16 11.3571V12.2143C16 12.9241 15.4241 13.5 14.7143 13.5H12.1429C11.433 13.5 10.8571 12.9241 10.8571 12.2143V11.3571C10.8571 10.6473 11.433 10.0714 12.1429 10.0714H14.7143C15.4241 10.0714 16 10.6473 16 11.3571ZM7.85714 1.5C8.56696 1.5 9.14286 2.07589 9.14286 2.78571V3.64286C9.14286 4.35268 8.56696 4.92857 7.85714 4.92857H5.28571C4.57589 4.92857 4 4.35268 4 3.64286V2.78571C4 2.07589 4.57589 1.5 5.28571 1.5H7.85714Z"
        fill="#AEAEAE" />
</svg>