<svg width="20" height="15" viewBox="0 0 20 15" fill="none" xmlns="http://www.w3.org/2000/svg">
    <path
        d="M12.6249 1.5C12.21 1.5 11.8749 1.83516 11.8749 2.25C11.8749 2.66484 12.21 3 12.6249 3H13.2999L10.7358 5.05078L8.19989 3.15C7.92567 2.94375 7.54833 2.95078 7.28114 3.16406L3.53114 6.16406C3.2077 6.42188 3.15614 6.89531 3.41395 7.21875C3.67177 7.54219 4.1452 7.59375 4.46864 7.33594L7.76395 4.69922L10.2999 6.6C10.5741 6.80625 10.9515 6.79922 11.2186 6.58594L14.4999 3.96094V4.875C14.4999 5.28984 14.835 5.625 15.2499 5.625C15.6647 5.625 15.9999 5.28984 15.9999 4.875V2.25C15.9999 1.83516 15.6647 1.5 15.2499 1.5H12.6249ZM7.74989 6.75C7.33505 6.75 6.99989 7.08516 6.99989 7.5V12C6.99989 12.4148 7.33505 12.75 7.74989 12.75C8.16473 12.75 8.49989 12.4148 8.49989 12V7.5C8.49989 7.08516 8.16473 6.75 7.74989 6.75ZM4.74989 9C4.33505 9 3.99989 9.33516 3.99989 9.75V12C3.99989 12.4148 4.33505 12.75 4.74989 12.75C5.16474 12.75 5.49989 12.4148 5.49989 12V9.75C5.49989 9.33516 5.16474 9 4.74989 9ZM13.3749 13.5C14.27 13.5 15.1284 13.1444 15.7614 12.5115C16.3943 11.8785 16.7499 11.0201 16.7499 10.125C16.7499 9.22989 16.3943 8.37145 15.7614 7.73851C15.1284 7.10558 14.27 6.75 13.3749 6.75C12.4798 6.75 11.6213 7.10558 10.9884 7.73851C10.3555 8.37145 9.99989 9.22989 9.99989 10.125C9.99989 11.0201 10.3555 11.8785 10.9884 12.5115C11.6213 13.1444 12.4798 13.5 13.3749 13.5ZM12.8147 9.44531V9.44766C12.8147 9.45703 12.8147 9.49219 12.9272 9.55313C13.0585 9.62344 13.2436 9.675 13.4874 9.74531H13.4921C13.71 9.80625 13.9866 9.88594 14.2069 10.0148C14.446 10.1555 14.6757 10.3922 14.6874 10.7719C14.6991 11.1984 14.46 11.4844 14.1788 11.6367C14.0429 11.7094 13.8952 11.7563 13.7499 11.782V12.0352C13.7499 12.2414 13.5811 12.4102 13.3749 12.4102C13.1686 12.4102 12.9999 12.2414 12.9999 12.0352V11.768C12.7983 11.7281 12.6085 11.6672 12.4444 11.6133C12.4046 11.5992 12.3647 11.5875 12.3272 11.5758C12.1304 11.5148 12.0179 11.3039 12.0811 11.107C12.1444 10.9102 12.353 10.7977 12.5499 10.8609C12.5968 10.875 12.6413 10.8891 12.6858 10.9031C12.953 10.9875 13.164 11.0555 13.3866 11.0625C13.5436 11.0672 13.71 11.0367 13.8202 10.9781C13.8718 10.95 13.8999 10.9219 13.914 10.9008C13.9257 10.882 13.9397 10.8516 13.9374 10.7953C13.9374 10.7625 13.9327 10.725 13.8272 10.6641C13.703 10.5914 13.5249 10.5375 13.2835 10.4695L13.2413 10.4578C13.0327 10.3992 12.7772 10.3266 12.571 10.2164C12.339 10.0922 12.0882 9.87188 12.0647 9.49688C12.0366 9.05625 12.2991 8.77266 12.5757 8.625C12.7093 8.55234 12.8569 8.50547 12.9975 8.47734V8.25C12.9975 8.04375 13.1663 7.875 13.3725 7.875C13.5788 7.875 13.7475 8.04375 13.7475 8.25V8.47031C13.8952 8.49141 14.0358 8.52422 14.1671 8.55703C14.3686 8.60625 14.4905 8.81016 14.4413 9.01172C14.3921 9.21328 14.1882 9.33516 13.9866 9.28594C13.7686 9.23203 13.56 9.19219 13.3679 9.18984C13.2225 9.1875 13.0491 9.22031 12.9296 9.28359C12.8733 9.31406 12.8452 9.34219 12.8311 9.36328C12.8218 9.37969 12.81 9.40078 12.8124 9.44766L12.8147 9.44531Z"
        fill="#AEAEAE" />
</svg>