<svg width="20" height="15" viewBox="0 0 20 15" fill="none" xmlns="http://www.w3.org/2000/svg">
    <path
        d="M10.1822 0C10.6802 0 11.1665 0.0498047 11.6412 0.140625C11.8726 0.18457 12.2798 0.319336 12.5025 0.729492C12.5611 0.837891 12.608 0.952148 12.6372 1.0752L12.9097 2.20312C12.9507 2.37305 13.2378 2.54004 13.4048 2.49023L14.5181 2.16211C14.6353 2.12695 14.7554 2.10938 14.8755 2.10645C15.3472 2.0918 15.6665 2.38184 15.8218 2.55762C16.4693 3.29297 16.9673 4.15723 17.2837 5.08594C17.3599 5.30859 17.4478 5.72461 17.2046 6.12305C17.1402 6.22852 17.0611 6.32812 16.9703 6.41602L16.1294 7.21582C16.0064 7.33301 16.0064 7.66992 16.1294 7.78711L16.9703 8.58691C17.0611 8.6748 17.1402 8.77441 17.2046 8.87988C17.4449 9.27832 17.357 9.69434 17.2837 9.91699C16.9673 10.8457 16.4693 11.707 15.8218 12.4453C15.6665 12.6211 15.3443 12.9111 14.8755 12.8965C14.7554 12.8936 14.6353 12.873 14.5181 12.8408L13.4048 12.5098C13.2378 12.46 12.9507 12.627 12.9097 12.7969L12.6372 13.9248C12.608 14.0479 12.5611 14.165 12.5025 14.2705C12.2769 14.6807 11.8697 14.8125 11.6412 14.8594C11.1665 14.9502 10.6802 15 10.1822 15C9.68412 15 9.19779 14.9502 8.72319 14.8594C8.49174 14.8154 8.08451 14.6807 7.86186 14.2705C7.80326 14.1621 7.75639 14.0479 7.72709 13.9248L7.45463 12.7969C7.41361 12.627 7.12651 12.46 6.95951 12.5098L5.84623 12.8379C5.72904 12.873 5.60893 12.8906 5.48881 12.8936C5.01713 12.9082 4.69779 12.6182 4.54252 12.4424C3.89799 11.707 3.39701 10.8428 3.08061 9.91406C3.00443 9.69141 2.91654 9.27539 3.15971 8.87695C3.22416 8.77148 3.30326 8.67188 3.39408 8.58398L4.2349 7.78418C4.35795 7.66699 4.35795 7.33008 4.2349 7.21289L3.39115 6.41309C3.30033 6.3252 3.22123 6.22559 3.15678 6.12012C2.91654 5.72168 3.00443 5.30566 3.08061 5.08594C3.39701 4.15723 3.89506 3.2959 4.54252 2.55762C4.69779 2.38184 5.02006 2.0918 5.48881 2.10645C5.60893 2.10938 5.72904 2.12988 5.84623 2.16211L6.95951 2.49023C7.12651 2.54004 7.41361 2.37305 7.45463 2.20312L7.72709 1.0752C7.75639 0.952148 7.80326 0.834961 7.86186 0.729492C8.08744 0.319336 8.49467 0.1875 8.72319 0.140625C9.19779 0.0498047 9.68412 0 10.1822 0ZM9.07182 1.50586L8.82279 2.53418C8.59428 3.48047 7.49565 4.11328 6.56108 3.84082L5.55033 3.54199C5.06694 4.10742 4.68608 4.76367 4.43705 5.4668L5.20463 6.19629C5.90776 6.86426 5.90776 8.13574 5.20463 8.80371L4.43705 9.5332C4.68608 10.2363 5.06694 10.8926 5.55033 11.458L6.56401 11.1592C7.49565 10.8838 8.59721 11.5195 8.82572 12.4658L9.07475 13.4941C9.79545 13.626 10.5777 13.626 11.2984 13.4941L11.5474 12.4658C11.7759 11.5195 12.8746 10.8867 13.8091 11.1592L14.8228 11.458C15.3062 10.8926 15.6871 10.2363 15.9361 9.5332L15.1685 8.80371C14.4654 8.13574 14.4654 6.86426 15.1685 6.19629L15.9361 5.4668C15.6871 4.76367 15.3062 4.10742 14.8228 3.54199L13.8091 3.84082C12.8775 4.11621 11.7759 3.48047 11.5474 2.53418L11.2984 1.50586C10.5777 1.37402 9.79545 1.37402 9.07475 1.50586H9.07182ZM8.77592 7.5C8.77592 7.87296 8.92408 8.23065 9.1878 8.49437C9.45152 8.75809 9.80921 8.90625 10.1822 8.90625C10.5551 8.90625 10.9128 8.75809 11.1765 8.49437C11.4403 8.23065 11.5884 7.87296 11.5884 7.5C11.5884 7.12704 11.4403 6.76935 11.1765 6.50563C10.9128 6.24191 10.5551 6.09375 10.1822 6.09375C9.80921 6.09375 9.45152 6.24191 9.1878 6.50563C8.92408 6.76935 8.77592 7.12704 8.77592 7.5ZM10.1822 10.3125C9.43625 10.3125 8.72088 10.0162 8.19343 9.48874C7.66599 8.96129 7.36967 8.24592 7.36967 7.5C7.36967 6.75408 7.66599 6.03871 8.19343 5.51126C8.72088 4.98382 9.43625 4.6875 10.1822 4.6875C10.9281 4.6875 11.6435 4.98382 12.1709 5.51126C12.6984 6.03871 12.9947 6.75408 12.9947 7.5C12.9947 8.24592 12.6984 8.96129 12.1709 9.48874C11.6435 10.0162 10.9281 10.3125 10.1822 10.3125Z"
        fill="currentColor" />
</svg>