<svg width="20" height="20" viewBox="0 0 20 20" fill="none" xmlns="http://www.w3.org/2000/svg">
    <path
        d="M8.57143 2.14286C8.57143 0.959821 7.61161 0 6.42857 0H2.14286C0.959821 0 0 0.959821 0 2.14286V6.42857C0 7.61161 0.959821 8.57143 2.14286 8.57143H6.42857C7.61161 8.57143 8.57143 7.61161 8.57143 6.42857V2.14286ZM8.57143 13.5714C8.57143 12.3884 7.61161 11.4286 6.42857 11.4286H2.14286C0.959821 11.4286 0 12.3884 0 13.5714V17.8571C0 19.0402 0.959821 20 2.14286 20H6.42857C7.61161 20 8.57143 19.0402 8.57143 17.8571V13.5714ZM11.4286 2.14286V6.42857C11.4286 7.61161 12.3884 8.57143 13.5714 8.57143H17.8571C19.0402 8.57143 20 7.61161 20 6.42857V2.14286C20 0.959821 19.0402 0 17.8571 0H13.5714C12.3884 0 11.4286 0.959821 11.4286 2.14286ZM20 13.5714C20 12.3884 19.0402 11.4286 17.8571 11.4286H13.5714C12.3884 11.4286 11.4286 12.3884 11.4286 13.5714V17.8571C11.4286 19.0402 12.3884 20 13.5714 20H17.8571C19.0402 20 20 19.0402 20 17.8571V13.5714Z"
        fill="white" />
</svg>