<svg width="20" height="20" viewBox="0 0 20 20" fill="none" xmlns="http://www.w3.org/2000/svg">
    <path
        d="M1 10.25C1 7.86305 1.94821 5.57387 3.63604 3.88604C5.32387 2.19821 7.61305 1.25 10 1.25C12.3869 1.25 14.6761 2.19821 16.364 3.88604C18.0518 5.57387 19 7.86305 19 10.25C19 12.6369 18.0518 14.9261 16.364 16.614C14.6761 18.3018 12.3869 19.25 10 19.25C7.61305 19.25 5.32387 18.3018 3.63604 16.614C1.94821 14.9261 1 12.6369 1 10.25ZM7.61992 6.42148C7.35273 6.56914 7.1875 6.85391 7.1875 7.15625V13.3438C7.1875 13.6496 7.35273 13.9309 7.61992 14.0785C7.88711 14.2262 8.21055 14.2227 8.47422 14.0609L13.5367 10.9672C13.7863 10.8125 13.941 10.5418 13.941 10.2465C13.941 9.95117 13.7863 9.68047 13.5367 9.52578L8.47422 6.43203C8.21406 6.27383 7.88711 6.2668 7.61992 6.41445V6.42148Z"
        fill="white" />
</svg>