<svg width="20" height="15" viewBox="0 0 20 15" fill="none" xmlns="http://www.w3.org/2000/svg">
    <path
        d="M4.25 4.25C4.25 3.45435 4.56607 2.69129 5.12868 2.12868C5.69129 1.56607 6.45435 1.25 7.25 1.25C8.04565 1.25 8.80871 1.56607 9.37132 2.12868C9.93393 2.69129 10.25 3.45435 10.25 4.25C10.25 5.04565 9.93393 5.80871 9.37132 6.37132C8.80871 6.93393 8.04565 7.25 7.25 7.25C6.45435 7.25 5.69129 6.93393 5.12868 6.37132C4.56607 5.80871 4.25 5.04565 4.25 4.25ZM2 12.5539C2 10.2453 3.87031 8.375 6.17891 8.375H8.32109C10.6297 8.375 12.5 10.2453 12.5 12.5539C12.5 12.9383 12.1883 13.25 11.8039 13.25H2.69609C2.31172 13.25 2 12.9383 2 12.5539ZM16.2805 13.25H13.0484C13.175 13.0297 13.25 12.7742 13.25 12.5V12.3125C13.25 10.8898 12.6148 9.6125 11.6141 8.75469C11.6703 8.75234 11.7242 8.75 11.7805 8.75H13.2195C15.3078 8.75 17 10.4422 17 12.5305C17 12.9289 16.6766 13.25 16.2805 13.25ZM12.125 7.25C11.3984 7.25 10.7422 6.95469 10.2664 6.47891C10.7281 5.85547 11 5.08437 11 4.25C11 3.62188 10.8453 3.02891 10.5711 2.50859C11.007 2.18984 11.5437 2 12.125 2C13.5758 2 14.75 3.17422 14.75 4.625C14.75 6.07578 13.5758 7.25 12.125 7.25Z"
        fill="#AEAEAE" />
</svg>